<svg id="Layer_1" data-name="Layer 1" xmlns="http://www.w3.org/2000/svg" viewBox="0 0 1113.36 1645.98"><defs><style>.cls-1{fill:#fff;}.cls-1,.cls-2,.cls-3{stroke:#000;stroke-width:16.47px;}.cls-2{fill:#ffd1d2;}.cls-3{fill:#fd5257;}</style></defs><path class="cls-1" d="M302.45,928.09v562.57A134.37,134.37,0,0,1,168.08,1625h0A134.37,134.37,0,0,1,33.7,1490.66V928.09A134.37,134.37,0,0,1,168.08,793.71h0A134.37,134.37,0,0,1,302.45,928.09Z"/><path class="cls-2" d="M691.09,584.93V1490a134.38,134.38,0,0,1-134.38,134.37h0A134.37,134.37,0,0,1,422.34,1490V584.93A134.37,134.37,0,0,1,556.71,450.55h0A134.38,134.38,0,0,1,691.09,584.93Z"/><path class="cls-3" d="M1079.66,155.32v1334a134.37,134.37,0,0,1-134.37,134.38h0a134.37,134.37,0,0,1-134.38-134.38v-1334A134.37,134.37,0,0,1,945.29,21h0A134.37,134.37,0,0,1,1079.66,155.32Z"/></svg>