<svg xmlns="http://www.w3.org/2000/svg" width="1808" height="1828" fill="none"><path fill="#FD5257" d="m1807.69 783.522-447.09 130.03 447.09 129.978-465.6-1.32 392.4 250.86-446.33-132.55 305.89 351.29-390.97-253.05 194.64 423.3-303.92-352.99 67.56 460.99-192.232-424.39-64.935 461.43-64.935-461.43-192.23 424.39 67.562-460.99-303.867 352.99 194.584-423.3-390.976 253.05 305.894-351.29-446.33 132.55 392.4-250.86-465.602 1.32 447.096-129.978L.693 783.522l465.602 1.315-392.4-250.799 446.33 132.55-305.894-351.294L605.307 568.34 410.723 145.044 714.59 498.037l-67.562-461.05 192.23 424.446L904.193 0l64.935 461.433L1161.36 36.987l-67.56 461.05 303.92-352.993-194.64 423.296 390.97-253.046-305.89 351.294 446.33-132.55-392.4 250.799 465.6-1.315z"/></svg>