<svg id="Layer_1" viewBox="0 0 512 512" xmlns="http://www.w3.org/2000/svg" data-name="Layer 1"><path d="m482.083 195.459h-43.439c-1.084-2.581-2.762-4.897-5.012-6.787-4.142-3.48-9.359-4.883-14.686-3.953l-14.312 2.502c-2.458-13.659-14.43-24.054-28.786-24.054s-26.328 10.396-28.786 24.054l-14.313-2.502c-5.327-.931-10.543.473-14.685 3.953-2.249 1.89-3.927 4.206-5.012 6.787h-43.439c-14.288 0-25.913 11.625-25.913 25.913v63.233c-1.257-1.076-2.864-1.689-4.549-1.689h-91.114c-3.168 0-5.941 2.128-6.762 5.188l-2.239 8.355c-1.855-.133-3.717-.163-5.58-.087-7.481-4.537-8.545-8.964-8.545-12.74v-7c20.04-15.386 30.997-43.75 30.15-69.887-.548-16.934-5.799-31.632-15.185-42.506-10.76-12.466-26.442-19.056-45.353-19.056s-34.593 6.589-45.353 19.056c-9.386 10.874-14.636 25.572-15.185 42.506-.847 26.137 10.11 54.5 30.15 69.886v7c0 3.775-1.063 8.202-8.544 12.74-17.062-.699-33.383 7.464-43.034 21.671-10.077 14.836-11.348 34.014-3.318 50.051.187.373.406.728.656 1.062l3.611 4.822 6.509 127.379c.19 3.722 3.264 6.643 6.991 6.643h142.194c3.866 0 7-3.134 7-7v-70.741h27.223c3.168 0 5.941-2.128 6.761-5.188l33.518-125.087v182.104c0 14.288 11.625 25.912 25.913 25.912h212.469c14.288 0 25.913-11.624 25.913-25.912v-260.715c0-14.289-11.625-25.913-25.913-25.913zm-434.102 11.742c.365-11.264 4.8-48.015 46.545-48.015s46.18 36.751 46.544 48.015c.514 15.857-4.003 32.221-12.394 44.895-6.168 9.318-17.084 20.642-34.15 21.933-17.066-1.292-27.982-12.615-34.151-21.933-8.39-12.674-12.908-29.038-12.394-44.895zm46.092 80.831c.151.01.302.015.453.015s.302-.005.453-.015c5.672-.368 10.997-1.584 15.954-3.499.211 7.023 2.893 13.119 8.016 18.216-17.09 7.415-37.321 4.891-49.037.186 5.246-5.135 7.992-11.293 8.205-18.402 4.958 1.915 10.282 3.131 15.954 3.499zm-69.93 37.878c6.844-10.076 18.369-15.905 30.455-15.559 8.133 6.136 23.479 11.173 40.271 11.173 13.143 0 27.155-3.098 39.249-11.151.401-.015.801-.036 1.202-.037l-16.396 61.189-27.203 17.458-17.92-34.879c-1.768-3.439-5.988-4.796-9.425-3.027-3.439 1.767-4.794 5.986-3.027 9.425l21.442 41.734c.901 1.755 2.502 3.048 4.408 3.561 1.905.513 3.938.198 5.599-.869l38.092-24.447c3.445-2.21 7.593-2.194 11.094.043 2.829 1.808 5.611 5.487 4.935 10.39-.407 2.949-1.717 5.14-4.122 6.895l-43.585 31.812c-9.463 6.905-22.873 4.896-29.894-4.48l-47.819-63.851c-5.47-11.397-4.475-24.897 2.645-35.378zm138.057 168.09h-128.538l-5.107-99.933 29.556 39.464c6.941 9.269 17.661 14.177 28.501 14.176 7.265 0 14.583-2.205 20.852-6.779l14.618-10.669h40.118zm35.852-77.741h-56.788l9.786-7.143c5.447-3.976 8.813-9.608 9.736-16.289 1.323-9.58-2.993-18.815-11.263-24.101-4.414-2.821-9.398-4.097-14.322-3.854l18.209-67.958h76.621l-31.979 119.344zm241.688-187.774h35.231v246.488h-198.242v-246.487h35.229c.887 2.848 3.544 4.916 6.684 4.916h114.414c3.14 0 5.797-2.067 6.684-4.916zm-114.097-26.027c0-1.292.44-2.238 1.429-3.068.989-.831 1.998-1.104 3.269-.88l22.056 3.856c2.038.354 4.126-.207 5.709-1.537s2.497-3.292 2.497-5.359v-3.056c0-8.408 6.84-15.248 15.248-15.248s15.248 6.84 15.248 15.248v3.056c0 2.067.914 4.029 2.497 5.359 1.582 1.33 3.67 1.89 5.709 1.537l22.055-3.856c1.271-.222 2.281.049 3.271.881.988.83 1.428 1.776 1.428 3.067v16.942h-100.414v-16.942zm168.354 279.629c0 6.568-5.344 11.912-11.913 11.912h-212.469c-6.568 0-11.913-5.344-11.913-11.912v-260.715c0-6.569 5.344-11.913 11.913-11.913h42.028v5.027h-41.914c-3.866 0-7 3.134-7 7v260.488c0 3.866 3.134 7 7 7h212.242c3.866 0 7-3.134 7-7v-260.488c0-3.866-3.134-7-7-7h-41.915v-5.027h42.028c6.569 0 11.913 5.344 11.913 11.913v260.716zm-145.855-148.831c2.734 2.734 2.734 7.166 0 9.899l-27.044 27.043c-1.321 1.321-3.105 2.05-4.949 2.05-.304 0-.609-.02-.914-.06-2.158-.284-4.061-1.555-5.148-3.44l-7.213-12.493c-1.933-3.348-.786-7.629 2.562-9.562 3.347-1.933 7.629-.786 9.562 2.562l2.652 4.593 20.593-20.593c2.734-2.733 7.167-2.734 9.899 0zm0 74.331c2.734 2.734 2.734 7.166 0 9.899l-27.044 27.043c-1.321 1.321-3.105 2.05-4.949 2.05-.304 0-.609-.02-.914-.06-2.158-.284-4.061-1.555-5.148-3.44l-7.213-12.493c-1.933-3.348-.786-7.629 2.562-9.562 3.347-1.933 7.629-.786 9.562 2.562l2.652 4.593 20.593-20.593c2.734-2.733 7.167-2.734 9.899 0zm18.108-116.729c0-3.866 3.134-7 7-7h69.053c3.866 0 7 3.134 7 7s-3.134 7-7 7h-69.053c-3.866 0-7-3.134-7-7zm0-26.922c0-3.866 3.134-7 7-7h69.513c3.866 0 7 3.134 7 7s-3.134 7-7 7h-69.513c-3.866 0-7-3.134-7-7zm0 101.252c0-3.866 3.134-7 7-7h69.053c3.866 0 7 3.134 7 7s-3.134 7-7 7h-69.053c-3.866 0-7-3.134-7-7zm0-26.922c0-3.866 3.134-7 7-7h69.053c3.866 0 7 3.134 7 7s-3.134 7-7 7h-69.053c-3.866 0-7-3.134-7-7zm0 74.331c0-3.866 3.134-7 7-7h69.053c3.866 0 7 3.134 7 7s-3.134 7-7 7h-69.053c-3.866 0-7-3.134-7-7zm0 26.922c0-3.866 3.134-7 7-7h69.053c3.866 0 7 3.134 7 7s-3.134 7-7 7h-69.053c-3.866 0-7-3.134-7-7zm-48.601-160 20.593-20.593c2.734-2.733 7.167-2.733 9.899 0 2.734 2.734 2.734 7.166 0 9.899l-27.044 27.043c-1.321 1.321-3.105 2.05-4.949 2.05-.304 0-.609-.02-.914-.06-2.158-.284-4.061-1.555-5.148-3.44l-7.213-12.493c-1.933-3.348-.786-7.629 2.562-9.562 3.347-1.934 7.629-.786 9.562 2.562l2.652 4.593zm-286.313-189.52 8.759 1.728 2.587 6.238-4.974 7.417c-1.862 2.777-1.5 6.484.864 8.849l14.56 14.56c2.363 2.364 6.071 2.726 8.848.864l7.418-4.974 6.238 2.587 1.727 8.758c.647 3.281 3.524 5.646 6.868 5.646h20.591c3.344 0 6.221-2.365 6.868-5.646l1.727-8.758 6.238-2.587 7.418 4.974c2.778 1.862 6.484 1.5 8.848-.864l14.56-14.56c2.365-2.364 2.727-6.071.864-8.849l-4.974-7.417 2.587-6.238 8.759-1.728c3.28-.647 5.646-3.524 5.646-6.868v-20.591c0-3.344-2.365-6.221-5.646-6.868l-8.759-1.728-2.587-6.238 4.974-7.417c1.863-2.777 1.501-6.484-.864-8.849l-14.56-14.56c-2.365-2.364-6.072-2.727-8.848-.864l-7.418 4.974-6.238-2.587-1.727-8.758c-.647-3.281-3.524-5.646-6.868-5.646h-20.591c-3.344 0-6.221 2.365-6.868 5.646l-1.727 8.758-6.238 2.587-7.418-4.974c-2.778-1.862-6.484-1.5-8.848.864l-14.56 14.56c-2.365 2.364-2.727 6.071-.864 8.849l4.974 7.417-2.587 6.238-8.759 1.728c-3.281.647-5.646 3.524-5.646 6.868v20.591c0 3.344 2.365 6.221 5.646 6.868zm8.354-21.704 6.789-1.339c2.296-.453 4.214-2.023 5.111-4.186l5.46-13.164c.898-2.165.653-4.635-.652-6.581l-3.858-5.753 6.422-6.422 5.754 3.859c1.946 1.305 4.416 1.55 6.581.652l13.164-5.46c2.162-.897 3.733-2.815 4.186-5.112l1.338-6.789h9.083l1.338 6.789c.453 2.297 2.023 4.215 4.186 5.112l13.164 5.46c2.165.898 4.636.653 6.581-.652l5.753-3.859 6.422 6.422-3.858 5.753c-1.305 1.946-1.55 4.417-.652 6.581l5.46 13.164c.897 2.162 2.815 3.733 5.111 4.186l6.789 1.339v9.082l-6.789 1.339c-2.296.453-4.214 2.023-5.111 4.186l-5.46 13.164c-.898 2.165-.653 4.635.652 6.581l3.858 5.753-6.422 6.422-5.753-3.859c-1.947-1.305-4.416-1.55-6.581-.652l-13.164 5.46c-2.162.897-3.733 2.815-4.186 5.112l-1.338 6.789h-9.083l-1.338-6.789c-.453-2.297-2.023-4.215-4.186-5.112l-13.164-5.46c-2.164-.897-4.635-.652-6.581.652l-5.754 3.859-6.422-6.422 3.858-5.753c1.305-1.946 1.55-4.417.652-6.581l-5.46-13.164c-.897-2.162-2.815-3.733-5.111-4.186l-6.789-1.339zm54.836 40.464c19.809 0 35.924-16.115 35.924-35.923s-16.115-35.923-35.924-35.923-35.923 16.115-35.923 35.923 16.115 35.923 35.923 35.923zm0-57.847c12.089 0 21.924 9.835 21.924 21.923s-9.835 21.923-21.924 21.923-21.923-9.835-21.923-21.923 9.835-21.923 21.923-21.923zm186.214 37.314c-2.361-3.061-1.794-7.457 1.267-9.818l47.556-36.687c1.858-1.432 4.309-1.838 6.528-1.085l53.421 18.153 52.875-40.79h-2.15c-3.866 0-7-3.134-7-7s3.134-7 7-7h22.572c2.139-.024 4.253.906 5.655 2.724 1.089 1.411 1.555 3.105 1.441 4.752-.019.281-.055.561-.108.84-.02.103-.042.206-.065.308l-4.892 21.101c-.873 3.767-4.63 6.112-8.4 5.239-3.766-.873-6.111-4.634-5.238-8.4l.475-2.048-56.585 43.652c-1.857 1.433-4.307 1.84-6.528 1.085l-53.421-18.153-44.583 34.393c-1.273.982-2.778 1.458-4.271 1.458-2.096 0-4.168-.937-5.547-2.725zm-2.075 66.413h28.006c3.866 0 7-3.134 7-7v-35.851c0-3.866-3.134-7-7-7h-28.006c-3.866 0-7 3.134-7 7v35.851c0 3.866 3.134 7 7 7zm7-35.851h14.006v21.851h-14.006zm48.454-45.089c-3.866 0-7 3.134-7 7v66.939c0 3.866 3.134 7 7 7h28.006c3.866 0 7-3.134 7-7v-66.937c0-3.866-3.134-7-7-7h-28.006zm21.006 66.939h-14.006v-52.939h14.006zm34.447-51.256c-3.866 0-7 3.134-7 7v51.256c0 3.866 3.134 7 7 7h28.006c3.866 0 7-3.134 7-7v-51.256c0-3.866-3.134-7-7-7zm21.006 51.256h-14.006v-37.256h14.006zm27.448-86.266v93.266c0 3.866 3.134 7 7 7h28.006c3.866 0 7-3.134 7-7v-93.263c0-3.866-3.134-7-7-7h-28.006c-3.866 0-7 3.134-7 7zm14 7h14.006v79.266h-14.006v-79.263zm-277.81 11.462c0-3.866 3.134-7 7-7h42.631l-1.554-1.152c-3.105-2.302-3.757-6.687-1.454-9.792 2.303-3.106 6.688-3.756 9.792-1.454l18.579 13.775c1.781 1.32 2.831 3.406 2.831 5.623s-1.05 4.303-2.831 5.623l-18.579 13.774c-1.253.929-2.715 1.377-4.164 1.377-2.142 0-4.255-.979-5.628-2.832-2.303-3.105-1.651-7.49 1.454-9.792l1.553-1.151h-42.63c-3.866 0-7-3.134-7-7z"/></svg>