<svg xmlns="http://www.w3.org/2000/svg" width="1920" height="1080" fill="none"><g clip-path="url(#a)"><path fill="#F4FDEA" d="M0 0h1920v1080H0z"/><path fill="#FD5257" d="M1512 63h347v953h-347z"/><path fill="#000" d="M1007.66 487.007h104.079v104.079H1007.66z"/><path fill="#fff" d="M1060.02 511.572c-15.35 0-27.79 12.445-27.79 27.797 0 15.351 12.44 27.796 27.79 27.796 15.36 0 27.8-12.445 27.8-27.796 0-15.352-12.44-27.797-27.8-27.797zm0 8.312c5.08 0 9.2 4.117 9.2 9.194 0 5.078-4.12 9.194-9.2 9.194-5.07 0-9.19-4.116-9.19-9.194 0-5.077 4.12-9.194 9.19-9.194zm0 40.013c-5.07 0-9.71-1.845-13.29-4.898a3.92 3.92 0 0 1-1.37-2.978c0-5.149 4.17-9.27 9.32-9.27h10.69c5.16 0 9.31 4.121 9.31 9.27 0 1.145-.5 2.233-1.38 2.977a20.382 20.382 0 0 1-13.28 4.899z"/><path fill="#000" d="M875.784 487.007h104.079v104.079H875.784z"/><path fill="#fff" d="M928.147 511.572c-15.35 0-27.797 12.445-27.797 27.797 0 15.351 12.445 27.796 27.797 27.796 15.353 0 27.798-12.445 27.798-27.796 0-15.352-12.445-27.797-27.798-27.797zm0 8.312a9.194 9.194 0 1 1 .001 18.389 9.194 9.194 0 0 1-.001-18.389zm-.006 40.013a20.405 20.405 0 0 1-13.285-4.898 3.92 3.92 0 0 1-1.374-2.978c0-5.149 4.167-9.27 9.317-9.27h10.699c5.151 0 9.302 4.121 9.302 9.27a3.91 3.91 0 0 1-1.373 2.977 20.4 20.4 0 0 1-13.286 4.899z"/><path fill="#000" d="M491.792 311.818h104.079v104.079H491.792z"/><path fill="#fff" d="M544.154 336.384c-15.35 0-27.797 12.444-27.797 27.796 0 15.352 12.446 27.796 27.797 27.796 15.353 0 27.798-12.444 27.798-27.796 0-15.352-12.445-27.796-27.798-27.796zm0 8.311a9.195 9.195 0 1 1-9.193 9.194c0-5.077 4.116-9.194 9.193-9.194zm-.006 40.014a20.398 20.398 0 0 1-13.284-4.899 3.918 3.918 0 0 1-1.375-2.978c0-5.149 4.167-9.27 9.317-9.27h10.699c5.151 0 9.303 4.121 9.303 9.27a3.91 3.91 0 0 1-1.374 2.977 20.393 20.393 0 0 1-13.286 4.9z"/><path fill="#000" d="M607.507 348.02h104.079v104.079H607.507z"/><path fill="#fff" d="M659.869 372.585c-15.35 0-27.797 12.445-27.797 27.796 0 15.352 12.446 27.797 27.797 27.797 15.353 0 27.798-12.445 27.798-27.797 0-15.351-12.445-27.796-27.798-27.796zm0 8.311a9.196 9.196 0 1 1 0 18.391 9.196 9.196 0 0 1 0-18.391zm-.006 40.014a20.396 20.396 0 0 1-13.284-4.899 3.917 3.917 0 0 1-1.375-2.978c0-5.149 4.167-9.269 9.317-9.269h10.699c5.151 0 9.303 4.12 9.303 9.269a3.907 3.907 0 0 1-1.374 2.977 20.395 20.395 0 0 1-13.286 4.9z"/><path fill="#000" d="M491.792 452.099h104.079v104.079H491.792z"/><path fill="#fff" d="M544.154 476.664c-15.35 0-27.797 12.444-27.797 27.796 0 15.352 12.446 27.796 27.797 27.796 15.353 0 27.798-12.444 27.798-27.796 0-15.352-12.445-27.796-27.798-27.796zm0 8.311a9.196 9.196 0 1 1 0 18.391 9.196 9.196 0 0 1 0-18.391zm-.006 40.014a20.398 20.398 0 0 1-13.284-4.899 3.917 3.917 0 0 1-1.375-2.978c0-5.149 4.167-9.27 9.317-9.27h10.699c5.151 0 9.303 4.121 9.303 9.27a3.909 3.909 0 0 1-1.374 2.977 20.393 20.393 0 0 1-13.286 4.9z"/><path fill="#000" d="M619.789 469.553h104.079v104.079H619.789z"/><path fill="#fff" d="M672.152 494.118c-15.351 0-27.798 12.445-27.798 27.796 0 15.352 12.446 27.797 27.798 27.797 15.353 0 27.797-12.445 27.797-27.797 0-15.351-12.444-27.796-27.797-27.796zm0 8.312a9.194 9.194 0 1 1 .001 18.389 9.194 9.194 0 0 1-.001-18.389zm-.006 40.013a20.405 20.405 0 0 1-13.285-4.898 3.919 3.919 0 0 1-1.375-2.979c0-5.149 4.168-9.269 9.318-9.269h10.698c5.152 0 9.303 4.12 9.303 9.269 0 1.146-.5 2.234-1.373 2.977a20.395 20.395 0 0 1-13.286 4.9z"/><path fill="#000" d="M723.221 340.262H827.3v104.079H723.221z"/><path fill="#fff" d="M775.584 364.828c-15.35 0-27.797 12.444-27.797 27.796 0 15.351 12.446 27.796 27.797 27.796 15.353 0 27.798-12.445 27.798-27.796 0-15.352-12.445-27.796-27.798-27.796zm0 8.311a9.195 9.195 0 1 1-9.193 9.194c0-5.077 4.116-9.194 9.193-9.194zm-.006 40.014a20.396 20.396 0 0 1-13.284-4.899 3.918 3.918 0 0 1-1.375-2.978c0-5.149 4.167-9.27 9.317-9.27h10.699c5.151 0 9.303 4.121 9.303 9.27a3.91 3.91 0 0 1-1.374 2.977 20.395 20.395 0 0 1-13.286 4.9z"/><path fill="#000" d="M737.444 494.118h104.079v104.079H737.444z"/><path fill="#fff" d="M789.806 518.683c-15.35 0-27.797 12.445-27.797 27.797 0 15.351 12.446 27.796 27.797 27.796 15.353 0 27.798-12.445 27.798-27.796 0-15.352-12.445-27.797-27.798-27.797zm0 8.312a9.195 9.195 0 1 1-9.193 9.194c0-5.077 4.116-9.194 9.193-9.194zm-.006 40.013a20.4 20.4 0 0 1-13.284-4.898 3.918 3.918 0 0 1-1.375-2.978c0-5.149 4.167-9.27 9.317-9.27h10.699c5.151 0 9.303 4.121 9.303 9.27a3.907 3.907 0 0 1-1.374 2.976 20.395 20.395 0 0 1-13.286 4.9z"/><path fill="#000" d="M540.275 591.086h104.079v104.079H540.275z"/><path fill="#fff" d="M592.638 615.651c-15.35 0-27.797 12.445-27.797 27.796 0 15.352 12.445 27.797 27.797 27.797 15.353 0 27.798-12.445 27.798-27.797 0-15.351-12.445-27.796-27.798-27.796zm0 8.312a9.194 9.194 0 1 1 .001 18.389 9.194 9.194 0 0 1-.001-18.389zm-.006 40.013a20.405 20.405 0 0 1-13.285-4.898 3.92 3.92 0 0 1-1.374-2.978c0-5.149 4.167-9.27 9.317-9.27h10.699c5.151 0 9.302 4.121 9.302 9.27 0 1.145-.5 2.233-1.373 2.976a20.395 20.395 0 0 1-13.286 4.9z"/><path fill="#000" d="M803.382 629.227h104.079v104.079H803.382z"/><path fill="#fff" d="M855.744 653.792c-15.35 0-27.797 12.445-27.797 27.796 0 15.352 12.446 27.796 27.797 27.796 15.353 0 27.798-12.444 27.798-27.796 0-15.351-12.445-27.796-27.798-27.796zm0 8.311a9.196 9.196 0 1 1 0 18.391 9.196 9.196 0 0 1 0-18.391zm-.006 40.014a20.396 20.396 0 0 1-13.284-4.899 3.917 3.917 0 0 1-1.375-2.978c0-5.149 4.167-9.27 9.317-9.27h10.699c5.151 0 9.303 4.121 9.303 9.27a3.907 3.907 0 0 1-1.374 2.977 20.395 20.395 0 0 1-13.286 4.9z"/><path fill="#000" d="M851.866 363.535h104.079v104.079H851.866z"/><path fill="#fff" d="M904.228 388.1c-15.35 0-27.797 12.444-27.797 27.796 0 15.352 12.446 27.796 27.797 27.796 15.353 0 27.798-12.444 27.798-27.796 0-15.352-12.445-27.796-27.798-27.796zm0 8.311a9.195 9.195 0 1 1-9.193 9.194c0-5.077 4.116-9.194 9.193-9.194zm-.006 40.014a20.396 20.396 0 0 1-13.284-4.899 3.917 3.917 0 0 1-1.375-2.978c0-5.149 4.167-9.27 9.317-9.27h10.699c5.151 0 9.303 4.121 9.303 9.27a3.91 3.91 0 0 1-1.374 2.977 20.393 20.393 0 0 1-13.286 4.9z"/><path fill="#000" d="M855.098 232.305h104.079v104.079H855.098z"/><path fill="#fff" d="M907.461 256.87c-15.351 0-27.798 12.445-27.798 27.796 0 15.352 12.446 27.796 27.798 27.796 15.353 0 27.797-12.444 27.797-27.796 0-15.351-12.444-27.796-27.797-27.796zm0 8.311a9.195 9.195 0 0 1 0 18.389 9.193 9.193 0 0 1-9.193-9.194c0-5.077 4.116-9.195 9.193-9.195zm-.007 40.014a20.398 20.398 0 0 1-13.284-4.899 3.917 3.917 0 0 1-1.375-2.978c0-5.149 4.167-9.27 9.318-9.27h10.698c5.151 0 9.303 4.121 9.303 9.27a3.907 3.907 0 0 1-1.374 2.977 20.391 20.391 0 0 1-13.286 4.9z"/><path fill="#000" d="M979.863 336.384h104.079v104.079H979.863z"/><path fill="#fff" d="M1032.23 360.949c-15.35 0-27.8 12.444-27.8 27.796 0 15.352 12.44 27.796 27.8 27.796 15.35 0 27.79-12.444 27.79-27.796 0-15.352-12.44-27.796-27.79-27.796zm0 8.311c5.08 0 9.19 4.117 9.19 9.194 0 5.079-4.11 9.195-9.19 9.195-5.08 0-9.2-4.116-9.2-9.195 0-5.077 4.12-9.194 9.2-9.194zm-.01 40.014c-5.07 0-9.71-1.845-13.28-4.899a3.895 3.895 0 0 1-1.38-2.978c0-5.149 4.17-9.27 9.32-9.27h10.7c5.15 0 9.3 4.121 9.3 9.27 0 1.145-.5 2.233-1.37 2.977a20.404 20.404 0 0 1-13.29 4.9z"/><path fill="#000" d="M935.258 618.237h104.079v104.079H935.258z"/><path fill="#fff" d="M987.621 642.802c-15.351 0-27.798 12.445-27.798 27.796 0 15.352 12.446 27.797 27.798 27.797 15.349 0 27.799-12.445 27.799-27.797 0-15.351-12.45-27.796-27.799-27.796zm0 8.312a9.194 9.194 0 1 1 .001 18.389 9.194 9.194 0 0 1-.001-18.389zm-.006 40.013a20.405 20.405 0 0 1-13.285-4.898 3.918 3.918 0 0 1-1.375-2.978c0-5.149 4.167-9.27 9.318-9.27h10.698c5.152 0 9.299 4.121 9.299 9.27 0 1.145-.5 2.233-1.37 2.976a20.39 20.39 0 0 1-13.285 4.9z"/><path fill="#000" d="M1066.49 619.53h104.079v104.079H1066.49z"/><path fill="#fff" d="M1118.85 644.095c-15.35 0-27.8 12.445-27.8 27.796 0 15.352 12.45 27.797 27.8 27.797 15.35 0 27.8-12.445 27.8-27.797 0-15.351-12.45-27.796-27.8-27.796zm0 8.312c5.08 0 9.2 4.117 9.2 9.194 0 5.078-4.12 9.194-9.2 9.194-5.08 0-9.19-4.116-9.19-9.194 0-5.077 4.11-9.194 9.19-9.194zm-.01 40.013c-5.06 0-9.7-1.845-13.28-4.898a3.92 3.92 0 0 1-1.37-2.978c0-5.149 4.16-9.27 9.31-9.27h10.7c5.15 0 9.3 4.121 9.3 9.27 0 1.145-.5 2.233-1.37 2.976a20.404 20.404 0 0 1-13.29 4.9z"/><path fill="#000" d="M1161.52 470.199h104.079v104.079H1161.52z"/><path fill="#fff" d="M1213.88 494.765c-15.35 0-27.8 12.444-27.8 27.796 0 15.352 12.45 27.796 27.8 27.796 15.35 0 27.8-12.444 27.8-27.796 0-15.352-12.45-27.796-27.8-27.796zm0 8.311c5.08 0 9.19 4.117 9.19 9.194 0 5.078-4.11 9.194-9.19 9.194-5.08 0-9.19-4.116-9.19-9.194 0-5.077 4.11-9.194 9.19-9.194zm-.01 40.014c-5.06 0-9.7-1.845-13.28-4.899a3.93 3.93 0 0 1-1.38-2.978c0-5.149 4.17-9.27 9.32-9.27h10.7c5.15 0 9.3 4.121 9.3 9.27 0 1.145-.5 2.233-1.37 2.977a20.404 20.404 0 0 1-13.29 4.9z"/><path fill="#FD5257" d="M1111.74 348.666h104.079v104.079H1111.74z"/><path fill="#fff" d="M1164.1 373.231c-15.35 0-27.8 12.445-27.8 27.797 0 15.351 12.45 27.796 27.8 27.796 15.36 0 27.8-12.445 27.8-27.796 0-15.352-12.44-27.797-27.8-27.797zm0 8.312c5.08 0 9.2 4.117 9.2 9.194 0 5.078-4.12 9.194-9.2 9.194-5.07 0-9.19-4.116-9.19-9.194 0-5.077 4.12-9.194 9.19-9.194zm0 40.013c-5.07 0-9.71-1.844-13.29-4.898a3.92 3.92 0 0 1-1.37-2.978c0-5.149 4.16-9.27 9.31-9.27h10.7c5.15 0 9.31 4.121 9.31 9.27 0 1.145-.5 2.233-1.38 2.977a20.396 20.396 0 0 1-13.28 4.899z"/><path fill="#000" d="M987.621 208.386H1091.7v104.079H987.621z"/><path fill="#fff" d="M1039.98 232.951c-15.35 0-27.79 12.445-27.79 27.796 0 15.352 12.44 27.797 27.79 27.797 15.36 0 27.8-12.445 27.8-27.797 0-15.351-12.44-27.796-27.8-27.796zm0 8.312c5.08 0 9.2 4.117 9.2 9.194 0 5.078-4.12 9.194-9.2 9.194-5.07 0-9.19-4.116-9.19-9.194 0-5.077 4.12-9.194 9.19-9.194zm0 40.013c-5.07 0-9.71-1.845-13.29-4.898a3.92 3.92 0 0 1-1.37-2.979c0-5.148 4.17-9.269 9.32-9.269h10.69c5.16 0 9.31 4.121 9.31 9.269a3.89 3.89 0 0 1-1.38 2.977 20.377 20.377 0 0 1-13.28 4.9z"/><path fill="#000" d="M1239.74 336.384h104.079v104.079H1239.74z"/><path fill="#fff" d="M1292.1 360.949c-15.35 0-27.8 12.444-27.8 27.796 0 15.352 12.45 27.796 27.8 27.796 15.35 0 27.8-12.444 27.8-27.796 0-15.352-12.45-27.796-27.8-27.796zm0 8.311c5.08 0 9.2 4.117 9.2 9.194 0 5.079-4.12 9.195-9.2 9.195-5.08 0-9.19-4.116-9.19-9.195 0-5.077 4.11-9.194 9.19-9.194zm-.01 40.014c-5.06 0-9.7-1.845-13.28-4.899a3.928 3.928 0 0 1-1.38-2.978c0-5.149 4.17-9.27 9.32-9.27h10.7c5.15 0 9.3 4.121 9.3 9.27 0 1.145-.5 2.233-1.37 2.977a20.404 20.404 0 0 1-13.29 4.9z"/><path fill="#000" d="M1299.86 487.654h104.079v104.079H1299.86z"/><path fill="#fff" d="M1352.22 512.219c-15.35 0-27.8 12.444-27.8 27.796 0 15.352 12.45 27.796 27.8 27.796 15.35 0 27.8-12.444 27.8-27.796 0-15.352-12.45-27.796-27.8-27.796zm0 8.311c5.08 0 9.2 4.117 9.2 9.194 0 5.079-4.12 9.195-9.2 9.195-5.08 0-9.19-4.116-9.19-9.195 0-5.077 4.11-9.194 9.19-9.194zm-.01 40.014c-5.06 0-9.7-1.845-13.28-4.899a3.928 3.928 0 0 1-1.38-2.978c0-5.149 4.17-9.27 9.32-9.27h10.7c5.15 0 9.3 4.121 9.3 9.27 0 1.145-.5 2.233-1.37 2.977a20.404 20.404 0 0 1-13.29 4.9z"/><path fill="#000" d="M1198.36 609.187h104.079v104.079H1198.36z"/><path fill="#fff" d="M1250.73 633.752c-15.35 0-27.8 12.444-27.8 27.796 0 15.352 12.45 27.796 27.8 27.796 15.35 0 27.79-12.444 27.79-27.796 0-15.352-12.44-27.796-27.79-27.796zm0 8.311c5.08 0 9.19 4.118 9.19 9.195 0 5.078-4.11 9.194-9.19 9.194-5.08 0-9.2-4.116-9.2-9.194 0-5.077 4.12-9.195 9.2-9.195zm-.01 40.014c-5.07 0-9.7-1.845-13.28-4.899a3.895 3.895 0 0 1-1.38-2.978c0-5.149 4.17-9.27 9.32-9.27h10.7c5.15 0 9.3 4.121 9.3 9.27 0 1.146-.5 2.234-1.37 2.977a20.404 20.404 0 0 1-13.29 4.9z"/><path fill="#000" d="M1327.65 618.237h104.079v104.079H1327.65z"/><path fill="#fff" d="M1380.02 642.802c-15.35 0-27.8 12.445-27.8 27.796 0 15.352 12.45 27.797 27.8 27.797 15.35 0 27.79-12.445 27.79-27.797 0-15.351-12.44-27.796-27.79-27.796zm0 8.312c5.08 0 9.19 4.117 9.19 9.194 0 5.078-4.11 9.194-9.19 9.194-5.08 0-9.2-4.116-9.2-9.194 0-5.077 4.12-9.194 9.2-9.194zm-.01 40.013c-5.06 0-9.7-1.845-13.28-4.898a3.896 3.896 0 0 1-1.38-2.978c0-5.149 4.17-9.27 9.32-9.27h10.7c5.15 0 9.3 4.121 9.3 9.27 0 1.145-.5 2.233-1.37 2.976a20.404 20.404 0 0 1-13.29 4.9z"/><path fill="#000" d="M1264.3 739.77h104.079v104.079H1264.3z"/><path fill="#fff" d="M1316.67 764.335c-15.36 0-27.8 12.445-27.8 27.797 0 15.351 12.44 27.796 27.8 27.796 15.35 0 27.79-12.445 27.79-27.796 0-15.352-12.44-27.797-27.79-27.797zm0 8.312c5.07 0 9.19 4.117 9.19 9.194 0 5.078-4.12 9.194-9.19 9.194-5.08 0-9.2-4.116-9.2-9.194 0-5.077 4.12-9.194 9.2-9.194zm-.01 40.013c-5.07 0-9.71-1.845-13.29-4.898a3.92 3.92 0 0 1-1.37-2.978c0-5.149 4.17-9.27 9.32-9.27h10.7c5.15 0 9.3 4.121 9.3 9.27 0 1.145-.5 2.233-1.37 2.976a20.404 20.404 0 0 1-13.29 4.9z"/><path fill="#000" d="M1139.54 753.346h104.079v104.079H1139.54z"/><path fill="#fff" d="M1191.9 777.911c-15.35 0-27.8 12.444-27.8 27.796 0 15.352 12.45 27.796 27.8 27.796 15.35 0 27.8-12.444 27.8-27.796 0-15.352-12.45-27.796-27.8-27.796zm0 8.311c5.08 0 9.2 4.118 9.2 9.194 0 5.079-4.12 9.195-9.2 9.195-5.08 0-9.19-4.116-9.19-9.195 0-5.076 4.11-9.194 9.19-9.194zm-.01 40.014c-5.06 0-9.7-1.845-13.28-4.899a3.928 3.928 0 0 1-1.38-2.978c0-5.149 4.17-9.27 9.32-9.27h10.7c5.15 0 9.3 4.121 9.3 9.27 0 1.146-.5 2.233-1.37 2.977a20.404 20.404 0 0 1-13.29 4.9z"/><path fill="#000" d="M627.547 753.346h104.079v104.079H627.547z"/><path fill="#fff" d="M679.909 777.911c-15.35 0-27.797 12.444-27.797 27.796 0 15.352 12.446 27.796 27.797 27.796 15.353 0 27.798-12.444 27.798-27.796 0-15.352-12.445-27.796-27.798-27.796zm0 8.311a9.194 9.194 0 1 1 0 18.389 9.194 9.194 0 0 1-9.193-9.195c0-5.076 4.116-9.194 9.193-9.194zm-.006 40.014a20.396 20.396 0 0 1-13.284-4.899 3.917 3.917 0 0 1-1.375-2.978c0-5.149 4.167-9.27 9.317-9.27h10.699c5.151 0 9.303 4.121 9.303 9.27a3.909 3.909 0 0 1-1.374 2.977 20.395 20.395 0 0 1-13.286 4.9z"/><path fill="#000" d="M487.266 729.427h104.079v104.079H487.266z"/><path fill="#fff" d="M539.629 753.992c-15.351 0-27.797 12.445-27.797 27.796 0 15.352 12.445 27.797 27.797 27.797 15.353 0 27.797-12.445 27.797-27.797 0-15.351-12.444-27.796-27.797-27.796zm0 8.311a9.195 9.195 0 0 1 0 18.389 9.193 9.193 0 0 1-9.193-9.194c0-5.077 4.116-9.195 9.193-9.195zm-.006 40.014a20.4 20.4 0 0 1-13.285-4.899 3.92 3.92 0 0 1-1.375-2.978c0-5.149 4.168-9.269 9.318-9.269h10.698c5.152 0 9.303 4.12 9.303 9.269 0 1.146-.5 2.234-1.373 2.977a20.395 20.395 0 0 1-13.286 4.9z"/><path fill="#000" d="M1019.94 741.063h104.079v104.079H1019.94z"/><path fill="#fff" d="M1072.31 765.628c-15.35 0-27.8 12.445-27.8 27.797 0 15.351 12.44 27.796 27.8 27.796 15.35 0 27.79-12.445 27.79-27.796 0-15.352-12.44-27.797-27.79-27.797zm0 8.312c5.08 0 9.19 4.117 9.19 9.194 0 5.078-4.11 9.194-9.19 9.194-5.08 0-9.2-4.116-9.2-9.194 0-5.077 4.12-9.194 9.2-9.194zm-.01 40.013c-5.07 0-9.71-1.845-13.28-4.898a3.896 3.896 0 0 1-1.38-2.978c0-5.149 4.17-9.27 9.32-9.27h10.7c5.15 0 9.3 4.121 9.3 9.27 0 1.145-.5 2.233-1.37 2.976a20.404 20.404 0 0 1-13.29 4.9z"/><path fill="#000" d="M879.663 760.457h104.079v104.079H879.663z"/><path fill="#fff" d="M932.026 785.022c-15.351 0-27.798 12.444-27.798 27.796 0 15.352 12.446 27.796 27.798 27.796 15.353 0 27.797-12.444 27.797-27.796 0-15.352-12.444-27.796-27.797-27.796zm0 8.311a9.194 9.194 0 1 1 .001 18.389 9.194 9.194 0 0 1-.001-18.389zm-.006 40.014a20.4 20.4 0 0 1-13.285-4.899 3.917 3.917 0 0 1-1.375-2.978c0-5.149 4.168-9.27 9.318-9.27h10.698c5.152 0 9.303 4.121 9.303 9.27a3.91 3.91 0 0 1-1.374 2.977 20.39 20.39 0 0 1-13.285 4.9z"/><path fill="#000" d="M752.312 766.921h104.079V871H752.312z"/><path fill="#fff" d="M804.675 791.486c-15.351 0-27.798 12.445-27.798 27.797 0 15.351 12.446 27.796 27.798 27.796 15.353 0 27.797-12.445 27.797-27.796 0-15.352-12.444-27.797-27.797-27.797zm0 8.312a9.194 9.194 0 1 1 .001 18.389 9.194 9.194 0 0 1-.001-18.389zm-.006 40.013a20.4 20.4 0 0 1-13.285-4.898 3.918 3.918 0 0 1-1.375-2.978c0-5.149 4.167-9.27 9.318-9.27h10.698c5.152 0 9.303 4.121 9.303 9.27a3.91 3.91 0 0 1-1.374 2.977 20.39 20.39 0 0 1-13.285 4.899z"/><path fill="#165EC9" d="M60 63h347v953H60z"/><path fill="#3874CF" d="M98 167h271v745H98z"/><path fill="#FF666A" d="M1550 167h271v745h-271z"/><path fill="#487ECF" d="M134 266h199v547H134z"/><path fill="#FF7276" d="M1586 266h199v547h-199z"/><path fill="#6093DE" d="M163 346h141v387H163z"/><path fill="#FF8488" d="M1615 346h141v387h-141z"/><path fill="#165EC9" d="M672.152 615.651h104.079V719.73H672.152z"/><path fill="#fff" d="M724.515 640.216c-15.351 0-27.798 12.445-27.798 27.797 0 15.351 12.446 27.796 27.798 27.796 15.352 0 27.797-12.445 27.797-27.796 0-15.352-12.445-27.797-27.797-27.797zm0 8.312a9.194 9.194 0 1 1 .001 18.389 9.194 9.194 0 0 1-.001-18.389zm-.007 40.013a20.403 20.403 0 0 1-13.284-4.898 3.918 3.918 0 0 1-1.375-2.978c0-5.149 4.167-9.27 9.317-9.27h10.699c5.151 0 9.303 4.121 9.303 9.27a3.907 3.907 0 0 1-1.374 2.976 20.391 20.391 0 0 1-13.286 4.9z"/><path stroke="url(#b)" stroke-width="38" d="m764 634 366.5-198.5"/></g><defs><linearGradient id="b" x1="1175.5" x2="721" y1="398" y2="660" gradientUnits="userSpaceOnUse"><stop stop-color="#FD5257"/><stop offset="1" stop-color="#165EC9"/></linearGradient><clipPath id="a"><path fill="#fff" d="M0 0h1920v1080H0z"/></clipPath></defs></svg>