<svg xmlns="http://www.w3.org/2000/svg" width="344" height="307" fill="none"><path fill="#202E2D" d="M0 0h344v67.373H0z"/><path fill="#fff" d="M25.427 44.118v-2.654h5.367c1.298 0 2.448-.207 3.45-.62 1.023-.432 1.888-1.022 2.596-1.77a7.439 7.439 0 0 0 1.652-2.624 9.232 9.232 0 0 0 .56-3.244c0-1.22-.187-2.32-.56-3.303a7.15 7.15 0 0 0-1.652-2.596c-.708-.747-1.573-1.317-2.595-1.71-1.003-.394-2.153-.59-3.45-.59h-5.368v-2.655h5.072c1.947 0 3.638.305 5.073.915 1.435.59 2.625 1.396 3.569 2.418a9.85 9.85 0 0 1 2.153 3.392c.472 1.238.707 2.507.707 3.804v.65c0 1.258-.235 2.516-.707 3.774a10.156 10.156 0 0 1-2.153 3.421c-.944 1.023-2.134 1.849-3.569 2.478-1.435.61-3.126.914-5.073.914h-5.072zm-2.3 0V22.352h2.89v21.766h-2.89zM55.273 44v-4.719h-.472v-5.456c0-1.081-.285-1.897-.856-2.448-.55-.55-1.366-.826-2.447-.826-.61 0-1.24.01-1.888.03l-1.858.059c-.59.02-1.101.049-1.534.088v-2.477c.433-.04.885-.069 1.357-.088.492-.04.993-.06 1.504-.06.511-.02 1.003-.029 1.475-.029 1.612 0 2.93.197 3.952.59 1.022.373 1.78.993 2.27 1.858.492.865.738 2.035.738 3.51V44h-2.242zm-5.162.413c-1.18 0-2.202-.197-3.067-.59a4.669 4.669 0 0 1-1.976-1.77c-.452-.766-.678-1.69-.678-2.772 0-1.12.246-2.054.737-2.802.511-.747 1.249-1.307 2.212-1.68.963-.394 2.123-.59 3.48-.59h4.277v2.123h-4.395c-1.14 0-2.015.275-2.625.826-.61.55-.914 1.258-.914 2.123 0 .865.305 1.563.914 2.094.61.531 1.485.797 2.625.797.669 0 1.308-.118 1.917-.354a3.398 3.398 0 0 0 1.504-1.24c.413-.589.64-1.395.679-2.418l.767 1.121c-.099 1.12-.374 2.065-.826 2.831a4.272 4.272 0 0 1-1.829 1.711c-.767.393-1.7.59-2.802.59zm18.439-.236c-1.18 0-2.202-.167-3.067-.501a3.9 3.9 0 0 1-1.976-1.711c-.453-.826-.679-1.937-.679-3.333V23.473h2.714v15.513c0 .846.226 1.504.678 1.976.472.452 1.13.679 1.976.679h2.772v2.536H68.55zm-8.435-13.803v-2.123H70.97v2.123H60.116zM84.147 44v-4.719h-.472v-5.456c0-1.081-.285-1.897-.855-2.448-.55-.55-1.366-.826-2.448-.826-.61 0-1.238.01-1.887.03l-1.858.059c-.59.02-1.101.049-1.534.088v-2.477c.433-.04.885-.069 1.357-.088.491-.04.993-.06 1.504-.06.511-.02 1.003-.029 1.475-.029 1.612 0 2.93.197 3.952.59 1.022.373 1.779.993 2.27 1.858.492.865.738 2.035.738 3.51V44h-2.242zm-5.16.413c-1.18 0-2.203-.197-3.068-.59a4.668 4.668 0 0 1-1.976-1.77c-.452-.766-.678-1.69-.678-2.772 0-1.12.245-2.054.737-2.802.511-.747 1.249-1.307 2.212-1.68.963-.394 2.123-.59 3.48-.59h4.276v2.123h-4.394c-1.14 0-2.015.275-2.625.826-.61.55-.914 1.258-.914 2.123 0 .865.305 1.563.914 2.094.61.531 1.485.797 2.625.797.669 0 1.308-.118 1.917-.354a3.398 3.398 0 0 0 1.504-1.24c.413-.589.64-1.395.678-2.418l.767 1.121c-.098 1.12-.373 2.065-.825 2.831a4.272 4.272 0 0 1-1.829 1.711c-.767.393-1.7.59-2.802.59zm21.432-.295v-2.536h6.017c1.16 0 2.055-.325 2.684-.974.649-.668.973-1.553.973-2.654 0-1.12-.315-1.996-.944-2.625-.629-.649-1.533-.973-2.713-.973h-6.017v-1.888h5.604c1.376 0 2.586.167 3.628.502 1.061.334 1.887.894 2.477 1.68.61.768.914 1.82.914 3.157v.412c0 1.259-.255 2.33-.767 3.215-.511.865-1.287 1.534-2.329 2.006-1.043.452-2.35.678-3.923.678h-5.604zm-2.3 0V22.352h2.89v21.766h-2.89zm2.3-10.293v-1.887h5.221c1.219 0 2.113-.325 2.683-.974.59-.668.885-1.514.885-2.536 0-1.042-.295-1.888-.885-2.536-.57-.669-1.464-1.003-2.683-1.003h-5.221v-2.537h4.719c2.36 0 4.119.502 5.279 1.505 1.16.983 1.74 2.408 1.74 4.276v.413c0 1.317-.294 2.37-.884 3.156-.59.766-1.416 1.317-2.478 1.651-1.042.315-2.261.472-3.657.472h-4.719zm22.494 10.647c-1.868 0-3.303-.61-4.306-1.829-1.003-1.219-1.504-2.978-1.504-5.279v-9.142h2.831v9.703c0 1.238.335 2.212 1.003 2.92.669.688 1.573 1.032 2.713 1.032 1.18 0 2.143-.374 2.891-1.121.747-.767 1.12-1.81 1.12-3.126v-9.41h2.832V44h-2.242v-6.754h.354c0 1.553-.206 2.87-.619 3.952-.413 1.062-1.032 1.878-1.858 2.448-.806.55-1.839.826-3.097.826h-.118zM136.448 44V28.251h2.831V44h-2.831zm-2.418-13.508v-2.241h5.249v2.241h-5.249zm3.214-4.777c-.629 0-1.101-.168-1.415-.502-.295-.334-.443-.757-.443-1.268s.148-.934.443-1.268c.314-.334.786-.502 1.415-.502.63 0 1.092.168 1.387.502.314.334.471.757.471 1.268s-.157.934-.471 1.268c-.295.334-.757.502-1.387.502zM144.636 44V22.47h2.831V44h-2.831zm-2.183-19.288V22.47h5.014v2.242h-5.014zm16.726 19.819c-1.12 0-2.153-.207-3.096-.62a7.546 7.546 0 0 1-2.478-1.74 8.392 8.392 0 0 1-1.622-2.595 8.905 8.905 0 0 1-.56-3.185v-.53c0-1.122.187-2.174.56-3.157a8.26 8.26 0 0 1 1.563-2.595 7.321 7.321 0 0 1 2.419-1.74c.944-.433 1.986-.649 3.126-.649 1.199 0 2.291.256 3.274.767.983.492 1.789 1.268 2.418 2.33.629 1.062.983 2.438 1.062 4.129l-1.18-1.888V22.47h2.831V44h-2.241v-6.99h.826c-.079 1.79-.453 3.244-1.121 4.365-.669 1.101-1.514 1.907-2.536 2.419a7.276 7.276 0 0 1-3.245.737zm.384-2.477c.963 0 1.838-.217 2.625-.65a4.896 4.896 0 0 0 1.887-1.857c.472-.826.708-1.79.708-2.89V35.3c0-1.082-.246-1.996-.737-2.743a4.553 4.553 0 0 0-1.917-1.74 5.5 5.5 0 0 0-2.596-.62c-1.042 0-1.966.246-2.772.738-.786.491-1.406 1.18-1.858 2.064-.433.885-.649 1.927-.649 3.127 0 1.199.226 2.25.679 3.155.452.885 1.081 1.573 1.887 2.065.806.472 1.72.708 2.743.708z"/><path fill="#2F4644" d="M0 79.875h344v67.373H0z"/><path fill="#fff" d="M25.427 124.118v-2.654h5.367c1.298 0 2.448-.207 3.45-.62 1.023-.432 1.888-1.022 2.596-1.769a7.437 7.437 0 0 0 1.652-2.625 9.232 9.232 0 0 0 .56-3.244c0-1.219-.187-2.32-.56-3.303a7.155 7.155 0 0 0-1.652-2.596c-.708-.747-1.573-1.317-2.595-1.71-1.003-.394-2.153-.59-3.45-.59h-5.368v-2.655h5.072c1.947 0 3.638.305 5.073.915 1.435.59 2.625 1.396 3.569 2.418a9.847 9.847 0 0 1 2.153 3.392 10.6 10.6 0 0 1 .707 3.804v.649c0 1.258-.235 2.517-.707 3.775a10.145 10.145 0 0 1-2.153 3.421c-.944 1.023-2.134 1.849-3.569 2.478-1.435.609-3.126.914-5.073.914h-5.072zm-2.3 0v-21.766h2.89v21.766h-2.89zM55.273 124v-4.719h-.472v-5.456c0-1.081-.285-1.897-.856-2.448-.55-.55-1.366-.826-2.447-.826-.61 0-1.24.01-1.888.03-.649.02-1.268.039-1.858.059-.59.02-1.101.049-1.534.088v-2.477a27.41 27.41 0 0 1 1.357-.088c.492-.04.993-.059 1.504-.059a37.77 37.77 0 0 1 1.475-.03c1.612 0 2.93.197 3.952.59 1.022.373 1.78.993 2.27 1.858.492.865.738 2.035.738 3.51V124h-2.242zm-5.162.413c-1.18 0-2.202-.197-3.067-.59a4.67 4.67 0 0 1-1.976-1.77c-.452-.766-.678-1.69-.678-2.772 0-1.121.246-2.054.737-2.802.511-.747 1.249-1.307 2.212-1.681.963-.393 2.123-.59 3.48-.59h4.277v2.124h-4.395c-1.14 0-2.015.275-2.625.826-.61.55-.914 1.258-.914 2.123 0 .865.305 1.563.914 2.094.61.531 1.485.796 2.625.796a5.28 5.28 0 0 0 1.917-.353 3.403 3.403 0 0 0 1.504-1.239c.413-.59.64-1.396.679-2.419l.767 1.121c-.099 1.121-.374 2.065-.826 2.831a4.266 4.266 0 0 1-1.829 1.711c-.767.393-1.7.59-2.802.59zm18.439-.236c-1.18 0-2.202-.167-3.067-.501a3.904 3.904 0 0 1-1.976-1.711c-.453-.826-.679-1.937-.679-3.333v-15.159h2.714v15.513c0 .846.226 1.504.678 1.976.472.452 1.13.679 1.976.679h2.772v2.536H68.55zm-8.435-13.803v-2.123H70.97v2.123H60.116zM84.147 124v-4.719h-.472v-5.456c0-1.081-.285-1.897-.855-2.448-.55-.55-1.366-.826-2.448-.826-.61 0-1.238.01-1.887.03-.649.02-1.268.039-1.858.059-.59.02-1.101.049-1.534.088v-2.477a27.41 27.41 0 0 1 1.357-.088c.491-.04.993-.059 1.504-.059a37.77 37.77 0 0 1 1.475-.03c1.612 0 2.93.197 3.952.59 1.022.373 1.779.993 2.27 1.858.492.865.738 2.035.738 3.51V124h-2.242zm-5.16.413c-1.18 0-2.203-.197-3.068-.59a4.669 4.669 0 0 1-1.976-1.77c-.452-.766-.678-1.69-.678-2.772 0-1.121.245-2.054.737-2.802.511-.747 1.249-1.307 2.212-1.681.963-.393 2.123-.59 3.48-.59h4.276v2.124h-4.394c-1.14 0-2.015.275-2.625.826-.61.55-.914 1.258-.914 2.123 0 .865.305 1.563.914 2.094.61.531 1.485.796 2.625.796a5.28 5.28 0 0 0 1.917-.353 3.403 3.403 0 0 0 1.504-1.239c.413-.59.64-1.396.678-2.419l.767 1.121c-.098 1.121-.373 2.065-.825 2.831a4.266 4.266 0 0 1-1.829 1.711c-.767.393-1.7.59-2.802.59zm24.116-.413-7.461-21.53h2.978l6.695 19.642-1.415-.707h3.539l-1.504.707 6.164-19.642h2.89L108.058 124h-4.955zm24.053 0v-4.719h-.472v-5.456c0-1.081-.285-1.897-.855-2.448-.551-.55-1.367-.826-2.448-.826-.61 0-1.239.01-1.888.03-.649.02-1.268.039-1.858.059-.59.02-1.101.049-1.533.088v-2.477c.432-.039.884-.069 1.356-.088.492-.04.993-.059 1.504-.059a37.81 37.81 0 0 1 1.475-.03c1.612 0 2.93.197 3.952.59 1.022.373 1.779.993 2.271 1.858.491.865.737 2.035.737 3.51V124h-2.241zm-5.161.413c-1.18 0-2.202-.197-3.068-.59a4.672 4.672 0 0 1-1.976-1.77c-.452-.766-.678-1.69-.678-2.772 0-1.121.246-2.054.737-2.802.512-.747 1.249-1.307 2.212-1.681.964-.393 2.124-.59 3.48-.59h4.277v2.124h-4.395c-1.14 0-2.015.275-2.624.826-.61.55-.915 1.258-.915 2.123 0 .865.305 1.563.915 2.094.609.531 1.484.796 2.624.796.669 0 1.308-.118 1.918-.353a3.41 3.41 0 0 0 1.504-1.239c.413-.59.639-1.396.678-2.419l.767 1.121c-.099 1.121-.374 2.065-.826 2.831a4.267 4.267 0 0 1-1.829 1.711c-.766.393-1.7.59-2.801.59zm12.481-.413v-21.53h2.831V124h-2.831zm-2.183-19.288v-2.242h5.014v2.242h-5.014zM143.209 124v-15.749h2.832V124h-2.832zm-2.418-13.508v-2.241h5.25v2.241h-5.25zm3.215-4.777c-.629 0-1.101-.167-1.416-.502-.295-.334-.442-.757-.442-1.268s.147-.934.442-1.268c.315-.334.787-.501 1.416-.501.629 0 1.091.167 1.386.501.314.334.472.757.472 1.268s-.158.934-.472 1.268c-.295.335-.757.502-1.386.502zm13.791 18.816c-1.121 0-2.153-.207-3.097-.619a7.533 7.533 0 0 1-2.477-1.741 8.388 8.388 0 0 1-1.622-2.595c-.374-.983-.561-2.045-.561-3.185v-.531a8.8 8.8 0 0 1 .561-3.156 8.22 8.22 0 0 1 1.563-2.595 7.31 7.31 0 0 1 2.418-1.74c.944-.433 1.986-.649 3.126-.649 1.2 0 2.291.256 3.274.767.983.491 1.789 1.268 2.419 2.33.629 1.062.983 2.438 1.061 4.129l-1.179-1.888V102.47h2.831V124h-2.242v-6.99h.826c-.078 1.789-.452 3.244-1.12 4.365-.669 1.101-1.514 1.907-2.537 2.419a7.278 7.278 0 0 1-3.244.737zm.383-2.478c.964 0 1.839-.216 2.625-.648a4.895 4.895 0 0 0 1.888-1.858c.472-.826.708-1.79.708-2.891V115.3c0-1.082-.246-1.996-.738-2.743a4.55 4.55 0 0 0-1.917-1.74 5.493 5.493 0 0 0-2.595-.62c-1.042 0-1.966.246-2.772.738-.787.491-1.406 1.18-1.858 2.064-.433.885-.649 1.927-.649 3.126 0 1.2.226 2.252.678 3.156.452.885 1.081 1.573 1.888 2.065.806.472 1.72.707 2.742.707zM180.785 124v-4.719h-.472v-5.456c0-1.081-.285-1.897-.855-2.448-.551-.55-1.367-.826-2.448-.826-.61 0-1.239.01-1.888.03-.648.02-1.268.039-1.858.059-.589.02-1.101.049-1.533.088v-2.477c.432-.039.885-.069 1.356-.088.492-.04.993-.059 1.505-.059a37.72 37.72 0 0 1 1.474-.03c1.612 0 2.93.197 3.952.59 1.023.373 1.78.993 2.271 1.858.492.865.737 2.035.737 3.51V124h-2.241zm-5.161.413c-1.18 0-2.202-.197-3.067-.59-.846-.413-1.505-1.003-1.976-1.77-.453-.766-.679-1.69-.679-2.772 0-1.121.246-2.054.738-2.802.511-.747 1.248-1.307 2.212-1.681.963-.393 2.123-.59 3.48-.59h4.276v2.124h-4.394c-1.141 0-2.016.275-2.625.826-.61.55-.914 1.258-.914 2.123 0 .865.304 1.563.914 2.094.609.531 1.484.796 2.625.796.668 0 1.307-.118 1.917-.353a3.404 3.404 0 0 0 1.504-1.239c.413-.59.639-1.396.678-2.419l.767 1.121c-.098 1.121-.374 2.065-.826 2.831a4.264 4.264 0 0 1-1.828 1.711c-.767.393-1.701.59-2.802.59zm18.438-.236c-1.179 0-2.202-.167-3.067-.501a3.906 3.906 0 0 1-1.976-1.711c-.452-.826-.678-1.937-.678-3.333v-15.159h2.713v15.513c0 .846.226 1.504.679 1.976.471.452 1.13.679 1.976.679h2.772v2.536h-2.419zm-8.434-13.803v-2.123h10.853v2.123h-10.853zm21.142 14.157c-1.376 0-2.566-.236-3.569-.708-1.002-.472-1.818-1.091-2.447-1.858a8.245 8.245 0 0 1-1.416-2.625 10.013 10.013 0 0 1-.442-2.949v-.531c0-1.022.147-2.015.442-2.979a7.915 7.915 0 0 1 1.416-2.595 6.597 6.597 0 0 1 2.388-1.858c.984-.472 2.134-.708 3.451-.708 1.711 0 3.116.374 4.217 1.121 1.121.727 1.947 1.671 2.478 2.831.55 1.16.826 2.399.826 3.716v1.268h-13.98v-2.123h11.915l-.649 1.15c0-1.121-.177-2.084-.531-2.89-.353-.826-.884-1.465-1.592-1.917-.708-.452-1.603-.679-2.684-.679-1.121 0-2.055.256-2.802.767-.727.512-1.278 1.209-1.651 2.094-.354.885-.531 1.907-.531 3.067 0 1.121.177 2.134.531 3.038a4.785 4.785 0 0 0 1.71 2.124c.767.511 1.74.766 2.92.766 1.239 0 2.241-.275 3.008-.825.787-.551 1.259-1.19 1.416-1.917h2.654c-.216 1.081-.649 2.015-1.297 2.801a6.258 6.258 0 0 1-2.448 1.8c-.983.412-2.094.619-3.333.619z"/><path fill="#3F5D5A" d="M0 159.75h344v67.373H0z"/><path fill="#fff" d="M25.427 204.118v-2.654h5.367c1.298 0 2.448-.207 3.45-.62 1.023-.432 1.888-1.022 2.596-1.769a7.437 7.437 0 0 0 1.652-2.625 9.232 9.232 0 0 0 .56-3.244c0-1.219-.187-2.32-.56-3.303a7.155 7.155 0 0 0-1.652-2.596c-.708-.747-1.573-1.317-2.595-1.71-1.003-.394-2.153-.59-3.45-.59h-5.368v-2.655h5.072c1.947 0 3.638.305 5.073.915 1.435.59 2.625 1.396 3.569 2.418a9.847 9.847 0 0 1 2.153 3.392 10.6 10.6 0 0 1 .707 3.804v.649c0 1.258-.235 2.517-.707 3.775a10.145 10.145 0 0 1-2.153 3.421c-.944 1.023-2.134 1.849-3.569 2.478-1.435.609-3.126.914-5.073.914h-5.072zm-2.3 0v-21.766h2.89v21.766h-2.89zM55.273 204v-4.719h-.472v-5.456c0-1.081-.285-1.897-.856-2.448-.55-.55-1.366-.826-2.447-.826-.61 0-1.24.01-1.888.03-.649.02-1.268.039-1.858.059-.59.02-1.101.049-1.534.088v-2.477a27.41 27.41 0 0 1 1.357-.088c.492-.04.993-.059 1.504-.059a37.77 37.77 0 0 1 1.475-.03c1.612 0 2.93.197 3.952.59 1.022.373 1.78.993 2.27 1.858.492.865.738 2.035.738 3.51V204h-2.242zm-5.162.413c-1.18 0-2.202-.197-3.067-.59a4.67 4.67 0 0 1-1.976-1.77c-.452-.766-.678-1.69-.678-2.772 0-1.121.246-2.054.737-2.802.511-.747 1.249-1.307 2.212-1.681.963-.393 2.123-.59 3.48-.59h4.277v2.124h-4.395c-1.14 0-2.015.275-2.625.826-.61.55-.914 1.258-.914 2.123 0 .865.305 1.563.914 2.094.61.531 1.485.796 2.625.796a5.28 5.28 0 0 0 1.917-.353 3.403 3.403 0 0 0 1.504-1.239c.413-.59.64-1.396.679-2.419l.767 1.121c-.099 1.121-.374 2.065-.826 2.831a4.266 4.266 0 0 1-1.829 1.711c-.767.393-1.7.59-2.802.59zm18.439-.236c-1.18 0-2.202-.167-3.067-.501a3.904 3.904 0 0 1-1.976-1.711c-.453-.826-.679-1.937-.679-3.333v-15.159h2.714v15.513c0 .846.226 1.504.678 1.976.472.452 1.13.679 1.976.679h2.772v2.536H68.55zm-8.435-13.803v-2.123H70.97v2.123H60.116zM84.147 204v-4.719h-.472v-5.456c0-1.081-.285-1.897-.855-2.448-.55-.55-1.366-.826-2.448-.826-.61 0-1.238.01-1.887.03-.649.02-1.268.039-1.858.059-.59.02-1.101.049-1.534.088v-2.477a27.41 27.41 0 0 1 1.357-.088c.491-.04.993-.059 1.504-.059a37.77 37.77 0 0 1 1.475-.03c1.612 0 2.93.197 3.952.59 1.022.373 1.779.993 2.27 1.858.492.865.738 2.035.738 3.51V204h-2.242zm-5.16.413c-1.18 0-2.203-.197-3.068-.59a4.669 4.669 0 0 1-1.976-1.77c-.452-.766-.678-1.69-.678-2.772 0-1.121.245-2.054.737-2.802.511-.747 1.249-1.307 2.212-1.681.963-.393 2.123-.59 3.48-.59h4.276v2.124h-4.394c-1.14 0-2.015.275-2.625.826-.61.55-.914 1.258-.914 2.123 0 .865.305 1.563.914 2.094.61.531 1.485.796 2.625.796a5.28 5.28 0 0 0 1.917-.353 3.403 3.403 0 0 0 1.504-1.239c.413-.59.64-1.396.678-2.419l.767 1.121c-.098 1.121-.373 2.065-.825 2.831a4.266 4.266 0 0 1-1.829 1.711c-.767.393-1.7.59-2.802.59zm28.481.118c-1.966 0-3.647-.344-5.043-1.032-1.376-.689-2.487-1.583-3.333-2.684a11.264 11.264 0 0 1-1.858-3.569c-.393-1.297-.59-2.546-.59-3.745v-.649c0-1.298.197-2.596.59-3.893a10.964 10.964 0 0 1 1.888-3.539c.845-1.062 1.946-1.917 3.303-2.566 1.357-.649 2.979-.973 4.866-.973 1.927 0 3.579.334 4.955 1.002 1.376.669 2.468 1.603 3.274 2.802s1.297 2.615 1.474 4.247h-2.949c-.157-1.219-.551-2.222-1.18-3.008a5.71 5.71 0 0 0-2.389-1.799c-.943-.393-2.005-.59-3.185-.59-1.278 0-2.399.226-3.362.678a6.455 6.455 0 0 0-2.418 1.858 8.502 8.502 0 0 0-1.445 2.743c-.315 1.042-.472 2.173-.472 3.392 0 1.16.157 2.261.472 3.303a8.519 8.519 0 0 0 1.474 2.772 7.245 7.245 0 0 0 2.478 1.917c.983.452 2.133.679 3.45.679 1.848 0 3.402-.463 4.66-1.387 1.258-.924 2.025-2.261 2.3-4.011h2.95a9.513 9.513 0 0 1-1.504 4.041c-.787 1.219-1.888 2.192-3.304 2.92-1.396.727-3.096 1.091-5.102 1.091zm13.564-.531v-21.53h2.832V204h-2.832zm-2.182-19.288v-2.242h5.014v2.242h-5.014zm16.844 19.819c-1.376 0-2.566-.236-3.568-.708-1.003-.472-1.819-1.091-2.448-1.858a8.285 8.285 0 0 1-1.416-2.625 10.013 10.013 0 0 1-.442-2.949v-.531c0-1.022.147-2.015.442-2.979a7.952 7.952 0 0 1 1.416-2.595 6.592 6.592 0 0 1 2.389-1.858c.983-.472 2.133-.708 3.45-.708 1.711 0 3.117.374 4.218 1.121 1.12.727 1.946 1.671 2.477 2.831a8.552 8.552 0 0 1 .826 3.716v1.268h-13.98v-2.123h11.915l-.649 1.15c0-1.121-.176-2.084-.53-2.89-.354-.826-.885-1.465-1.593-1.917-.708-.452-1.602-.679-2.684-.679-1.121 0-2.054.256-2.802.767-.727.512-1.278 1.209-1.651 2.094-.354.885-.531 1.907-.531 3.067 0 1.121.177 2.134.531 3.038a4.792 4.792 0 0 0 1.71 2.124c.767.511 1.74.766 2.92.766 1.239 0 2.242-.275 3.008-.825.787-.551 1.259-1.19 1.416-1.917h2.654c-.216 1.081-.648 2.015-1.297 2.801a6.258 6.258 0 0 1-2.448 1.8c-.983.412-2.094.619-3.333.619zm20.595-.531v-4.719h-.472v-5.456c0-1.081-.285-1.897-.855-2.448-.551-.55-1.367-.826-2.448-.826-.61 0-1.239.01-1.888.03-.648.02-1.268.039-1.858.059-.59.02-1.101.049-1.533.088v-2.477c.432-.039.884-.069 1.356-.088.492-.04.993-.059 1.504-.059a37.81 37.81 0 0 1 1.475-.03c1.612 0 2.93.197 3.952.59 1.023.373 1.78.993 2.271 1.858.492.865.737 2.035.737 3.51V204h-2.241zm-5.161.413c-1.18 0-2.202-.197-3.067-.59-.846-.413-1.505-1.003-1.976-1.77-.453-.766-.679-1.69-.679-2.772 0-1.121.246-2.054.737-2.802.512-.747 1.249-1.307 2.212-1.681.964-.393 2.124-.59 3.481-.59h4.276v2.124h-4.394c-1.141 0-2.016.275-2.625.826-.61.55-.915 1.258-.915 2.123 0 .865.305 1.563.915 2.094.609.531 1.484.796 2.625.796.668 0 1.307-.118 1.917-.353a3.41 3.41 0 0 0 1.504-1.239c.413-.59.639-1.396.678-2.419l.767 1.121c-.098 1.121-.374 2.065-.826 2.831a4.264 4.264 0 0 1-1.828 1.711c-.767.393-1.701.59-2.802.59zm12.304-.413v-15.749h2.241v6.754h-.354c0-1.553.207-2.861.62-3.923.432-1.081 1.081-1.897 1.946-2.448.865-.57 1.957-.855 3.274-.855h.118c1.986 0 3.451.619 4.394 1.858.964 1.239 1.445 3.028 1.445 5.368V204h-2.831v-9.585c0-1.219-.344-2.192-1.032-2.92-.688-.747-1.632-1.121-2.831-1.121-1.239 0-2.242.384-3.009 1.151-.766.766-1.15 1.789-1.15 3.067V204h-2.831zm23.731.472c-2.064 0-3.667-.443-4.807-1.327-1.121-.885-1.701-2.094-1.74-3.628h2.654c.039.61.344 1.19.914 1.74.59.531 1.583.796 2.979.796 1.258 0 2.222-.245 2.89-.737.669-.511 1.003-1.13 1.003-1.858 0-.649-.246-1.15-.737-1.504-.492-.374-1.288-.619-2.389-.737l-1.711-.177c-1.494-.158-2.713-.6-3.657-1.327-.944-.748-1.415-1.79-1.415-3.127 0-1.002.255-1.858.766-2.565.512-.728 1.219-1.278 2.124-1.652.904-.393 1.946-.59 3.126-.59 1.77 0 3.205.393 4.306 1.18 1.101.786 1.671 1.956 1.71 3.509h-2.654c-.02-.629-.314-1.16-.885-1.592-.55-.452-1.376-.679-2.477-.679s-1.937.227-2.507.679c-.57.452-.855 1.022-.855 1.71 0 .59.196 1.062.59 1.416.413.354 1.081.58 2.005.678l1.711.177c1.691.177 3.047.649 4.07 1.416 1.022.747 1.533 1.809 1.533 3.185 0 .983-.285 1.858-.855 2.625-.55.747-1.317 1.337-2.3 1.77-.983.412-2.114.619-3.392.619zm17.051.059c-1.377 0-2.566-.236-3.569-.708-1.003-.472-1.819-1.091-2.448-1.858a8.285 8.285 0 0 1-1.416-2.625 10.046 10.046 0 0 1-.442-2.949v-.531c0-1.022.148-2.015.442-2.979a7.952 7.952 0 0 1 1.416-2.595 6.6 6.6 0 0 1 2.389-1.858c.983-.472 2.133-.708 3.451-.708 1.71 0 3.116.374 4.217 1.121 1.121.727 1.947 1.671 2.477 2.831a8.552 8.552 0 0 1 .826 3.716v1.268h-13.979v-2.123h11.915l-.649 1.15c0-1.121-.177-2.084-.531-2.89-.354-.826-.885-1.465-1.593-1.917-.707-.452-1.602-.679-2.683-.679-1.121 0-2.055.256-2.802.767-.728.512-1.278 1.209-1.652 2.094-.354.885-.531 1.907-.531 3.067 0 1.121.177 2.134.531 3.038a4.794 4.794 0 0 0 1.711 2.124c.767.511 1.74.766 2.92.766 1.238 0 2.241-.275 3.008-.825.786-.551 1.258-1.19 1.415-1.917h2.655c-.216 1.081-.649 2.015-1.298 2.801a6.258 6.258 0 0 1-2.448 1.8c-.983.412-2.094.619-3.332.619z"/><path fill="#4F7471" d="M0 239.625h344v67.373H0z"/><path fill="#fff" d="M25.427 284.118v-2.654h5.367c1.298 0 2.448-.207 3.45-.62 1.023-.432 1.888-1.022 2.596-1.769a7.437 7.437 0 0 0 1.652-2.625 9.232 9.232 0 0 0 .56-3.244c0-1.219-.187-2.32-.56-3.303a7.155 7.155 0 0 0-1.652-2.596c-.708-.747-1.573-1.317-2.595-1.71-1.003-.394-2.153-.59-3.45-.59h-5.368v-2.655h5.072c1.947 0 3.638.305 5.073.915 1.435.59 2.625 1.396 3.569 2.418a9.847 9.847 0 0 1 2.153 3.392 10.6 10.6 0 0 1 .707 3.804v.649c0 1.258-.235 2.517-.707 3.775a10.145 10.145 0 0 1-2.153 3.421c-.944 1.023-2.134 1.849-3.569 2.478-1.435.609-3.126.914-5.073.914h-5.072zm-2.3 0v-21.766h2.89v21.766h-2.89zM55.273 284v-4.719h-.472v-5.456c0-1.081-.285-1.897-.856-2.448-.55-.55-1.366-.826-2.447-.826-.61 0-1.24.01-1.888.03-.649.02-1.268.039-1.858.059-.59.02-1.101.049-1.534.088v-2.477a27.41 27.41 0 0 1 1.357-.088c.492-.04.993-.059 1.504-.059a37.77 37.77 0 0 1 1.475-.03c1.612 0 2.93.197 3.952.59 1.022.373 1.78.993 2.27 1.858.492.865.738 2.035.738 3.51V284h-2.242zm-5.162.413c-1.18 0-2.202-.197-3.067-.59a4.67 4.67 0 0 1-1.976-1.77c-.452-.766-.678-1.69-.678-2.772 0-1.121.246-2.054.737-2.802.511-.747 1.249-1.307 2.212-1.681.963-.393 2.123-.59 3.48-.59h4.277v2.124h-4.395c-1.14 0-2.015.275-2.625.826-.61.55-.914 1.258-.914 2.123 0 .865.305 1.563.914 2.094.61.531 1.485.796 2.625.796a5.28 5.28 0 0 0 1.917-.353 3.403 3.403 0 0 0 1.504-1.239c.413-.59.64-1.396.679-2.419l.767 1.121c-.099 1.121-.374 2.065-.826 2.831a4.266 4.266 0 0 1-1.829 1.711c-.767.393-1.7.59-2.802.59zm18.439-.236c-1.18 0-2.202-.167-3.067-.501a3.904 3.904 0 0 1-1.976-1.711c-.453-.826-.679-1.937-.679-3.333v-15.159h2.714v15.513c0 .846.226 1.504.678 1.976.472.452 1.13.679 1.976.679h2.772v2.536H68.55zm-8.435-13.803v-2.123H70.97v2.123H60.116zM84.147 284v-4.719h-.472v-5.456c0-1.081-.285-1.897-.855-2.448-.55-.55-1.366-.826-2.448-.826-.61 0-1.238.01-1.887.03-.649.02-1.268.039-1.858.059-.59.02-1.101.049-1.534.088v-2.477a27.41 27.41 0 0 1 1.357-.088c.491-.04.993-.059 1.504-.059a37.77 37.77 0 0 1 1.475-.03c1.612 0 2.93.197 3.952.59 1.022.373 1.779.993 2.27 1.858.492.865.738 2.035.738 3.51V284h-2.242zm-5.16.413c-1.18 0-2.203-.197-3.068-.59a4.669 4.669 0 0 1-1.976-1.77c-.452-.766-.678-1.69-.678-2.772 0-1.121.245-2.054.737-2.802.511-.747 1.249-1.307 2.212-1.681.963-.393 2.123-.59 3.48-.59h4.276v2.124h-4.394c-1.14 0-2.015.275-2.625.826-.61.55-.914 1.258-.914 2.123 0 .865.305 1.563.914 2.094.61.531 1.485.796 2.625.796a5.28 5.28 0 0 0 1.917-.353 3.403 3.403 0 0 0 1.504-1.239c.413-.59.64-1.396.678-2.419l.767 1.121c-.098 1.121-.373 2.065-.825 2.831a4.266 4.266 0 0 1-1.829 1.711c-.767.393-1.7.59-2.802.59zM98.118 284v-21.53h2.89V284h-2.89zm2.3 0v-2.595h10.441V284h-10.441zm0-9.644v-2.595h9.527v2.595h-9.527zm0-9.29v-2.596h10.146v2.596h-10.146zM115.095 284v-15.749h2.242v6.754h-.354c0-1.553.206-2.861.619-3.923.433-1.081 1.081-1.897 1.947-2.448.865-.57 1.956-.855 3.273-.855h.118c1.986 0 3.451.619 4.395 1.858.963 1.239 1.445 3.028 1.445 5.368V284h-2.832v-9.585c0-1.219-.344-2.192-1.032-2.92-.688-.747-1.632-1.121-2.831-1.121-1.239 0-2.241.384-3.008 1.151-.767.766-1.15 1.789-1.15 3.067V284h-2.832zm18.57 0v-15.749h2.242v6.488h-.118c0-2.3.501-3.981 1.504-5.043 1.022-1.081 2.546-1.622 4.571-1.622h.531v2.536h-1.003c-1.573 0-2.782.423-3.627 1.269-.846.825-1.269 2.025-1.269 3.598V284h-2.831zm12.569 0v-15.749h2.831V284h-2.831zm-2.419-13.508v-2.241h5.25v2.241h-5.25zm3.215-4.777c-.629 0-1.101-.167-1.416-.502-.295-.334-.442-.757-.442-1.268s.147-.934.442-1.268c.315-.334.787-.501 1.416-.501.629 0 1.091.167 1.386.501.315.334.472.757.472 1.268s-.157.934-.472 1.268c-.295.335-.757.502-1.386.502zm13.968 18.816c-1.357 0-2.536-.236-3.539-.708-.983-.472-1.799-1.101-2.448-1.887a8.833 8.833 0 0 1-1.475-2.655 9.279 9.279 0 0 1-.471-2.89v-.531c0-1.003.157-1.986.471-2.949a8.094 8.094 0 0 1 1.475-2.596 7.426 7.426 0 0 1 2.477-1.887c.984-.472 2.134-.708 3.451-.708 1.317 0 2.497.246 3.539.737 1.062.492 1.907 1.19 2.537 2.094.648.885 1.012 1.937 1.091 3.156h-2.714a3.795 3.795 0 0 0-1.356-2.448c-.767-.668-1.799-1.003-3.097-1.003-1.121 0-2.055.256-2.802.767-.747.511-1.307 1.209-1.681 2.094-.373.885-.56 1.888-.56 3.008 0 1.082.187 2.075.56 2.979.374.885.934 1.593 1.681 2.124.767.511 1.721.767 2.861.767.885 0 1.652-.158 2.3-.472a4.177 4.177 0 0 0 1.564-1.269c.393-.53.629-1.13.707-1.799h2.714c-.059 1.239-.423 2.311-1.092 3.215-.648.905-1.513 1.612-2.595 2.124-1.062.491-2.261.737-3.598.737zm10.837-.531v-21.53h2.831v12.859h-.708c0-1.553.197-2.89.59-4.011.413-1.14 1.042-2.015 1.888-2.625.845-.609 1.927-.914 3.244-.914h.118c1.887 0 3.313.629 4.276 1.888.964 1.238 1.445 3.018 1.445 5.338V284h-2.831v-9.585c0-1.278-.364-2.271-1.091-2.979-.708-.708-1.632-1.062-2.772-1.062-1.259 0-2.271.423-3.038 1.269-.747.825-1.121 1.917-1.121 3.273V284h-2.831zm18.57 0v-15.749h2.241v6.754h-.354c0-1.534.197-2.832.59-3.893.413-1.082 1.023-1.907 1.829-2.478.806-.57 1.828-.855 3.067-.855h.118c1.239 0 2.261.285 3.067.855.826.571 1.436 1.396 1.829 2.478.393 1.061.59 2.359.59 3.893h-.826c0-1.534.206-2.832.619-3.893.413-1.082 1.023-1.907 1.829-2.478.825-.57 1.858-.855 3.096-.855h.118c1.239 0 2.271.285 3.097.855.826.571 1.435 1.396 1.829 2.478.413 1.061.619 2.359.619 3.893V284h-2.831v-9.615c0-1.278-.315-2.261-.944-2.949-.629-.708-1.504-1.062-2.625-1.062-1.16 0-2.094.374-2.802 1.121-.708.728-1.061 1.75-1.061 3.067V284h-2.832v-9.615c0-1.278-.314-2.261-.943-2.949-.63-.708-1.505-1.062-2.625-1.062-1.16 0-2.094.374-2.802 1.121-.708.728-1.062 1.75-1.062 3.067V284h-2.831zm34.942.531c-1.376 0-2.566-.236-3.569-.708-1.002-.472-1.818-1.091-2.448-1.858a8.262 8.262 0 0 1-1.415-2.625 10.014 10.014 0 0 1-.443-2.949v-.531c0-1.022.148-2.015.443-2.979a7.931 7.931 0 0 1 1.415-2.595 6.61 6.61 0 0 1 2.389-1.858c.983-.472 2.134-.708 3.451-.708 1.71 0 3.116.374 4.217 1.121 1.121.727 1.947 1.671 2.478 2.831.55 1.16.825 2.399.825 3.716v1.268h-13.979v-2.123h11.915l-.649 1.15c0-1.121-.177-2.084-.531-2.89-.354-.826-.884-1.465-1.592-1.917-.708-.452-1.603-.679-2.684-.679-1.121 0-2.055.256-2.802.767-.727.512-1.278 1.209-1.651 2.094-.354.885-.531 1.907-.531 3.067 0 1.121.177 2.134.531 3.038a4.785 4.785 0 0 0 1.71 2.124c.767.511 1.74.766 2.92.766 1.239 0 2.241-.275 3.008-.825.787-.551 1.258-1.19 1.416-1.917h2.654c-.216 1.081-.649 2.015-1.298 2.801a6.248 6.248 0 0 1-2.447 1.8c-.984.412-2.094.619-3.333.619zm11.069-.531v-15.749h2.241v6.754h-.354c0-1.553.207-2.861.619-3.923.433-1.081 1.082-1.897 1.947-2.448.865-.57 1.956-.855 3.274-.855h.118c1.985 0 3.45.619 4.394 1.858.963 1.239 1.445 3.028 1.445 5.368V284h-2.831v-9.585c0-1.219-.344-2.192-1.032-2.92-.689-.747-1.632-1.121-2.832-1.121-1.238 0-2.241.384-3.008 1.151-.767.766-1.15 1.789-1.15 3.067V284h-2.831zm24.704.177c-1.18 0-2.202-.167-3.067-.501a3.902 3.902 0 0 1-1.976-1.711c-.453-.826-.679-1.937-.679-3.333v-15.159h2.714v15.513c0 .846.226 1.504.678 1.976.472.452 1.131.679 1.976.679h2.772v2.536h-2.418zm-8.435-13.803v-2.123h10.853v2.123h-10.853z"/></svg>