<svg xmlns="http://www.w3.org/2000/svg" width="329" height="322" fill="none"><path fill="#FBD3CD" fill-opacity=".42" d="M.803.803h153.393v90.393H.803z"/><path stroke="#000" stroke-width="1.607" d="M.803.803h153.393v90.393H.803z"/><g fill="#000" clip-path="url(#a)"><path d="M20.856 49.697c.164.115.338.215.52.3.216.11.578.296.603.425a.87.87 0 0 1-.059.507c-.074.16-.152.297-.22.416-.183.323-.49.865-.027 1.243.108.1.294.244.464.375-.125.218-.182.47-.162.721a.72.72 0 0 0 .296.492c.111.078.23.146.347.213.295.168.41.247.45.403a1.4 1.4 0 0 1-.05.6c-.03.134-.058.268-.075.4-.05.456.006.917.164 1.347a1.873 1.873 0 0 0 1.769 1.363c.137 0 .275-.015.41-.044a37.942 37.942 0 0 0 4.215-1.261c1.127.66 1.838 2.67 2.024 3.425a.5.5 0 0 0 .485.38l12.55-.035a.5.5 0 0 0 .476-.65 3.857 3.857 0 0 0-.506-.95 4.672 4.672 0 0 1-.324-.541 9.451 9.451 0 0 1-.564-1.422 16.867 16.867 0 0 1-.587-2.925.5.5 0 1 0-.992.122c.115 1.05.324 2.087.623 3.1.165.537.372 1.06.62 1.565.115.226.244.444.388.653l.034.05-11.34.033a7.965 7.965 0 0 0-1.76-3.193l.45-.158c.335-.117.588-.205.717-.246 2.142-.678 3.213-1.653 3.184-2.9a.487.487 0 0 0-.509-.488.5.5 0 0 0-.488.511c.012.515-.41 1.265-2.488 1.923-.135.043-.396.134-.743.255-.371.13-.844.295-1.365.472h-.003a38.94 38.94 0 0 1-4.3 1.3.885.885 0 0 1-1.03-.666 1.989 1.989 0 0 1-.117-.892c.013-.105.037-.21.06-.314a2.19 2.19 0 0 0 .044-1.064 1.661 1.661 0 0 0-.926-1.022l-.104-.06a1.87 1.87 0 0 1 .193-.309.5.5 0 0 0-.096-.712c-.12-.088-.403-.3-.61-.467l.075-.135a6.79 6.79 0 0 0 .256-.482 1.88 1.88 0 0 0 .133-1.12c-.12-.61-.704-.908-1.13-1.126a2.847 2.847 0 0 1-.711-.483c0-.075.08-.258.462-.723a20.123 20.123 0 0 0 2.288-3.717c.118-.206.184-.439.194-.676a1.75 1.75 0 0 0-.73-1.25c-.203-.186-.394-.36-.416-.522a.907.907 0 0 1 .078-.344c.082-.214.176-.424.27-.635.205-.423.369-.864.49-1.318l.05-.213c.105-.5.242-.993.408-1.476a8.573 8.573 0 0 1 1.794-2.93c.957-1.013 2.462-1.729 4.482-2.13a32.489 32.489 0 0 1 4.691-.676c.787-.043 1.576.002 2.354.133a.5.5 0 0 0 .17-.985 11.622 11.622 0 0 0-2.576-.147 33.378 33.378 0 0 0-4.836.694c-2.255.45-3.893 1.24-5.012 2.423a9.579 9.579 0 0 0-2.005 3.271c-.18.523-.328 1.056-.443 1.597l-.05.21c-.107.393-.25.774-.428 1.14-.1.228-.204.456-.293.692-.116.263-.161.55-.133.836.101.448.36.844.73 1.117.244.224.404.382.406.52a.833.833 0 0 1-.085.217 19.293 19.293 0 0 1-2.19 3.559c-.362.44-.74.954-.66 1.467.106.398.368.735.726.937z"/><path d="m25.703 39.898.05-.223c.088-.416.2-.826.334-1.229.301-.835.768-1.6 1.372-2.25a5.234 5.234 0 0 1 2.304-1.265.5.5 0 1 0-.29-.957 6.191 6.191 0 0 0-2.741 1.536 7.59 7.59 0 0 0-1.582 2.59c-.15.444-.273.896-.37 1.355l-.05.216a.5.5 0 1 0 .973.226zM24.62 42a.5.5 0 1 0 0-1 .5.5 0 0 0 0 1zm9-.895a6.854 6.854 0 0 0 1.69 4.645c.353.367.738.701 1.15 1 .731.566 1.425 1.106 1.608 1.858A1.5 1.5 0 0 0 37.121 50v1a1.5 1.5 0 0 0 1 1.408v.092a2 2 0 0 0 4 0v-.092a1.5 1.5 0 0 0 1-1.408v-1a1.5 1.5 0 0 0-.95-1.392c.183-.75.877-1.292 1.608-1.858a8.623 8.623 0 0 0 1.15-1 6.856 6.856 0 0 0 1.691-4.645 6.632 6.632 0 0 0-6.5-6.605 6.632 6.632 0 0 0-6.5 6.605zm5 .895h-.5a.5.5 0 1 1 .5-.5v.5zm2 6.5h-1V43h1v5.5zm-.5 5a1 1 0 0 1-1-1h2a1 1 0 0 1-1 1zm2-2.5a.5.5 0 0 1-.5.5h-3a.5.5 0 0 1-.5-.5v-1a.5.5 0 0 1 .5-.5h3a.5.5 0 0 1 .5.5v1zm3.5-9.88a5.846 5.846 0 0 1-1.431 3.96 7.81 7.81 0 0 1-1.019.879c-.589.41-1.112.91-1.55 1.479V43h.5a1.5 1.5 0 1 0-1.5-1.5v.5h-1v-.5a1.5 1.5 0 1 0-1.5 1.5h.5v4.438a6.99 6.99 0 0 0-1.547-1.479 7.832 7.832 0 0 1-1.019-.879 5.844 5.844 0 0 1-1.434-3.96c.05-3.046 2.567-5.62 5.5-5.62 2.934 0 5.453 2.574 5.5 5.62zm-4 .88v-.5a.5.5 0 1 1 .5.5h-.5zm6.5-.5h1.5a.5.5 0 1 0 0-1h-1.5a.5.5 0 0 0 0 1zm-2.343-5.656a.5.5 0 0 0 .354-.146l1.06-1.061a.5.5 0 1 0-.707-.707l-1.06 1.06a.5.5 0 0 0 .353.854zM40.12 33.5a.5.5 0 0 0 .5-.5v-1.5a.5.5 0 1 0-1 0V33a.5.5 0 0 0 .5.5zm-5.303 2.198a.5.5 0 0 0 0-.708l-1.06-1.06a.5.5 0 1 0-.708.707l1.06 1.061a.5.5 0 0 0 .708 0zM30.62 40.5a.5.5 0 0 0 0 1h1.5a.5.5 0 1 0 0-1h-1.5z"/></g><path fill="#0D1B2A" d="m55.868 44 3.682-10.22h2.324L65.668 44h-1.414l-3.43-9.324.672.336h-1.652l.714-.336L57.24 44h-1.372zm2.198-3.052.462-1.232h4.41l.462 1.232h-5.334zm12.264 3.304c-.644 0-1.204-.112-1.68-.336a3.375 3.375 0 0 1-1.162-.896 4.185 4.185 0 0 1-.7-1.26 4.399 4.399 0 0 1-.224-1.372v-.252c0-.476.074-.943.224-1.4.158-.457.392-.868.7-1.232a3.52 3.52 0 0 1 1.176-.896c.466-.224 1.012-.336 1.638-.336.625 0 1.185.117 1.68.35.504.233.905.565 1.204.994.308.42.48.92.518 1.498h-1.288a1.803 1.803 0 0 0-.644-1.162c-.364-.317-.854-.476-1.47-.476-.532 0-.976.121-1.33.364a2.216 2.216 0 0 0-.798.994c-.178.42-.266.896-.266 1.428 0 .513.088.985.266 1.414.177.42.443.756.798 1.008.364.243.816.364 1.358.364.42 0 .784-.075 1.092-.224.308-.15.555-.35.742-.602.186-.252.298-.537.336-.854h1.288c-.028.588-.201 1.097-.518 1.526-.308.43-.72.765-1.232 1.008-.504.233-1.074.35-1.708.35zm8.35 0c-.644 0-1.204-.112-1.68-.336a3.376 3.376 0 0 1-1.162-.896 4.185 4.185 0 0 1-.7-1.26 4.399 4.399 0 0 1-.224-1.372v-.252c0-.476.075-.943.224-1.4.158-.457.392-.868.7-1.232.317-.373.71-.672 1.176-.896.467-.224 1.013-.336 1.638-.336s1.185.117 1.68.35c.504.233.905.565 1.204.994.308.42.48.92.518 1.498h-1.288a1.803 1.803 0 0 0-.644-1.162c-.364-.317-.854-.476-1.47-.476-.532 0-.975.121-1.33.364a2.22 2.22 0 0 0-.798.994c-.177.42-.266.896-.266 1.428 0 .513.089.985.266 1.414.177.42.443.756.798 1.008.364.243.816.364 1.358.364.42 0 .784-.075 1.092-.224.308-.15.555-.35.742-.602.187-.252.299-.537.336-.854h1.288c-.028.588-.2 1.097-.518 1.526-.308.43-.719.765-1.232 1.008-.504.233-1.074.35-1.708.35zm8.588 0c-.653 0-1.227-.112-1.722-.336a3.971 3.971 0 0 1-1.26-.882 4.025 4.025 0 0 1-.77-1.246 4.03 4.03 0 0 1-.252-1.4v-.252c0-.476.089-.943.266-1.4.177-.467.439-.882.784-1.246a3.697 3.697 0 0 1 1.26-.882c.495-.224 1.06-.336 1.694-.336.635 0 1.2.112 1.694.336a3.7 3.7 0 0 1 1.26.882c.345.364.607.78.784 1.246.177.457.266.924.266 1.4v.252c0 .476-.089.943-.266 1.4a3.704 3.704 0 0 1-.77 1.246 3.81 3.81 0 0 1-1.246.882c-.495.224-1.069.336-1.722.336zm0-1.204c.56 0 1.036-.121 1.428-.364a2.43 2.43 0 0 0 .91-1.008c.215-.42.322-.891.322-1.414 0-.532-.107-1.008-.322-1.428a2.434 2.434 0 0 0-.924-.994c-.392-.243-.863-.364-1.414-.364-.541 0-1.013.121-1.414.364s-.71.574-.924.994c-.215.42-.322.896-.322 1.428 0 .523.103.994.308 1.414.215.42.518.756.91 1.008.401.243.882.364 1.442.364zm8.467 1.176c-.887 0-1.568-.29-2.044-.868-.476-.579-.714-1.414-.714-2.506v-4.34h1.344v4.606c0 .588.159 1.05.476 1.386.317.327.747.49 1.288.49.56 0 1.017-.177 1.372-.532.355-.364.532-.859.532-1.484V36.51h1.344V44h-1.064v-3.206h.168c0 .737-.098 1.363-.294 1.876-.196.504-.49.891-.882 1.162-.383.261-.873.392-1.47.392h-.056zm6.061-.224v-7.476h1.064v3.206h-.168c0-.737.098-1.358.294-1.862.205-.513.513-.9.924-1.162.411-.27.929-.406 1.554-.406h.056c.943 0 1.638.294 2.086.882.457.588.686 1.437.686 2.548V44h-1.344v-4.55c0-.579-.163-1.04-.49-1.386-.327-.355-.775-.532-1.344-.532-.588 0-1.064.182-1.428.546-.364.364-.546.85-.546 1.456V44h-1.344zm11.727.084c-.56 0-1.045-.08-1.456-.238a1.852 1.852 0 0 1-.938-.812c-.215-.392-.322-.92-.322-1.582v-7.196h1.288v7.364c0 .401.107.714.322.938.224.215.537.322.938.322h1.316v1.204h-1.148zm-4.004-6.552v-1.008h5.152v1.008h-5.152zM56.988 58V47.78h1.372V58h-1.372zm4.038 0v-7.476h1.064v3.206h-.168c0-.737.098-1.358.294-1.862.205-.513.513-.9.924-1.162.41-.27.929-.406 1.554-.406h.056c.943 0 1.638.294 2.086.882.457.588.686 1.437.686 2.548V58h-1.344v-4.55c0-.579-.163-1.04-.49-1.386-.327-.355-.775-.532-1.344-.532-.588 0-1.064.182-1.428.546-.364.364-.546.85-.546 1.456V58h-1.344zm11.727.084c-.56 0-1.045-.08-1.456-.238a1.851 1.851 0 0 1-.938-.812c-.215-.392-.322-.92-.322-1.582v-7.196h1.288v7.364c0 .401.107.714.322.938.224.215.537.322.938.322h1.316v1.204h-1.148zm-4.004-6.552v-1.008h5.152v1.008h-5.152zm10.036 6.72c-.653 0-1.218-.112-1.694-.336a3.281 3.281 0 0 1-1.162-.882 3.93 3.93 0 0 1-.672-1.246 4.757 4.757 0 0 1-.21-1.4v-.252c0-.485.07-.957.21-1.414.15-.457.374-.868.672-1.232a3.13 3.13 0 0 1 1.134-.882c.467-.224 1.013-.336 1.638-.336.812 0 1.48.177 2.002.532.532.345.924.793 1.176 1.344.262.55.392 1.139.392 1.764v.602h-6.636v-1.008h5.656l-.308.546c0-.532-.084-.99-.252-1.372a1.969 1.969 0 0 0-.756-.91c-.336-.215-.76-.322-1.274-.322-.532 0-.975.121-1.33.364a2.254 2.254 0 0 0-.784.994c-.168.42-.252.905-.252 1.456 0 .532.084 1.013.252 1.442.178.42.448.756.812 1.008.364.243.826.364 1.386.364.588 0 1.064-.13 1.428-.392.374-.261.598-.565.672-.91h1.26a2.966 2.966 0 0 1-.616 1.33 2.971 2.971 0 0 1-1.162.854c-.466.196-.994.294-1.582.294zM84.124 58V47.78h1.344V58h-1.344zm-1.036-9.156V47.78h2.38v1.064h-2.38z"/><path fill="#FBF9CD" fill-opacity=".42" d="M174.803.803h153.393v90.393H174.803z"/><path stroke="#000" stroke-width="1.607" d="M174.803.803h153.393v90.393H174.803z"/><g fill="#252836" clip-path="url(#b)"><path d="M205.586 40.057a.933.933 0 0 0 .13.907c.197.255.426.485.681.681a.93.93 0 0 0 .907.13l.055-.021c.169.085.344.157.523.216l.024.056a.923.923 0 0 0 .734.548c.32.041.643.041.962 0a.931.931 0 0 0 .734-.548l.024-.056a3.84 3.84 0 0 0 .523-.216l.055.022a.926.926 0 0 0 .907-.13 3.79 3.79 0 0 0 .681-.682.933.933 0 0 0 .13-.907l-.021-.055a3.94 3.94 0 0 0 .216-.523l.055-.023a.93.93 0 0 0 .549-.735 3.77 3.77 0 0 0 0-.961.935.935 0 0 0-.549-.732l-.055-.024a3.933 3.933 0 0 0-.216-.523l.021-.055a.933.933 0 0 0-.13-.907 3.761 3.761 0 0 0-.681-.681.932.932 0 0 0-.907-.13l-.055.021a3.84 3.84 0 0 0-.523-.216l-.024-.055a.923.923 0 0 0-.734-.55 3.9 3.9 0 0 0-.962 0 .933.933 0 0 0-.731.55l-.024.055c-.18.059-.355.131-.523.216l-.055-.021a.93.93 0 0 0-.907.13 3.698 3.698 0 0 0-.681.681.923.923 0 0 0-.131.907l.022.055a3.804 3.804 0 0 0-.216.523l-.056.024a.93.93 0 0 0-.549.734c-.04.32-.04.642 0 .961a.926.926 0 0 0 .549.732l.056.024c.059.18.131.354.216.523l-.024.055zm.396-2.253a.481.481 0 0 0 .278-.322c.067-.255.168-.5.301-.727a.479.479 0 0 0 .031-.423l-.108-.225c.073-.095.152-.185.236-.27.081-.072.156-.15.225-.233l.266.105a.485.485 0 0 0 .423-.03 2.88 2.88 0 0 1 .728-.302.479.479 0 0 0 .321-.277l.08-.233c.119-.015.238-.022.358-.021.108.006.217.003.324-.007l.113.263a.482.482 0 0 0 .321.277c.255.067.5.169.728.301a.489.489 0 0 0 .423.031l.222-.107c.094.073.184.152.269.236.072.08.15.156.234.225l-.106.265a.48.48 0 0 0 .031.424c.133.227.234.472.301.727a.489.489 0 0 0 .278.322l.232.079a2.69 2.69 0 0 1 .004.694l-.235.101a.481.481 0 0 0-.278.322c-.067.255-.168.5-.301.727a.479.479 0 0 0-.031.424l.108.221a2.884 2.884 0 0 1-.236.269c-.081.073-.156.15-.225.234l-.266-.105a.485.485 0 0 0-.423.03 2.919 2.919 0 0 1-.728.302.479.479 0 0 0-.321.277l-.08.233a2.79 2.79 0 0 1-.358.024 2.202 2.202 0 0 0-.324.007l-.113-.263a.482.482 0 0 0-.321-.277 2.926 2.926 0 0 1-.728-.301.486.486 0 0 0-.422-.032l-.221.108a2.727 2.727 0 0 1-.269-.236 2.334 2.334 0 0 0-.234-.225l.105-.265a.48.48 0 0 0-.031-.424 2.946 2.946 0 0 1-.301-.727.486.486 0 0 0-.277-.322l-.233-.08a2.865 2.865 0 0 1-.026-.358 2.067 2.067 0 0 0-.007-.324l.263-.112z"/><path d="M209.12 40.18a1.939 1.939 0 1 0-.001-3.877 1.939 1.939 0 0 0 .001 3.878zm0-2.91a.968.968 0 0 1 .896.6.977.977 0 0 1-.211 1.056.966.966 0 0 1-1.057.21.973.973 0 0 1-.598-.895.97.97 0 0 1 .97-.97z"/><path d="M197.481 54.732a.825.825 0 0 0 .482.763l10.803 4.98a.865.865 0 0 0 .713-.001l10.803-4.979a.838.838 0 0 0 .478-.756.833.833 0 0 0-.482-.753l-2.045-.942 2.049-.943a.836.836 0 0 0 .478-.756.832.832 0 0 0-.482-.754l-2.041-.94 2.037-.938a.834.834 0 0 0 .483-.755.836.836 0 0 0-.483-.755l-7.217-3.324a2.76 2.76 0 0 1 .41-.42 6.793 6.793 0 0 0 2.029-7.549 6.788 6.788 0 1 0-10.654 7.605c.13.106.247.227.349.36l-7.225 3.328a.83.83 0 0 0 0 1.51l2.036.938-2.036.94a.834.834 0 0 0-.353 1.204c.086.134.208.24.353.308l2.044.941-2.044.941a.816.816 0 0 0-.485.747zm14.063-5.82a.485.485 0 0 1-.485.486h-3.879a.484.484 0 1 1 0-.97h3.879a.484.484 0 0 1 .485.485zm.485-1.454h-5.819a.485.485 0 1 1 0-.97h5.819a.485.485 0 1 1 0 .97zm-8.729-9.215a5.823 5.823 0 0 1 2.696-4.91 5.823 5.823 0 0 1 7.823 1.478 5.82 5.82 0 0 1-.972 7.902 3.488 3.488 0 0 0-1.303 2.672v.133h-4.849v-.049a3.45 3.45 0 0 0-1.242-2.705 5.787 5.787 0 0 1-2.153-4.52zm2.323 6.501c.067.236.101.48.102.725v.14a1.451 1.451 0 0 0-.969 1.422 1.445 1.445 0 0 0 1.076 1.342c-.09.22-.123.46-.098.696a1.44 1.44 0 0 0 .763 1.13c.211.111.445.17.683.168h3.879a1.452 1.452 0 0 0 1.349-1.996 1.45 1.45 0 0 0 1.075-1.342 1.449 1.449 0 0 0-.969-1.422v-.222c.002-.218.035-.434.097-.643l6.984 3.216-10.475 4.822-10.476-4.822 6.979-3.214zm-4.462 5.44 7.603 3.5a.842.842 0 0 0 .712 0l7.604-3.5 2.522 1.163-10.482 4.829-10.481-4.829 2.522-1.163zm.005 3.395 7.601 3.502a.863.863 0 0 0 .712-.002l7.594-3.5 2.525 1.163-10.478 4.829-10.48-4.829 2.526-1.163z"/></g><path fill="#0D1B2A" d="M232.496 44v-9.268h1.372V44h-1.372zm-3.108-8.988V33.78h7.588v1.232h-7.588zm11.373 9.24c-.654 0-1.218-.112-1.694-.336a3.276 3.276 0 0 1-1.162-.882 3.918 3.918 0 0 1-.672-1.246 4.757 4.757 0 0 1-.21-1.4v-.252c0-.485.07-.957.21-1.414.149-.457.373-.868.672-1.232a3.12 3.12 0 0 1 1.134-.882c.466-.224 1.012-.336 1.638-.336.812 0 1.479.177 2.002.532.532.345.924.793 1.176 1.344.261.55.392 1.139.392 1.764v.602h-6.636v-1.008h5.656l-.308.546c0-.532-.084-.99-.252-1.372a1.969 1.969 0 0 0-.756-.91c-.336-.215-.761-.322-1.274-.322-.532 0-.976.121-1.33.364a2.248 2.248 0 0 0-.784.994c-.168.42-.252.905-.252 1.456 0 .532.084 1.013.252 1.442.177.42.448.756.812 1.008.364.243.826.364 1.386.364.588 0 1.064-.13 1.428-.392.373-.261.597-.565.672-.91h1.26a2.97 2.97 0 0 1-.616 1.33 2.976 2.976 0 0 1-1.162.854 4.052 4.052 0 0 1-1.582.294zm8.46 0c-.644 0-1.204-.112-1.68-.336a3.372 3.372 0 0 1-1.162-.896 4.191 4.191 0 0 1-.7-1.26 4.407 4.407 0 0 1-.224-1.372v-.252c0-.476.075-.943.224-1.4.159-.457.392-.868.7-1.232a3.514 3.514 0 0 1 1.176-.896c.467-.224 1.013-.336 1.638-.336s1.185.117 1.68.35c.504.233.905.565 1.204.994.308.42.481.92.518 1.498h-1.288a1.802 1.802 0 0 0-.644-1.162c-.364-.317-.854-.476-1.47-.476-.532 0-.975.121-1.33.364a2.215 2.215 0 0 0-.798.994c-.177.42-.266.896-.266 1.428 0 .513.089.985.266 1.414.177.42.443.756.798 1.008.364.243.817.364 1.358.364.42 0 .784-.075 1.092-.224.308-.15.555-.35.742-.602.187-.252.299-.537.336-.854h1.288c-.028.588-.201 1.097-.518 1.526a3.13 3.13 0 0 1-1.232 1.008c-.504.233-1.073.35-1.708.35zm5.144-.252V33.78h1.344v6.104h-.336c0-.737.093-1.372.28-1.904.196-.541.495-.957.896-1.246.401-.29.915-.434 1.54-.434h.056c.896 0 1.573.299 2.03.896.457.588.686 1.433.686 2.534V44h-1.344v-4.55c0-.607-.173-1.078-.518-1.414-.336-.336-.775-.504-1.316-.504-.597 0-1.078.2-1.442.602-.355.392-.532.91-.532 1.554V44h-1.344zm15.375.252c-.85 0-1.573-.14-2.17-.42-.598-.28-1.055-.667-1.372-1.162a3.039 3.039 0 0 1-.476-1.68h1.372c0 .308.079.616.238.924.168.308.443.565.826.77.392.205.919.308 1.582.308.616 0 1.12-.089 1.512-.266.392-.187.681-.425.868-.714.186-.299.28-.62.28-.966 0-.42-.182-.765-.546-1.036-.364-.28-.896-.453-1.596-.518l-1.134-.098c-.906-.075-1.629-.355-2.17-.84-.542-.485-.812-1.125-.812-1.918 0-.625.149-1.171.448-1.638.308-.467.732-.83 1.274-1.092.541-.27 1.171-.406 1.89-.406.709 0 1.334.13 1.876.392.541.261.961.63 1.26 1.106.308.467.462 1.027.462 1.68h-1.372a1.9 1.9 0 0 0-.238-.924 1.76 1.76 0 0 0-.714-.714c-.327-.187-.752-.28-1.274-.28-.504 0-.924.089-1.26.266-.327.177-.574.41-.742.7a1.81 1.81 0 0 0-.238.91c0 .373.144.705.434.994.289.29.718.457 1.288.504l1.134.098c.7.056 1.302.205 1.806.448.513.233.905.55 1.176.952.28.392.42.863.42 1.414 0 .625-.168 1.18-.504 1.666-.336.485-.808.863-1.414 1.134-.607.27-1.312.406-2.114.406zm8.91-.168c-.56 0-1.045-.08-1.456-.238a1.852 1.852 0 0 1-.938-.812c-.215-.392-.322-.92-.322-1.582v-7.196h1.288v7.364c0 .401.107.714.322.938.224.215.537.322.938.322h1.316v1.204h-1.148zm-4.004-6.552v-1.008h5.152v1.008h-5.152zM286.054 44v-2.24h-.224v-2.59c0-.513-.136-.9-.406-1.162-.262-.261-.649-.392-1.162-.392-.29 0-.588.005-.896.014l-.882.028c-.28.01-.523.023-.728.042v-1.176c.205-.019.42-.033.644-.042.233-.019.471-.028.714-.028.242-.01.476-.014.7-.014.765 0 1.39.093 1.876.28.485.177.844.471 1.078.882.233.41.35.966.35 1.666V44h-1.064zm-2.45.196c-.56 0-1.046-.093-1.456-.28a2.212 2.212 0 0 1-.938-.84c-.215-.364-.322-.803-.322-1.316 0-.532.116-.975.35-1.33.242-.355.592-.62 1.05-.798.457-.187 1.008-.28 1.652-.28h2.03v1.008h-2.086c-.542 0-.957.13-1.246.392-.29.261-.434.597-.434 1.008 0 .41.144.742.434.994.289.252.704.378 1.246.378.317 0 .62-.056.91-.168.289-.121.527-.317.714-.588.196-.28.303-.663.322-1.148l.364.532c-.047.532-.178.98-.392 1.344a2.033 2.033 0 0 1-.868.812c-.364.187-.808.28-1.33.28zm9.046.056c-.644 0-1.204-.112-1.68-.336a3.382 3.382 0 0 1-1.162-.896 4.191 4.191 0 0 1-.7-1.26 4.407 4.407 0 0 1-.224-1.372v-.252c0-.476.075-.943.224-1.4.159-.457.392-.868.7-1.232.318-.373.71-.672 1.176-.896.467-.224 1.013-.336 1.638-.336.626 0 1.186.117 1.68.35a2.93 2.93 0 0 1 1.204.994c.308.42.481.92.518 1.498h-1.288a1.802 1.802 0 0 0-.644-1.162c-.364-.317-.854-.476-1.47-.476-.532 0-.975.121-1.33.364a2.23 2.23 0 0 0-.798.994c-.177.42-.266.896-.266 1.428 0 .513.089.985.266 1.414.178.42.444.756.798 1.008.364.243.817.364 1.358.364.42 0 .784-.075 1.092-.224.308-.15.556-.35.742-.602.187-.252.299-.537.336-.854h1.288c-.028.588-.2 1.097-.518 1.526a3.12 3.12 0 0 1-1.232 1.008c-.504.233-1.073.35-1.708.35zM302.947 44l-2.814-3.486h-1.232l3.43-3.99h1.414l-3.108 3.598.098-.714L304.501 44h-1.554zm-5.152 0V33.78h1.344V44h-1.344zm-67.287 14V47.724h1.372V58h-1.372zm6.314 0-3.388-4.55h1.61l3.444 4.55h-1.666zm-5.46-3.696v-1.218h2.744c.43 0 .798-.089 1.106-.266.308-.177.546-.42.714-.728.168-.317.252-.677.252-1.078s-.084-.756-.252-1.064a1.823 1.823 0 0 0-.714-.742c-.308-.187-.676-.28-1.106-.28h-2.744v-1.204h2.492c.747 0 1.4.112 1.96.336.56.224.994.57 1.302 1.036.308.467.462 1.069.462 1.806v.224c0 .737-.158 1.34-.476 1.806-.308.467-.742.812-1.302 1.036-.55.224-1.199.336-1.946.336h-2.492zm11.654 3.948c-.653 0-1.218-.112-1.694-.336a3.285 3.285 0 0 1-1.162-.882 3.958 3.958 0 0 1-.672-1.246 4.757 4.757 0 0 1-.21-1.4v-.252c0-.485.07-.957.21-1.414.15-.457.374-.868.672-1.232a3.137 3.137 0 0 1 1.134-.882c.467-.224 1.013-.336 1.638-.336.812 0 1.48.177 2.002.532.532.345.924.793 1.176 1.344.262.55.392 1.139.392 1.764v.602h-6.636v-1.008h5.656l-.308.546c0-.532-.084-.99-.252-1.372a1.969 1.969 0 0 0-.756-.91c-.336-.215-.76-.322-1.274-.322-.532 0-.975.121-1.33.364a2.262 2.262 0 0 0-.784.994c-.168.42-.252.905-.252 1.456 0 .532.084 1.013.252 1.442.178.42.448.756.812 1.008.364.243.826.364 1.386.364.588 0 1.064-.13 1.428-.392.374-.261.598-.565.672-.91h1.26a2.959 2.959 0 0 1-.616 1.33 2.969 2.969 0 0 1-1.162.854c-.466.196-.994.294-1.582.294zm7.705-.028c-.98 0-1.741-.21-2.282-.63-.532-.42-.808-.994-.826-1.722h1.26c.018.29.163.565.434.826.28.252.751.378 1.414.378.597 0 1.054-.117 1.372-.35.317-.243.476-.537.476-.882 0-.308-.117-.546-.35-.714-.234-.177-.612-.294-1.134-.35l-.812-.084c-.71-.075-1.288-.285-1.736-.63-.448-.355-.672-.85-.672-1.484 0-.476.121-.882.364-1.218a2.237 2.237 0 0 1 1.008-.784c.429-.187.924-.28 1.484-.28.84 0 1.521.187 2.044.56.522.373.793.929.812 1.666h-1.26c-.01-.299-.15-.55-.42-.756-.262-.215-.654-.322-1.176-.322-.523 0-.92.107-1.19.322a.994.994 0 0 0-.406.812c0 .28.093.504.28.672.196.168.513.275.952.322l.812.084c.802.084 1.446.308 1.932.672.485.355.728.859.728 1.512 0 .467-.136.882-.406 1.246-.262.355-.626.635-1.092.84-.467.196-1.004.294-1.61.294zm8.094.028c-.654 0-1.218-.112-1.694-.336a3.276 3.276 0 0 1-1.162-.882 3.918 3.918 0 0 1-.672-1.246 4.757 4.757 0 0 1-.21-1.4v-.252c0-.485.07-.957.21-1.414.149-.457.373-.868.672-1.232a3.12 3.12 0 0 1 1.134-.882c.466-.224 1.012-.336 1.638-.336.812 0 1.479.177 2.002.532.532.345.924.793 1.176 1.344.261.55.392 1.139.392 1.764v.602h-6.636v-1.008h5.656l-.308.546c0-.532-.084-.99-.252-1.372a1.969 1.969 0 0 0-.756-.91c-.336-.215-.761-.322-1.274-.322-.532 0-.976.121-1.33.364a2.248 2.248 0 0 0-.784.994c-.168.42-.252.905-.252 1.456 0 .532.084 1.013.252 1.442.177.42.448.756.812 1.008.364.243.826.364 1.386.364.588 0 1.064-.13 1.428-.392.373-.261.597-.565.672-.91h1.26a2.97 2.97 0 0 1-.616 1.33 2.976 2.976 0 0 1-1.162.854 4.052 4.052 0 0 1-1.582.294zm9.776-.252v-2.24h-.224v-2.59c0-.513-.136-.9-.406-1.162-.262-.261-.649-.392-1.162-.392-.29 0-.588.005-.896.014l-.882.028c-.28.01-.523.023-.728.042v-1.176c.205-.019.42-.033.644-.042.233-.019.471-.028.714-.028.242-.01.476-.014.7-.014.765 0 1.39.093 1.876.28.485.177.844.471 1.078.882.233.41.35.966.35 1.666V58h-1.064zm-2.45.196c-.56 0-1.046-.093-1.456-.28a2.212 2.212 0 0 1-.938-.84c-.215-.364-.322-.803-.322-1.316 0-.532.116-.975.35-1.33.242-.355.592-.62 1.05-.798.457-.187 1.008-.28 1.652-.28h2.03v1.008h-2.086c-.542 0-.957.13-1.246.392-.29.261-.434.597-.434 1.008 0 .41.144.742.434.994.289.252.704.378 1.246.378.317 0 .62-.056.91-.168.289-.121.527-.317.714-.588.196-.28.303-.663.322-1.148l.364.532c-.047.532-.178.98-.392 1.344a2.033 2.033 0 0 1-.868.812c-.364.187-.808.28-1.33.28zm5.841-.196v-7.476h1.064v3.08h-.056c0-1.092.238-1.89.714-2.394.485-.513 1.208-.77 2.17-.77h.252v1.204h-.476c-.747 0-1.321.2-1.722.602-.402.392-.602.961-.602 1.708V58h-1.344zm8.726.252c-.644 0-1.204-.112-1.68-.336a3.372 3.372 0 0 1-1.162-.896 4.17 4.17 0 0 1-.7-1.26 4.378 4.378 0 0 1-.224-1.372v-.252c0-.476.074-.943.224-1.4.158-.457.392-.868.7-1.232a3.514 3.514 0 0 1 1.176-.896c.466-.224 1.012-.336 1.638-.336.625 0 1.185.117 1.68.35.504.233.905.565 1.204.994.308.42.48.92.518 1.498h-1.288a1.806 1.806 0 0 0-.644-1.162c-.364-.317-.854-.476-1.47-.476-.532 0-.976.121-1.33.364a2.215 2.215 0 0 0-.798.994c-.178.42-.266.896-.266 1.428 0 .513.088.985.266 1.414.177.42.443.756.798 1.008.364.243.816.364 1.358.364.42 0 .784-.075 1.092-.224.308-.15.555-.35.742-.602.186-.252.298-.537.336-.854h1.288c-.028.588-.201 1.097-.518 1.526a3.13 3.13 0 0 1-1.232 1.008c-.504.233-1.074.35-1.708.35zm5.144-.252V47.78h1.344v6.104h-.336c0-.737.093-1.372.28-1.904.196-.541.495-.957.896-1.246.401-.29.915-.434 1.54-.434h.056c.896 0 1.573.299 2.03.896.457.588.686 1.433.686 2.534V58h-1.344v-4.55c0-.607-.173-1.078-.518-1.414-.336-.336-.775-.504-1.316-.504-.597 0-1.078.2-1.442.602-.355.392-.532.91-.532 1.554V58h-1.344z"/><path fill="#F7E4F7" d="M.803 115.803h153.393v90.393H.803z"/><path stroke="#000" stroke-width="1.607" d="M.803 115.803h153.393v90.393H.803z"/><path fill="#252836" d="M46.121 152.386a.517.517 0 0 0-.355-.161l-1.774-.129c-.033-.581-.065-1.194-.097-1.807 0-.258-.226-.484-.517-.484-.129 0-.225.064-.322.129 0 0-2.452 2.484-2.743 2.775-.29.29-.161.742-.129 1.097l.065 1.355-1.033 1.032c-3.71-3.388-9.486-3.097-12.842.646-.096.096-.193.225-.29.322-3.226 3.872-2.71 9.648 1.162 12.906a9.15 9.15 0 0 0 7.679 1.936 9.25 9.25 0 0 0 7.26-7.517c.064-.484.129-.968.129-1.485a9.352 9.352 0 0 0-2.388-6.13l1.065-1.033 1.839.097c.194.032.42 0 .58-.129.678-.613 2.743-2.742 2.743-2.742a.5.5 0 0 0-.032-.678zm-4.808 10.615c0 4.518-3.678 8.196-8.195 8.196s-8.196-3.678-8.196-8.196c0-4.517 3.679-8.195 8.196-8.195 1.968 0 3.969.71 5.388 2.065l-2.065 2.065a5.29 5.29 0 0 0-1.548-.904c-2.743-1-5.84.388-6.873 3.162-1.032 2.775.355 5.873 3.13 6.905 2.775 1.033 5.872-.355 6.905-3.129a5.396 5.396 0 0 0-.904-5.324l2.065-2.065a8.036 8.036 0 0 1 2.097 5.42zm-9.227-.903a1.386 1.386 0 0 0 .129 1.968c.58.516 1.451.452 1.968-.129.193-.226.322-.516.355-.839v-.097a1.45 1.45 0 0 0-.162-.613l2.098-2.097c.193.258 1.064 1.452.87 3.162-.032.258-.257 1.904-1.677 2.936-1.613 1.162-4.291 1.162-5.84-.677-1.517-1.807-1.226-4.582.548-6.034a4.28 4.28 0 0 1 5.421-.065l-2.097 2.098c-.032 0-.065-.033-.097-.033a1.48 1.48 0 0 0-1.516.42zm1.516.903a.441.441 0 0 1-.452.452.441.441 0 0 1-.451-.452.44.44 0 0 1 .451-.451c.226 0 .452.225.452.451zm7.518-9.679 1.871-1.904.065.968-1.872 1.871c0-.322-.032-.645-.064-.935zm1.71 1.645-.968-.032.774-.774 1.065-1.065.936.064-1.807 1.807z"/><path fill="#0D1B2A" d="M58.12 159v-10.22h1.372V159H58.12zm4.039 0v-7.476h1.064v3.206h-.168c0-.737.098-1.358.294-1.862.205-.513.513-.901.924-1.162.41-.271.928-.406 1.554-.406h.056c.942 0 1.638.294 2.086.882.457.588.686 1.437.686 2.548V159H67.31v-4.55c0-.579-.164-1.041-.49-1.386-.327-.355-.775-.532-1.344-.532-.588 0-1.064.182-1.428.546-.364.364-.546.849-.546 1.456V159h-1.344zm11.727.084c-.56 0-1.045-.079-1.456-.238a1.851 1.851 0 0 1-.938-.812c-.215-.392-.322-.919-.322-1.582v-7.196h1.288v7.364c0 .401.107.714.322.938.224.215.537.322.938.322h1.316v1.204h-1.148zm-4.004-6.552v-1.008h5.152v1.008h-5.152zm10.036 6.72c-.653 0-1.218-.112-1.694-.336a3.281 3.281 0 0 1-1.162-.882 3.93 3.93 0 0 1-.672-1.246 4.755 4.755 0 0 1-.21-1.4v-.252c0-.485.07-.957.21-1.414a3.77 3.77 0 0 1 .672-1.232 3.137 3.137 0 0 1 1.134-.882c.467-.224 1.013-.336 1.638-.336.812 0 1.48.177 2.002.532.532.345.924.793 1.176 1.344a4.07 4.07 0 0 1 .392 1.764v.602h-6.636v-1.008h5.656l-.308.546c0-.532-.084-.989-.252-1.372a1.97 1.97 0 0 0-.756-.91c-.336-.215-.76-.322-1.274-.322-.532 0-.975.121-1.33.364a2.256 2.256 0 0 0-.784.994c-.168.42-.252.905-.252 1.456 0 .532.084 1.013.252 1.442.177.42.448.756.812 1.008.364.243.826.364 1.386.364.588 0 1.064-.131 1.428-.392.373-.261.597-.565.672-.91h1.26a2.966 2.966 0 0 1-.616 1.33 2.974 2.974 0 0 1-1.162.854 4.052 4.052 0 0 1-1.582.294zm5.254-.252v-7.476h1.064v3.206h-.168c0-.737.098-1.358.294-1.862.206-.513.514-.901.924-1.162.411-.271.929-.406 1.554-.406h.056c.943 0 1.638.294 2.086.882.458.588.686 1.437.686 2.548V159h-1.344v-4.55c0-.579-.163-1.041-.49-1.386-.326-.355-.774-.532-1.344-.532-.588 0-1.064.182-1.428.546-.364.364-.546.849-.546 1.456V159h-1.344zm11.727.084c-.56 0-1.045-.079-1.456-.238a1.851 1.851 0 0 1-.938-.812c-.214-.392-.322-.919-.322-1.582v-7.196h1.288v7.364c0 .401.108.714.322.938.224.215.537.322.938.322h1.316v1.204H96.9zm-4.004-6.552v-1.008h5.152v1.008h-5.152zM58.092 173v-10.276h1.372V173h-1.372zm6.314 0-3.388-4.55h1.61l3.444 4.55h-1.666zm-5.46-3.696v-1.218h2.744c.43 0 .798-.089 1.106-.266.308-.177.546-.42.714-.728.168-.317.252-.677.252-1.078s-.084-.756-.252-1.064a1.823 1.823 0 0 0-.714-.742c-.308-.187-.676-.28-1.106-.28h-2.744v-1.204h2.492c.747 0 1.4.112 1.96.336.56.224.994.569 1.302 1.036.308.467.462 1.069.462 1.806v.224c0 .737-.158 1.339-.476 1.806-.308.467-.742.812-1.302 1.036-.55.224-1.199.336-1.946.336h-2.492zm11.654 3.948c-.653 0-1.218-.112-1.694-.336a3.282 3.282 0 0 1-1.162-.882 3.93 3.93 0 0 1-.672-1.246 4.755 4.755 0 0 1-.21-1.4v-.252c0-.485.07-.957.21-1.414a3.77 3.77 0 0 1 .672-1.232 3.139 3.139 0 0 1 1.134-.882c.467-.224 1.013-.336 1.638-.336.812 0 1.48.177 2.002.532.532.345.924.793 1.176 1.344.262.551.392 1.139.392 1.764v.602H67.45v-1.008h5.656l-.308.546c0-.532-.084-.989-.252-1.372a1.97 1.97 0 0 0-.756-.91c-.336-.215-.76-.322-1.274-.322-.532 0-.975.121-1.33.364a2.256 2.256 0 0 0-.784.994c-.168.42-.252.905-.252 1.456 0 .532.084 1.013.252 1.442.178.42.448.756.812 1.008.364.243.826.364 1.386.364.588 0 1.064-.131 1.428-.392.374-.261.598-.565.672-.91h1.26a2.966 2.966 0 0 1-.616 1.33 2.974 2.974 0 0 1-1.162.854c-.466.196-.994.294-1.582.294zm7.705-.028c-.98 0-1.741-.21-2.282-.63-.532-.42-.808-.994-.826-1.722h1.26c.018.289.163.565.434.826.28.252.751.378 1.414.378.597 0 1.054-.117 1.372-.35.317-.243.476-.537.476-.882 0-.308-.117-.546-.35-.714-.234-.177-.612-.294-1.134-.35l-.812-.084c-.71-.075-1.288-.285-1.736-.63-.448-.355-.672-.849-.672-1.484 0-.476.121-.882.364-1.218a2.243 2.243 0 0 1 1.008-.784c.429-.187.924-.28 1.484-.28.84 0 1.521.187 2.044.56.522.373.793.929.812 1.666H79.9c-.01-.299-.15-.551-.42-.756-.262-.215-.654-.322-1.176-.322-.523 0-.92.107-1.19.322-.271.215-.406.485-.406.812 0 .28.093.504.28.672.196.168.513.275.952.322l.812.084c.802.084 1.446.308 1.932.672.485.355.728.859.728 1.512 0 .467-.136.882-.406 1.246-.262.355-.626.635-1.092.84-.467.196-1.004.294-1.61.294zm8.093.028c-.653 0-1.218-.112-1.694-.336a3.282 3.282 0 0 1-1.161-.882 3.934 3.934 0 0 1-.672-1.246 4.755 4.755 0 0 1-.21-1.4v-.252c0-.485.07-.957.21-1.414.149-.457.373-.868.672-1.232a3.139 3.139 0 0 1 1.133-.882c.467-.224 1.013-.336 1.638-.336.813 0 1.48.177 2.003.532.532.345.924.793 1.176 1.344.26.551.392 1.139.392 1.764v.602h-6.636v-1.008h5.656l-.308.546c0-.532-.084-.989-.252-1.372a1.97 1.97 0 0 0-.757-.91c-.335-.215-.76-.322-1.273-.322-.532 0-.976.121-1.33.364a2.257 2.257 0 0 0-.784.994c-.168.42-.252.905-.252 1.456 0 .532.084 1.013.252 1.442.177.42.448.756.812 1.008.363.243.825.364 1.385.364.589 0 1.065-.131 1.428-.392.374-.261.598-.565.673-.91h1.26a2.965 2.965 0 0 1-.617 1.33 2.974 2.974 0 0 1-1.161.854 4.052 4.052 0 0 1-1.582.294zm9.777-.252v-2.24h-.224v-2.59c0-.513-.135-.901-.406-1.162-.261-.261-.649-.392-1.162-.392-.29 0-.588.005-.896.014l-.882.028c-.28.009-.523.023-.728.042v-1.176c.205-.019.42-.033.644-.042.233-.019.471-.028.714-.028.243-.009.476-.014.7-.014.765 0 1.39.093 1.876.28.485.177.844.471 1.078.882.233.411.35.966.35 1.666V173h-1.064zm-2.45.196c-.56 0-1.045-.093-1.456-.28a2.216 2.216 0 0 1-.938-.84c-.215-.364-.322-.803-.322-1.316 0-.532.117-.975.35-1.33.243-.355.593-.621 1.05-.798.457-.187 1.008-.28 1.652-.28h2.03v1.008h-2.086c-.541 0-.957.131-1.246.392-.29.261-.434.597-.434 1.008 0 .411.144.742.434.994.29.252.704.378 1.246.378.317 0 .62-.056.91-.168a1.61 1.61 0 0 0 .714-.588c.196-.28.303-.663.322-1.148l.364.532c-.047.532-.177.98-.392 1.344a2.028 2.028 0 0 1-.868.812c-.364.187-.808.28-1.33.28zm5.84-.196v-7.476h1.065v3.08h-.056c0-1.092.238-1.89.714-2.394.485-.513 1.208-.77 2.17-.77h.252v1.204h-.476c-.747 0-1.321.201-1.722.602-.402.392-.602.961-.602 1.708V173h-1.344zm8.727.252c-.644 0-1.204-.112-1.68-.336a3.376 3.376 0 0 1-1.162-.896 4.177 4.177 0 0 1-.7-1.26 4.378 4.378 0 0 1-.224-1.372v-.252c0-.476.074-.943.224-1.4.158-.457.392-.868.7-1.232a3.518 3.518 0 0 1 1.176-.896c.466-.224 1.012-.336 1.638-.336.625 0 1.185.117 1.68.35.504.233.905.565 1.204.994.308.42.48.919.518 1.498h-1.288a1.805 1.805 0 0 0-.644-1.162c-.364-.317-.854-.476-1.47-.476-.532 0-.976.121-1.33.364a2.216 2.216 0 0 0-.798.994c-.178.42-.266.896-.266 1.428 0 .513.088.985.266 1.414.177.42.443.756.798 1.008.364.243.816.364 1.358.364.42 0 .784-.075 1.092-.224.308-.149.555-.35.742-.602.186-.252.298-.537.336-.854h1.288c-.028.588-.201 1.097-.518 1.526a3.135 3.135 0 0 1-1.232 1.008c-.504.233-1.074.35-1.708.35zm5.144-.252v-10.22h1.344v6.104h-.336c0-.737.093-1.372.28-1.904.196-.541.495-.957.896-1.246.401-.289.915-.434 1.54-.434h.056c.896 0 1.573.299 2.03.896.457.588.686 1.433.686 2.534V173h-1.344v-4.55c0-.607-.173-1.078-.518-1.414-.336-.336-.775-.504-1.316-.504-.597 0-1.078.201-1.442.602-.355.392-.532.91-.532 1.554V173h-1.344z"/><path fill="#E4E5F7" d="M174.803 115.803h153.393v90.393H174.803z"/><path stroke="#000" stroke-width="1.607" d="M174.803 115.803h153.393v90.393H174.803z"/><g fill="#252836" clip-path="url(#c)"><path d="M210.364 168.672a1.663 1.663 0 0 0-1.246-2.758c-.916 0-1.661.745-1.661 1.661 0 .42.158.804.416 1.097a2.327 2.327 0 0 0-1.085 1.97.342.342 0 1 0 .683 0c0-.663.395-1.259 1.006-1.517l.02-.01a1.648 1.648 0 0 0 1.241 0l.01.005a1.642 1.642 0 0 1 1.017 1.522.342.342 0 1 0 .683 0c0-.811-.415-1.548-1.084-1.97zm-2.223-1.097a.979.979 0 0 1 1.955 0 .979.979 0 0 1-1.955 0zm-8.355-13.242c.219 0 .428-.043.62-.12a1.643 1.643 0 0 1 1.027 1.527.342.342 0 0 0 .683 0c0-.812-.415-1.548-1.084-1.97a1.663 1.663 0 0 0-1.246-2.758c-.916 0-1.661.745-1.661 1.661 0 .42.158.804.416 1.097a2.326 2.326 0 0 0-1.085 1.97.342.342 0 0 0 .683 0c0-.664.395-1.259 1.006-1.518l.02-.009c.192.077.402.12.621.12zm0-2.638a.979.979 0 1 1-.977.978c0-.539.438-.978.977-.978zm7.003 4.045a.341.341 0 1 0 .683 0c0-.664.395-1.259 1.006-1.518l.02-.009a1.667 1.667 0 0 0 1.241 0l.006.003c.62.255 1.021.853 1.021 1.524a.342.342 0 0 0 .683 0c0-.812-.415-1.548-1.084-1.97a1.663 1.663 0 0 0-1.246-2.758c-.916 0-1.661.745-1.661 1.661 0 .42.158.804.416 1.097a2.326 2.326 0 0 0-1.085 1.97zm2.33-4.045a.979.979 0 1 1-.977.978c0-.539.438-.978.977-.978zm10.579 2.075a1.663 1.663 0 0 0-1.246-2.758c-.916 0-1.661.745-1.661 1.661 0 .42.158.804.416 1.097a2.326 2.326 0 0 0-1.085 1.97.342.342 0 0 0 .683 0c0-.664.395-1.259 1.006-1.518l.02-.009a1.667 1.667 0 0 0 1.241 0l.006.003c.62.255 1.021.853 1.021 1.524a.342.342 0 0 0 .683 0c0-.812-.415-1.548-1.084-1.97zm-2.223-1.097a.979.979 0 0 1 1.955 0 .979.979 0 0 1-1.955 0z"/><path d="M218.507 156.886h-.001a.343.343 0 0 0-.342.341l-.007 2.378a.57.57 0 0 1-.57.567h-.001l-1.612-.005a1.943 1.943 0 0 0-1.913-1.619c-.954 0-1.748.691-1.91 1.598h-2.763v-2.976a.342.342 0 1 0-.684 0v2.976h-2.619a1.943 1.943 0 0 0-1.909-1.598c-.946 0-1.736.68-1.906 1.577l-1.627-.005a.567.567 0 0 1-.568-.571l.007-2.378a.341.341 0 0 0-.34-.343h-.001a.342.342 0 0 0-.342.341l-.007 2.378c-.001.334.128.649.364.887.236.237.55.368.884.369l1.623.006a1.944 1.944 0 0 0 1.571 1.588l.009 5.272c0 .335.132.65.37.886.236.235.549.365.882.365h.007l.913-.005a.341.341 0 0 0-.001-.683h-.002l-.914.004a.567.567 0 0 1-.572-.568l-.008-5.271a1.943 1.943 0 0 0 1.567-1.567h6.066a1.943 1.943 0 0 0 1.568 1.567l-.009 5.271a.567.567 0 0 1-.569.568h-.003l-.914-.004h-.001a.342.342 0 0 0-.002.683l.914.005h.006c.333 0 .646-.13.883-.365a1.24 1.24 0 0 0 .369-.886l.009-5.272a1.943 1.943 0 0 0 1.564-1.547l1.617.006h.004c.689 0 1.251-.56 1.253-1.249l.007-2.378a.341.341 0 0 0-.34-.343zm-14.331 4.859a1.259 1.259 0 0 1-1.257-1.257 1.258 1.258 0 1 1 1.257 1.257zm9.885 0a1.259 1.259 0 0 1-1.257-1.257c0-.693.564-1.257 1.257-1.257.692 0 1.256.564 1.256 1.257s-.564 1.257-1.256 1.257z"/><path d="M211.981 163.57a.342.342 0 0 0 0-.683h-1.017a.342.342 0 1 0 0 .683h1.017zm-5.723 1.34h5.724a.342.342 0 0 0 0-.683h-5.724a.342.342 0 1 0 0 .683zm.001-1.34h.004a.341.341 0 0 0 .003-.683h-.005a.342.342 0 0 0-.007.683h.005zm1.184 0h.003a.342.342 0 0 0 .003-.683h-.004a.341.341 0 1 0-.007.683h.005zm1.182 0h.004a.341.341 0 0 0 .003-.683h-.005a.342.342 0 1 0-.006.683h.004z"/></g><path fill="#0D1B2A" d="M232.201 159.252c-.915 0-1.704-.163-2.366-.49a4.789 4.789 0 0 1-1.638-1.288 5.747 5.747 0 0 1-.966-1.708 5.435 5.435 0 0 1-.308-1.75v-.308c0-.607.107-1.218.322-1.834a5.075 5.075 0 0 1 .98-1.68 4.822 4.822 0 0 1 1.638-1.232c.662-.308 1.442-.462 2.338-.462.896 0 1.67.154 2.324.462a4.81 4.81 0 0 1 1.652 1.232 5.11 5.11 0 0 1 .98 1.68c.214.616.322 1.227.322 1.834v.308c0 .56-.108 1.143-.322 1.75a5.552 5.552 0 0 1-.952 1.708c-.43.532-.976.961-1.638 1.288-.663.327-1.452.49-2.366.49zm0-1.26c.597 0 1.134-.112 1.61-.336a3.653 3.653 0 0 0 1.232-.91c.336-.392.592-.831.77-1.316a4.58 4.58 0 0 0 .266-1.554c0-.569-.089-1.101-.266-1.596a3.887 3.887 0 0 0-.77-1.302 3.502 3.502 0 0 0-1.232-.896c-.476-.215-1.013-.322-1.61-.322-.598 0-1.139.107-1.624.322a3.532 3.532 0 0 0-1.218.896 3.87 3.87 0 0 0-.77 1.302 4.681 4.681 0 0 0-.266 1.596c0 .541.088 1.059.266 1.554.177.485.434.924.77 1.316.336.383.742.686 1.218.91a3.827 3.827 0 0 0 1.624.336zM239.4 159v-7.476h1.064v3.08h-.056c0-1.092.238-1.89.714-2.394.485-.513 1.209-.77 2.17-.77h.252v1.204h-.476c-.747 0-1.321.201-1.722.602-.401.392-.602.961-.602 1.708V159H239.4zm8.348 2.912c-.345 0-.695-.014-1.05-.042a15.148 15.148 0 0 1-.994-.112v-1.134a17 17 0 0 0 1.05.112c.373.037.723.056 1.05.056.681 0 1.223-.093 1.624-.28.411-.177.705-.462.882-.854.187-.383.28-.877.28-1.484v-1.428l.448-1.064c-.028.756-.187 1.386-.476 1.89a2.897 2.897 0 0 1-1.134 1.12 3.2 3.2 0 0 1-1.526.364 3.495 3.495 0 0 1-1.442-.294 3.525 3.525 0 0 1-1.12-.84 4.104 4.104 0 0 1-.728-1.218 4.31 4.31 0 0 1-.252-1.47v-.252c0-.523.089-1.008.266-1.456a3.62 3.62 0 0 1 .742-1.19 3.336 3.336 0 0 1 1.134-.784c.448-.187.938-.28 1.47-.28.625 0 1.176.135 1.652.406.476.261.849.649 1.12 1.162.28.504.434 1.125.462 1.862l-.392.014v-3.192h1.064v6.594c0 .896-.14 1.619-.42 2.17-.271.56-.709.971-1.316 1.232-.597.261-1.395.392-2.394.392zm.406-4.088c.448 0 .854-.098 1.218-.294.373-.196.667-.476.882-.84.224-.373.336-.817.336-1.33v-.644c0-.504-.117-.929-.35-1.274a2.165 2.165 0 0 0-.882-.784 2.686 2.686 0 0 0-1.19-.266c-.485 0-.915.112-1.288.336a2.258 2.258 0 0 0-.868.952c-.205.401-.308.877-.308 1.428 0 .551.103 1.031.308 1.442.215.411.504.728.868.952.373.215.798.322 1.274.322zM227.623 173v-10.22h1.82l3.024 6.818h.224l3.01-6.818h1.834V173h-1.372v-8.722l.098.028-2.898 6.58h-1.68l-2.912-6.58.112-.028V173h-1.26zm17.065 0v-2.24h-.224v-2.59c0-.513-.136-.901-.406-1.162-.262-.261-.649-.392-1.162-.392-.29 0-.588.005-.896.014l-.882.028c-.28.009-.523.023-.728.042v-1.176c.205-.019.42-.033.644-.042.233-.019.471-.028.714-.028.242-.009.476-.014.7-.014.765 0 1.39.093 1.876.28.485.177.844.471 1.078.882.233.411.35.966.35 1.666V173h-1.064zm-2.45.196c-.56 0-1.046-.093-1.456-.28a2.212 2.212 0 0 1-.938-.84c-.215-.364-.322-.803-.322-1.316 0-.532.116-.975.35-1.33.242-.355.592-.621 1.05-.798.457-.187 1.008-.28 1.652-.28h2.03v1.008h-2.086c-.542 0-.957.131-1.246.392-.29.261-.434.597-.434 1.008 0 .411.144.742.434.994.289.252.704.378 1.246.378.317 0 .62-.056.91-.168.289-.121.527-.317.714-.588.196-.28.303-.663.322-1.148l.364.532c-.047.532-.178.98-.392 1.344a2.033 2.033 0 0 1-.868.812c-.364.187-.808.28-1.33.28zm5.84 2.604v-10.276h1.064v3.234l-.252-.028c.047-.803.215-1.456.504-1.96.299-.513.686-.891 1.162-1.134a3.368 3.368 0 0 1 1.554-.364c.542 0 1.032.103 1.47.308.448.205.831.485 1.148.84.318.355.56.765.728 1.232.168.467.252.961.252 1.484v.252c0 .523-.088 1.017-.266 1.484a3.77 3.77 0 0 1-.756 1.232c-.317.355-.7.635-1.148.84a3.395 3.395 0 0 1-1.456.308c-.532 0-1.04-.117-1.526-.35-.485-.233-.886-.611-1.204-1.134-.317-.523-.499-1.209-.546-2.058l.616 1.12v4.97h-1.344zm3.794-3.724c.504 0 .943-.117 1.316-.35.374-.243.663-.574.868-.994.206-.429.308-.919.308-1.47 0-.56-.102-1.05-.308-1.47a2.327 2.327 0 0 0-.868-.98c-.373-.243-.812-.364-1.316-.364-.448 0-.863.103-1.246.308-.382.196-.69.485-.924.868-.224.373-.336.826-.336 1.358v.644c0 .513.117.952.35 1.316.234.364.542.644.924.84.383.196.794.294 1.232.294zm5.719 3.724v-10.276h1.064v3.234l-.252-.028c.046-.803.214-1.456.504-1.96.298-.513.686-.891 1.162-1.134a3.368 3.368 0 0 1 1.554-.364c.541 0 1.031.103 1.47.308.448.205.83.485 1.148.84.317.355.56.765.728 1.232.168.467.252.961.252 1.484v.252a4.15 4.15 0 0 1-.266 1.484c-.178.467-.43.877-.756 1.232-.318.355-.7.635-1.148.84a3.398 3.398 0 0 1-1.456.308 3.483 3.483 0 0 1-1.526-.35c-.486-.233-.887-.611-1.204-1.134-.318-.523-.5-1.209-.546-2.058l.616 1.12v4.97h-1.344zm3.794-3.724c.504 0 .942-.117 1.316-.35.373-.243.662-.574.868-.994.205-.429.308-.919.308-1.47 0-.56-.103-1.05-.308-1.47a2.34 2.34 0 0 0-.868-.98c-.374-.243-.812-.364-1.316-.364-.448 0-.864.103-1.246.308a2.286 2.286 0 0 0-.924.868c-.224.373-.336.826-.336 1.358v.644c0 .513.116.952.35 1.316.233.364.541.644.924.84.382.196.793.294 1.232.294zm6.082.924v-7.476h1.344V173h-1.344zm-1.148-6.412v-1.064h2.492v1.064h-2.492zm1.526-2.268c-.299 0-.523-.079-.672-.238a.876.876 0 0 1-.21-.602c0-.243.07-.443.21-.602.149-.159.373-.238.672-.238.299 0 .518.079.658.238a.845.845 0 0 1 .224.602.845.845 0 0 1-.224.602c-.14.159-.359.238-.658.238zm3.425 8.68v-7.476h1.064v3.206h-.168c0-.737.098-1.358.294-1.862.205-.513.513-.901.924-1.162.41-.271.928-.406 1.554-.406h.056c.942 0 1.638.294 2.086.882.457.588.686 1.437.686 2.548V173h-1.344v-4.55c0-.579-.164-1.041-.49-1.386-.327-.355-.775-.532-1.344-.532-.588 0-1.064.182-1.428.546-.364.364-.546.849-.546 1.456V173h-1.344zm11.643 2.912c-.346 0-.696-.014-1.05-.042a15.071 15.071 0 0 1-.994-.112v-1.134a17 17 0 0 0 1.05.112c.373.037.723.056 1.05.056.681 0 1.222-.093 1.624-.28a1.65 1.65 0 0 0 .882-.854c.186-.383.28-.877.28-1.484v-1.428l.448-1.064c-.028.756-.187 1.386-.476 1.89a2.91 2.91 0 0 1-1.134 1.12 3.202 3.202 0 0 1-1.526.364 3.491 3.491 0 0 1-1.442-.294 3.514 3.514 0 0 1-1.12-.84 4.104 4.104 0 0 1-.728-1.218 4.31 4.31 0 0 1-.252-1.47v-.252c0-.523.088-1.008.266-1.456.177-.457.424-.854.742-1.19a3.336 3.336 0 0 1 1.134-.784c.448-.187.938-.28 1.47-.28.625 0 1.176.135 1.652.406.476.261.849.649 1.12 1.162.28.504.434 1.125.462 1.862l-.392.014v-3.192h1.064v6.594c0 .896-.14 1.619-.42 2.17-.271.56-.71.971-1.316 1.232-.598.261-1.396.392-2.394.392zm.406-4.088c.448 0 .854-.098 1.218-.294.373-.196.667-.476.882-.84.224-.373.336-.817.336-1.33v-.644c0-.504-.117-.929-.35-1.274a2.165 2.165 0 0 0-.882-.784 2.686 2.686 0 0 0-1.19-.266c-.486 0-.915.112-1.288.336a2.252 2.252 0 0 0-.868.952c-.206.401-.308.877-.308 1.428 0 .551.102 1.031.308 1.442.214.411.504.728.868.952.373.215.798.322 1.274.322z"/><path fill="#E4F7F3" d="M.803 230.803h153.393v90.393H.803z"/><path stroke="#000" stroke-width="1.607" d="M.803 230.803h153.393v90.393H.803z"/><g fill="#252836" clip-path="url(#d)"><path d="m47.584 280.29-.59-.546-1.905 2.053a4.037 4.037 0 0 0-.611-.567v-16.474c0-.665-.54-1.205-1.205-1.205H23.996c-.664 0-1.205.54-1.205 1.205v20.883c0 .665.54 1.205 1.205 1.205h14.867a4.01 4.01 0 0 0 3.205 1.607 4.02 4.02 0 0 0 4.017-4.016c0-.716-.19-1.388-.52-1.97l2.019-2.175zm-23.588-15.936h19.277c.221 0 .402.18.402.402v3.614h-20.08v-3.614c0-.222.18-.402.4-.402zm-.402 21.285v-16.466h10.442v16.868h-10.04a.402.402 0 0 1-.402-.402zm11.245.402v-16.868h8.836v11.583a3.99 3.99 0 0 0-1.607-.338 4.021 4.021 0 0 0-4.016 4.017c0 .571.122 1.114.338 1.606h-3.55zm10.442-1.606a3.216 3.216 0 0 1-3.213 3.212 3.216 3.216 0 0 1-3.212-3.212 3.216 3.216 0 0 1 3.212-3.213c.994 0 1.884.453 2.473 1.164l-2.404 2.588-.93-1.549-.688.413 1.48 2.466 2.984-3.213c.19.409.298.864.298 1.344z"/><path d="M26.807 265.156h-2.41v2.41h2.41v-2.41zm-.803 1.607H25.2v-.804h.803v.804zm4.016-1.607h-2.41v2.41h2.41v-2.41zm-.803 1.607h-.803v-.804h.803v.804zm4.016-1.607h-2.41v2.41h2.41v-2.41zm-.803 1.607h-.803v-.804h.803v.804zm-6.828 16.065a1.206 1.206 0 0 0 0 2.41c.665 0 1.205-.541 1.205-1.205s-.54-1.205-1.205-1.205zm0 1.607a.402.402 0 1 1 .001-.804.402.402 0 0 1 0 .804zm3.213-1.607c-.664 0-1.205.541-1.205 1.205s.54 1.205 1.205 1.205 1.205-.541 1.205-1.205-.54-1.205-1.205-1.205zm0 1.607a.402.402 0 1 1 .001-.804.402.402 0 0 1 0 .804zm3.213-1.607c-.664 0-1.205.541-1.205 1.205s.54 1.205 1.205 1.205c.664 0 1.205-.541 1.205-1.205s-.54-1.205-1.205-1.205zm0 1.607a.402.402 0 1 1 .001-.804.402.402 0 0 1 0 .804zm-7.63-4.822v2.41h8.835v-2.41h-8.835zm8.032 1.607H25.2v-.803h7.23v.803zm10.442-11.243h-7.23v2.409h7.23v-2.409zm-.804 1.606h-5.622v-.803h5.622v.803zm-6.425 1.605h2.41v.803h-2.41v-.803zm3.212 0h4.017v.803h-4.017v-.803zm-3.212 1.609h3.212v.803h-3.212v-.803zm4.017 0h3.212v.803H39.66v-.803zm-1.607 1.605h4.82v.804h-4.82v-.804zm-2.41 1.606h4.016v.803h-4.016v-.803zm0 1.605h3.212v.804h-3.212v-.804zm-3.213-1.203a2.76 2.76 0 0 0-.592-1.712 3.139 3.139 0 0 0 .592-1.833v-1.71c0-1.11-.591-2.154-1.543-2.726a3.182 3.182 0 0 0-1.636-.452h-.871a3.175 3.175 0 0 0-3.179 3.179v1.709c0 .663.21 1.301.593 1.833a2.76 2.76 0 0 0-.593 1.712v.402h7.23v-.402zm-6.426-5.254c0-.83.443-1.611 1.154-2.038.37-.221.792-.338 1.222-.338h.871c.43 0 .853.117 1.223.338a2.39 2.39 0 0 1 1.153 2.038v1.709c0 .456-.135.894-.38 1.271a2.78 2.78 0 0 0-1.133-.459l-.19-.032-.108-.323c.6-.348 1.008-.99 1.008-1.731v-.555a.8.8 0 0 0-.444-.718l-1.564-.782-1.565.782a.799.799 0 0 0-.443.718v.555c0 .741.408 1.383 1.007 1.731l-.107.323-.19.031c-.42.07-.804.231-1.134.46a2.333 2.333 0 0 1-.38-1.271v-1.709zm2.812 1.64a1.207 1.207 0 0 1-1.205-1.205v-.555l1.205-.602 1.204.602v.555c0 .664-.54 1.205-1.204 1.205zm-.238.779c.079.01.156.024.238.024.081 0 .159-.014.238-.024l.132.395-.217.432h-.307l-.216-.432.131-.395zm-2.533 2.434a1.96 1.96 0 0 1 1.605-1.54l.136-.023.38.76h1.3l.38-.76.136.023a1.96 1.96 0 0 1 1.604 1.54h-5.54z"/></g><path fill="#0D1B2A" d="M54.811 274v-10.22h1.372V274h-1.372zm1.092 0v-1.232h4.956V274h-4.956zm0-4.578v-1.232h4.522v1.232h-4.522zm0-4.41v-1.232h4.816v1.232h-4.816zm6.07 8.988 2.675-3.934-.042.28-2.506-3.822h1.484l1.806 2.814h.196l1.708-2.814h1.386l-2.366 3.724.042-.252 2.8 4.004h-1.484l-2.1-3.038h-.196L63.36 274h-1.386zm11.605.252c-.654 0-1.218-.112-1.694-.336a3.282 3.282 0 0 1-1.162-.882 3.93 3.93 0 0 1-.672-1.246 4.755 4.755 0 0 1-.21-1.4v-.252c0-.485.07-.957.21-1.414a3.77 3.77 0 0 1 .672-1.232 3.139 3.139 0 0 1 1.134-.882c.466-.224 1.012-.336 1.638-.336.812 0 1.479.177 2.002.532.532.345.924.793 1.176 1.344.26.551.392 1.139.392 1.764v.602h-6.636v-1.008h5.656l-.308.546c0-.532-.084-.989-.252-1.372a1.97 1.97 0 0 0-.756-.91c-.336-.215-.761-.322-1.274-.322-.532 0-.976.121-1.33.364a2.256 2.256 0 0 0-.784.994c-.168.42-.252.905-.252 1.456 0 .532.084 1.013.252 1.442.177.42.448.756.812 1.008.364.243.826.364 1.386.364.588 0 1.064-.131 1.428-.392.373-.261.597-.565.672-.91h1.26a2.966 2.966 0 0 1-.616 1.33 2.974 2.974 0 0 1-1.162.854 4.052 4.052 0 0 1-1.582.294zm8.46 0c-.644 0-1.204-.112-1.68-.336a3.379 3.379 0 0 1-1.162-.896 4.19 4.19 0 0 1-.7-1.26 4.396 4.396 0 0 1-.224-1.372v-.252c0-.476.075-.943.224-1.4a3.84 3.84 0 0 1 .7-1.232c.317-.373.71-.672 1.176-.896.466-.224 1.013-.336 1.638-.336s1.185.117 1.68.35c.504.233.905.565 1.204.994.308.42.48.919.518 1.498h-1.288a1.803 1.803 0 0 0-.644-1.162c-.364-.317-.854-.476-1.47-.476-.532 0-.976.121-1.33.364a2.22 2.22 0 0 0-.798.994 3.64 3.64 0 0 0-.266 1.428c0 .513.088.985.266 1.414.177.42.443.756.798 1.008.364.243.816.364 1.358.364.42 0 .784-.075 1.092-.224.308-.149.555-.35.742-.602.186-.252.299-.537.336-.854h1.288c-.028.588-.2 1.097-.518 1.526a3.133 3.133 0 0 1-1.232 1.008c-.504.233-1.073.35-1.708.35zm7.734-.028c-.887 0-1.568-.289-2.044-.868s-.714-1.414-.714-2.506v-4.34h1.344v4.606c0 .588.159 1.05.476 1.386.317.327.747.49 1.288.49.56 0 1.017-.177 1.372-.532.355-.364.532-.859.532-1.484v-4.466h1.344V274h-1.064v-3.206h.168c0 .737-.098 1.363-.294 1.876-.196.504-.49.891-.882 1.162-.383.261-.873.392-1.47.392h-.056zm8.973-.14c-.56 0-1.045-.079-1.456-.238a1.851 1.851 0 0 1-.938-.812c-.215-.392-.322-.919-.322-1.582v-7.196h1.288v7.364c0 .401.107.714.322.938.224.215.537.322.938.322h1.316v1.204h-1.148zm-4.004-6.552v-1.008h5.152v1.008h-5.152zm7.277 6.468v-7.476h1.344V274h-1.344zm-1.148-6.412v-1.064h2.492v1.064h-2.492zm1.526-2.268c-.299 0-.523-.079-.672-.238a.876.876 0 0 1-.21-.602c0-.243.07-.443.21-.602.149-.159.373-.238.672-.238.299 0 .518.079.658.238a.845.845 0 0 1 .224.602.845.845 0 0 1-.224.602c-.14.159-.359.238-.658.238zm5.021 8.68-2.548-7.476h1.4l2.492 7.476h-1.344zm.336 0v-1.064h1.624V274h-1.624zm.644 0 2.17-7.476h1.316L109.671 274h-1.274zm8.145.252c-.653 0-1.218-.112-1.694-.336a3.285 3.285 0 0 1-1.162-.882 3.958 3.958 0 0 1-.672-1.246 4.755 4.755 0 0 1-.21-1.4v-.252c0-.485.07-.957.21-1.414.15-.457.374-.868.672-1.232a3.144 3.144 0 0 1 1.134-.882c.467-.224 1.013-.336 1.638-.336.812 0 1.48.177 2.002.532.532.345.924.793 1.176 1.344.262.551.392 1.139.392 1.764v.602h-6.636v-1.008h5.656l-.308.546c0-.532-.084-.989-.252-1.372a1.97 1.97 0 0 0-.756-.91c-.336-.215-.76-.322-1.274-.322-.532 0-.975.121-1.33.364a2.263 2.263 0 0 0-.784.994c-.168.42-.252.905-.252 1.456 0 .532.084 1.013.252 1.442.178.42.448.756.812 1.008.364.243.826.364 1.386.364.588 0 1.064-.131 1.428-.392.374-.261.598-.565.672-.91h1.26a2.959 2.959 0 0 1-.616 1.33 2.971 2.971 0 0 1-1.162.854c-.466.196-.994.294-1.582.294zm-60.639 10.192v-1.204h2.282c.485 0 .887-.093 1.204-.28.317-.196.555-.457.714-.784.168-.327.252-.691.252-1.092 0-.411-.084-.779-.252-1.106a1.776 1.776 0 0 0-.714-.77c-.317-.187-.719-.28-1.204-.28h-2.282v-1.204h2.03c.84 0 1.54.135 2.1.406.57.261.999.635 1.288 1.12.29.485.434 1.059.434 1.722v.224c0 .653-.145 1.227-.434 1.722-.29.485-.718.863-1.288 1.134-.56.261-1.26.392-2.1.392h-2.03zM54.811 288v-10.276h1.372V288h-1.372zm8.647 0v-7.476h1.064v3.08h-.056c0-1.092.238-1.89.714-2.394.485-.513 1.208-.77 2.17-.77h.252v1.204h-.476c-.747 0-1.321.201-1.722.602-.402.392-.602.961-.602 1.708V288h-1.344zm8.964.252c-.654 0-1.228-.112-1.722-.336a3.973 3.973 0 0 1-1.26-.882 4.027 4.027 0 0 1-.77-1.246 4.03 4.03 0 0 1-.252-1.4v-.252c0-.476.088-.943.266-1.4.177-.467.438-.882.784-1.246a3.707 3.707 0 0 1 1.26-.882c.494-.224 1.06-.336 1.694-.336.634 0 1.2.112 1.694.336.494.215.914.509 1.26.882.345.364.606.779.784 1.246.177.457.266.924.266 1.4v.252c0 .476-.089.943-.266 1.4a3.702 3.702 0 0 1-.77 1.246 3.808 3.808 0 0 1-1.246.882c-.495.224-1.069.336-1.722.336zm0-1.204c.56 0 1.036-.121 1.428-.364a2.43 2.43 0 0 0 .91-1.008 3.06 3.06 0 0 0 .322-1.414c0-.532-.108-1.008-.322-1.428a2.434 2.434 0 0 0-.924-.994c-.392-.243-.864-.364-1.414-.364-.542 0-1.013.121-1.414.364-.402.243-.71.574-.924.994-.215.42-.322.896-.322 1.428 0 .523.102.994.308 1.414.214.42.518.756.91 1.008.401.243.882.364 1.442.364zm6.073.952v-7.938c0-.831.219-1.442.658-1.834.438-.392 1.082-.588 1.932-.588h.84v1.12H80.86c-.346 0-.612.098-.798.294-.187.187-.28.448-.28.784V288h-1.288zm-1.036-6.468v-1.008h4.326v1.008h-4.326zM83.633 288v-7.476h1.344V288h-1.344zm-1.092-6.412v-1.064h2.436v1.064H82.54zm1.47-2.268c-.299 0-.523-.079-.672-.238a.876.876 0 0 1-.21-.602c0-.243.07-.443.21-.602.149-.159.373-.238.672-.238.298 0 .518.079.658.238a.845.845 0 0 1 .224.602.844.844 0 0 1-.224.602c-.14.159-.36.238-.658.238zm3.515 8.68v-10.22h1.344V288h-1.344zm-1.036-9.156v-1.064h2.38v1.064h-2.38zm7.996 9.408c-.654 0-1.218-.112-1.694-.336a3.282 3.282 0 0 1-1.162-.882 3.934 3.934 0 0 1-.672-1.246 4.755 4.755 0 0 1-.21-1.4v-.252c0-.485.07-.957.21-1.414.15-.457.373-.868.672-1.232a3.139 3.139 0 0 1 1.134-.882c.466-.224 1.012-.336 1.638-.336.812 0 1.48.177 2.002.532.532.345.924.793 1.176 1.344a4.07 4.07 0 0 1 .392 1.764v.602h-6.636v-1.008h5.656l-.308.546c0-.532-.084-.989-.252-1.372a1.97 1.97 0 0 0-.756-.91c-.336-.215-.76-.322-1.274-.322-.532 0-.976.121-1.33.364a2.257 2.257 0 0 0-.784.994c-.168.42-.252.905-.252 1.456 0 .532.084 1.013.252 1.442.177.42.448.756.812 1.008.364.243.826.364 1.386.364.588 0 1.064-.131 1.428-.392.373-.261.597-.565.672-.91h1.26a2.965 2.965 0 0 1-.616 1.33 2.974 2.974 0 0 1-1.162.854 4.052 4.052 0 0 1-1.582.294z"/><defs><clipPath id="a"><path fill="#fff" d="M20.12 31h30v30h-30z"/></clipPath><clipPath id="b"><path fill="#fff" d="M194.57 31.453h29.098v29.098H194.57z"/></clipPath><clipPath id="c"><rect width="23.326" height="23.326" x="197.456" y="149.336" fill="#fff" rx="11.663"/></clipPath><clipPath id="d"><path fill="#fff" d="M22.268 263.148h25.703v25.703H22.268z"/></clipPath></defs></svg>