<svg xmlns="http://www.w3.org/2000/svg" width="366" height="330" fill="none"><path fill="#fff" stroke="#000" stroke-width="2.513" d="M1.257 29.256h195.18v286.487H1.257z"/><path fill="#FD5257" stroke="#000" stroke-opacity=".8" stroke-width="1.566" d="M13.403 43.078H184.29v106.386H13.403z"/><rect width="109.974" height="31.778" x="13.402" y="260.875" fill="teal" stroke="#000" stroke-opacity=".8" stroke-width="1.566" rx="15.889"/><path stroke="#000" stroke-opacity=".8" stroke-width="1.566" d="M26.614 276.873h82.481m-8.734-8.857 8.763 8.762-8.763 8.763"/><path fill="#165EC9" stroke="#000" stroke-opacity=".8" stroke-width="1.675" d="M13.403 161.191H184.29v12.565H13.403zm0 18.43h164.186v12.565H13.403zm0 18.43h158.322v12.565H13.403zm0 18.426H184.29v12.565H13.403z"/><path fill="#fff" stroke="#000" stroke-width="2.588" d="M144.294 124.294h201.337v142.631H144.294z"/><path fill="#165EC9" stroke="#000" stroke-opacity=".8" stroke-width="1.725" d="M182.138 144.629H286.16v13.389H182.138zm2.059 18.539h115.351v13.389H184.197z"/><rect width="10.986" height="10.986" x="163.599" y="145.66" fill="#FD5257" stroke="#000" stroke-opacity=".8" stroke-width=".166" rx="5.493"/><circle cx="173.44" cy="154.127" r="2.518" fill="#02B784"/><rect width="10.986" height="10.986" x="163.599" y="164.199" fill="#FD5257" stroke="#000" stroke-opacity=".8" stroke-width=".166" rx="5.493"/><circle cx="173.44" cy="172.666" r="2.518" fill="#02B784"/><path fill="#E8AED4" stroke="#000" stroke-opacity=".8" stroke-width="1.725" d="M168.747 204.363h136.98v13.389h-136.98zm6.18 20.598h130.8v13.389h-130.8z"/><rect width="10.986" height="10.986" x="312.937" y="206.422" fill="#0D1B2A" stroke="#000" stroke-opacity=".8" stroke-width=".166" rx="5.493"/><circle cx="322.778" cy="214.889" r="2.518" fill="#02B784"/><rect width="10.986" height="10.986" x="312.938" y="225.992" fill="#0D1B2A" stroke="#000" stroke-opacity=".8" stroke-width=".166" rx="5.493"/><circle cx="322.664" cy="233.658" r="2.518" fill="#02B784"/><circle cx="211.5" cy="113.5" r="42.34" fill="#F4FDEA" stroke="#000" stroke-width="2.32"/><circle cx="211.5" cy="286.5" r="42.34" fill="#F4FDEA" stroke="#000" stroke-width="2.32"/><circle cx="322.5" cy="136.5" r="42.34" fill="#F4FDEA" stroke="#000" stroke-width="2.32"/><circle cx="56.5" cy="43.5" r="42.34" fill="#F4FDEA" stroke="#000" stroke-width="2.32"/><path fill="#000" fill-rule="evenodd" d="M48.362 37.645H30.67a3.101 3.101 0 0 0-3.096 3.096v8.998a3.101 3.101 0 0 0 3.096 3.095h9.014a.35.35 0 0 1 .23.083l5.237 4.306a.363.363 0 0 0 .594-.28v-3.745c0-.2.163-.364.363-.364h2.255a3.101 3.101 0 0 0 3.096-3.095v-8.998a3.102 3.102 0 0 0-3.096-3.096zm-8.55 11.727h-7.811a.727.727 0 0 1 0-1.453h7.812a.727.727 0 1 1 0 1.453zm7.218-3.406H32a.726.726 0 1 1 0-1.453h15.03a.727.727 0 1 1 0 1.453zm0-3.405H32a.727.727 0 0 1 0-1.453h15.03a.727.727 0 1 1 0 1.453zm26.625-3.58a1.2 1.2 0 0 0-.846 1.465l4.45 16.606a1.2 1.2 0 0 0 1.465.847 1.2 1.2 0 0 0 .846-1.466l-4.45-16.606a1.2 1.2 0 0 0-1.465-.846zm-9.428 15.933-1.634-6.1c-1.52.45-3.072.795-4.604 1.206-1.63.437-2.608 2.13-2.142 3.87.467 1.742 2.16 2.719 3.79 2.282 1.533-.41 3.049-.887 4.59-1.258zm-.252-6.547 1.673 6.243c3.948-.723 7.271-.263 9.637.69l-3.31-12.349c-1.571 2.008-4.22 4.068-8 5.416zm14.328-2.277.24.002a.957.957 0 0 1 .927.718l.376 1.401a.958.958 0 0 1-.444 1.086l-.207.121-.891-3.328zM63.624 56.566c-.895.238-1.784.5-2.676.752l2.545 4.407a1.35 1.35 0 0 0 1.84.493 1.35 1.35 0 0 0 .492-1.84l-2.2-3.812zm17.986-5.139a.723.723 0 0 1 .721-1.254l2.864 1.653a.723.723 0 0 1-.72 1.255l-2.864-1.654zm-.967-7.559a.725.725 0 0 1-1.254-.726l1.653-2.864a.725.725 0 0 1 1.255.727l-1.654 2.863zm2.049 3.58a.726.726 0 0 1-.375-1.401l3.194-.856a.726.726 0 1 1 .375 1.402l-3.194.856zm-9.233-9.912V19.23a5.304 5.304 0 0 0-5.294-5.294H45.107a5.304 5.304 0 0 0-5.294 5.295v16.96h8.55a4.555 4.555 0 0 1 4.548 4.549v8.998a4.555 4.555 0 0 1-4.549 4.548h-1.165v2.656c0 1.53-1.789 2.375-2.97 1.403l-4.414-3.63v12.053a5.304 5.304 0 0 0 5.294 5.293h23.058a5.304 5.304 0 0 0 5.294-5.293V56.217c-2.697-.742-5.696-.604-8.365-.012l1.99 3.447a2.807 2.807 0 0 1-1.025 3.825 2.807 2.807 0 0 1-3.825-1.025l-2.752-4.768c-2.276.325-4.433-1.157-5.038-3.417-.656-2.446.698-4.989 3.17-5.65 1.74-.467 3.51-.847 5.227-1.4 2.974-.957 6.037-2.666 7.99-5.161l.674-.861-.1-.372a2.66 2.66 0 0 1 2.054-3.287zm-18.908 29.31h5.018a.726.726 0 1 1 0 1.452H54.55a.727.727 0 0 1 0-1.453zM67.67 31.343a3.154 3.154 0 0 1-3.148 3.148H48.75a3.154 3.154 0 0 1-3.148-3.148v-9.921a3.153 3.153 0 0 1 3.148-3.148h15.771a3.153 3.153 0 0 1 3.149 3.148v9.92zm-3.148-11.617H48.75a1.7 1.7 0 0 0-1.695 1.696v9.92a1.7 1.7 0 0 0 1.695 1.696h15.771a1.7 1.7 0 0 0 1.696-1.695v-9.921a1.7 1.7 0 0 0-1.696-1.695zm-4.365 8.017c-1.296.753-2.597 1.498-3.894 2.247a1.572 1.572 0 0 1-2.361-1.36v-4.496c0-1.21 1.312-1.967 2.361-1.361l3.893 2.249a1.57 1.57 0 0 1 .001 2.721zm-.726-1.254a.123.123 0 0 0 0-.215c-1.297-.75-2.598-1.495-3.894-2.247a.12.12 0 0 0-.182.107v4.496c0 .096.098.157.183.108l3.893-2.249z" clip-rule="evenodd"/><g fill="#000" clip-path="url(#a)"><path d="M225.351 135.87a9.285 9.285 0 0 1-5.281-6.439.614.614 0 0 0-.2-.328 11.05 11.05 0 0 1-2.449-3.026 2.667 2.667 0 0 1 1.294-3.778 2.669 2.669 0 0 1 1.475-.168c.322.058.651.079.978.06a.596.596 0 0 0 .448-.244 8.991 8.991 0 0 1 5.197-3.446.596.596 0 0 0 .457-.581v-4.384a.603.603 0 0 0-.517-.597 11.092 11.092 0 0 1-.941-.176 10.23 10.23 0 0 1-3.334-1.474.567.567 0 0 0-.381-.104 12.232 12.232 0 0 1-4.351-.537c-2.211-.572-2.703-3.748-.769-4.965.371-.251.708-.55 1.001-.889a.58.58 0 0 0 .141-.481c-.272-1.9-.002-3.839.777-5.593a10.102 10.102 0 0 1 7.849-5.942.6.6 0 0 0 .513-.625A5.395 5.395 0 0 0 221.861 87h-20.434a5.418 5.418 0 0 0-5.409 5.41v8.934a.605.605 0 0 0 .665.597c.459-.049.92-.074 1.382-.076a13.203 13.203 0 0 1 12.008 7.745.618.618 0 0 0 .365.328 7.712 7.712 0 0 0 2.392.385 3.134 3.134 0 0 1 2.42 5.109 15.508 15.508 0 0 1-4.556 3.906.578.578 0 0 0-.276.317 13.175 13.175 0 0 1-12.373 8.574c-.455-.003-.91-.03-1.362-.08a.606.606 0 0 0-.665.597v4.131a5.415 5.415 0 0 0 5.409 5.409h20.434a5.382 5.382 0 0 0 3.65-1.426.603.603 0 0 0-.16-.99zm-17.474-44.463a2.545 2.545 0 0 1-2.199-1.41l-.962-1.795h13.859l-.965 1.795a2.548 2.548 0 0 1-2.2 1.41h-7.533zm7.974 41.67h-8.414a.598.598 0 0 1-.601-.601.601.601 0 0 1 .601-.601h8.414a.601.601 0 0 1 0 1.202zm12.414-4.806h1.587l.43-1.603h-1.588l-.429 1.603z"/><path d="M225.994 120.016a7.872 7.872 0 0 0-3.775 3.189.172.172 0 0 1-.12.08 5.773 5.773 0 0 1-2.121.033 1.448 1.448 0 0 0-.807.092 1.456 1.456 0 0 0-.707 2.069 9.473 9.473 0 0 0 2.605 3.039.195.195 0 0 1 .047.048c.012.019.02.041.024.063.564 3.864 4.201 6.922 7.998 6.88a8.002 8.002 0 0 0 7.023-4.332 8.004 8.004 0 0 0-.532-8.234 8.091 8.091 0 0 0-9.635-2.927zm6.684 6.651h-1.152l-.429 1.603h1.181a.601.601 0 1 1 0 1.202h-1.504l-.384 1.433a.607.607 0 0 1-.502.44.595.595 0 0 1-.6-.295.609.609 0 0 1-.06-.457l.301-1.121h-1.588l-.388 1.45a.612.612 0 0 1-.281.366.596.596 0 0 1-.666-.044.598.598 0 0 1-.215-.633l.305-1.139h-.829a.601.601 0 0 1 0-1.202h1.153l.429-1.603h-1.181a.598.598 0 0 1-.601-.601.6.6 0 0 1 .601-.601h1.503l.384-1.433a.605.605 0 0 1 .737-.426.603.603 0 0 1 .425.737l-.3 1.122h1.587l.389-1.451a.59.59 0 0 1 .28-.365.61.61 0 0 1 .457-.06.597.597 0 0 1 .44.502.615.615 0 0 1-.015.234l-.307 1.14h.83a.598.598 0 0 1 .601.601.601.601 0 0 1-.601.601zm-12.682-27.461a8.965 8.965 0 0 0-.581 5.529.29.29 0 0 1-.049.229 6.593 6.593 0 0 1-1.713 1.716 1.584 1.584 0 0 0-.299 2.337c.194.225.448.391.732.478a10.43 10.43 0 0 0 4.442.435.264.264 0 0 1 .194.049 9.142 9.142 0 0 0 5.5 1.871c6.586.03 11.012-7.176 7.969-13.089-3.419-6.64-13.165-6.415-16.195.445zm8.825 7.683a1.116 1.116 0 0 1-1.1 0c-2.351-1.336-3.686-2.996-3.63-5.099a2.373 2.373 0 0 1 .684-1.671 2.37 2.37 0 0 1 1.664-.698 2.329 2.329 0 0 1 1.832.888 2.322 2.322 0 0 1 1.832-.888 2.356 2.356 0 0 1 2.347 2.369c.059 2.103-1.278 3.761-3.629 5.099zm-19.382 11.92a.577.577 0 0 1 .291-.328 13.948 13.948 0 0 0 4.59-3.815c.228-.283.371-.624.413-.985a1.926 1.926 0 0 0-1.903-2.157 9.146 9.146 0 0 1-3.31-.638.606.606 0 0 1-.353-.341 11.961 11.961 0 0 0-4.778-5.671c-8.47-5.309-19.332 1.738-18.213 11.622.661 5.842 6.065 10.668 11.892 10.546 4.917.107 9.877-3.409 11.371-8.233zm-14.223 1.334a1.19 1.19 0 0 1-.601.163h-1.603a1.203 1.203 0 0 1-1.202-1.202v-6.01a1.203 1.203 0 0 1 1.202-1.202h1.603c.211-.001.418.055.601.16v8.091zm1.202-.539v-7.198c1.177-1.092 1.934-3.316 2.438-4.364.888-1.847 2.677.63 2.24 1.963-.151.462-.471 1.883-.471 1.883a3.61 3.61 0 0 1 3.606 3.606v1.202a3.606 3.606 0 0 1-3.606 3.606h-2.238c-.373 0-.741-.087-1.075-.254l-.894-.444z"/></g><g clip-path="url(#b)"><path fill="#000" d="M211.5 263c-12.977 0-23.5 10.523-23.5 23.5s10.523 23.5 23.5 23.5 23.5-10.523 23.5-23.5-10.523-23.5-23.5-23.5zm-6.829 35.525h-5.723v-17.218h5.723v17.218zm-2.861-19.57h-.038c-1.92 0-3.162-1.322-3.162-2.974 0-1.69 1.28-2.975 3.238-2.975s3.162 1.285 3.2 2.975c0 1.652-1.242 2.974-3.238 2.974zm23.498 19.57h-5.722v-9.211c0-2.315-.829-3.894-2.9-3.894-1.581 0-2.522 1.065-2.936 2.093-.152.368-.189.882-.189 1.397v9.615h-5.722s.074-15.603 0-17.218h5.722v2.438c.761-1.174 2.122-2.842 5.158-2.842 3.766 0 6.589 2.46 6.589 7.749v9.873z"/></g><g fill="#000" clip-path="url(#c)"><path d="M328.679 120.917c0-1.489.468-2.87 1.262-4.007h-28.233a4.708 4.708 0 0 0-4.708 4.708v3.306h27.672a4.012 4.012 0 0 0 4.007-4.007zm-6.035 22.696 5.709 1.575v-8.876l-5.709 1.576v5.725zm-8.115-2.863a2.507 2.507 0 0 0 2.504 2.504h2.605v-5.008h-2.605a2.507 2.507 0 0 0-2.504 2.504z"/><path d="M344.279 116.91h-8.589a4.011 4.011 0 0 0-4.006 4.007 7.02 7.02 0 0 1-7.012 7.012H297v25.743c0 2.6 2.108 4.708 4.708 4.708h41.87c2.6 0 4.708-2.108 4.708-4.708v-32.755a4.007 4.007 0 0 0-4.007-4.007zm-12.02 25.343h-.901v6.511a1.503 1.503 0 0 1-3.005 0v-.459l-7.416-2.046h-1.11l1.055 3.694a1.503 1.503 0 0 1-2.889.826l-1.295-4.531a5.516 5.516 0 0 1-5.174-5.498 5.516 5.516 0 0 1 5.51-5.509h3.903l7.416-2.046v-.458a1.502 1.502 0 1 1 3.005 0v6.511h.901a1.502 1.502 0 1 1 0 3.005zm4.708-18.332a1.502 1.502 0 1 1-.001-3.005 1.502 1.502 0 0 1 .001 3.005zm5.609 0a1.502 1.502 0 1 1 0-3.004 1.502 1.502 0 0 1 0 3.004z"/></g><defs><clipPath id="a"><path fill="#fff" d="M186 87h51.286v51.286H186z"/></clipPath><clipPath id="b"><path fill="#fff" d="M188 263h47v47h-47z"/></clipPath><clipPath id="c"><path fill="#fff" d="M297 112h51.286v51.286H297z"/></clipPath></defs></svg>