<svg xmlns="http://www.w3.org/2000/svg" width="1920" height="1080" fill="none"><g clip-path="url(#a)"><path fill="#F4FDEA" d="M0 0h1920v1080H0z"/><path fill="#FD5257" d="M106 64h386v273H106z"/><path fill="#165EC9" d="M106 375h386v273H106z"/><path fill="#FD5257" d="M534 64h1269v1141H534z"/><path fill="#02B784" d="M106 686h386v273H106z"/><path fill="#FA6E72" d="M591 115h1174v466H591zm603 779h562v466h-562zM582 614h1174v17H582zm0 280h578v17H582zm0-252h1042v17H582zm0 280h578v17H582zm0-252h1140v17H582zm0 280h578v17H582zm0-252h1174v17H582zm0 280h578v17H582zm0-252h1087v17H582zm0 280h578v17H582zm0-252h1174v17H582zm0 280h578v17H582zm0-252h1174v17H582zm0 280h578v17H582zm0-252h1174v17H582zm0 28h1174v17H582z"/></g><defs><clipPath id="a"><path fill="#fff" d="M0 0h1920v1080H0z"/></clipPath></defs></svg>