<svg xmlns="http://www.w3.org/2000/svg" width="1920" height="1080" fill="none"><g clip-path="url(#a)"><path fill="#F4FDEA" d="M0 0h1920v1080H0z"/><path fill="#fff" fill-opacity=".5" stroke="#0D1B2A" stroke-width="6" d="M1271 136h587v1019.1h-587z"/><path fill="#000" d="M1311 194.88h72v72h-72z"/><path fill="teal" d="M1397 194.88h423v72h-423z"/><path fill="#FFEFEF" d="M1310 303.461h509v179.801h-509z"/><path fill="#FD5257" d="M1670 441.83h129v22.671h-129z"/><path fill="#000" d="M1330 322.223h469v22.671h-469z"/><path fill="#FFD4D6" d="M1330 354.275h469v6.254h-469zm0 8.599h469v6.254h-469zm0 8.599h469v6.254h-469zm0 8.599h469v6.254h-469zm0 8.599h334v6.254h-334zm0 15.635h469v6.254h-469zm0 8.599h458v6.254h-458zm0 8.6h452v6.254h-452zm0 8.599h469v6.254h-469z"/><path fill="#FFEFEF" d="M1310 712.101h509v179.801h-509z"/><path fill="#FD5257" d="M1670 850.469h129v22.671h-129z"/><path fill="#000" d="M1330 730.863h469v22.671h-469z"/><path fill="#FFD4D6" d="M1330 762.914h469v6.254h-469zm0 8.599h469v6.254h-469zm0 8.599h469v6.254h-469zm0 8.6h469v6.254h-469zm0 8.599h334v6.254h-334zm0 15.635h469v6.254h-469zm0 8.599h458v6.254h-458zm0 8.599h452v6.254h-452zm0 8.599h469v6.254h-469z"/><path fill="#F0F6FF" d="M1310 507.781h509v179.801h-509z"/><path fill="#165EC9" d="M1670 646.15h129v22.671h-129z"/><path fill="#000" d="M1330 526.543h469v22.671h-469z"/><path fill="#CDE1FF" d="M1330 558.594h469v6.254h-469zm0 8.599h469v6.254h-469zm0 8.6h469v6.254h-469zm0 8.599h469v6.254h-469zm0 8.599h334v6.254h-334zm0 15.635h469v6.254h-469zm0 8.599h458v6.254h-458zm0 8.599h452v6.254h-452zm0 8.6h469v6.254h-469z"/><path fill="#165EC9" d="M1421 946.776h288v36.194h-288z"/><path fill="#AECFFF" d="M1464 995.813h245v36.194h-245z"/><path fill="#AB64FF" d="M1519 1079.88h18.982v17.307H1519z"/><path fill="#4F5050" d="M1543.01 1079.88h18.982v17.307h-18.982z"/><path fill="#0F3874" d="M1567.01 1079.88h18.982v17.307h-18.982z"/><path fill="#E9262C" d="M1591.02 1079.88h18.982v17.307h-18.982z"/><path stroke="#000" stroke-width="4" d="M1423 997.813h30v32.194h-30z"/><path fill="#fff" fill-opacity=".5" stroke="#0D1B2A" stroke-width="6" d="M63 136h375v985H63z"/><path fill="#152639" d="M95 165.732h319v56.435H95z"/><path fill="#F9FEF5" d="M102 173.732h271v34H102zm292 30-11.258-19.5h22.516L394 203.732z"/><path fill="#FFEDC0" d="M95 248.128h319v56.435H95z"/><path stroke="#fff" d="M95 248.128h319v56.435H95z"/><path fill="#FFEDC0" d="M95 321.493h259v56.435H95z"/><path stroke="#fff" d="M95 321.493h259v56.435H95z"/><path fill="#FFEDC0" d="M95 394.859h319v56.435H95z"/><path stroke="#fff" d="M95 394.859h319v56.435H95z"/><path fill="#FFEDC0" d="M95 468.224h286v56.435H95z"/><path stroke="#fff" d="M95 468.224h286v56.435H95z"/><path fill="#FFEDC0" d="M95 541.59h319v56.435H95z"/><path stroke="#fff" d="M95 541.59h319v56.435H95z"/><path fill="#FFEDC0" d="M95 614.956h319v56.435H95z"/><path stroke="#fff" d="M95 614.956h319v56.435H95z"/><path fill="#fff" fill-opacity=".5" stroke="#0D1B2A" stroke-width="6" d="M481 136h747v985H481z"/><path fill="#F1F1F1" d="M505 797.805h700v293.462H505z"/><path fill="#EAE9E9" d="M530 991.942h151v77.88H530z"/><path fill="#5F5656" d="M530 826.023h504v49.663H530z"/><path stroke="#fff" d="M530 826.023h504v49.663H530z"/><path fill="#fff" d="M530 894.874h650v14.673H530z"/><path stroke="#fff" d="M530 894.874h650v14.673H530z"/><path fill="#fff" d="M530 916.319h650v13.544H530z"/><path stroke="#fff" d="M530 916.319h650v13.544H530z"/><path fill="#fff" d="M530 936.635h650v14.673H530z"/><path stroke="#fff" d="M530 936.635h650v14.673H530z"/><path fill="#fff" d="M530 958.081h557v14.673H530z"/><path stroke="#fff" d="M530 958.081h557v14.673H530z"/><path fill="#fff" d="M699 991.942h481v14.673H699z"/><path stroke="#fff" d="M699 991.942h481v14.673H699z"/><path fill="#fff" d="M699 1013.39h476v14.673H699z"/><path stroke="#fff" d="M699 1013.39h476v14.673H699z"/><path fill="#fff" d="M699 1034.83h476v13.544H699z"/><path stroke="#fff" d="M699 1034.83h476v13.544H699z"/><path fill="#fff" d="M699 1055.15h476v14.673H699z"/><path stroke="#fff" d="M699 1055.15h476v14.673H699z"/><path fill="#F1F1F1" d="M505 481.769h700v293.462H505z"/><path fill="#EAE9E9" d="M530 675.906h151v77.88H530z"/><path fill="#5F5656" d="M530 509.986h504v49.663H530z"/><path stroke="#fff" d="M530 509.986h504v49.663H530z"/><path fill="#fff" d="M530 578.837h650v14.673H530z"/><path stroke="#fff" d="M530 578.837h650v14.673H530z"/><path fill="#fff" d="M530 600.282h650v13.544H530z"/><path stroke="#fff" d="M530 600.282h650v13.544H530z"/><path fill="#fff" d="M530 620.599h650v14.673H530z"/><path stroke="#fff" d="M530 620.599h650v14.673H530z"/><path fill="#fff" d="M530 642.044h557v14.673H530z"/><path stroke="#fff" d="M530 642.044h557v14.673H530z"/><path fill="#fff" d="M699 675.906h481v14.673H699z"/><path stroke="#fff" d="M699 675.906h481v14.673H699z"/><path fill="#fff" d="M699 697.351h476v14.673H699z"/><path stroke="#fff" d="M699 697.351h476v14.673H699z"/><path fill="#fff" d="M699 718.796h476v13.544H699z"/><path stroke="#fff" d="M699 718.796h476v13.544H699z"/><path fill="#fff" d="M699 739.113h476v14.673H699z"/><path stroke="#fff" d="M699 739.113h476v14.673H699z"/><path fill="#F1F1F1" d="M505 165.732h700v293.462H505z"/><path fill="#EAE9E9" d="M530 359.869h151v77.88H530z"/><path fill="#5F5656" d="M530 193.95h504v49.663H530z"/><path stroke="#fff" d="M530 193.95h504v49.663H530z"/><path fill="#fff" d="M530 262.801h650v14.673H530z"/><path stroke="#fff" d="M530 262.801h650v14.673H530z"/><path fill="#fff" d="M530 284.246h650v13.544H530z"/><path stroke="#fff" d="M530 284.246h650v13.544H530z"/><path fill="#fff" d="M530 304.563h650v14.673H530z"/><path stroke="#fff" d="M530 304.563h650v14.673H530z"/><path fill="#fff" d="M530 326.008h557v14.673H530z"/><path stroke="#fff" d="M530 326.008h557v14.673H530z"/><path fill="#fff" d="M699 359.869h481v14.673H699z"/><path stroke="#fff" d="M699 359.869h481v14.673H699z"/><path fill="#fff" d="M699 381.314h476v14.673H699z"/><path stroke="#fff" d="M699 381.314h476v14.673H699z"/><path fill="#fff" d="M699 402.76h476v13.544H699z"/><path stroke="#fff" d="M699 402.76h476v13.544H699z"/><path fill="#fff" d="M699 423.076h476v14.673H699z"/><path stroke="#fff" d="M699 423.076h476v14.673H699z"/><rect width="44" height="49.663" x="1048" y="193.95" fill="#FD5257" rx="22"/><rect width="44" height="49.663" x="1048" y="193.95" stroke="#fff" rx="22"/><rect width="44" height="49.663" x="1070" y="193.95" fill="#00559F" rx="22"/><rect width="44" height="49.663" x="1070" y="193.95" stroke="#fff" rx="22"/><rect width="44" height="49.663" x="1092" y="193.95" fill="#02B784" rx="22"/><rect width="44" height="49.663" x="1092" y="193.95" stroke="#fff" rx="22"/><rect width="44" height="49.663" x="1114" y="193.95" fill="#AB64FF" rx="22"/><rect width="44" height="49.663" x="1114" y="193.95" stroke="#fff" rx="22"/><rect width="44" height="49.663" x="1136" y="193.95" fill="#FFC53A" rx="22"/><rect width="44" height="49.663" x="1136" y="193.95" stroke="#fff" rx="22"/><path fill="#FD5257" d="m1048 537.222 43.69-28.474v56.947L1048 537.222z"/><path fill="#00559F" d="m1069.19 537.222 43.69-28.474v56.947l-43.69-28.473z"/><path fill="#02B784" d="m1090.37 537.222 43.69-28.474v56.947l-43.69-28.473z"/><path fill="#AB64FF" d="m1111.56 537.222 43.69-28.474v56.947l-43.69-28.473z"/><path fill="#FFC53A" d="m1132.74 537.222 43.7-28.474v56.947l-43.7-28.473z"/><path fill="#FD5257" d="M1049 827.829h44.54v44.132H1049z"/><path fill="#00559F" d="M1071.27 831.723h44.54v44.132h-44.54z"/><path fill="#02B784" d="M1093.54 822.637h44.54v44.132h-44.54z"/><path fill="#AB64FF" d="M1115.81 831.723h44.54v44.132h-44.54z"/><path fill="#FFC53A" d="M1135.46 827.829H1180v44.132h-44.54z"/><path stroke="#000" stroke-width="5.279" d="M66.082 58.164v33.739m0 0H60m6.082 0h10.214m-3.103-4.82V53.344m6.083 0H62.98"/><path fill="#023047" d="M87.747 56.849h5.9V87h-5.9V56.849zM112.477 87V74.767c0-1.751-.258-3.015-.775-3.79-.488-.776-1.335-1.163-2.541-1.163-1.063 0-1.967.316-2.714.947a5.064 5.064 0 0 0-1.55 2.283V87h-5.6V65.463h4.437l.646 2.843h.172c.66-.919 1.536-1.723 2.627-2.412 1.092-.69 2.499-1.034 4.222-1.034 1.062 0 2.01.144 2.842.431a4.833 4.833 0 0 1 2.111 1.422c.574.66 1.005 1.565 1.292 2.713.287 1.12.431 2.513.431 4.178V87h-5.6zm8.052-21.537h2.972v-4.048l5.599-1.594v5.642h5.255v4.738H129.1v8.27c0 1.494.144 2.57.431 3.231.316.632.89.948 1.723.948.574 0 1.062-.058 1.464-.173a9.688 9.688 0 0 0 1.422-.517l.991 4.308c-.776.373-1.68.689-2.714.947a12.92 12.92 0 0 1-3.144.388c-1.982 0-3.446-.502-4.394-1.507-.919-1.034-1.378-2.714-1.378-5.04V70.2h-2.972v-4.738zm34.275 19.685c-.861.689-2.039 1.278-3.532 1.766-1.464.46-3.029.689-4.695.689-3.474 0-6.016-1.005-7.624-3.015-1.608-2.039-2.412-4.824-2.412-8.356 0-3.79.905-6.634 2.714-8.529 1.809-1.895 4.35-2.843 7.624-2.843 1.091 0 2.153.144 3.187.431a7.416 7.416 0 0 1 2.757 1.422c.804.66 1.45 1.55 1.938 2.67.488 1.12.732 2.513.732 4.178a15.7 15.7 0 0 1-.129 1.938c-.057.69-.158 1.407-.301 2.154h-12.922c.086 1.81.545 3.173 1.378 4.092.862.919 2.24 1.378 4.135 1.378 1.177 0 2.226-.172 3.144-.517.948-.373 1.666-.746 2.154-1.12l1.852 3.662zm-8.011-15.808c-1.465 0-2.556.445-3.274 1.335-.689.862-1.105 2.025-1.249 3.49h8.012c.114-1.552-.13-2.743-.733-3.576-.574-.833-1.493-1.249-2.756-1.249zm18.427 10.424c0 1.005.129 1.737.388 2.196.258.46.674.69 1.249.69.344 0 .675-.03.99-.087.345-.057.761-.186 1.25-.387l.603 4.393c-.46.23-1.163.46-2.111.69-.948.23-1.924.344-2.929.344-1.637 0-2.886-.373-3.747-1.12-.862-.775-1.293-2.039-1.293-3.79V56.849h5.6v22.915zm12.661 0c0 1.005.129 1.737.388 2.196.258.46.675.69 1.249.69.344 0 .675-.03.991-.087.344-.057.761-.186 1.249-.387l.603 4.393c-.46.23-1.163.46-2.111.69a12.38 12.38 0 0 1-2.929.344c-1.637 0-2.886-.373-3.747-1.12-.862-.775-1.292-2.039-1.292-3.79V56.849h5.599v22.915zm5.856-3.532c0-3.647.89-6.447 2.67-8.4 1.781-1.981 4.279-2.972 7.495-2.972 1.723 0 3.216.273 4.48.819 1.263.545 2.311 1.32 3.144 2.326.833.976 1.45 2.168 1.852 3.575.431 1.407.646 2.957.646 4.652 0 3.647-.89 6.46-2.67 8.442-1.752 1.953-4.236 2.929-7.452 2.929-1.723 0-3.216-.273-4.48-.818-1.263-.546-2.326-1.307-3.187-2.283-.833-1.005-1.465-2.211-1.895-3.618-.402-1.407-.603-2.958-.603-4.652zm5.772 0c0 .947.086 1.823.258 2.627.172.804.431 1.508.775 2.11a3.98 3.98 0 0 0 1.336 1.422c.574.316 1.249.474 2.024.474 1.464 0 2.556-.531 3.274-1.594.717-1.062 1.076-2.742 1.076-5.04 0-1.98-.33-3.574-.99-4.78-.661-1.235-1.781-1.853-3.36-1.853-1.378 0-2.455.517-3.231 1.551-.775 1.034-1.162 2.728-1.162 5.083z"/><path fill="#000" d="m112.796 98.51 1.469-3.213h.335l1.469 3.213h-.358l-1.349-3.015h.137l-1.349 3.015h-.354zm.579-.858.101-.275h1.868l.101.275h-2.07zm4.427.858v-3.213h1.203c.272 0 .506.045.702.133a.977.977 0 0 1 .45.377c.107.162.161.36.161.592 0 .226-.054.422-.161.588a1.015 1.015 0 0 1-.45.376c-.196.089-.43.133-.702.133h-1.015l.152-.16v1.174h-.34zm.34-1.147-.152-.165h1.006c.321 0 .564-.07.73-.207.168-.14.252-.338.252-.592 0-.257-.084-.456-.252-.597-.166-.14-.409-.211-.73-.211h-1.006l.152-.16v1.932zm2.91 1.147v-3.213h1.203c.272 0 .506.045.702.133a.977.977 0 0 1 .45.377c.107.162.161.36.161.592 0 .226-.054.422-.161.588a1.015 1.015 0 0 1-.45.376 1.74 1.74 0 0 1-.702.128h-1.015l.152-.156v1.175h-.34zm2.194 0-.826-1.166h.367l.831 1.166h-.372zm-1.854-1.147-.152-.16h1.006c.321 0 .564-.071.73-.212.168-.14.252-.338.252-.592 0-.257-.084-.456-.252-.597-.166-.14-.409-.211-.73-.211h-1.006l.152-.16v1.932zm4.382 1.175c-.242 0-.467-.04-.675-.12a1.665 1.665 0 0 1-.537-.344 1.68 1.68 0 0 1-.353-.518 1.676 1.676 0 0 1-.124-.652c0-.236.041-.451.124-.647a1.57 1.57 0 0 1 .89-.863 1.79 1.79 0 0 1 .675-.124c.242 0 .465.041.67.124a1.559 1.559 0 0 1 .886.858c.086.199.129.416.129.652a1.625 1.625 0 0 1-.482 1.17c-.15.147-.328.262-.533.345-.205.08-.428.119-.67.119zm0-.303c.193 0 .37-.032.533-.096a1.288 1.288 0 0 0 .711-.703c.067-.162.101-.34.101-.532 0-.193-.034-.369-.101-.528a1.254 1.254 0 0 0-.284-.422 1.199 1.199 0 0 0-.427-.28 1.379 1.379 0 0 0-.533-.101c-.193 0-.372.033-.537.1a1.233 1.233 0 0 0-.431.28c-.12.12-.215.26-.285.423a1.35 1.35 0 0 0-.101.528c0 .19.034.366.101.528.07.162.165.304.285.427a1.326 1.326 0 0 0 .968.376zm2.446.275v-3.213h1.308c.343 0 .643.07.9.207.26.134.462.323.606.564.144.242.216.52.216.836a1.6 1.6 0 0 1-.216.835 1.513 1.513 0 0 1-.606.57 1.912 1.912 0 0 1-.9.201h-1.308zm.34-.293h.95c.285 0 .531-.055.739-.165.211-.114.375-.268.491-.464.117-.2.175-.427.175-.684 0-.26-.058-.488-.175-.684a1.204 1.204 0 0 0-.491-.46 1.522 1.522 0 0 0-.739-.169h-.95v2.626zm4.747.321c-.41 0-.733-.118-.968-.353-.236-.236-.354-.585-.354-1.047v-1.84h.34v1.826c0 .38.085.66.257.84.171.18.413.271.725.271.315 0 .559-.09.73-.27.171-.181.257-.461.257-.84v-1.828h.331v1.841c0 .462-.118.81-.354 1.047-.232.235-.554.353-.964.353zm3.737 0a1.84 1.84 0 0 1-.671-.12 1.597 1.597 0 0 1-.885-.863 1.676 1.676 0 0 1-.124-.651c0-.236.041-.453.124-.652.085-.199.203-.372.353-.519a1.61 1.61 0 0 1 .537-.34c.205-.082.428-.123.67-.123.233 0 .452.04.657.119.205.077.378.193.518.349l-.215.216a1.172 1.172 0 0 0-.436-.29 1.427 1.427 0 0 0-.515-.091c-.192 0-.371.033-.537.1a1.297 1.297 0 0 0-.72.702 1.33 1.33 0 0 0-.101.529c0 .193.033.37.101.532.07.16.166.3.289.423a1.326 1.326 0 0 0 .968.376c.184 0 .355-.03.515-.092.159-.06.304-.159.436-.293l.215.215c-.14.156-.313.274-.518.354-.205.08-.426.119-.661.119zm2.487-.028v-2.919h-1.129v-.294H141v.294h-1.129v2.92h-.34zm3.213 0v-3.213h1.387c.358 0 .635.072.831.216a.71.71 0 0 1 .298.61.753.753 0 0 1-.124.441.74.74 0 0 1-.331.271 1.103 1.103 0 0 1-.454.092l.078-.11c.205 0 .381.032.528.096.15.061.266.155.349.28a.807.807 0 0 1 .124.46.744.744 0 0 1-.303.633c-.199.15-.501.224-.904.224h-1.479zm.34-.28h1.134c.281 0 .497-.047.647-.142.15-.098.225-.252.225-.463 0-.209-.075-.36-.225-.455-.15-.098-.366-.147-.647-.147h-1.171v-.28h1.061c.257 0 .456-.049.596-.147a.493.493 0 0 0 .216-.436c0-.196-.072-.341-.216-.436-.14-.098-.339-.147-.596-.147h-1.024v2.654zm3.82.28v-1.193l.079.211-1.364-2.23h.363l1.198 1.96h-.193l1.198-1.96h.34l-1.363 2.23.078-.211v1.194h-.336zm3.891-1.918h1.547v.578h-1.547v-.578zm.055 1.322h1.749v.596h-2.488v-3.213h2.428v.597h-1.689v2.02zm3.26.596-1.387-3.213h.804l1.211 2.846h-.472l1.23-2.846h.739l-1.391 3.213h-.734zm3.918.056a1.97 1.97 0 0 1-.707-.124 1.699 1.699 0 0 1-.56-.35 1.643 1.643 0 0 1-.367-.527 1.67 1.67 0 0 1-.129-.661c0-.239.043-.46.129-.661a1.61 1.61 0 0 1 .372-.528c.159-.15.346-.266.56-.349.214-.082.447-.124.697-.124a1.9 1.9 0 0 1 .698.124 1.65 1.65 0 0 1 .927.877 1.6 1.6 0 0 1 .134.66c0 .24-.045.461-.134.666a1.595 1.595 0 0 1-.371.528 1.688 1.688 0 0 1-.556.345 1.883 1.883 0 0 1-.693.124zm-.005-.634c.144 0 .276-.024.395-.073a.946.946 0 0 0 .533-.537c.052-.126.078-.265.078-.418 0-.153-.026-.292-.078-.418a.949.949 0 0 0-.528-.537 1.07 1.07 0 0 0-.4-.073.964.964 0 0 0-.931.61 1.14 1.14 0 0 0-.074.418c0 .15.025.29.074.418.052.125.122.234.211.325a.952.952 0 0 0 .321.212c.123.049.256.073.399.073zm2.317.578v-3.213h.744v2.608h1.611v.605h-2.355zm3.515 0-1.386-3.213h.803l1.212 2.846h-.473l1.23-2.846h.739l-1.39 3.213h-.735zm3.078-1.918h1.547v.578h-1.547v-.578zm.055 1.322h1.749v.596h-2.488v-3.213h2.428v.597h-1.689v2.02zm5.192.652a1.99 1.99 0 0 1-.702-.12 1.712 1.712 0 0 1-.556-.349 1.644 1.644 0 0 1-.367-.527 1.682 1.682 0 0 1-.129-.666c0-.242.043-.464.129-.666a1.61 1.61 0 0 1 .932-.872 1.95 1.95 0 0 1 .707-.124c.284 0 .54.048.766.142.23.095.423.233.579.414l-.478.44a1.13 1.13 0 0 0-.831-.362c-.156 0-.298.024-.426.073a.975.975 0 0 0-.336.211 1 1 0 0 0-.215.326 1.14 1.14 0 0 0-.074.418c0 .15.025.288.074.413.052.126.124.236.215.33a.994.994 0 0 0 .331.212c.129.049.269.073.422.073.147 0 .29-.023.427-.069.141-.049.277-.13.409-.243l.422.537a1.932 1.932 0 0 1-.61.303 2.34 2.34 0 0 1-.689.106zm.62-.505v-1.208h.679v1.304l-.679-.096zm1.37.45v-3.214h.743v2.608h1.612v.605h-2.355zm4.277.055a1.97 1.97 0 0 1-.707-.124 1.699 1.699 0 0 1-.56-.35 1.643 1.643 0 0 1-.367-.527 1.67 1.67 0 0 1-.129-.661c0-.239.043-.46.129-.661a1.61 1.61 0 0 1 .372-.528c.159-.15.346-.266.56-.349.214-.082.447-.124.698-.124.254 0 .486.041.697.124a1.64 1.64 0 0 1 .928.877c.088.199.133.42.133.66 0 .24-.045.461-.133.666a1.612 1.612 0 0 1-.928.873 1.883 1.883 0 0 1-.693.124zm-.004-.634c.143 0 .275-.024.394-.073a.946.946 0 0 0 .533-.537c.052-.126.078-.265.078-.418 0-.153-.026-.292-.078-.418a.949.949 0 0 0-.528-.537 1.065 1.065 0 0 0-.399-.073.964.964 0 0 0-.932.61 1.14 1.14 0 0 0-.074.418c0 .15.025.29.074.418.052.125.122.234.211.325a.952.952 0 0 0 .321.212c.123.049.256.073.4.073zm2.317.578v-3.213h1.569c.404 0 .707.077.909.23a.72.72 0 0 1 .308.606.78.78 0 0 1-.124.44.82.82 0 0 1-.34.285 1.158 1.158 0 0 1-.496.101l.088-.188c.202 0 .381.033.537.1a.777.777 0 0 1 .362.29.81.81 0 0 1 .134.473.754.754 0 0 1-.326.647c-.218.153-.537.23-.96.23h-1.661zm.739-.56h.867c.193 0 .338-.03.436-.091.101-.065.152-.166.152-.303 0-.135-.051-.234-.152-.299-.098-.067-.243-.1-.436-.1h-.923v-.542h.795c.18 0 .318-.03.413-.092a.323.323 0 0 0 .147-.29.307.307 0 0 0-.147-.28c-.095-.064-.233-.096-.413-.096h-.739v2.094zm2.348.56 1.432-3.213h.735l1.437 3.213h-.781l-1.175-2.836h.294l-1.18 2.836h-.762zm.716-.688.198-.565h1.652l.202.565h-2.052zm3.221.688v-3.213h.744v2.608h1.611v.605h-2.355zm5.608.056c-.248 0-.479-.04-.693-.12a1.644 1.644 0 0 1-.918-.877 1.682 1.682 0 0 1-.129-.665c0-.242.043-.464.129-.666.089-.202.211-.378.367-.528a1.64 1.64 0 0 1 .556-.344c.211-.082.442-.124.693-.124.278 0 .529.05.753.147.226.095.416.236.569.422l-.478.441a1.084 1.084 0 0 0-.367-.28 1.133 1.133 0 0 0-.854-.023.942.942 0 0 0-.541.537 1.14 1.14 0 0 0-.074.418c0 .153.025.292.074.418a.944.944 0 0 0 .541.537c.126.049.264.073.414.073.159 0 .306-.03.44-.092.135-.064.257-.16.367-.289l.478.44a1.49 1.49 0 0 1-.569.428 1.872 1.872 0 0 1-.758.147zm3.322 0a1.98 1.98 0 0 1-.706-.124 1.63 1.63 0 0 1-.928-.877 1.687 1.687 0 0 1-.128-.661c0-.239.043-.46.128-.661a1.61 1.61 0 0 1 .372-.528c.159-.15.346-.266.56-.349.214-.082.447-.124.698-.124.254 0 .486.041.698.124a1.645 1.645 0 0 1 .927.877 1.6 1.6 0 0 1 .133.66c0 .24-.044.461-.133.666a1.612 1.612 0 0 1-.927.873 1.892 1.892 0 0 1-.694.124zm-.004-.634c.144 0 .275-.024.395-.073a.952.952 0 0 0 .532-.537c.052-.126.078-.265.078-.418 0-.153-.026-.292-.078-.418a.934.934 0 0 0-.528-.537 1.06 1.06 0 0 0-.399-.073 1.06 1.06 0 0 0-.399.073.991.991 0 0 0-.533.537 1.14 1.14 0 0 0-.073.418c0 .15.024.29.073.418a.946.946 0 0 0 .533.537c.122.049.255.073.399.073zm2.317.578v-3.213h1.391c.287 0 .535.048.743.142.208.092.369.226.482.4.114.174.17.382.17.624 0 .239-.056.446-.17.62a1.085 1.085 0 0 1-.482.395 1.832 1.832 0 0 1-.743.137h-.978l.331-.325v1.22h-.744zm2.043 0-.804-1.166h.794l.813 1.166h-.803zm-1.299-1.138-.331-.349h.936c.23 0 .401-.049.515-.147a.526.526 0 0 0 .169-.413.517.517 0 0 0-.169-.413c-.114-.098-.285-.147-.515-.147h-.936l.331-.353v1.822zm2.631 1.138v-3.213h1.391c.288 0 .536.048.744.142.208.092.369.226.482.4.113.174.17.382.17.624 0 .239-.057.446-.17.62a1.107 1.107 0 0 1-.482.404 1.832 1.832 0 0 1-.744.138h-.977l.33-.335v1.22h-.744zm.744-1.138-.33-.353h.936c.229 0 .401-.05.514-.147a.512.512 0 0 0 .17-.409.518.518 0 0 0-.17-.413c-.113-.098-.285-.147-.514-.147h-.936l.33-.353v1.822zm2.713 1.175a.447.447 0 0 1-.316-.124.44.44 0 0 1-.129-.326.41.41 0 0 1 .129-.316.447.447 0 0 1 .316-.124.44.44 0 0 1 .317.124.41.41 0 0 1 .129.316.44.44 0 0 1-.129.326.44.44 0 0 1-.317.124z"/><path fill="#152639" d="M1703 48h156v52h-156z"/></g><defs><clipPath id="a"><path fill="#fff" d="M0 0h1920v1080H0z"/></clipPath></defs></svg>