<svg xmlns="http://www.w3.org/2000/svg" width="381" height="309" fill="none"><path fill="#165EC9" stroke="#000" stroke-width="2.789" d="M47.889 1.394h285.342c23.498 0 40.852 21.912 35.47 44.786-3.873 16.46-18.56 28.093-35.47 28.093H47.889c-16.91 0-31.598-11.633-35.47-28.093C7.035 23.306 24.39 1.394 47.888 1.394z"/><path fill="#fff" d="M150.923 30.648v-4.225h16.747v4.226h-5.737v17.425h-5.274V30.65h-5.736zm40.706 6.539c0 6.508-4.935 11.103-11.073 11.103-6.137 0-11.134-4.595-11.134-11.103s4.997-11.072 11.134-11.072c6.169 0 11.073 4.564 11.073 11.072zm-16.809 0c0 3.794 2.22 6.292 5.736 6.292 3.455 0 5.706-2.498 5.706-6.292 0-3.855-2.251-6.292-5.706-6.292-3.516 0-5.736 2.437-5.736 6.292zm19.743 10.887v-21.65h14.094v4.224h-8.82v4.565h6.6v4.102h-6.6v8.76h-5.274zm16.774-8.728V26.423h5.274v12.954c0 2.56 1.264 4.04 3.763 4.04 2.498 0 3.824-1.48 3.824-4.04V26.423h5.274v12.923c0 5.983-4.195 8.944-9.191 8.944-5.027 0-8.944-2.96-8.944-8.944z"/><path fill="#FD5257" stroke="#000" stroke-width="2.789" d="M84.218 103.129h213.32c23.007 0 40.359 20.897 36.131 43.513-3.253 17.393-18.436 30.001-36.131 30.001H84.218c-17.695 0-32.879-12.608-36.131-30.001-4.229-22.616 13.123-43.513 36.13-43.513z"/><path fill="#fff" d="M147.008 149.809v-21.651h6.23l6.076 14.989 6.014-14.989h6.199v21.651h-5.274v-12.985l-4.842 12.985h-4.256l-4.873-13.016v13.016h-5.274zm49.624-10.888c0 6.508-4.935 11.103-11.073 11.103-6.137 0-11.134-4.595-11.134-11.103 0-6.507 4.997-11.072 11.134-11.072 6.169 0 11.073 4.565 11.073 11.072zm-16.809 0c0 3.794 2.22 6.292 5.736 6.292 3.455 0 5.706-2.498 5.706-6.292 0-3.855-2.251-6.291-5.706-6.291-3.516 0-5.736 2.436-5.736 6.291zm19.743 10.888v-21.651h14.094v4.225h-8.82v4.565h6.6v4.101h-6.6v8.76h-5.274zm16.774-8.729v-12.922h5.274v12.953c0 2.56 1.264 4.04 3.763 4.04 2.498 0 3.824-1.48 3.824-4.04v-12.953h5.274v12.922c0 5.984-4.195 8.944-9.191 8.944-5.027 0-8.944-2.96-8.944-8.944z"/><path fill="teal" stroke="#000" stroke-width="2.789" d="M135.96 204.871h109.839c22.037 0 39.121 19.256 36.496 41.136-2.217 18.474-17.889 32.378-36.496 32.378H135.96c-18.607 0-34.279-13.904-36.496-32.378-2.625-21.88 14.459-41.136 36.496-41.136z"/><path fill="#fff" d="M162.758 244.951c0-1.542-1.079-2.437-2.837-2.437h-3.825v4.781h3.886c1.758 0 2.776-.802 2.776-2.344zm-.524-8.544c0-1.48-.956-2.282-2.683-2.282h-3.455v4.534h3.455c1.727 0 2.683-.771 2.683-2.252zm5.86 9.253c0 3.578-2.622 5.891-7.186 5.891h-10.086V229.9h9.746c4.411 0 7.032 2.19 7.032 5.613 0 2.622-1.573 4.318-3.67 4.935 2.529.524 4.164 2.745 4.164 5.212zm24.371-4.996c0 6.507-4.935 11.103-11.073 11.103-6.137 0-11.134-4.596-11.134-11.103 0-6.508 4.997-11.073 11.134-11.073 6.169 0 11.073 4.565 11.073 11.073zm-16.809 0c0 3.793 2.22 6.291 5.736 6.291 3.455 0 5.706-2.498 5.706-6.291 0-3.856-2.251-6.292-5.706-6.292-3.516 0-5.736 2.436-5.736 6.292zm19.743 10.887V229.9h14.094v4.225h-8.82v4.565h6.6v4.102h-6.6v8.759h-5.274zm16.774-8.728V229.9h5.274v12.953c0 2.56 1.264 4.041 3.762 4.041 2.499 0 3.825-1.481 3.825-4.041V229.9h5.274v12.923c0 5.983-4.195 8.944-9.191 8.944-5.027 0-8.944-2.961-8.944-8.944z"/><circle cx="323.532" cy="88.529" r="50.999" fill="#F4FDEA" stroke="#000" stroke-width="2.794"/><path fill="#000" fill-rule="evenodd" d="m319.434 83.615 2.12 5.099a1.097 1.097 0 0 1-.515 1.398l-1.592.82a1.068 1.068 0 0 1-.885.054 1.07 1.07 0 0 1-.638-.614l-2.388-5.713 3.898-1.044zm13.343 15.336 18.545 16.072c.085-.245.134-.508.134-.783V83.742a2.41 2.41 0 0 0-.131-.778l-18.548 15.987zm-9 4.571 25.702-22.152a2.452 2.452 0 0 0-.437-.042h-6.41c.072 2.27-1.429 4.399-3.709 5.01a5.026 5.026 0 0 1-5.413-1.988c-3.554-1.367-7.836-1.725-11.764-1.46l2.037 4.898a3.52 3.52 0 0 1-1.641 4.47l-1.591.819a3.484 3.484 0 0 1-2.82.174 3.483 3.483 0 0 1-2.034-1.948l-2.547-6.093c-3.139.359-6.209-1.207-7.795-3.882h-7.001l25.423 22.194zm.783 2.512 6.369-5.49 18.543 16.068a2.34 2.34 0 0 1-.43.041h-50.68l18.344-16.102 6.274 5.477a1.207 1.207 0 0 0 1.58.006zm-9.688-7.083-18.657 16.375a2.403 2.403 0 0 1-.261-1.086V83.742c0-.389.095-.754.259-1.08l18.659 16.289zm28.856-23.247 3.792 1.016a1.137 1.137 0 1 0 .583-2.2l-3.792-1.016a1.137 1.137 0 1 0-.583 2.2zm-1.826-11.191 2.776-2.776a1.138 1.138 0 1 0-1.605-1.613l-2.776 2.776a1.138 1.138 0 1 0 1.605 1.613zm3.333 5.11 3.595-.964a1.143 1.143 0 1 0-.592-2.21l-3.595.964a1.145 1.145 0 0 0 .592 2.21zm-7.069 3.86a3.072 3.072 0 1 0-1.575-5.88l-1.968-7.344a2.603 2.603 0 0 0-3.179-1.835 2.604 2.604 0 0 0-1.888 2.932h-.001c-2.407 3.27-6.492 6.484-11.514 8.81l2.779 10.374c5.516-.491 10.668.27 14.388 1.9a2.605 2.605 0 0 0 3.091 1.566 2.61 2.61 0 0 0 1.835-3.179l-1.968-7.344zm-19.626 7.873-4.868 1.305c-2.959.792-6.028-.98-6.82-3.938-.793-2.958.979-6.027 3.937-6.82l4.869-1.304 2.882 10.757z" clip-rule="evenodd"/><circle cx="305.467" cy="255.963" r="50.999" fill="#F4FDEA" stroke="#000" stroke-width="2.794"/><g fill="#000" clip-path="url(#a)"><path d="M294.014 254.359c2.868 6.33 9.009 9.086 12.057 9.086 2.004 0 5.346-1.193 8.215-3.808a48.604 48.604 0 0 1-4.26.103 3.494 3.494 0 0 1-2.128.727h-2.553a3.493 3.493 0 0 1-3.489-3.488 3.493 3.493 0 0 1 3.489-3.489h2.553c.922 0 1.784.359 2.424.979.213.003.422.004.628.004 3.295 0 5.467-.303 6.888-.667a3.8 3.8 0 0 1-.285-1.451v-8.846c0-.92.341-1.802.932-2.484-.315-2.453-.887-4.326-1.741-5.708-1.759-2.847-5.15-4.172-10.673-4.172-4.581 0-7.744.951-9.671 2.907-1.493 1.516-2.359 3.68-2.763 6.948.604.684.953 1.575.953 2.509v8.846c0 .736-.212 1.422-.576 2.004z"/><path d="M287.738 254.441h3.062a2.088 2.088 0 0 0 2.088-2.088v-8.846c0-.77-.418-1.442-1.039-1.804.684-7.243 3.479-12.262 14.223-12.262 6.17 0 10.021 1.583 12.12 4.98 1.222 1.978 1.81 4.531 2.084 7.293a2.086 2.086 0 0 0-1.021 1.793v8.846c0 .994.696 1.824 1.626 2.035-1.349.883-4.144 1.785-9.931 1.785-.469 0-.957-.006-1.466-.018a1.787 1.787 0 0 0-1.586-.965h-2.553a1.788 1.788 0 0 0 0 3.574h2.553c.596 0 1.123-.293 1.448-.742.537.013 1.063.022 1.572.022 6.523 0 10.669-1.114 12.349-3.323.071-.094.136-.187.196-.28h.943a2.088 2.088 0 0 0 2.088-2.088v-8.846a2.088 2.088 0 0 0-2.088-2.088h-1.152c-.324-3.337-1.042-6.178-2.52-8.568-2.659-4.305-7.456-6.398-14.662-6.398-7.207 0-12.003 2.093-14.663 6.398-1.478 2.39-2.196 5.231-2.52 8.568h-1.151a2.088 2.088 0 0 0-2.089 2.088v8.846a2.09 2.09 0 0 0 2.089 2.088zm43.58 26.012c-.695-4.317-2.124-9.878-4.991-11.854-1.954-1.348-8.779-4.994-11.693-6.551l-.061-.033a.954.954 0 0 0-1.038.091c-1.529 1.2-3.202 2.008-4.974 2.403a.952.952 0 0 0-.684.592l-1.806 4.758-1.805-4.758a.952.952 0 0 0-.684-.592c-1.772-.395-3.446-1.203-4.975-2.403a.952.952 0 0 0-1.038-.091c-2.881 1.539-9.794 5.262-11.746 6.578-3.301 2.224-4.743 10.27-4.998 11.86a.946.946 0 0 0 .042.469c.118.334 3.147 8.166 25.204 8.166 22.057 0 25.086-7.832 25.204-8.165a.952.952 0 0 0 .043-.47zm-10.271-4.958h-8.736v-1.84h8.736v1.84z"/></g><circle cx="91.062" cy="199.346" r="50.999" fill="#F4FDEA" stroke="#000" stroke-width="2.794"/><g clip-path="url(#b)"><path fill="#000" fill-rule="evenodd" d="M113.615 217.388H90.77v4.585h4.12a1.03 1.03 0 1 1 0 2.059H80.93a1.03 1.03 0 0 1 0-2.059h4.121v-4.585H62.205a.653.653 0 0 1-.654-.656v-3.921h52.718v3.921a.657.657 0 0 1-.654.655v.001zM87.911 200.79a3.752 3.752 0 0 1-3.462-2.312 3.745 3.745 0 1 1 3.462 2.312zm7.16 9.962H80.75a7.161 7.161 0 0 1 14.322 0zm2.465-38.158h25.79v17.925h-14.722a1.828 1.828 0 0 0-1.23.485l-4.425 3.883v-2.558c0-.48-.191-.94-.531-1.279a1.806 1.806 0 0 0-1.279-.531h-3.603v-17.925zm-35.331 9.429a.652.652 0 0 0-.654.655v28.074h17.138a9.234 9.234 0 0 1 6.317-8.686 5.806 5.806 0 0 1-.629-9.631 5.802 5.802 0 0 1 7.066 0 5.802 5.802 0 0 1-.629 9.631 9.234 9.234 0 0 1 6.316 8.686h17.139v-18.173h-5.568l-6.102 5.355a1.027 1.027 0 0 1-1.545-.216 1.027 1.027 0 0 1-.164-.557v-4.582h-3.603a1.816 1.816 0 0 1-1.81-1.81v-8.746H62.205zm44.5 4.942a1.031 1.031 0 0 0 1.029 0l7.823-4.517a1.02 1.02 0 0 0 .377-1.406 1.018 1.018 0 0 0-.377-.377l-7.823-4.517a1.032 1.032 0 0 0-1.406.377 1.025 1.025 0 0 0-.138.515v9.033a1.035 1.035 0 0 0 .515.892zm1.544-8.142v5.466l4.735-2.733-4.735-2.733z" clip-rule="evenodd"/></g><defs><clipPath id="a"><path fill="#fff" d="M274.752 226.453h62.635v62.635h-62.635z"/></clipPath><clipPath id="b"><path fill="#fff" d="M61.55 167.426h61.775v61.775H61.55z"/></clipPath></defs></svg>