<svg xmlns="http://www.w3.org/2000/svg" width="1920" height="1080" fill="none"><g clip-path="url(#a)"><path fill="#F4FDEA" d="M0 0h1920v1080H0z"/><path fill="#0D1B2A" d="M44 48h249v1102H44z"/><path fill="#000" d="M339 48h249v43H339z"/><path fill="#152639" d="M64 150h206v31H64zm0 48h175v31H64zm0 48h194v31H64zm0 48h181v31H64zm0 48h206v31H64zm0 48h194v31H64zm0 48h175v31H64zm0 48h175v31H64z"/><path fill="#FAFAFA" stroke="#000" stroke-width="5" d="M341.5 112.5h655v352h-655zm691 0h655v352h-655z"/><path fill="#165EC9" fill-rule="evenodd" d="M1651 409.247h-582s19.94-124.212 82.16-124.212c62.23 0 44.26 59.165 106.13 59.165 61.88 0 31.23-119.823 85.59-119.823s27.39 93.822 78.74 93.822c51.36 0 68.47-210.222 126.67-134.904 58.2 75.317 29.5 134.904 62.45 134.904 32.94 0 40.26 91.048 40.26 91.048z" clip-rule="evenodd"/><path fill="#00559F" fill-rule="evenodd" stroke="#fff" stroke-width="4" d="M1152.88 299.695c8.51 0 15.4-6.897 15.4-15.406 0-8.508-6.89-15.406-15.4-15.406-8.51 0-15.41 6.898-15.41 15.406 0 8.509 6.9 15.406 15.41 15.406z" clip-rule="evenodd"/><path fill="#0D1B2A" fill-rule="evenodd" d="M1123.78 200.413a6.844 6.844 0 0 0-6.85 6.847v20.541a6.844 6.844 0 0 0 6.85 6.847h23.18l3.21 4.156a3.423 3.423 0 0 0 5.42 0l3.2-4.156h88.23c3.79 0 6.85-3.065 6.85-6.847V207.26a6.844 6.844 0 0 0-6.85-6.847h-123.24z" clip-rule="evenodd"/><path fill="#000" d="m1146.96 234.648 1.58-1.222-.6-.778h-.98v2zm3.21 4.156 1.58-1.222-1.58 1.222zm5.42 0 1.58 1.222-1.58-1.222zm3.2-4.156v-2h-.98l-.6.778 1.58 1.222zm-39.86-27.388a4.848 4.848 0 0 1 4.85-4.847v-4a8.847 8.847 0 0 0-8.85 8.847h4zm0 20.541V207.26h-4v20.541h4zm4.85 4.847c-2.68 0-4.85-2.17-4.85-4.847h-4a8.847 8.847 0 0 0 8.85 8.847v-4zm23.18 0h-23.18v4h23.18v-4zm4.79 4.934-3.21-4.156-3.16 2.444 3.2 4.156 3.17-2.444zm2.25 0a1.42 1.42 0 0 1-2.25 0l-3.17 2.444c2.17 2.813 6.42 2.813 8.59 0l-3.17-2.444zm3.21-4.156-3.21 4.156 3.17 2.444 3.21-4.156-3.17-2.444zm89.81-.778h-88.23v4h88.23v-4zm4.85-4.847a4.848 4.848 0 0 1-4.85 4.847v4c4.89 0 8.85-3.961 8.85-8.847h-4zm0-20.541v20.541h4V207.26h-4zm-4.85-4.847c2.68 0 4.85 2.17 4.85 4.847h4a8.847 8.847 0 0 0-8.85-8.847v4zm-123.24 0h123.24v-4h-123.24v4z"/><path fill="#FAFAFA" stroke="#000" stroke-width="5" d="M1723.5 112.5h655v352h-655z"/><path fill="#000" d="M339 554h249v29H339z"/><path fill="#FAFAFA" stroke="#000" stroke-width="5" d="M341.5 596.5h655v225h-655zm691 0h655v225h-655zm691 0h655v225h-655z"/><path fill="#000" d="M339 881h249v28H339z"/><path fill="#FAFAFA" stroke="#000" stroke-width="5" d="M341.5 922.5h655v225h-655zm691 0h655v225h-655zm691 0h655v225h-655z"/><path fill="#fff" fill-rule="evenodd" d="M84.707 85.327C77.847 88.077 73 94.802 73 102.661c0 7.77 4.737 14.431 11.473 17.238a27.2 27.2 0 0 1-6.06-17.143c0-6.615 2.36-12.685 6.294-17.429z" clip-rule="evenodd"/><ellipse cx="107.281" cy="102.595" fill="#fff" rx="1.709" ry="5.27"/><path fill="#fff" fill-rule="evenodd" d="M95.534 91.021c-.765-1.758-1.71-2.798-2.734-2.798-2.544 0-4.606 6.42-4.606 14.339 0 7.92 2.062 14.34 4.606 14.34 1.023 0 1.97-1.04 2.734-2.799-1.14 4.863-2.983 8.022-5.061 8.022-3.462 0-6.268-8.759-6.268-19.563C84.205 91.758 87.011 83 90.473 83c2.078 0 3.92 3.158 5.06 8.021z" clip-rule="evenodd"/><path fill="#fff" fill-rule="evenodd" d="M98.496 120.296c3.12 0 5.65-7.908 5.65-17.663 0-9.755-2.53-17.663-5.65-17.663-3.121 0-5.65 7.908-5.65 17.663 0 9.755 2.529 17.663 5.65 17.663zm1.757-7.882c1.678 0 3.038-4.465 3.038-9.972 0-5.506-1.36-9.97-3.038-9.97-1.679 0-3.04 4.464-3.04 9.97 0 5.507 1.361 9.972 3.04 9.972z" clip-rule="evenodd"/><path fill="#fff" d="M120.25 114.214h4.335v-8.233h4.872c4.469 0 7.595-3.226 7.595-7.864 0-4.637-3.126-7.762-7.595-7.762h-9.207v23.859zm4.335-11.997v-8.132h4.133c2.453 0 3.931 1.58 3.931 4.032 0 2.487-1.478 4.1-3.998 4.1h-4.066zm15.634 11.997h4.268v-6.788c0-1.009.1-1.949.369-2.789.807-2.554 2.857-3.596 4.671-3.596.571 0 1.008.067 1.008.067v-4.2s-.369-.067-.773-.067c-2.621 0-4.671 1.949-5.443 4.402h-.068s.068-.572.068-1.21v-2.957h-4.1v17.138zm11.982-8.569c0 4.872 3.529 8.972 9.208 8.972 4.267 0 6.888-2.453 6.888-2.453l-1.646-3.058s-2.184 1.882-4.94 1.882c-2.554 0-4.872-1.546-5.141-4.537h11.828s.101-1.142.101-1.646c0-4.537-2.655-8.133-7.594-8.133-5.108 0-8.704 3.697-8.704 8.973zm4.503-2.117c.403-2.218 1.916-3.562 4.1-3.562 1.882 0 3.327 1.243 3.394 3.562h-7.494zm14.138 2.117c0 5.309 2.957 8.972 7.594 8.972 3.932 0 5.377-2.924 5.377-2.924h.067s-.067.471-.067 1.109v1.412h4.032V90.355h-4.268v7.527c0 .538.034.975.034.975h-.067s-1.176-2.184-4.94-2.184c-4.537 0-7.762 3.528-7.762 8.972zm4.301 0c0-3.394 1.949-5.31 4.301-5.31 2.856 0 4.268 2.621 4.268 5.276 0 3.797-2.084 5.41-4.302 5.41-2.52 0-4.267-2.117-4.267-5.376zm17.417-11.493h4.235v-3.797h-4.235v3.797zm0 20.062h4.268V97.076h-4.268v17.138zm7.716-8.569c0 4.973 3.629 8.972 9.308 8.972 4.604 0 7.057-2.789 7.057-2.789l-1.647-3.025s-2.15 2.185-5.04 2.185c-3.26 0-5.343-2.487-5.343-5.377 0-2.924 2.05-5.309 5.208-5.309 2.689 0 4.47 1.848 4.47 1.848l1.881-2.924s-2.117-2.553-6.586-2.553c-5.679 0-9.308 4.099-9.308 8.972zm20.294 2.285c0 5.746 4.738 6.452 7.124 6.452a7.35 7.35 0 0 0 1.31-.101v-3.73s-.302.067-.773.067c-1.176 0-3.393-.403-3.393-3.226v-6.654h3.898v-3.394h-3.898v-4.94h-4.167v4.94h-2.319v3.394h2.218v7.192zm10.651-2.285c0 5.275 4.2 8.972 9.442 8.972 5.209 0 9.409-3.697 9.409-8.972 0-5.243-4.2-8.972-9.442-8.972-5.209 0-9.409 3.729-9.409 8.972zm4.334 0c0-3.159 2.319-5.343 5.108-5.343 2.756 0 5.074 2.184 5.074 5.343 0 3.192-2.318 5.343-5.074 5.343-2.789 0-5.108-2.151-5.108-5.343zm17.945 8.569h4.267v-6.788c0-1.009.101-1.949.37-2.789.807-2.554 2.856-3.596 4.671-3.596.571 0 1.008.067 1.008.067v-4.2s-.37-.067-.773-.067c-2.621 0-4.671 1.949-5.444 4.402h-.067s.067-.572.067-1.21v-2.957H253.5v17.138zm-83.645 8.24-.376-.837h-1.745l-.376.837h-.345l1.432-3.133h.327l1.433 3.133h-.35zm-2.001-1.106h1.505l-.753-1.683-.752 1.683zm5.213-2.027c.797 0 1.281.402 1.281 1.074 0 .667-.484 1.07-1.281 1.07h-.841v.989h-.331v-3.133h1.172zm-.009 1.853c.627 0 .958-.287.958-.779 0-.501-.331-.788-.958-.788h-.832v1.567h.832zm4.508 1.28h-.362l-.717-1.007a2.21 2.21 0 0 1-.25.013h-.842v.994h-.331v-3.133h1.173c.797 0 1.28.402 1.28 1.074 0 .492-.26.837-.716.985l.765 1.074zm-1.338-1.276c.626 0 .958-.291.958-.783 0-.501-.332-.788-.958-.788h-.833v1.571h.833zm3.441 1.303c-.949 0-1.648-.68-1.648-1.594 0-.913.699-1.593 1.648-1.593.94 0 1.643.676 1.643 1.593 0 .918-.703 1.594-1.643 1.594zm0-.295c.752 0 1.311-.551 1.311-1.299 0-.747-.559-1.298-1.311-1.298-.757 0-1.321.551-1.321 1.298 0 .748.564 1.299 1.321 1.299zm2.385.268v-3.133h1.276c1.003 0 1.678.644 1.678 1.566s-.675 1.567-1.678 1.567h-1.276zm.331-.286h.927c.833 0 1.37-.529 1.37-1.281 0-.752-.537-1.28-1.37-1.28h-.927v2.561zm4.63.313c-.802 0-1.29-.466-1.29-1.365v-1.795h.332v1.781c0 .743.349 1.084.958 1.084.613 0 .962-.341.962-1.084v-1.781h.322v1.795c0 .899-.483 1.365-1.284 1.365zm3.644 0c-.941 0-1.639-.676-1.639-1.594 0-.917.698-1.593 1.643-1.593.457 0 .868.152 1.146.456l-.21.211a1.243 1.243 0 0 0-.927-.372c-.757 0-1.325.555-1.325 1.298s.568 1.299 1.325 1.299c.358 0 .671-.112.927-.377l.21.211c-.278.304-.689.461-1.15.461zm2.426-.027v-2.847h-1.102v-.286h2.534v.286h-1.101v2.847h-.331zm5.107-1.616c.403.09.645.354.645.779 0 .533-.394.837-1.178.837h-1.441v-3.133h1.352c.698 0 1.101.295 1.101.805a.728.728 0 0 1-.479.712zm-.645-1.244h-.998v1.137h.998c.502 0 .793-.193.793-.569 0-.376-.291-.568-.793-.568zm.108 2.587c.55 0 .85-.179.85-.591 0-.407-.3-.586-.85-.586h-1.106v1.177h1.106zm4.2-2.86-1.254 2.05v1.083h-.326v-1.083l-1.254-2.05h.354l1.074 1.759 1.075-1.759h.331zm2.267 2.551h1.706v.582h-2.427v-3.133h2.368v.582h-1.647v.68h1.455v.564h-1.455v.725zm4.531-2.551h.721l-1.357 3.133h-.716l-1.352-3.133h.783l.954 2.238.967-2.238zm2.46 3.187c-.989 0-1.714-.69-1.714-1.621s.725-1.62 1.714-1.62c.985 0 1.715.685 1.715 1.62 0 .936-.73 1.621-1.715 1.621zm0-.618c.56 0 .981-.407.981-1.003 0-.595-.421-1.002-.981-1.002-.559 0-.98.407-.98 1.002 0 .596.421 1.003.98 1.003zm2.26.564v-3.133h.725v2.542h1.571v.591h-2.296zm4.775-3.133h.721l-1.357 3.133h-.716l-1.352-3.133h.784l.953 2.238.967-2.238zm1.703 2.551h1.705v.582h-2.426v-3.133h2.368v.582h-1.647v.68h1.455v.564h-1.455v.725zm5.668-.116v-.918h.662v1.271c-.345.26-.819.399-1.267.399-.985 0-1.71-.676-1.71-1.621 0-.944.725-1.62 1.724-1.62.55 0 1.007.188 1.311.542l-.465.429a1.064 1.064 0 0 0-.81-.353c-.609 0-1.026.407-1.026 1.002 0 .587.417 1.003 1.017 1.003.197 0 .38-.036.564-.134zm1.336.698v-3.133h.725v2.542h1.571v.591h-2.296zm4.166.054c-.989 0-1.714-.69-1.714-1.621s.725-1.62 1.714-1.62c.985 0 1.715.685 1.715 1.62 0 .936-.73 1.621-1.715 1.621zm0-.618c.56 0 .981-.407.981-1.003 0-.595-.421-1.002-.981-1.002-.559 0-.98.407-.98 1.002 0 .596.421 1.003.98 1.003zm4.561-1.065c.349.112.573.38.573.774 0 .542-.43.855-1.254.855h-1.62v-3.133h1.531c.783 0 1.186.326 1.186.814a.754.754 0 0 1-.416.69zm-.86-.958h-.72v.738h.72c.354 0 .547-.125.547-.371s-.193-.367-.547-.367zm.126 2.041c.376 0 .577-.116.577-.385 0-.264-.201-.389-.577-.389h-.846v.774h.846zm4.197.546-.277-.671h-1.455l-.278.671h-.743l1.397-3.133h.716l1.401 3.133h-.761zm-1.5-1.222h.994l-.497-1.2-.497 1.2zm2.586 1.222v-3.133h.725v2.542h1.572v.591h-2.297zm5.469.054c-.971 0-1.696-.676-1.696-1.621 0-.944.725-1.62 1.701-1.62.541 0 .993.197 1.289.555l-.466.43a1.006 1.006 0 0 0-.788-.367c-.586 0-1.002.411-1.002 1.002s.416 1.003 1.002 1.003a.997.997 0 0 0 .788-.371l.466.429c-.296.363-.748.56-1.294.56zm3.236 0c-.99 0-1.715-.69-1.715-1.621s.725-1.62 1.715-1.62c.984 0 1.714.685 1.714 1.62 0 .936-.73 1.621-1.714 1.621zm0-.618c.559 0 .98-.407.98-1.003 0-.595-.421-1.002-.98-1.002-.56 0-.981.407-.981 1.002 0 .596.421 1.003.981 1.003zm5.034.564h-.778l-.605-.873h-.667v.873h-.725v-3.133h1.356c.838 0 1.361.434 1.361 1.137 0 .47-.237.814-.644.989l.702 1.007zm-.792-1.996c0-.345-.224-.547-.667-.547h-.591v1.093h.591c.443 0 .667-.206.667-.546zm2.665-1.137c.837 0 1.361.434 1.361 1.137 0 .698-.524 1.132-1.361 1.132h-.631v.864h-.725v-3.133h1.356zm-.04 1.678c.443 0 .667-.201.667-.541 0-.345-.224-.547-.667-.547h-.591v1.088h.591zm2.055 1.491a.427.427 0 0 1-.434-.439c0-.259.192-.43.434-.43s.434.171.434.43a.427.427 0 0 1-.434.439z"/><path fill="#FD5257" stroke="#000" stroke-width="4" d="M410.071 332.452h56.094v71.345h-56.094zm91.153-32.923h56.094v103.054h-56.094z"/><path fill="#FD5257" fill-rule="evenodd" stroke="#000" stroke-width="4" d="M592.376 235.912h56.095v166.471h-56.095V235.912z" clip-rule="evenodd"/><path fill="#FD5257" stroke="#000" stroke-width="4" d="M683.529 260.147h56.094v142.69h-56.094z"/><path fill="#FD5257" fill-rule="evenodd" stroke="#000" stroke-width="4" d="M774.682 205.618h56.094v198.18h-56.094v-198.18z" clip-rule="evenodd"/><path fill="#FD5257" stroke="#000" stroke-width="4" d="M866 151h56v253h-56z"/><path fill="#FFE0E1" d="M593 436h137v12H593z"/><path fill="#CFE2FF" d="M1291 436h137v12h-137z"/><path fill="#FFE0E1" d="M368 357V220h12v137z"/><path fill="#CFE2FF" d="M1045 357V220h12v137z"/><path fill="teal" stroke="#000" stroke-width="2" d="M374 626h129c46.392 0 84 37.608 84 84v82H374V626z"/><rect width="117" height="90" x="422" y="664" fill="#FD5257" stroke="#000" stroke-width="2" rx="45"/><path fill="#DFDFDF" d="M633 625h249v24H633zm0 30h206v24H633zm0 30h331v24H633z"/><rect width="249" height="59" x="633" y="734" fill="#165EC9" rx="29.5"/><path fill="#FD5257" stroke="#000" stroke-width="2" d="M1096 626h99c46.39 0 84 37.608 84 84v82h-213V656c0-16.569 13.43-30 30-30z"/><path fill="#0D1B2A" stroke="#000" stroke-width="2" d="M1967 798h-213c.54-91.771 75.1-166 167-166h46v166z"/><path fill="#DFDFDF" d="M1325 625h249v24h-249zm0 30h206v24h-206zm0 30h331v24h-331z"/><rect width="249" height="59" x="1325" y="734" fill="#165EC9" rx="29.5"/><path fill="#fff" d="m1168.5 655 4.18 38.492 18.59-33.963-10.87 37.161 30.17-24.263-24.26 30.173 37.16-10.87-33.96 18.591L1228 714.5l-38.49 4.179 33.96 18.591-37.16-10.87 24.26 30.173-30.17-24.263 10.87 37.161-18.59-33.963L1168.5 774l-4.18-38.492-18.59 33.963 10.87-37.161-30.17 24.263 24.26-30.173-37.16 10.87 33.96-18.591L1109 714.5l38.49-4.179-33.96-18.591 37.16 10.87-24.26-30.173 30.17 24.263-10.87-37.161 18.59 33.963L1168.5 655z"/><path fill="#0D1B2A" fill-rule="evenodd" d="M1759 151.265c0 8.426 6.84 15.264 15.26 15.264 8.43 0 15.27-6.838 15.27-15.264 0-8.426-6.84-15.265-15.27-15.265-8.42 0-15.26 6.839-15.26 15.265zm19.84-6.106a4.57 4.57 0 0 1-4.58 4.579 4.567 4.567 0 0 1-4.57-4.579c0-2.534 2.04-4.58 4.57-4.58a4.57 4.57 0 0 1 4.58 4.58zm-13.73 12.181c.04-3.038 6.1-4.701 9.15-4.701 3.04 0 9.12 1.663 9.16 4.701a10.99 10.99 0 0 1-9.16 4.915c-3.81 0-7.18-1.954-9.15-4.915z" clip-rule="evenodd"/><path fill="#AEAAAA" fill-rule="evenodd" d="M1799.71 139.053h49.86v10.176h-49.86v-10.176z" clip-rule="evenodd"/><path fill="#DFDFDF" fill-rule="evenodd" d="M1799.71 154.318H1932v10.176h-132.29v-10.176z" clip-rule="evenodd"/><path fill="#0D1B2A" fill-rule="evenodd" d="M1759 200.875c0 8.426 6.84 15.265 15.26 15.265 8.43 0 15.27-6.839 15.27-15.265s-6.84-15.264-15.27-15.264c-8.42 0-15.26 6.838-15.26 15.264zm19.84-6.106a4.57 4.57 0 0 1-4.58 4.58 4.568 4.568 0 0 1-4.57-4.58 4.568 4.568 0 0 1 4.57-4.579 4.57 4.57 0 0 1 4.58 4.579zm-13.73 12.182c.04-3.038 6.1-4.702 9.15-4.702 3.04 0 9.12 1.664 9.16 4.702a10.99 10.99 0 0 1-9.16 4.915c-3.81 0-7.18-1.954-9.15-4.915z" clip-rule="evenodd"/><path fill="#AEAAAA" fill-rule="evenodd" d="M1799.71 185h48.84v10.176h-48.84V185z" clip-rule="evenodd"/><path fill="#DFDFDF" fill-rule="evenodd" d="M1799.71 200.265H1932v10.176h-132.29v-10.176zm0 15.264H1932v10.177h-132.29v-10.177z" clip-rule="evenodd"/><path fill="#0D1B2A" fill-rule="evenodd" d="M1759 318.265c0 8.426 6.84 15.264 15.26 15.264 8.43 0 15.27-6.838 15.27-15.264 0-8.426-6.84-15.265-15.27-15.265-8.42 0-15.26 6.839-15.26 15.265zm19.84-6.106a4.57 4.57 0 0 1-4.58 4.579 4.567 4.567 0 0 1-4.57-4.579c0-2.534 2.04-4.58 4.57-4.58a4.57 4.57 0 0 1 4.58 4.58zm-13.73 12.181c.04-3.038 6.1-4.701 9.15-4.701 3.04 0 9.12 1.663 9.16 4.701a10.99 10.99 0 0 1-9.16 4.915c-3.81 0-7.18-1.954-9.15-4.915z" clip-rule="evenodd"/><path fill="#AEAAAA" fill-rule="evenodd" d="M1799.71 306.053h49.86v10.176h-49.86v-10.176z" clip-rule="evenodd"/><path fill="#DFDFDF" fill-rule="evenodd" d="M1799.71 321.318H1932v10.176h-132.29v-10.176z" clip-rule="evenodd"/><path fill="#0D1B2A" fill-rule="evenodd" d="M1759 426.265c0 8.426 6.84 15.264 15.26 15.264 8.43 0 15.27-6.838 15.27-15.264 0-8.426-6.84-15.265-15.27-15.265-8.42 0-15.26 6.839-15.26 15.265zm19.84-6.106a4.57 4.57 0 0 1-4.58 4.579 4.567 4.567 0 0 1-4.57-4.579c0-2.534 2.04-4.58 4.57-4.58a4.57 4.57 0 0 1 4.58 4.58zm-13.73 12.181c.04-3.038 6.1-4.701 9.15-4.701 3.04 0 9.12 1.663 9.16 4.701a10.99 10.99 0 0 1-9.16 4.915c-3.81 0-7.18-1.954-9.15-4.915z" clip-rule="evenodd"/><path fill="#AEAAAA" fill-rule="evenodd" d="M1799.71 414.053h49.86v10.176h-49.86v-10.176z" clip-rule="evenodd"/><path fill="#DFDFDF" fill-rule="evenodd" d="M1799.71 429.318H1932v10.176h-132.29v-10.176z" clip-rule="evenodd"/><path fill="#0D1B2A" fill-rule="evenodd" d="M1759 259.875c0 8.426 6.84 15.265 15.26 15.265 8.43 0 15.27-6.839 15.27-15.265s-6.84-15.264-15.27-15.264c-8.42 0-15.26 6.838-15.26 15.264zm19.84-6.106a4.57 4.57 0 0 1-4.58 4.58 4.568 4.568 0 0 1-4.57-4.58 4.568 4.568 0 0 1 4.57-4.579 4.57 4.57 0 0 1 4.58 4.579zm-13.73 12.182c.04-3.038 6.1-4.702 9.15-4.702 3.04 0 9.12 1.664 9.16 4.702a10.99 10.99 0 0 1-9.16 4.915c-3.81 0-7.18-1.954-9.15-4.915z" clip-rule="evenodd"/><path fill="#AEAAAA" fill-rule="evenodd" d="M1799.71 244h48.84v10.176h-48.84V244z" clip-rule="evenodd"/><path fill="#DFDFDF" fill-rule="evenodd" d="M1799.71 259.265H1932v10.176h-132.29v-10.176zm0 15.264H1932v10.177h-132.29v-10.177z" clip-rule="evenodd"/><path fill="#0D1B2A" fill-rule="evenodd" d="M1759 367.875c0 8.426 6.84 15.265 15.26 15.265 8.43 0 15.27-6.839 15.27-15.265s-6.84-15.264-15.27-15.264c-8.42 0-15.26 6.838-15.26 15.264zm19.84-6.106a4.57 4.57 0 0 1-4.58 4.58 4.568 4.568 0 0 1-4.57-4.58 4.568 4.568 0 0 1 4.57-4.579 4.57 4.57 0 0 1 4.58 4.579zm-13.73 12.182c.04-3.038 6.1-4.702 9.15-4.702 3.04 0 9.12 1.664 9.16 4.702a10.99 10.99 0 0 1-9.16 4.915c-3.81 0-7.18-1.954-9.15-4.915z" clip-rule="evenodd"/><path fill="#AEAAAA" fill-rule="evenodd" d="M1799.71 352h48.84v10.176h-48.84V352z" clip-rule="evenodd"/><path fill="#DFDFDF" fill-rule="evenodd" d="M1799.71 367.265H1932v10.176h-132.29v-10.176zm0 15.264H1932v10.177h-132.29v-10.177z" clip-rule="evenodd"/><rect width="117" height="184" x="1802" y="623" fill="#fff" stroke="#000" stroke-width="2" rx="58.5"/><path fill="#FD5257" stroke="#000" stroke-width="3" d="M368 967h597.538v349.562H368z"/><path fill="#DDEAF3" fill-rule="evenodd" d="M667.54 1242.19c55.192 0 99.934-44.74 99.934-99.93 0-55.19-44.742-99.93-99.934-99.93-55.191 0-99.933 44.74-99.933 99.93 0 55.19 44.742 99.93 99.933 99.93z" clip-rule="evenodd"/><path fill="#fff" fill-rule="evenodd" d="M767.453 1140.22a99.949 99.949 0 0 0-23.971-62.92 99.943 99.943 0 0 0-124.837-22.2 99.969 99.969 0 0 0-44.192 50.81 99.92 99.92 0 0 0-1.932 67.3 99.997 99.997 0 0 0 41.204 53.26 99.902 99.902 0 0 0 65.635 15.02 99.892 99.892 0 0 0 60.269-30.02l-72.089-69.21 99.913-2.04z" clip-rule="evenodd"/><path fill="#F2F7F9" fill-rule="evenodd" d="M767.473 1142.26c0-18.18-4.957-36.01-14.336-51.57a99.892 99.892 0 0 0-38.894-36.78 100.034 100.034 0 0 0-52.294-11.43 99.924 99.924 0 0 0-50.689 17.2l56.28 82.58h99.933z" clip-rule="evenodd"/><path fill="#165EC9" d="M1065 967h271.552v315H1065z"/><path fill="#DDEAF3" fill-rule="evenodd" d="M1200.78 1216.83c-50.99 0-92.33-41.34-92.33-92.33 0-50.99 41.34-92.33 92.33-92.33 50.99 0 92.32 41.34 92.32 92.33 0 50.99-41.33 92.33-92.32 92.33zm0-10.86c44.99 0 81.46-36.48 81.46-81.47s-36.47-81.47-81.46-81.47c-45 0-81.47 36.48-81.47 81.47s36.47 81.47 81.47 81.47z" clip-rule="evenodd"/><path fill="#000" fill-rule="evenodd" d="M1108.45 1124.5c0 50.99 41.34 92.33 92.33 92.33 50.99 0 92.32-41.34 92.32-92.33 0-50.99-41.33-92.33-92.32-92.33-3 0-5.43 2.43-5.43 5.43 0 3 2.43 5.43 5.43 5.43 44.99 0 81.46 36.48 81.46 81.47s-36.47 81.47-81.46 81.47c-45 0-81.47-36.48-81.47-81.47 0-3-2.43-5.43-5.43-5.43-3 0-5.43 2.43-5.43 5.43z" clip-rule="evenodd"/><path fill="teal" d="M1380 967h271.552v315H1380z"/><path fill="#DDEAF3" fill-rule="evenodd" d="M1418.02 1015.88h104.82v54.31h-104.82v-54.31z" clip-rule="evenodd"/><path fill="#FFC53A" d="M1742 967h300v348h-300z"/><path fill="#000" fill-rule="evenodd" d="M1892 1243c-56.33 0-102-45.67-102-102s45.67-102 102-102 102 45.67 102 102-45.67 102-102 102zm0-12c49.71 0 90-40.29 90-90s-40.29-90-90-90-90 40.29-90 90 40.29 90 90 90z" clip-rule="evenodd"/><path fill="#F8FCFF" fill-rule="evenodd" d="M1892.35 1243.18c56.33 0 102-45.67 102-102 0-56.34-45.67-102-102-102-3.31 0-6 2.68-6 6 0 3.31 2.69 6 6 6 49.71 0 90 40.29 90 90 0 49.7-40.29 90-90 90-3.31 0-6 2.68-6 6 0 3.31 2.69 6 6 6z" clip-rule="evenodd"/></g><defs><clipPath id="a"><path fill="#fff" d="M0 0h1920v1080H0z"/></clipPath></defs></svg>