<svg id="Layer_1" viewBox="0 0 512 512" xmlns="http://www.w3.org/2000/svg" data-name="Layer 1"><path d="m284.702 355.276c-1.822-23.702-7.625-34.369-23.881-43.899-11.039-6.473-28.929-11.352-47.902-16.204l-37.195-9.149c7.134-4.744 13.604-11.152 19.031-19.015 16.801-24.342 19.873-57.847 7.469-81.479-10.568-20.137-30.88-31.227-57.192-31.227s-46.624 11.09-57.192 31.226c-12.404 23.633-9.333 57.139 7.468 81.48 5.428 7.863 11.897 14.271 19.03 19.015l-37.256 9.164c-18.911 4.837-36.801 9.716-47.84 16.188-16.256 9.53-22.059 20.197-23.882 43.898-.004.051-.007.102-.01.152-2.311 41.973-1.229 80.625.133 112.898.938 22.247 19.117 39.674 41.384 39.674h196.33c22.266 0 40.443-17.427 41.384-39.674 1.362-32.283 2.442-70.943.132-112.898-.003-.051-.006-.102-.01-.151zm-184.468-163.24c8.149-15.526 23.64-23.732 44.797-23.732s36.647 8.206 44.797 23.732c10.088 19.221 7.376 46.78-6.595 67.021-9.896 14.338-23.208 22.304-37.56 22.523-.431-.003-.863-.003-1.294 0-14.338-.218-27.654-8.185-37.551-22.523-13.97-20.24-16.682-47.8-6.594-67.021zm170.359 275.699c-.623 14.728-12.657 26.265-27.397 26.265h-5.881v-116.801c0-3.866-3.134-7-7-7s-7 3.134-7 7v116.801h-156.568v-116.801c0-3.866-3.134-7-7-7s-7 3.134-7 7v116.801h-5.881c-14.741 0-26.775-11.536-27.397-26.264-1.347-31.918-2.417-70.116-.145-111.461 1.583-20.479 5.639-26.162 16.997-32.822 10.253-6.011 29.891-11.034 44.166-14.687l41.729-10.263c7.639-1.879 14.808-2.845 21.959-2.917.264.004.527.014.792.014h.114c.266 0 .532-.01.798-.014 7.154.071 14.326 1.037 21.968 2.916l41.666 10.248c14.338 3.668 33.976 8.691 44.229 14.702 11.358 6.66 15.413 12.343 16.996 32.82 2.272 41.328 1.203 79.535-.144 111.462zm-114.277-109.037h52.501v14h-52.501zm315.398-354.698h-219.627c-20.007 0-36.283 16.277-36.283 36.283v158.01c0 20.007 16.276 36.284 36.283 36.284h22.894v55.423c0 3.019 1.936 5.697 4.802 6.646.723.239 1.464.354 2.197.354 2.173 0 4.274-1.014 5.62-2.826l44.271-59.597h139.843c20.007 0 36.283-16.277 36.283-36.284v-158.01c0-20.006-16.276-36.283-36.283-36.283zm22.283 194.293c0 12.288-9.996 22.284-22.283 22.284h-143.362c-2.215 0-4.299 1.048-5.619 2.826l-33.752 45.436v-41.262c0-3.866-3.134-7-7-7h-29.894c-12.287 0-22.283-9.996-22.283-22.284v-158.01c0-12.287 9.996-22.283 22.283-22.283h219.627c12.287 0 22.283 9.996 22.283 22.283zm-91.097-155.505c-15.079 0-29.14 4.403-41 11.965-11.86-7.562-25.921-11.965-41-11.965-42.183 0-76.5 34.318-76.5 76.5s34.317 76.5 76.5 76.5c15.079 0 29.14-4.403 41-11.965 11.86 7.562 25.921 11.965 41 11.965 42.183 0 76.5-34.318 76.5-76.5s-34.317-76.5-76.5-76.5zm-82 139c-34.463 0-62.5-28.037-62.5-62.5s28.037-62.5 62.5-62.5c10.532 0 20.457 2.629 29.172 7.249-14.57 13.937-23.672 33.545-23.672 55.251s9.102 41.314 23.672 55.251c-8.715 4.62-18.64 7.249-29.172 7.249zm53.019-95.539h-24.038c3.295-5.269 7.354-10.009 12.019-14.074 4.665 4.065 8.724 8.805 12.019 14.074zm-12.019 80.151c-4.665-4.065-8.724-8.805-12.019-14.073h24.037c-3.295 5.269-7.354 10.008-12.019 14.073zm18.525-28.073h-37.05c-1.239-3.864-2.108-7.891-2.573-12.039h42.196c-.465 4.148-1.334 8.175-2.573 12.039zm-39.623-26.039c.465-4.148 1.334-8.174 2.573-12.039h37.05c1.239 3.864 2.108 7.89 2.573 12.039zm62.098 69.5c-10.532 0-20.457-2.629-29.172-7.249 14.57-13.937 23.672-33.545 23.672-55.251s-9.102-41.314-23.672-55.251c8.715-4.62 18.64-7.249 29.172-7.249 34.463 0 62.5 28.037 62.5 62.5s-28.037 62.5-62.5 62.5z"/></svg>