<?xml version="1.0" encoding="utf-8"?>
<!-- Generator: Adobe Illustrator 25.0.0, SVG Export Plug-In . SVG Version: 6.00 Build 0)  -->
<svg version="1.1" id="Layer_1" xmlns="http://www.w3.org/2000/svg" xmlns:xlink="http://www.w3.org/1999/xlink" x="0px" y="0px"
	 viewBox="0 0 173 42" style="enable-background:new 0 0 173 42;" xml:space="preserve">
<style type="text/css">
	.st0{fill:#165EC9;}
	.st1{fill-rule:evenodd;clip-rule:evenodd;fill:#165EC9;}
	.st2{fill-rule:evenodd;clip-rule:evenodd;fill:#FD5257;}
</style>
<g>
	<path class="st0" d="M56.6,24.9H54V9.2h2.6V24.9z M65,24.9H54.8v-2.3H65V24.9z M63.6,18h-8.8v-2.3h8.8V18z M65,11.5H54.8V9.2H65
		V11.5z M72.7,24.9h-3.3l-4-11.4h2.9l1.9,6.2l0.9,3.5l0.9-3.5l1.9-6.2h2.9L72.7,24.9L72.7,24.9z M82.4,25.1c-1.1,0-2.1-0.2-2.9-0.7
		c-0.8-0.5-1.5-1.2-1.9-2.1c-0.5-0.9-0.7-1.9-0.7-3.1c0-1.2,0.2-2.2,0.7-3.1c0.5-0.9,1.1-1.6,1.9-2.1c0.8-0.5,1.8-0.7,2.9-0.7
		c1.1,0,2.1,0.2,2.9,0.7c0.8,0.5,1.5,1.2,2,2.1c0.5,0.9,0.7,1.9,0.7,3.1c0,1.2-0.2,2.2-0.7,3.1c-0.5,0.9-1.1,1.6-2,2.1
		C84.5,24.9,83.5,25.1,82.4,25.1L82.4,25.1z M82.5,22.9c0.6,0,1.1-0.1,1.5-0.4c0.4-0.3,0.8-0.7,1-1.2c0.2-0.6,0.4-1.3,0.4-2.1
		c0-0.9-0.1-1.6-0.4-2.2c-0.2-0.5-0.6-1-1-1.2c-0.4-0.3-0.9-0.4-1.5-0.4c-0.5,0-1,0.1-1.5,0.4c-0.4,0.3-0.8,0.7-1,1.2
		c-0.2,0.5-0.4,1.3-0.4,2.2c0,0.9,0.1,1.6,0.4,2.1c0.2,0.5,0.6,1,1,1.2C81.4,22.8,81.9,22.9,82.5,22.9z M92.9,24.9h-2.6V9.2h2.6
		V24.9L92.9,24.9z M101.8,24.9h-3.3l-4-11.4h2.9l1.9,6.2l0.9,3.5l0.9-3.5l1.9-6.2h2.9L101.8,24.9L101.8,24.9z M111.8,25.1
		c-1.1,0-2.1-0.2-3-0.7c-0.8-0.5-1.5-1.2-2-2.1c-0.5-0.9-0.7-1.9-0.7-3.1c0-1.2,0.2-2.2,0.7-3.1c0.5-0.9,1.1-1.6,1.9-2.1
		c0.8-0.5,1.8-0.7,2.8-0.7c1.1,0,2.1,0.2,2.9,0.7c0.8,0.5,1.4,1.1,1.8,1.9c0.4,0.8,0.6,1.7,0.6,2.8c0,0.2,0,0.4,0,0.7
		c0,0.2,0,0.4-0.1,0.5h-8.7v-1.7h7l-0.5,0.6c0-1.1-0.3-2-0.8-2.5c-0.5-0.6-1.2-0.9-2.2-0.9c-0.9,0-1.6,0.3-2.2,0.9
		c-0.5,0.6-0.8,1.5-0.8,2.6v0.5c0,0.8,0.1,1.4,0.4,1.9c0.3,0.5,0.6,0.9,1.1,1.2c0.5,0.3,1,0.4,1.7,0.4c0.7,0,1.2-0.1,1.6-0.3
		c0.4-0.2,0.8-0.5,1.1-0.7c0.3-0.3,0.5-0.6,0.6-0.9l1.6,1.7c-0.4,0.6-1,1.2-1.8,1.7C114.1,24.9,113.1,25.1,111.8,25.1L111.8,25.1z
		 M126.5,24.9h-5.7v-2.3h5.3c1.1,0,1.9-0.2,2.4-0.5c0.5-0.4,0.8-1,0.8-1.8c0-0.5-0.1-1-0.4-1.3c-0.2-0.3-0.6-0.6-1.1-0.7
		c-0.5-0.2-1-0.2-1.6-0.2h-5.4v-2.2h5.1c0.5,0,1-0.1,1.4-0.2c0.4-0.1,0.7-0.3,0.9-0.6c0.2-0.3,0.4-0.7,0.4-1.3s-0.1-0.9-0.4-1.2
		c-0.2-0.3-0.6-0.5-1-0.7c-0.4-0.1-0.9-0.2-1.4-0.2h-5V9.2h5.8c1.1,0,2,0.2,2.6,0.5c0.7,0.3,1.2,0.8,1.5,1.4
		c0.3,0.6,0.5,1.3,0.5,2.1c0,0.5-0.1,1-0.3,1.4c-0.2,0.4-0.5,0.8-0.8,1.1c-0.4,0.3-0.8,0.5-1.3,0.7c-0.5,0.2-1.1,0.3-1.7,0.4
		c1.2,0.1,2.2,0.3,2.9,0.7c0.7,0.4,1.2,0.8,1.5,1.4c0.3,0.6,0.5,1.2,0.5,1.9c0,0.9-0.2,1.7-0.7,2.3c-0.4,0.6-1.1,1.1-1.9,1.4
		C128.6,24.7,127.6,24.9,126.5,24.9L126.5,24.9z M122.1,24.9h-2.6V9.2h2.6V24.9L122.1,24.9z M140.8,19.9h-5.4v-2.3h5.2
		c0.6,0,1.1-0.1,1.7-0.3c0.5-0.2,0.9-0.5,1.2-0.9c0.3-0.4,0.5-1,0.5-1.8c0-0.8-0.2-1.5-0.5-1.9c-0.3-0.5-0.7-0.8-1.2-0.9
		c-0.5-0.2-1.1-0.3-1.7-0.3h-5.2V9.2h5.4c1.1,0,2.1,0.2,3,0.6c0.9,0.4,1.6,1,2.1,1.8c0.5,0.8,0.8,1.8,0.8,3.1c0,1.2-0.3,2.2-0.8,2.9
		c-0.5,0.8-1.2,1.4-2.1,1.8C142.9,19.7,141.9,19.9,140.8,19.9z M137.1,24.9h-2.6V9.2h2.6V24.9L137.1,24.9z M151.3,24.9h-2.6V9.2h3.3
		l3.4,6.9l1.5,4l1.5-4l3.4-6.9h3.3v15.7h-2.6v-7.4l0.3-5.2l-1.8,4.5l-2.7,5.4h-2.7l-2.7-5.4l-1.8-4.5l0.4,5.2V24.9L151.3,24.9z
		 M55.8,38.5h-1.6v-5.6h1.7c0.5,0,1,0.1,1.4,0.3c0.4,0.2,0.7,0.5,0.9,1c0.2,0.4,0.3,0.9,0.3,1.5c0,0.6-0.1,1.1-0.3,1.5
		c-0.2,0.4-0.5,0.7-0.9,1C56.9,38.4,56.4,38.5,55.8,38.5z M54.7,38h1.1c0.5,0,0.9-0.1,1.2-0.3c0.3-0.2,0.6-0.5,0.7-0.8
		c0.2-0.4,0.2-0.8,0.2-1.3c0-0.5-0.1-0.9-0.2-1.2c-0.2-0.3-0.4-0.6-0.7-0.8c-0.3-0.2-0.7-0.3-1.1-0.3h-1.2V38L54.7,38z M61.3,38.6
		c-0.4,0-0.7-0.1-1-0.3c-0.3-0.2-0.5-0.4-0.7-0.8c-0.2-0.3-0.2-0.7-0.2-1.1c0-0.4,0.1-0.8,0.2-1.1c0.2-0.3,0.4-0.6,0.6-0.8
		c0.3-0.2,0.6-0.3,1-0.3c0.2,0,0.4,0,0.7,0.1c0.2,0.1,0.4,0.2,0.6,0.4c0.2,0.2,0.3,0.4,0.4,0.6c0.1,0.3,0.1,0.6,0.1,0.9v0.2h-3.3
		v-0.4h2.8c0-0.3-0.1-0.5-0.2-0.7c-0.1-0.2-0.3-0.4-0.5-0.5c-0.2-0.1-0.4-0.2-0.7-0.2c-0.3,0-0.5,0.1-0.7,0.2
		c-0.2,0.1-0.4,0.3-0.5,0.6c-0.1,0.2-0.2,0.5-0.2,0.8v0.3c0,0.3,0.1,0.6,0.2,0.9c0.1,0.2,0.3,0.4,0.5,0.6c0.2,0.1,0.5,0.2,0.8,0.2
		c0.2,0,0.4,0,0.5-0.1c0.2-0.1,0.3-0.1,0.4-0.2c0.1-0.1,0.2-0.2,0.2-0.3l0.5,0.2c-0.1,0.2-0.2,0.3-0.3,0.5c-0.1,0.1-0.3,0.3-0.5,0.4
		C61.8,38.5,61.6,38.6,61.3,38.6L61.3,38.6z M65.7,38.6c-0.4,0-0.7-0.1-1-0.3c-0.3-0.2-0.5-0.4-0.6-0.8c-0.2-0.3-0.2-0.7-0.2-1.1
		c0-0.4,0.1-0.8,0.2-1.1c0.2-0.3,0.4-0.6,0.7-0.8c0.3-0.2,0.6-0.3,1-0.3c0.3,0,0.5,0.1,0.8,0.2c0.2,0.1,0.4,0.3,0.6,0.5
		c0.1,0.2,0.2,0.4,0.3,0.7h-0.5c-0.1-0.2-0.2-0.4-0.4-0.6c-0.2-0.2-0.4-0.3-0.7-0.3c-0.3,0-0.5,0.1-0.7,0.2
		c-0.2,0.1-0.4,0.3-0.5,0.6c-0.1,0.3-0.2,0.6-0.2,0.9c0,0.3,0.1,0.6,0.2,0.9c0.1,0.3,0.3,0.5,0.5,0.6c0.2,0.1,0.4,0.2,0.7,0.2
		c0.2,0,0.4,0,0.5-0.1c0.2-0.1,0.3-0.2,0.4-0.3c0.1-0.1,0.2-0.3,0.2-0.5h0.5c0,0.3-0.1,0.5-0.3,0.7c-0.1,0.2-0.3,0.4-0.6,0.5
		C66.3,38.5,66,38.6,65.7,38.6L65.7,38.6z M70,38.6c-0.4,0-0.7-0.1-1-0.3c-0.3-0.2-0.5-0.4-0.7-0.8c-0.2-0.3-0.2-0.7-0.2-1.1
		c0-0.4,0.1-0.8,0.2-1.1c0.2-0.3,0.4-0.6,0.7-0.8c0.3-0.2,0.6-0.3,1-0.3s0.7,0.1,1,0.3c0.3,0.2,0.5,0.4,0.7,0.8
		c0.2,0.3,0.2,0.7,0.2,1.1c0,0.4-0.1,0.8-0.2,1.1c-0.2,0.3-0.4,0.6-0.7,0.8C70.7,38.5,70.4,38.6,70,38.6z M70,38.1
		c0.3,0,0.5-0.1,0.7-0.2c0.2-0.2,0.4-0.4,0.5-0.6c0.1-0.3,0.2-0.5,0.2-0.9c0-0.3-0.1-0.6-0.2-0.9c-0.1-0.3-0.3-0.5-0.5-0.6
		c-0.2-0.2-0.5-0.2-0.7-0.2c-0.3,0-0.5,0.1-0.7,0.2c-0.2,0.2-0.4,0.4-0.5,0.6c-0.1,0.3-0.2,0.6-0.2,0.9c0,0.3,0.1,0.6,0.2,0.9
		c0.1,0.3,0.3,0.5,0.5,0.6C69.5,38.1,69.7,38.1,70,38.1z M74.4,38.6c-0.3,0-0.6-0.1-0.9-0.3c-0.3-0.2-0.5-0.4-0.6-0.8
		c-0.1-0.3-0.2-0.7-0.2-1.1c0-0.4,0.1-0.8,0.2-1.1c0.1-0.3,0.3-0.6,0.6-0.8c0.3-0.2,0.6-0.3,0.9-0.3c0.3,0,0.5,0,0.6,0.1
		c0.2,0.1,0.3,0.2,0.4,0.3c0.1,0.1,0.2,0.3,0.2,0.4h0v-2.2h0.5v5.6h-0.5v-0.8h-0.1c-0.1,0.1-0.1,0.3-0.2,0.4
		c-0.1,0.1-0.2,0.2-0.4,0.3C74.9,38.5,74.7,38.6,74.4,38.6L74.4,38.6z M74.5,38.1c0.3,0,0.5-0.1,0.7-0.2c0.2-0.1,0.3-0.4,0.4-0.6
		c0.1-0.3,0.2-0.6,0.2-0.9c0-0.3-0.1-0.6-0.2-0.9c-0.1-0.3-0.2-0.5-0.4-0.6c-0.2-0.1-0.4-0.2-0.7-0.2c-0.3,0-0.5,0.1-0.7,0.2
		c-0.2,0.2-0.3,0.4-0.4,0.6c-0.1,0.3-0.1,0.6-0.1,0.9c0,0.3,0.1,0.6,0.2,0.9c0.1,0.3,0.2,0.5,0.4,0.6C74,38.1,74.2,38.1,74.5,38.1
		L74.5,38.1z M77.7,38.5v-4.2h0.5v4.2H77.7z M77.9,33.6c-0.1,0-0.2,0-0.3-0.1c-0.1-0.1-0.1-0.2-0.1-0.2c0-0.1,0-0.2,0.1-0.2
		c0.1-0.1,0.2-0.1,0.3-0.1c0.1,0,0.2,0,0.3,0.1c0.1,0.1,0.1,0.1,0.1,0.2c0,0.1,0,0.2-0.1,0.2C78.1,33.5,78,33.6,77.9,33.6z
		 M79.9,35.9v2.6h-0.5v-4.2h0.5V35h0c0.1-0.2,0.3-0.4,0.5-0.5c0.2-0.1,0.5-0.2,0.8-0.2c0.3,0,0.5,0.1,0.7,0.2
		c0.2,0.1,0.4,0.3,0.5,0.5c0.1,0.2,0.2,0.5,0.2,0.8v2.7h-0.5v-2.7c0-0.3-0.1-0.6-0.3-0.8c-0.2-0.2-0.4-0.3-0.8-0.3
		c-0.2,0-0.4,0-0.6,0.1c-0.2,0.1-0.3,0.2-0.4,0.4C80,35.4,79.9,35.6,79.9,35.9L79.9,35.9z M85.5,40.2c-0.3,0-0.5,0-0.8-0.1
		c-0.2-0.1-0.4-0.2-0.5-0.3c-0.1-0.1-0.3-0.3-0.3-0.4l0.4-0.3c0.1,0.1,0.1,0.2,0.2,0.3c0.1,0.1,0.2,0.2,0.4,0.3
		c0.2,0.1,0.4,0.1,0.6,0.1c0.4,0,0.7-0.1,0.9-0.3c0.2-0.2,0.3-0.5,0.3-0.9v-0.9h0c-0.1,0.1-0.1,0.3-0.2,0.4
		c-0.1,0.1-0.2,0.2-0.4,0.3c-0.2,0.1-0.4,0.1-0.6,0.1c-0.3,0-0.6-0.1-0.9-0.2c-0.3-0.2-0.5-0.4-0.6-0.7c-0.1-0.3-0.2-0.7-0.2-1.1
		c0-0.4,0.1-0.8,0.2-1.1c0.1-0.3,0.3-0.6,0.6-0.8c0.3-0.2,0.6-0.3,0.9-0.3c0.3,0,0.5,0,0.6,0.1c0.2,0.1,0.3,0.2,0.4,0.3
		c0.1,0.1,0.2,0.3,0.2,0.4h0v-0.8h0.5v4.3c0,0.4-0.1,0.6-0.2,0.9c-0.2,0.2-0.4,0.4-0.6,0.5C86.1,40.1,85.8,40.2,85.5,40.2L85.5,40.2
		z M85.5,38c0.3,0,0.5-0.1,0.7-0.2c0.2-0.1,0.3-0.3,0.4-0.6c0.1-0.2,0.2-0.5,0.2-0.9c0-0.3,0-0.6-0.2-0.9c-0.1-0.3-0.2-0.5-0.4-0.6
		c-0.2-0.1-0.4-0.2-0.7-0.2c-0.3,0-0.5,0.1-0.7,0.2c-0.2,0.2-0.3,0.4-0.4,0.6c-0.1,0.3-0.1,0.5-0.1,0.9c0,0.3,0.1,0.6,0.2,0.9
		c0.1,0.2,0.2,0.4,0.4,0.6C85,37.9,85.2,38,85.5,38L85.5,38z M92.4,34.3v0.4h-2v-0.4H92.4z M91,33.3h0.5v4.1c0,0.2,0,0.3,0.1,0.4
		c0.1,0.1,0.1,0.2,0.2,0.2c0.1,0,0.2,0.1,0.3,0.1c0.1,0,0.1,0,0.2,0c0,0,0.1,0,0.1,0l0.1,0.4c0,0-0.1,0-0.2,0c-0.1,0-0.2,0-0.3,0
		c-0.2,0-0.4,0-0.5-0.1c-0.2-0.1-0.3-0.2-0.4-0.4C91,37.9,91,37.7,91,37.5L91,33.3L91,33.3z M94,35.9v2.6h-0.5v-5.6H94V35h0
		c0.1-0.2,0.3-0.4,0.5-0.5c0.2-0.1,0.5-0.2,0.8-0.2c0.3,0,0.5,0.1,0.7,0.2c0.2,0.1,0.4,0.3,0.5,0.5c0.1,0.2,0.2,0.5,0.2,0.8v2.7
		h-0.5v-2.7c0-0.3-0.1-0.6-0.3-0.8c-0.2-0.2-0.5-0.3-0.8-0.3c-0.2,0-0.4,0-0.6,0.1c-0.2,0.1-0.3,0.2-0.4,0.4
		C94.1,35.4,94,35.6,94,35.9L94,35.9z M99.7,38.6c-0.4,0-0.7-0.1-1-0.3c-0.3-0.2-0.5-0.4-0.7-0.8c-0.2-0.3-0.2-0.7-0.2-1.1
		c0-0.4,0.1-0.8,0.2-1.1c0.2-0.3,0.4-0.6,0.6-0.8c0.3-0.2,0.6-0.3,1-0.3c0.2,0,0.4,0,0.7,0.1c0.2,0.1,0.4,0.2,0.6,0.4
		c0.2,0.2,0.3,0.4,0.4,0.6c0.1,0.3,0.1,0.6,0.1,0.9v0.2h-3.3v-0.4h2.8c0-0.3-0.1-0.5-0.2-0.7c-0.1-0.2-0.3-0.4-0.5-0.5
		c-0.2-0.1-0.4-0.2-0.7-0.2c-0.3,0-0.5,0.1-0.7,0.2c-0.2,0.1-0.4,0.3-0.5,0.6c-0.1,0.2-0.2,0.5-0.2,0.8v0.3c0,0.3,0.1,0.6,0.2,0.9
		c0.1,0.2,0.3,0.4,0.5,0.6c0.2,0.1,0.5,0.2,0.8,0.2c0.2,0,0.4,0,0.5-0.1c0.2-0.1,0.3-0.1,0.4-0.2c0.1-0.1,0.2-0.2,0.2-0.3l0.5,0.2
		c-0.1,0.2-0.2,0.3-0.3,0.5c-0.1,0.1-0.3,0.3-0.5,0.4C100.3,38.5,100,38.6,99.7,38.6L99.7,38.6z M107.5,35.2l-0.4,0.1
		c0-0.1-0.1-0.2-0.2-0.3c-0.1-0.1-0.2-0.2-0.3-0.2c-0.1-0.1-0.3-0.1-0.5-0.1c-0.3,0-0.5,0.1-0.7,0.2s-0.3,0.3-0.3,0.5
		c0,0.2,0.1,0.3,0.2,0.4c0.1,0.1,0.3,0.2,0.6,0.3l0.6,0.2c0.4,0.1,0.6,0.2,0.8,0.4c0.2,0.2,0.3,0.4,0.3,0.7c0,0.2-0.1,0.4-0.2,0.6
		c-0.1,0.2-0.3,0.3-0.6,0.4c-0.2,0.1-0.5,0.2-0.8,0.2c-0.4,0-0.7-0.1-1-0.3c-0.3-0.2-0.4-0.5-0.5-0.8l0.5-0.1
		c0.1,0.2,0.2,0.4,0.4,0.6c0.2,0.1,0.4,0.2,0.7,0.2c0.3,0,0.6-0.1,0.8-0.2c0.2-0.1,0.3-0.3,0.3-0.5c0-0.2-0.1-0.3-0.2-0.4
		c-0.1-0.1-0.3-0.2-0.5-0.3l-0.7-0.2c-0.4-0.1-0.6-0.2-0.8-0.4c-0.2-0.2-0.3-0.4-0.3-0.7c0-0.2,0.1-0.4,0.2-0.6
		c0.1-0.2,0.3-0.3,0.5-0.4c0.2-0.1,0.5-0.2,0.8-0.2c0.4,0,0.7,0.1,0.9,0.3C107.2,34.7,107.4,34.9,107.5,35.2L107.5,35.2z
		 M109.8,38.6c-0.3,0-0.5,0-0.7-0.1c-0.2-0.1-0.4-0.2-0.5-0.4c-0.1-0.2-0.2-0.4-0.2-0.7c0-0.2,0-0.4,0.1-0.5
		c0.1-0.1,0.2-0.3,0.3-0.4c0.1-0.1,0.3-0.2,0.5-0.2c0.2-0.1,0.4-0.1,0.7-0.1c0.2,0,0.4-0.1,0.6-0.1c0.2,0,0.3-0.1,0.4-0.1
		c0.1,0,0.1-0.1,0.1-0.2v-0.1c0-0.3-0.1-0.5-0.3-0.7c-0.2-0.2-0.4-0.2-0.7-0.2c-0.3,0-0.6,0.1-0.7,0.2c-0.2,0.1-0.3,0.3-0.4,0.5
		l-0.5-0.2c0.1-0.2,0.2-0.4,0.4-0.6c0.2-0.1,0.4-0.2,0.6-0.3c0.2-0.1,0.4-0.1,0.6-0.1c0.2,0,0.3,0,0.5,0.1c0.2,0,0.3,0.1,0.5,0.2
		c0.1,0.1,0.3,0.2,0.4,0.4c0.1,0.2,0.1,0.4,0.1,0.7v2.9h-0.5v-0.7h0c-0.1,0.1-0.1,0.2-0.3,0.4c-0.1,0.1-0.3,0.2-0.4,0.3
		S110.1,38.6,109.8,38.6L109.8,38.6z M109.9,38.1c0.3,0,0.5-0.1,0.7-0.2c0.2-0.1,0.3-0.3,0.4-0.5c0.1-0.2,0.2-0.4,0.2-0.6v-0.6
		c0,0-0.1,0.1-0.2,0.1c-0.1,0-0.2,0.1-0.3,0.1c-0.1,0-0.2,0-0.3,0.1c-0.1,0-0.2,0-0.3,0c-0.2,0-0.4,0.1-0.6,0.1
		c-0.2,0.1-0.3,0.1-0.4,0.3c-0.1,0.1-0.1,0.2-0.1,0.4c0,0.3,0.1,0.5,0.3,0.6C109.4,38.1,109.6,38.1,109.9,38.1L109.9,38.1z
		 M113.4,32.9v5.6h-0.5v-5.6H113.4z M116.4,38.6c-0.4,0-0.7-0.1-1-0.3c-0.3-0.2-0.5-0.4-0.7-0.8c-0.2-0.3-0.2-0.7-0.2-1.1
		c0-0.4,0.1-0.8,0.2-1.1c0.2-0.3,0.4-0.6,0.6-0.8c0.3-0.2,0.6-0.3,1-0.3c0.2,0,0.4,0,0.7,0.1c0.2,0.1,0.4,0.2,0.6,0.4
		c0.2,0.2,0.3,0.4,0.4,0.6c0.1,0.3,0.1,0.6,0.1,0.9v0.2h-3.3v-0.4h2.8c0-0.3-0.1-0.5-0.2-0.7c-0.1-0.2-0.3-0.4-0.5-0.5
		c-0.2-0.1-0.4-0.2-0.7-0.2c-0.3,0-0.5,0.1-0.7,0.2c-0.2,0.1-0.4,0.3-0.5,0.6c-0.1,0.2-0.2,0.5-0.2,0.8v0.3c0,0.3,0.1,0.6,0.2,0.9
		c0.1,0.2,0.3,0.4,0.5,0.6c0.2,0.1,0.5,0.2,0.8,0.2c0.2,0,0.4,0,0.5-0.1c0.2-0.1,0.3-0.1,0.4-0.2c0.1-0.1,0.2-0.2,0.2-0.3l0.5,0.2
		c-0.1,0.2-0.2,0.3-0.3,0.5c-0.1,0.1-0.3,0.3-0.5,0.4C116.9,38.5,116.7,38.6,116.4,38.6L116.4,38.6z M122,35.2l-0.4,0.1
		c0-0.1-0.1-0.2-0.2-0.3c-0.1-0.1-0.2-0.2-0.3-0.2c-0.1-0.1-0.3-0.1-0.5-0.1c-0.3,0-0.5,0.1-0.7,0.2s-0.3,0.3-0.3,0.5
		c0,0.2,0.1,0.3,0.2,0.4c0.1,0.1,0.3,0.2,0.6,0.3l0.6,0.2c0.4,0.1,0.6,0.2,0.8,0.4c0.2,0.2,0.3,0.4,0.3,0.7c0,0.2-0.1,0.4-0.2,0.6
		c-0.1,0.2-0.3,0.3-0.6,0.4c-0.2,0.1-0.5,0.2-0.8,0.2c-0.4,0-0.7-0.1-1-0.3c-0.3-0.2-0.4-0.5-0.5-0.8l0.5-0.1
		c0.1,0.2,0.2,0.4,0.4,0.6c0.2,0.1,0.4,0.2,0.7,0.2c0.3,0,0.6-0.1,0.8-0.2c0.2-0.1,0.3-0.3,0.3-0.5c0-0.2-0.1-0.3-0.2-0.4
		c-0.1-0.1-0.3-0.2-0.5-0.3l-0.7-0.2c-0.4-0.1-0.6-0.2-0.8-0.4c-0.2-0.2-0.3-0.4-0.3-0.7c0-0.2,0.1-0.4,0.2-0.6
		c0.1-0.2,0.3-0.3,0.5-0.4c0.2-0.1,0.5-0.2,0.8-0.2c0.4,0,0.7,0.1,0.9,0.3C121.7,34.7,121.9,34.9,122,35.2L122,35.2z M127,38.6
		c-0.4,0-0.7-0.1-1-0.3c-0.3-0.2-0.5-0.4-0.7-0.8c-0.2-0.3-0.2-0.7-0.2-1.1c0-0.4,0.1-0.8,0.2-1.1c0.2-0.3,0.4-0.6,0.6-0.8
		c0.3-0.2,0.6-0.3,1-0.3c0.2,0,0.4,0,0.7,0.1c0.2,0.1,0.4,0.2,0.6,0.4c0.2,0.2,0.3,0.4,0.4,0.6c0.1,0.3,0.1,0.6,0.1,0.9v0.2h-3.3
		v-0.4h2.8c0-0.3-0.1-0.5-0.2-0.7c-0.1-0.2-0.3-0.4-0.5-0.5c-0.2-0.1-0.4-0.2-0.7-0.2c-0.3,0-0.5,0.1-0.7,0.2
		c-0.2,0.1-0.4,0.3-0.5,0.6c-0.1,0.2-0.2,0.5-0.2,0.8v0.3c0,0.3,0.1,0.6,0.2,0.9c0.1,0.2,0.3,0.4,0.5,0.6c0.2,0.1,0.5,0.2,0.8,0.2
		c0.2,0,0.4,0,0.5-0.1c0.2-0.1,0.3-0.1,0.4-0.2c0.1-0.1,0.2-0.2,0.2-0.3l0.5,0.2c-0.1,0.2-0.2,0.3-0.3,0.5c-0.1,0.1-0.3,0.3-0.5,0.4
		C127.5,38.5,127.3,38.6,127,38.6L127,38.6z M131.4,38.6c-0.4,0-0.7-0.1-1-0.3c-0.3-0.2-0.5-0.4-0.6-0.8s-0.2-0.7-0.2-1.1
		c0-0.4,0.1-0.8,0.2-1.1c0.2-0.3,0.4-0.6,0.7-0.8c0.3-0.2,0.6-0.3,1-0.3c0.3,0,0.5,0.1,0.8,0.2c0.2,0.1,0.4,0.3,0.6,0.5
		c0.1,0.2,0.2,0.4,0.3,0.7h-0.5c-0.1-0.2-0.2-0.4-0.4-0.6c-0.2-0.2-0.4-0.3-0.7-0.3c-0.3,0-0.5,0.1-0.7,0.2
		c-0.2,0.1-0.4,0.3-0.5,0.6c-0.1,0.3-0.2,0.6-0.2,0.9c0,0.3,0.1,0.6,0.2,0.9c0.1,0.3,0.3,0.5,0.5,0.6c0.2,0.1,0.4,0.2,0.7,0.2
		c0.2,0,0.4,0,0.5-0.1c0.2-0.1,0.3-0.2,0.4-0.3c0.1-0.1,0.2-0.3,0.2-0.5h0.5c0,0.3-0.1,0.5-0.3,0.7c-0.1,0.2-0.3,0.4-0.6,0.5
		C132,38.5,131.7,38.6,131.4,38.6L131.4,38.6z M135.7,38.6c-0.4,0-0.7-0.1-1-0.3c-0.3-0.2-0.5-0.4-0.7-0.8c-0.2-0.3-0.2-0.7-0.2-1.1
		c0-0.4,0.1-0.8,0.2-1.1c0.2-0.3,0.4-0.6,0.7-0.8c0.3-0.2,0.6-0.3,1-0.3c0.4,0,0.7,0.1,1,0.3c0.3,0.2,0.5,0.4,0.7,0.8
		c0.2,0.3,0.2,0.7,0.2,1.1c0,0.4-0.1,0.8-0.2,1.1c-0.2,0.3-0.4,0.6-0.7,0.8C136.4,38.5,136.1,38.6,135.7,38.6z M135.7,38.1
		c0.3,0,0.5-0.1,0.7-0.2c0.2-0.2,0.4-0.4,0.5-0.6c0.1-0.3,0.2-0.5,0.2-0.9c0-0.3-0.1-0.6-0.2-0.9c-0.1-0.3-0.3-0.5-0.5-0.6
		c-0.2-0.2-0.4-0.2-0.7-0.2c-0.3,0-0.5,0.1-0.7,0.2c-0.2,0.2-0.4,0.4-0.5,0.6c-0.1,0.3-0.2,0.6-0.2,0.9c0,0.3,0.1,0.6,0.2,0.9
		c0.1,0.3,0.3,0.5,0.5,0.6C135.2,38.1,135.4,38.1,135.7,38.1z M141.4,35.2l-0.4,0.1c0-0.1-0.1-0.2-0.2-0.3c-0.1-0.1-0.2-0.2-0.3-0.2
		c-0.1-0.1-0.3-0.1-0.5-0.1c-0.3,0-0.5,0.1-0.7,0.2c-0.2,0.1-0.3,0.3-0.3,0.5c0,0.2,0.1,0.3,0.2,0.4c0.1,0.1,0.3,0.2,0.6,0.3
		l0.6,0.2c0.4,0.1,0.6,0.2,0.8,0.4c0.2,0.2,0.3,0.4,0.3,0.7c0,0.2-0.1,0.4-0.2,0.6c-0.1,0.2-0.3,0.3-0.6,0.4
		c-0.2,0.1-0.5,0.2-0.8,0.2c-0.4,0-0.7-0.1-1-0.3c-0.3-0.2-0.4-0.5-0.5-0.8l0.5-0.1c0.1,0.2,0.2,0.4,0.4,0.6
		c0.2,0.1,0.4,0.2,0.7,0.2c0.3,0,0.6-0.1,0.8-0.2c0.2-0.1,0.3-0.3,0.3-0.5c0-0.2-0.1-0.3-0.2-0.4c-0.1-0.1-0.3-0.2-0.5-0.3l-0.7-0.2
		c-0.4-0.1-0.6-0.2-0.8-0.4c-0.2-0.2-0.3-0.4-0.3-0.7c0-0.2,0.1-0.4,0.2-0.6c0.1-0.2,0.3-0.3,0.5-0.4c0.2-0.1,0.5-0.2,0.8-0.2
		c0.4,0,0.7,0.1,0.9,0.3C141.2,34.7,141.3,34.9,141.4,35.2L141.4,35.2z M142.9,40.1c-0.1,0-0.2,0-0.3,0c-0.1,0-0.2,0-0.2-0.1
		l0.1-0.4c0.2,0.1,0.3,0.1,0.4,0.1c0.1,0,0.2-0.1,0.3-0.2c0.1-0.1,0.2-0.3,0.3-0.5l0.2-0.4l-1.5-4.2h0.5l1.2,3.6h0l1.2-3.6h0.5
		l-1.8,4.9c-0.1,0.2-0.2,0.4-0.3,0.5c-0.1,0.1-0.2,0.2-0.4,0.3C143.3,40,143.1,40.1,142.9,40.1L142.9,40.1z M149.6,35.2l-0.4,0.1
		c0-0.1-0.1-0.2-0.2-0.3c-0.1-0.1-0.2-0.2-0.3-0.2c-0.1-0.1-0.3-0.1-0.5-0.1c-0.3,0-0.5,0.1-0.7,0.2c-0.2,0.1-0.3,0.3-0.3,0.5
		c0,0.2,0.1,0.3,0.2,0.4c0.1,0.1,0.3,0.2,0.6,0.3l0.6,0.2c0.4,0.1,0.6,0.2,0.8,0.4c0.2,0.2,0.3,0.4,0.3,0.7c0,0.2-0.1,0.4-0.2,0.6
		c-0.1,0.2-0.3,0.3-0.6,0.4c-0.2,0.1-0.5,0.2-0.8,0.2c-0.4,0-0.7-0.1-1-0.3c-0.3-0.2-0.4-0.5-0.5-0.8l0.5-0.1
		c0.1,0.2,0.2,0.4,0.4,0.6c0.2,0.1,0.4,0.2,0.7,0.2c0.3,0,0.6-0.1,0.8-0.2c0.2-0.1,0.3-0.3,0.3-0.5c0-0.2-0.1-0.3-0.2-0.4
		c-0.1-0.1-0.3-0.2-0.5-0.3l-0.7-0.2c-0.4-0.1-0.6-0.2-0.8-0.4c-0.2-0.2-0.3-0.4-0.3-0.7c0-0.2,0.1-0.4,0.2-0.6
		c0.1-0.2,0.3-0.3,0.5-0.4c0.2-0.1,0.5-0.2,0.8-0.2c0.4,0,0.7,0.1,0.9,0.3C149.3,34.7,149.5,34.9,149.6,35.2L149.6,35.2z
		 M152.4,34.3v0.4h-2v-0.4H152.4z M151,33.3h0.5v4.1c0,0.2,0,0.3,0.1,0.4c0.1,0.1,0.1,0.2,0.2,0.2c0.1,0,0.2,0.1,0.3,0.1
		c0.1,0,0.1,0,0.2,0c0,0,0.1,0,0.1,0l0.1,0.4c0,0-0.1,0-0.2,0c-0.1,0-0.2,0-0.3,0c-0.2,0-0.4,0-0.5-0.1c-0.2-0.1-0.3-0.2-0.4-0.4
		c-0.1-0.2-0.2-0.3-0.2-0.6V33.3L151,33.3z M155.2,38.6c-0.4,0-0.7-0.1-1-0.3c-0.3-0.2-0.5-0.4-0.7-0.8c-0.2-0.3-0.2-0.7-0.2-1.1
		c0-0.4,0.1-0.8,0.2-1.1c0.2-0.3,0.4-0.6,0.6-0.8c0.3-0.2,0.6-0.3,1-0.3c0.2,0,0.4,0,0.7,0.1c0.2,0.1,0.4,0.2,0.6,0.4
		c0.2,0.2,0.3,0.4,0.4,0.6c0.1,0.3,0.1,0.6,0.1,0.9v0.2h-3.3v-0.4h2.8c0-0.3-0.1-0.5-0.2-0.7c-0.1-0.2-0.3-0.4-0.5-0.5
		c-0.2-0.1-0.4-0.2-0.7-0.2c-0.3,0-0.5,0.1-0.7,0.2c-0.2,0.1-0.4,0.3-0.5,0.6c-0.1,0.2-0.2,0.5-0.2,0.8v0.3c0,0.3,0.1,0.6,0.2,0.9
		c0.1,0.2,0.3,0.4,0.5,0.6c0.2,0.1,0.5,0.2,0.8,0.2c0.2,0,0.4,0,0.5-0.1c0.2-0.1,0.3-0.1,0.4-0.2c0.1-0.1,0.2-0.2,0.2-0.3l0.5,0.2
		c-0.1,0.2-0.2,0.3-0.3,0.5c-0.1,0.1-0.3,0.3-0.5,0.4C155.7,38.5,155.4,38.6,155.2,38.6L155.2,38.6z M157.9,38.5v-4.2h0.5v0.6h0
		c0.1-0.2,0.2-0.4,0.4-0.5c0.2-0.1,0.4-0.2,0.7-0.2c0.3,0,0.5,0.1,0.7,0.2c0.2,0.1,0.3,0.3,0.4,0.6h0c0.1-0.2,0.2-0.4,0.5-0.6
		c0.2-0.1,0.5-0.2,0.8-0.2c0.4,0,0.7,0.1,0.9,0.4c0.2,0.2,0.3,0.6,0.3,1.1v2.8h-0.5v-2.8c0-0.3-0.1-0.6-0.3-0.7
		c-0.2-0.2-0.4-0.2-0.7-0.2c-0.3,0-0.6,0.1-0.7,0.3c-0.2,0.2-0.3,0.4-0.3,0.7v2.8h-0.5v-2.9c0-0.3-0.1-0.5-0.2-0.7
		c-0.2-0.2-0.4-0.3-0.7-0.3c-0.2,0-0.4,0-0.5,0.1c-0.2,0.1-0.3,0.2-0.4,0.4c-0.1,0.2-0.1,0.4-0.1,0.6v2.7L157.9,38.5L157.9,38.5z"/>
	<path class="st1" d="M31.4,28.4c-0.2,0.1-0.5,0.3-0.8,0.3c-0.3,0.1-0.6,0.1-1,0.1c-0.3,0-0.6,0-0.9,0c-0.5,0-1-0.1-1.5-0.2
		c-0.5-0.1-1-0.3-1.4-0.5c0.1-0.2,0.3-0.3,0.4-0.4c0.2-0.1,0.3-0.1,0.5-0.2c0.1-0.2,0.2-0.5,0.2-0.9c0.1-0.4,0.2-0.7,0.3-1
		c0.1-0.3,0.3-0.6,0.5-0.9c0.2-0.2,0.5-0.3,0.8-0.3c-0.1,0.4-0.2,0.8-0.3,1.2c-0.1,0.4-0.1,0.8-0.1,1.1c0,0.4-0.1,0.8-0.1,1.1
		c0.3-0.3,0.6-0.7,0.8-1.1c0.3-0.4,0.5-0.8,0.8-1.2c0.3-0.4,0.6-0.7,0.9-0.9c0.3-0.2,0.6-0.2,1-0.1c-0.7,1.2-1.4,2.4-2,3.5
		c0.4-0.2,0.7-0.4,1.1-0.7c0.3-0.3,0.7-0.6,1-0.9c0.3-0.3,0.7-0.5,1.1-0.7c0.4-0.2,0.7-0.3,1.1-0.3c0.2,0.1,0.3,0.2,0.5,0.3
		c-0.4,0.2-0.7,0.5-1,0.8c-0.3,0.3-0.6,0.6-0.9,0.9C32.1,27.9,31.8,28.2,31.4,28.4L31.4,28.4z"/>
	<path class="st1" d="M23.6,24.4c0-0.1,0-0.3,0-0.4c0-0.1-0.1-0.3-0.1-0.4c0-0.1,0-0.2,0.1-0.3c0.4,0.1,0.8,0.3,0.9,0.6
		c0.2,0.3,0.3,0.6,0.3,0.9c0,0.3,0,0.7,0,1.1c0,0.4-0.1,0.7-0.1,1.1c0,0.4,0,0.7,0.1,1c0.8,0.5,1.6,0.8,2.3,1
		c0.8,0.2,1.5,0.2,2.3,0.2c0.7-0.1,1.5-0.2,2.2-0.3c0.7-0.1,1.4-0.3,2.2-0.4c0.3,0,0.6-0.1,0.8-0.1c0.3,0,0.6-0.1,0.9,0
		c0.3,0,0.5,0.1,0.7,0.2c0.2,0.1,0.3,0.4,0.3,0.7c-1.3,0.2-2.7,0.5-3.9,0.9c-1.3,0.4-2.5,1-3.8,1.6c-1.3,0.6-2.5,1.2-3.7,1.9v5.9h-3
		v-5.9c-0.4-1.4-0.5-2.8-0.2-4.4C22,27.6,22.6,26,23.6,24.4L23.6,24.4z M10.9,25.6c0.3,0.2,0.6,0.3,0.9,0.3c0.3,0.1,0.7,0.1,1.1,0.1
		c0.4,0,0.7,0,1,0c0.5,0,1.1-0.1,1.6-0.2c0.5-0.1,1.1-0.3,1.6-0.6c-0.1-0.2-0.3-0.3-0.5-0.4c-0.2-0.1-0.4-0.1-0.5-0.2
		c-0.1-0.3-0.2-0.6-0.3-1c-0.1-0.4-0.2-0.8-0.3-1.1c-0.1-0.4-0.3-0.7-0.5-0.9c-0.2-0.2-0.5-0.4-0.9-0.3c0.1,0.4,0.2,0.8,0.3,1.3
		c0.1,0.4,0.1,0.8,0.1,1.2c0,0.4,0.1,0.8,0.2,1.2c-0.3-0.3-0.6-0.7-0.9-1.2c-0.3-0.4-0.6-0.9-0.9-1.3c-0.3-0.4-0.6-0.7-0.9-0.9
		c-0.3-0.2-0.7-0.2-1.1-0.1c0.8,1.3,1.5,2.6,2.1,3.8c-0.4-0.2-0.8-0.5-1.1-0.8c-0.4-0.3-0.7-0.6-1.1-1c-0.4-0.3-0.7-0.6-1.1-0.8
		c-0.4-0.2-0.8-0.3-1.2-0.3c-0.2,0.1-0.3,0.2-0.5,0.3c0.4,0.2,0.8,0.5,1.1,0.9c0.3,0.3,0.6,0.7,1,1C10.2,25.1,10.5,25.4,10.9,25.6z"
		/>
	<path class="st1" d="M19.4,21.2c0-0.1,0-0.3,0-0.4c0.1-0.2,0.1-0.3,0.1-0.5c0-0.1,0-0.3-0.1-0.4c-0.5,0.1-0.8,0.4-1,0.6
		c-0.2,0.3-0.3,0.6-0.4,1c0,0.4,0,0.8,0,1.2c0,0.4,0.1,0.8,0.1,1.2c0,0.4,0,0.8-0.1,1.1c-0.9,0.6-1.7,0.9-2.6,1.1
		c-0.8,0.2-1.7,0.2-2.5,0.2c-0.8-0.1-1.6-0.2-2.4-0.3c-0.8-0.2-1.6-0.3-2.3-0.5c-0.3,0-0.6-0.1-0.9-0.1c-0.3,0-0.6-0.1-1,0
		c-0.3,0-0.6,0.1-0.8,0.3c-0.2,0.1-0.3,0.4-0.3,0.7c1.4,0.2,2.9,0.5,4.3,1c1.4,0.5,2.8,1,4.1,1.7c1.4,0.7,2.7,1.3,4.1,2.1v8.3H21
		v-8.2c0.4-1.5,0.5-3.1,0.2-4.7C21.1,24.7,20.4,23,19.4,21.2L19.4,21.2z M22,25.6c0,0,0-0.2-0.1-0.6c0-0.4,0-0.9,0.1-1.6
		c0.1-0.7,0.2-1.4,0.5-2.2c0.3-0.8,0.7-1.6,1.3-2.4c1.2-1.6,2.1-3,2.7-4.2c0.6-1.2,0.9-2.3,0.8-3.2c0,0,0,0.2,0,0.6
		c0,0.4,0,0.9,0,1.5c0,0.6-0.1,1.2-0.2,1.9c-0.1,0.6-0.3,1.2-0.6,1.8c0,0,0.2-0.2,0.6-0.5c0.4-0.3,0.9-0.6,1.6-1.1
		c0.7-0.4,1.4-0.8,2.2-1.2c0.8-0.4,1.7-0.7,2.5-0.9c0.7-0.2,1.3-0.4,1.9-0.8c0.6-0.4,1.1-0.8,1.6-1.2c0.5-0.5,0.9-0.9,1.3-1.3
		c0.4-0.4,0.6-0.8,0.8-1.1c0.2-0.3,0.3-0.4,0.3-0.4c0,0,0,0.2-0.1,0.5c-0.1,0.3-0.3,0.7-0.6,1.3c-0.3,0.5-0.7,1.1-1.3,1.7
		c-0.6,0.6-1.3,1.2-2.2,1.7c-0.9,0.6-2,1-3.4,1.5c-1.7,0.5-3.1,1.1-4.3,1.8c-1.1,0.7-2.1,1.5-2.8,2.3c-0.7,0.9-1.3,1.8-1.8,2.8
		C22.6,23.4,22.3,24.5,22,25.6 M22.2,19.2c0,0,0-0.3-0.1-0.7c0-0.5-0.1-1.1-0.1-1.9c0-0.8,0-1.6,0-2.5c0-0.9,0.1-1.8,0.3-2.8
		c0.1-0.9,0.4-1.8,0.7-2.5c0.3-0.8,0.7-1.4,1.3-1.8c0,0-0.1,0-0.4,0.1c-0.2,0.1-0.5,0.3-0.9,0.5c-0.4,0.3-0.7,0.7-1,1.2
		c-0.3,0.5-0.6,1.3-0.8,2.2c-0.2,0.9-0.2,2.1-0.1,3.4c0,0-0.2-0.1-0.4-0.3c-0.3-0.2-0.7-0.5-1.1-0.8c-0.5-0.3-1-0.7-1.6-1
		c-0.6-0.4-1.2-0.7-1.8-0.9c-0.6-0.3-1.2-0.5-1.7-0.5c-0.7-0.1-1.4-0.3-2.1-0.6C11.4,9.9,10.7,9.5,10,9C9.3,8.5,8.6,8,8,7.5
		C7.5,6.9,7,6.3,6.7,5.6c0,0,0.1,0.2,0.2,0.4c0.1,0.3,0.4,0.7,0.6,1.1c0.3,0.5,0.6,1,1.1,1.5c0.4,0.5,1,1.1,1.6,1.6
		c0.6,0.5,1.3,0.9,2.1,1.3l-7.6,0.6h0.7c0.4,0,1,0,1.7,0c0.7,0,1.5,0,2.3,0c0.8,0,1.7,0,2.5,0.1c0.8,0,1.5,0.1,2.2,0.2
		c0.6,0.1,1.1,0.2,1.5,0.3c0.5,0.2,1.1,0.4,1.7,0.8c0.6,0.4,1.3,0.8,2,1.4c0.7,0.6,1.3,1.2,1.8,1.9C21.5,17.5,21.9,18.3,22.2,19.2"
		/>
	<path class="st1" d="M14,20c0,0-0.1-0.2-0.4-0.5c-0.2-0.4-0.5-0.9-0.8-1.6c-0.3-0.7-0.6-1.7-0.9-2.8c0,0,0,0.1-0.1,0.3
		c-0.1,0.2-0.1,0.5-0.1,0.9c0,0.4,0,0.8,0,1.4c0.1,0.5,0.2,1.1,0.4,1.7c0,0-0.2,0-0.5-0.1c-0.3,0-0.7-0.1-1.3-0.2
		c-0.5-0.1-1.1-0.3-1.8-0.4c-0.6-0.2-1.3-0.4-1.9-0.7c-0.6-0.3-1.2-0.6-1.8-1c-0.6-0.4-1-0.8-1.4-1.3c0,0,0,0.1,0.1,0.3
		c0.1,0.2,0.2,0.5,0.4,0.8c0.2,0.3,0.5,0.7,1,1c0.4,0.4,1,0.7,1.8,1c0,0-0.2,0-0.4,0.1c-0.3,0-0.7,0.1-1.1,0.2
		c-0.5,0.1-1,0.2-1.5,0.4c-0.5,0.2-1.1,0.3-1.6,0.6c-0.5,0.2-1,0.5-1.4,0.8c-0.4,0.3-0.7,0.6-0.9,1c0,0,0.2-0.1,0.5-0.3
		c0.4-0.2,0.9-0.4,1.6-0.7c0.7-0.3,1.6-0.5,2.8-0.7c1.1-0.2,2.4-0.4,3.9-0.4C10.3,19.6,12.1,19.7,14,20L14,20z M31.4,23.4
		c0,0,0.1-0.1,0.2-0.3c0.2-0.2,0.4-0.4,0.7-0.6c0.3-0.2,0.7-0.4,1.2-0.6c0.5-0.2,1-0.3,1.7-0.3c0.6,0,1.3,0.1,2.1,0.3
		c0,0-0.1,0-0.3,0c-0.2,0-0.5,0-0.8,0s-0.7,0-1.1,0.1c-0.4,0.1-0.8,0.1-1.1,0.3c-0.3,0.1-0.6,0.4-0.8,0.6c0,0,0.2,0,0.7,0.1
		c0.4,0.1,1,0.2,1.7,0.4c0.7,0.2,1.4,0.5,2.2,0.9c0.8,0.4,1.6,0.9,2.4,1.5c0,0-0.2-0.1-0.6-0.4c-0.4-0.2-1-0.5-1.8-0.8
		c-0.8-0.3-1.7-0.6-2.8-0.9C33.9,23.7,32.7,23.5,31.4,23.4L31.4,23.4z"/>
	<path class="st2" d="M9.1,1.8l0.6,1.2l1.4,0.2l-1,1l0.2,1.4L9.1,5L7.9,5.6l0.2-1.4l-1-1l1.4-0.2L9.1,1.8z M6.6,12.9l0.6,1.2
		l1.3,0.2l-1,0.9l0.2,1.3l-1.2-0.6l-1.2,0.6l0.2-1.3l-1-0.9L6,14.1L6.6,12.9 M38,16.8l0.5,1l1.1,0.2l-0.8,0.7l0.2,1.1l-1-0.5l-1,0.5
		l0.2-1.1l-0.8-0.7l1.1-0.2L38,16.8L38,16.8z M40.6,10.1l0.4,0.8l0.9,0.1l-0.6,0.6l0.1,0.9l-0.8-0.4l-0.8,0.4l0.1-0.9L39.3,11
		l0.9-0.1L40.6,10.1z M30.9,7.6l0.3,0.6l0.7,0.1l-0.5,0.5l0.1,0.7l-0.6-0.3l-0.6,0.3l0.1-0.7l-0.5-0.5l0.7-0.1L30.9,7.6L30.9,7.6z
		 M36.9,5.1l0.4,0.8l0.9,0.1l-0.6,0.6l0.1,0.9l-0.8-0.4l-0.8,0.4l0.2-0.9l-0.6-0.6l0.9-0.1L36.9,5.1L36.9,5.1z M37.8,25.1l0.4,0.8
		l0.9,0.1l-0.7,0.6l0.2,0.9l-0.8-0.4l-0.8,0.4l0.2-0.9l-0.7-0.6l0.9-0.1L37.8,25.1L37.8,25.1z M28.2,19.8l0.5,1.1L30,21l-0.9,0.8
		l0.2,1.2l-1.1-0.6l-1.1,0.6l0.2-1.2L26.5,21l1.2-0.2L28.2,19.8L28.2,19.8z M33,16.5l0.3,0.7l0.8,0.1l-0.6,0.5l0.1,0.8L33,18.3
		l-0.7,0.4l0.1-0.8l-0.6-0.5l0.8-0.1L33,16.5L33,16.5z M40.1,21.3l0.4,0.8l0.9,0.1l-0.6,0.6l0.1,0.9l-0.8-0.4l-0.8,0.4l0.2-0.9
		l-0.6-0.6l0.9-0.1L40.1,21.3L40.1,21.3z M33.9,9.7l0.3,0.6l0.6,0.1l-0.5,0.5l0.1,0.6l-0.6-0.3l-0.6,0.3l0.1-0.6L33,10.4l0.6-0.1
		L33.9,9.7L33.9,9.7z M29.6,11.1l0.3,0.7l0.7,0.1l-0.5,0.5l0.1,0.7l-0.7-0.3l-0.6,0.3l0.1-0.7l-0.5-0.5l0.7-0.1L29.6,11.1L29.6,11.1
		z M25.1,9.4l0.5,1l1.1,0.2l-0.8,0.8l0.2,1.1l-1-0.5l-1,0.5l0.2-1.1l-0.8-0.8l1.1-0.2L25.1,9.4L25.1,9.4z M24.7,13.7l0.3,0.6
		l0.6,0.1l-0.5,0.5l0.1,0.6l-0.6-0.3l-0.6,0.3l0.1-0.6l-0.5-0.5l0.6-0.1L24.7,13.7z M27.2,4.4l0.3,0.6l0.7,0.1l-0.5,0.5l0.1,0.7
		L27.2,6l-0.6,0.3l0.1-0.7l-0.5-0.5l0.7-0.1L27.2,4.4L27.2,4.4z M21,5.4l0.4,0.8l0.9,0.1L21.7,7l0.1,0.9L21,7.4l-0.8,0.4L20.4,7
		l-0.6-0.6l0.9-0.1L21,5.4 M14.1,7l0.3,0.7l0.8,0.1l-0.6,0.5l0.1,0.8l-0.7-0.4l-0.7,0.4l0.1-0.8L13,7.8l0.8-0.1L14.1,7z M14.2,3.9
		l0.3,0.6l0.7,0.1l-0.5,0.5l0.1,0.7l-0.6-0.3l-0.6,0.3l0.1-0.7l-0.5-0.5l0.7-0.1C13.9,4.5,14.2,3.9,14.2,3.9z M1.9,21.7l0.4,0.9
		l1,0.1l-0.7,0.7l0.2,1l-0.9-0.5L1,24.4l0.2-1l-0.7-0.7l1-0.1L1.9,21.7z M2.1,16.2l0.4,0.9l1,0.1L2.8,18l0.2,1l-0.9-0.5l-0.9,0.5
		l0.2-1l-0.7-0.7l1-0.1L2.1,16.2 M6.3,22l0.4,0.7l0.8,0.1l-0.6,0.6L7,24.3l-0.7-0.4l-0.7,0.4l0.1-0.8l-0.6-0.6l0.8-0.1L6.3,22z
		 M17.2,15.1l0.3,0.7l0.8,0.1l-0.6,0.5l0.1,0.8l-0.7-0.4l-0.7,0.4l0.1-0.8L16,15.9l0.8-0.1L17.2,15.1 M17.4,18l0.3,0.6l0.7,0.1
		l-0.5,0.5l0.1,0.7l-0.6-0.3l-0.6,0.3l0.1-0.7l-0.5-0.5l0.7-0.1L17.4,18"/>
	<path class="st0" d="M167,7.2V4.1h0.7v3.1C167.7,7.2,167,7.2,167,7.2z M166,4.7V4.1h2.7v0.7H166z M169,7.2V4.1h1l1,2.2l1-2.2h1v3.1
		h-0.7V4.9l-1,2.3h-0.6l-1-2.3v2.3H169z"/>
</g>
</svg>
