<svg id="Layer_1" data-name="Layer 1" xmlns="http://www.w3.org/2000/svg" xmlns:xlink="http://www.w3.org/1999/xlink" viewBox="0 0 104 32"><defs><style>.cls-1{fill:#fff;}.cls-2{mask:url(#mask);}.cls-3{mask:url(#mask-2);}.cls-4{fill:#ff5757;}.cls-5{mask:url(#mask-5);}.cls-6{mask:url(#mask-9);}.cls-7{fill:#004aad;}</style><mask id="mask" x="36.48" y="5.61" width="6.62" height="6.62" maskUnits="userSpaceOnUse"><g id="mask19_0_1" data-name="mask19 0 1"><path class="cls-1" d="M36.48,5.61H43.1v6.63H36.48Z"/></g></mask><mask id="mask-2" x="27.59" y="4.4" width="24.21" height="24.21" maskUnits="userSpaceOnUse"><g id="mask20_0_1" data-name="mask20 0 1"><path class="cls-1" d="M39.69,4.4,51.8,16.5,39.69,28.61,27.59,16.5Z"/></g></mask><mask id="mask-5" x="36.48" y="20.69" width="6.62" height="6.62" maskUnits="userSpaceOnUse"><g id="mask23_0_1" data-name="mask23 0 1"><path class="cls-1" d="M36.48,20.69H43.1v6.63H36.48Z"/></g></mask><mask id="mask-9" x="29.4" y="11.78" width="20.56" height="9.37" maskUnits="userSpaceOnUse"><g id="mask27_0_1" data-name="mask27 0 1"><path class="cls-1" d="M29.4,11.78H50v9.37H29.4Z"/></g></mask></defs><g class="cls-2"><g class="cls-3"><g class="cls-3"><g class="cls-3"><path class="cls-4" d="M37.42,11.21a3.21,3.21,0,1,1,4.54,0A3.22,3.22,0,0,1,37.42,11.21ZM41,7.68a1.77,1.77,0,0,0-2.52,0A1.78,1.78,0,1,0,41,10.2,1.77,1.77,0,0,0,41,7.68Z"/></g></g></g></g><g class="cls-5"><g class="cls-3"><g class="cls-3"><g class="cls-3"><path class="cls-4" d="M37.42,26.34a3.21,3.21,0,1,1,4.54,0A3.22,3.22,0,0,1,37.42,26.34ZM41,22.81a1.77,1.77,0,0,0-2.52,0,1.79,1.79,0,0,0,0,2.52A1.78,1.78,0,0,0,41,22.81Z"/></g></g></g></g><g class="cls-6"><g class="cls-3"><g class="cls-3"><g class="cls-3"><path class="cls-4" d="M30.87,19.78a4.63,4.63,0,0,1,6.55-6.55l2.27,2.27L42,13.23a4.64,4.64,0,1,1,0,6.55l-2.27-2.27-2.27,2.27A4.63,4.63,0,0,1,30.87,19.78Zm5.54-5.55a3.21,3.21,0,1,0,0,4.54l2.27-2.27ZM40.7,16.5,43,18.77a3.21,3.21,0,1,0,0-4.54Z"/></g></g></g></g><path class="cls-7" d="M54.75,8h3a2.81,2.81,0,0,1,.94.15,2.12,2.12,0,0,1,.71.4,1.69,1.69,0,0,1,.44.59,1.63,1.63,0,0,1,.16.71,1.45,1.45,0,0,1-.15.7,1.74,1.74,0,0,1-.33.44,1.42,1.42,0,0,1-.47.31,2,2,0,0,1,.65.35,2.08,2.08,0,0,1,.44.52,1.54,1.54,0,0,1,.21.84,1.92,1.92,0,0,1-.17.78,1.8,1.8,0,0,1-.47.63,2.25,2.25,0,0,1-.76.43,2.87,2.87,0,0,1-1,.16H54.75Zm3.06,5.71a1,1,0,0,0,.7-.24.81.81,0,0,0,.25-.61.85.85,0,0,0-.25-.62,1,1,0,0,0-.7-.23H56.25v1.7Zm-.2-3a.84.84,0,0,0,.59-.2.69.69,0,0,0,.21-.51.67.67,0,0,0-.21-.5.84.84,0,0,0-.59-.2H56.25V10.7Z"/><path class="cls-7" d="M61.11,10.09h1.36V15H61.11Zm.68-.65a.74.74,0,0,1-.55-1.28.77.77,0,0,1,.55-.22.77.77,0,0,1,.78.75.71.71,0,0,1-.24.53A.73.73,0,0,1,61.79,9.44Z"/><path class="cls-7" d="M63.17,13.75l2.4-2.41h-2.3V10.09h4.11v1.25L65,13.75h2.51V15H63.17Z"/><path class="cls-7" d="M71.54,9.39h-2V8H75v1.4H73V15h-1.5Z"/><path class="cls-7" d="M77.9,15.1a2.51,2.51,0,0,1-1-.2,2.46,2.46,0,0,1-.83-.55,2.52,2.52,0,0,1-.56-2.79,2.7,2.7,0,0,1,.55-.81,2.8,2.8,0,0,1,.81-.56,2.55,2.55,0,0,1,1-.2,2.31,2.31,0,0,1,1,.2,2.5,2.5,0,0,1,.78.53,2.46,2.46,0,0,1,.53.77,2.38,2.38,0,0,1,.19,1,1.77,1.77,0,0,1,0,.24,1,1,0,0,1,0,.19.79.79,0,0,1,0,.17H76.69a1.32,1.32,0,0,0,.43.6,1.36,1.36,0,0,0,.88.25,1.89,1.89,0,0,0,.56-.08,1.74,1.74,0,0,0,.41-.19,1.29,1.29,0,0,0,.33-.28l.7,1a2.52,2.52,0,0,1-.54.4,3.44,3.44,0,0,1-.66.28A3.06,3.06,0,0,1,77.9,15.1Zm1-3a1.33,1.33,0,0,0-.4-.6,1,1,0,0,0-.7-.26,1,1,0,0,0-.71.26,1.41,1.41,0,0,0-.4.6Z"/><path class="cls-7" d="M83.31,15.1a2.51,2.51,0,0,1-1-.2,2.46,2.46,0,0,1-.83-.55,2.5,2.5,0,0,1,0-3.6,2.64,2.64,0,0,1,.83-.56,2.69,2.69,0,0,1,1-.2,2.28,2.28,0,0,1,.91.16,2.92,2.92,0,0,1,.64.34,2.19,2.19,0,0,1,.5.51l-.85.84a1.83,1.83,0,0,0-.32-.3,2.24,2.24,0,0,0-.38-.2,1.28,1.28,0,0,0-1,0,1.15,1.15,0,0,0-.4.28,1.17,1.17,0,0,0-.27.41,1.55,1.55,0,0,0,0,1,1.24,1.24,0,0,0,.67.68,1.13,1.13,0,0,0,.49.1,1.31,1.31,0,0,0,.5-.09,3.24,3.24,0,0,0,.38-.21,1.83,1.83,0,0,0,.32-.3l.85.85a2,2,0,0,1-.5.5,2.55,2.55,0,0,1-.64.35A2.48,2.48,0,0,1,83.31,15.1Z"/><path class="cls-7" d="M86,8h1.35V10.8h.05a2.41,2.41,0,0,1,.37-.41,1.91,1.91,0,0,1,.45-.27,1.39,1.39,0,0,1,.63-.13,1.78,1.78,0,0,1,1.28.56,1.94,1.94,0,0,1,.38.64,2.35,2.35,0,0,1,.14.86V15H89.27V12.25a1,1,0,0,0-.24-.71.9.9,0,0,0-.66-.25,1,1,0,0,0-.75.31,1.09,1.09,0,0,0-.3.8V15H86Z"/><path class="cls-7" d="M56.75,24.13A3.88,3.88,0,0,1,55.56,24a4.13,4.13,0,0,1-.84-.38,2.86,2.86,0,0,1-.67-.55l1-1a2,2,0,0,0,.43.39,2.81,2.81,0,0,0,.52.25,1.9,1.9,0,0,0,.7.12,1.38,1.38,0,0,0,.88-.23.75.75,0,0,0,.28-.58.54.54,0,0,0-.27-.47,2.63,2.63,0,0,0-.65-.31l-.84-.3a4,4,0,0,1-.84-.39,2.3,2.3,0,0,1-.65-.63,1.71,1.71,0,0,1-.26-1,1.81,1.81,0,0,1,.17-.79,1.89,1.89,0,0,1,.51-.65,2.33,2.33,0,0,1,.79-.45,3.31,3.31,0,0,1,1.08-.17,3.23,3.23,0,0,1,1,.16,3.7,3.7,0,0,1,.74.33,3,3,0,0,1,.59.47l-1,1a1.9,1.9,0,0,0-.77-.51,1.49,1.49,0,0,0-.54-.09,1.23,1.23,0,0,0-.81.2.62.62,0,0,0-.24.5.54.54,0,0,0,.26.47,2.81,2.81,0,0,0,.65.32l.85.29a3.53,3.53,0,0,1,.83.4,2.09,2.09,0,0,1,.66.63,1.78,1.78,0,0,1,.26,1,2,2,0,0,1-.18.83,1.93,1.93,0,0,1-.53.68,2.7,2.7,0,0,1-.83.48A3.51,3.51,0,0,1,56.75,24.13Z"/><path class="cls-7" d="M62.36,24.08a2.64,2.64,0,0,1-1-.2A2.62,2.62,0,0,1,60,22.52a2.38,2.38,0,0,1-.2-1,2.36,2.36,0,0,1,.2-1,2.55,2.55,0,0,1,.56-.82,2.51,2.51,0,0,1,.83-.55,2.68,2.68,0,0,1,2,0,2.51,2.51,0,0,1,.83.55,2.54,2.54,0,0,1,.56,2.8,2.62,2.62,0,0,1-1.39,1.36A2.65,2.65,0,0,1,62.36,24.08Zm0-1.25a1.39,1.39,0,0,0,.5-.1,1.56,1.56,0,0,0,.4-.27,1.25,1.25,0,0,0,.26-.41,1.43,1.43,0,0,0,0-1.05,1.25,1.25,0,0,0-.26-.41,1.56,1.56,0,0,0-.4-.27,1.28,1.28,0,0,0-1,0,1.56,1.56,0,0,0-.4.27,1.25,1.25,0,0,0-.26.41,1.3,1.3,0,0,0-.1.52,1.32,1.32,0,0,0,.1.53,1.25,1.25,0,0,0,.26.41,1.56,1.56,0,0,0,.4.27A1.38,1.38,0,0,0,62.36,22.83Z"/><path class="cls-7" d="M65.72,17h1.36v7H65.72Z"/><path class="cls-7" d="M69.93,24.08a1.87,1.87,0,0,1-.71-.14,2.06,2.06,0,0,1-.57-.41,2,2,0,0,1-.38-.65,2.58,2.58,0,0,1-.14-.86V19.07h1.35v2.75a1,1,0,0,0,.24.71.9.9,0,0,0,.66.25,1,1,0,0,0,.75-.31,1.09,1.09,0,0,0,.3-.8v-2.6h1.36V24H71.43v-.7h-.05a2,2,0,0,1-.37.4,2.33,2.33,0,0,1-.45.28A1.61,1.61,0,0,1,69.93,24.08Z"/><path class="cls-7" d="M75.84,24.08a1.59,1.59,0,0,1-1.2-.46,1.87,1.87,0,0,1-.45-1.34V20.42h-.85V19.17h.45c.37,0,.55-.2.55-.6v-.9h1.2v1.5h1.11v1.25H75.54v1.65a.72.72,0,0,0,.18.53.61.61,0,0,0,.47.18,1.62,1.62,0,0,0,.4-.05l.16-.05v1.25l-.26.08-.29,0Z"/><path class="cls-7" d="M77.5,19.07h1.35V24H77.5Zm.67-.65a.76.76,0,0,1-.55-.23.73.73,0,0,1,0-1.05.76.76,0,0,1,1.09,0,.74.74,0,0,1,.23.53.71.71,0,0,1-.23.52A.76.76,0,0,1,78.17,18.42Z"/><path class="cls-7" d="M82.16,24.08a2.69,2.69,0,0,1-1-.2,2.51,2.51,0,0,1-.83-.55,2.67,2.67,0,0,1-.56-.81,2.55,2.55,0,0,1,0-2,2.72,2.72,0,0,1,.56-.82,2.51,2.51,0,0,1,.83-.55,2.69,2.69,0,0,1,1-.2,2.6,2.6,0,0,1,1,.2,2.51,2.51,0,0,1,.83.55,2.54,2.54,0,0,1,.56,2.8,2.62,2.62,0,0,1-1.39,1.36A2.6,2.6,0,0,1,82.16,24.08Zm0-1.25a1.38,1.38,0,0,0,.49-.1,1.41,1.41,0,0,0,.4-.27,1.25,1.25,0,0,0,.26-.41,1.32,1.32,0,0,0,.1-.53,1.3,1.3,0,0,0-.1-.52,1.25,1.25,0,0,0-.26-.41,1.41,1.41,0,0,0-.4-.27,1.28,1.28,0,0,0-1,0,1.56,1.56,0,0,0-.4.27A1.25,1.25,0,0,0,81,21a1.43,1.43,0,0,0,0,1.05,1.25,1.25,0,0,0,.26.41,1.56,1.56,0,0,0,.4.27A1.39,1.39,0,0,0,82.16,22.83Z"/><path class="cls-7" d="M85.47,19.07h1.35v.7h.05a2,2,0,0,1,.82-.68,1.54,1.54,0,0,1,.63-.12,1.78,1.78,0,0,1,1.28.56,1.84,1.84,0,0,1,.38.64,2.35,2.35,0,0,1,.14.86V24H88.77V21.22a1,1,0,0,0-.24-.7.9.9,0,0,0-.66-.25,1,1,0,0,0-.75.31,1.08,1.08,0,0,0-.3.79V24H85.47Z"/><path class="cls-7" d="M92.73,24.08a2.74,2.74,0,0,1-.9-.14,3.4,3.4,0,0,1-.66-.31,2.25,2.25,0,0,1-.55-.45l.81-.85a1.66,1.66,0,0,0,.35.28,2.26,2.26,0,0,0,.41.19,1.8,1.8,0,0,0,.54.08.86.86,0,0,0,.47-.1.33.33,0,0,0,.13-.25c0-.1-.06-.17-.19-.24a3.7,3.7,0,0,0-.46-.18l-.6-.21a3.14,3.14,0,0,1-.61-.3,2,2,0,0,1-.46-.45,1.21,1.21,0,0,1-.19-.68A1.4,1.4,0,0,1,91,19.9a1.58,1.58,0,0,1,.38-.48,1.78,1.78,0,0,1,.61-.33,2.75,2.75,0,0,1,.84-.12,2.53,2.53,0,0,1,.82.12,3.46,3.46,0,0,1,.6.26,2.34,2.34,0,0,1,.48.37l-.8.85a1.64,1.64,0,0,0-.29-.2,1.69,1.69,0,0,0-.35-.14,1.6,1.6,0,0,0-.46-.06.58.58,0,0,0-.38.1.26.26,0,0,0-.12.2.27.27,0,0,0,.18.24,3.91,3.91,0,0,0,.47.18l.6.21a3.41,3.41,0,0,1,.6.31,1.56,1.56,0,0,1,.47.45,1.17,1.17,0,0,1,.18.67,1.38,1.38,0,0,1-.13.6,1.41,1.41,0,0,1-.39.49,2.15,2.15,0,0,1-.64.34A3,3,0,0,1,92.73,24.08Z"/></svg>