<svg id="Layer_1" data-name="Layer 1" xmlns="http://www.w3.org/2000/svg" xmlns:xlink="http://www.w3.org/1999/xlink" viewBox="0 0 104 32"><defs><style>.cls-1{fill:#fff;}.cls-2{mask:url(#mask);}.cls-3{fill:#231f20;}.cls-4{mask:url(#mask-2);}.cls-5{fill:#17d8e2;}</style><mask id="mask" x="5.68" y="0.3" width="30.26" height="31.41" maskUnits="userSpaceOnUse"><g id="mask3_0_1" data-name="mask3 0 1"><path class="cls-1" d="M5.68.3H35.94V31.7H5.68Z"/></g></mask><mask id="mask-2" x="20.22" y="4.91" width="16.87" height="26.79" maskUnits="userSpaceOnUse"><g id="mask4_0_1" data-name="mask4 0 1"><path class="cls-1" d="M20.22,4.91H37.09V31.7H20.22Z"/></g></mask></defs><g class="cls-2"><path class="cls-3" d="M35.89,10.07a8.93,8.93,0,0,0-15.61-.86.91.91,0,0,0-.11.16L20,9.69l-5.72,9.89a1.41,1.41,0,0,0,1.23,2.11h0a3.75,3.75,0,0,1,3.75,3.75v6.19A15.71,15.71,0,1,1,35.89,10.07Z"/></g><g class="cls-4"><path class="cls-5" d="M23.52,31.63V25.44a3.74,3.74,0,0,1,1.53-3,3.66,3.66,0,0,1,2.22-.74h0a1.41,1.41,0,0,0,1.22-2.11L22.61,9.38a1.41,1.41,0,0,0-2.33-.17,8.93,8.93,0,0,1,15.61.86l.09.21a14,14,0,0,1,.6,1.83,0,0,0,0,1,0,0,15.2,15.2,0,0,1,.47,3A15.69,15.69,0,0,1,23.52,31.63Z"/></g><path class="cls-5" d="M36.58,12.11a14,14,0,0,0-.6-1.83A8.18,8.18,0,0,1,36.58,12.11Z"/><path class="cls-3" d="M38.87,7h3.62a5,5,0,0,1,2.17.45,3.32,3.32,0,0,1,1.46,1.28,3.55,3.55,0,0,1,.52,2,3.55,3.55,0,0,1-.52,1.95,3.32,3.32,0,0,1-1.46,1.28,5,5,0,0,1-2.17.44H38.87Zm3.52,5.42a1.76,1.76,0,0,0,1.27-.45,1.71,1.71,0,0,0,.48-1.29,1.71,1.71,0,0,0-.48-1.29,1.76,1.76,0,0,0-1.27-.45h-1v3.48Z"/><path class="cls-3" d="M47.47,8.57h2.38v5.74H47.47Zm1.19-.46a1.59,1.59,0,0,1-1-.34,1.17,1.17,0,0,1,0-1.74,1.59,1.59,0,0,1,1-.34,1.56,1.56,0,0,1,1,.33,1.05,1.05,0,0,1,.39.84,1.17,1.17,0,0,1-.39.9A1.52,1.52,0,0,1,48.66,8.11Z"/><path class="cls-3" d="M57.31,8.57v4.6a3.14,3.14,0,0,1-.91,2.46,3.7,3.7,0,0,1-2.58.83,6.29,6.29,0,0,1-1.61-.19,4,4,0,0,1-1.27-.53l.8-1.61a2.93,2.93,0,0,0,.85.41,3.49,3.49,0,0,0,1,.15,1.49,1.49,0,0,0,1-.3,1.15,1.15,0,0,0,.33-.89v-.11a2,2,0,0,1-1.59.61A2.81,2.81,0,0,1,52,13.66a2.57,2.57,0,0,1-1-1,3,3,0,0,1,0-2.9,2.54,2.54,0,0,1,1-1,2.81,2.81,0,0,1,1.37-.34,1.92,1.92,0,0,1,1.7.75V8.57ZM54,12.15a1,1,0,0,0,.7-.26.84.84,0,0,0,.28-.66.81.81,0,0,0-.28-.66,1,1,0,0,0-.7-.26,1,1,0,0,0-.71.26.91.91,0,0,0,0,1.32A1,1,0,0,0,54,12.15Z"/><path class="cls-3" d="M58.36,8.57h2.38v5.74H58.36Zm1.19-.46a1.59,1.59,0,0,1-1-.34,1.17,1.17,0,0,1,0-1.74,1.59,1.59,0,0,1,1-.34,1.56,1.56,0,0,1,1,.33,1.05,1.05,0,0,1,.39.84,1.17,1.17,0,0,1-.39.9A1.52,1.52,0,0,1,59.55,8.11Z"/><path class="cls-3" d="M71.57,14.31l0-3.35L70,13.65h-1.1l-1.59-2.57v3.23H65V7h2l2.39,3.92L71.77,7h2l0,7.35Z"/><path class="cls-3" d="M81.07,11.44s0,.22,0,.55H77a1,1,0,0,0,.42.5,1.4,1.4,0,0,0,.74.18,1.89,1.89,0,0,0,.63-.1,2.23,2.23,0,0,0,.57-.32l1.24,1.25a3.25,3.25,0,0,1-2.51.92A4.18,4.18,0,0,1,76.3,14,2.9,2.9,0,0,1,75.08,13a2.78,2.78,0,0,1-.43-1.53,2.85,2.85,0,0,1,.42-1.54,2.93,2.93,0,0,1,1.17-1.06,3.92,3.92,0,0,1,3.26,0,2.68,2.68,0,0,1,1.14,1A2.89,2.89,0,0,1,81.07,11.44Zm-3.14-1.36a.93.93,0,0,0-.61.2,1,1,0,0,0-.32.57h1.85a.94.94,0,0,0-.31-.56A.92.92,0,0,0,77.93,10.08Z"/><path class="cls-3" d="M88.17,6.52v7.79H85.91v-.47a2,2,0,0,1-1.58.58,2.77,2.77,0,0,1-1.39-.36,2.62,2.62,0,0,1-1-1.05,3.2,3.2,0,0,1-.37-1.57,3.17,3.17,0,0,1,.37-1.57,2.66,2.66,0,0,1,1-1,2.77,2.77,0,0,1,1.39-.36A2,2,0,0,1,85.79,9V6.52ZM84.9,12.57a.86.86,0,0,0,.67-.3,1.2,1.2,0,0,0,.26-.83,1.17,1.17,0,0,0-.26-.83.86.86,0,0,0-.67-.3.85.85,0,0,0-.67.3,1.17,1.17,0,0,0-.27.83,1.2,1.2,0,0,0,.27.83A.85.85,0,0,0,84.9,12.57Z"/><path class="cls-3" d="M89.21,8.57h2.38v5.74H89.21Zm1.19-.46a1.56,1.56,0,0,1-1-.34,1.15,1.15,0,0,1,0-1.74,1.77,1.77,0,0,1,2.07,0,1.05,1.05,0,0,1,.39.84,1.17,1.17,0,0,1-.39.9A1.5,1.5,0,0,1,90.4,8.11Z"/><path class="cls-3" d="M95.21,8.47a3.48,3.48,0,0,1,2.31.67,2.6,2.6,0,0,1,.8,2.09v3.08H96.11v-.75a1.61,1.61,0,0,1-1.62.86,2.74,2.74,0,0,1-1.17-.23,1.82,1.82,0,0,1-.72-.65,1.65,1.65,0,0,1-.25-.9,1.49,1.49,0,0,1,.65-1.3,3.63,3.63,0,0,1,2-.44h1c-.08-.45-.44-.67-1.09-.67a2.76,2.76,0,0,0-.79.12,2.27,2.27,0,0,0-.68.33l-.75-1.56a3.8,3.8,0,0,1,1.19-.48A5.51,5.51,0,0,1,95.21,8.47Zm0,4.52a.77.77,0,0,0,.45-.13.92.92,0,0,0,.3-.41v-.4h-.59c-.48,0-.73.16-.73.48a.43.43,0,0,0,.15.33A.64.64,0,0,0,95.2,13Z"/><path class="cls-5" d="M46.42,18.83a2.19,2.19,0,0,1,1.66.64,2.65,2.65,0,0,1,.63,1.93v3.29H46.33V21.82c0-.66-.21-1-.64-1a.66.66,0,0,0-.54.26,1.24,1.24,0,0,0-.21.8v2.81H42.57V21.82c0-.66-.22-1-.65-1a.67.67,0,0,0-.54.26,1.3,1.3,0,0,0-.2.8v2.81H38.8V18.93h2.26v.54a2.2,2.2,0,0,1,1.63-.64,2.44,2.44,0,0,1,1,.21,1.86,1.86,0,0,1,.76.66,2.32,2.32,0,0,1,.84-.65A2.59,2.59,0,0,1,46.42,18.83Z"/><path class="cls-5" d="M52.32,18.83a3.53,3.53,0,0,1,2.32.67,2.61,2.61,0,0,1,.8,2.09v3.1H53.23v-.76a1.62,1.62,0,0,1-1.63.86,2.74,2.74,0,0,1-1.17-.23,1.69,1.69,0,0,1-.72-.65,1.66,1.66,0,0,1-.25-.91,1.47,1.47,0,0,1,.65-1.29,3.54,3.54,0,0,1,2-.44h1c-.08-.45-.44-.68-1.09-.68a2.47,2.47,0,0,0-.79.13,2.27,2.27,0,0,0-.68.33l-.76-1.57a4.42,4.42,0,0,1,1.2-.48A5.51,5.51,0,0,1,52.32,18.83Zm0,4.53a.71.71,0,0,0,.45-.14.72.72,0,0,0,.3-.41v-.4h-.59c-.49,0-.73.17-.73.49a.43.43,0,0,0,.15.33A.62.62,0,0,0,52.31,23.36Z"/><path class="cls-5" d="M60.71,24.49a3,3,0,0,1-1.47.3,2.71,2.71,0,0,1-1.86-.58,2.24,2.24,0,0,1-.65-1.75V21h-.79V19.25h.79V17.64h2.38v1.61h1.18V21H59.11v1.46a.59.59,0,0,0,.13.41.48.48,0,0,0,.36.14.89.89,0,0,0,.54-.16Z"/><path class="cls-5" d="M65.55,24.49a3,3,0,0,1-1.46.3,2.72,2.72,0,0,1-1.87-.58,2.24,2.24,0,0,1-.65-1.75V21h-.79V19.25h.79V17.64H64v1.61h1.18V21H64v1.46a.55.55,0,0,0,.14.41.45.45,0,0,0,.35.14.89.89,0,0,0,.54-.16Z"/><path class="cls-5" d="M72.27,21.81s0,.22,0,.55h-4a1,1,0,0,0,.42.5,1.42,1.42,0,0,0,.74.18,2,2,0,0,0,.64-.1,2,2,0,0,0,.56-.33l1.24,1.26a3.25,3.25,0,0,1-2.51.92,4.12,4.12,0,0,1-1.84-.38,3,3,0,0,1-1.22-1.07,2.88,2.88,0,0,1,1.17-4.13,3.51,3.51,0,0,1,1.67-.38,3.63,3.63,0,0,1,1.59.34,2.86,2.86,0,0,1,1.15,1A3,3,0,0,1,72.27,21.81Zm-3.14-1.36a.88.88,0,0,0-.61.2.9.9,0,0,0-.32.56h1.85a1,1,0,0,0-.31-.56A1,1,0,0,0,69.13,20.45Z"/><path class="cls-5" d="M75.28,19.55a2.38,2.38,0,0,1,1.87-.72v2.1a3.4,3.4,0,0,0-.53,0,1.09,1.09,0,0,0-1.22,1.24v2.56H73V18.93h2.26Z"/><path class="cls-5" d="M80.07,24.79a7.07,7.07,0,0,1-1.45-.15,4.69,4.69,0,0,1-1.16-.41l.65-1.57a3.56,3.56,0,0,0,1,.38,4.45,4.45,0,0,0,1.06.13,1.9,1.9,0,0,0,.58-.06.23.23,0,0,0,.16-.21c0-.09-.07-.15-.21-.19s-.35-.07-.66-.11a7.75,7.75,0,0,1-1.2-.21,1.93,1.93,0,0,1-.87-.51,1.48,1.48,0,0,1-.37-1.09,1.6,1.6,0,0,1,.33-1,2.22,2.22,0,0,1,1-.71,4.26,4.26,0,0,1,1.6-.26,6.77,6.77,0,0,1,1.28.12,4.07,4.07,0,0,1,1.07.35l-.65,1.57a3.38,3.38,0,0,0-1.66-.42c-.52,0-.79.09-.79.27s.08.16.21.2l.67.11a7.29,7.29,0,0,1,1.19.22,1.93,1.93,0,0,1,.87.51,1.5,1.5,0,0,1,.37,1.09,1.58,1.58,0,0,1-.34,1,2.22,2.22,0,0,1-1,.7A4.39,4.39,0,0,1,80.07,24.79Z"/></svg>