<svg id="Layer_1" data-name="Layer 1" xmlns="http://www.w3.org/2000/svg" xmlns:xlink="http://www.w3.org/1999/xlink" viewBox="0 0 104 32"><defs><style>.cls-1{fill:#fff;}.cls-2{fill:#fab60d;}.cls-3{mask:url(#mask);}.cls-4{mask:url(#mask-2);}.cls-5{fill:#333744;}.cls-6{mask:url(#mask-3);}.cls-7{mask:url(#mask-4);}.cls-8{fill:#2e2f38;}</style><mask id="mask" x="12.28" y="5.83" width="9.73" height="9.61" maskUnits="userSpaceOnUse"><g id="mask36_0_1" data-name="mask36 0 1"><path class="cls-1" d="M12.28,5.83H22v9.61H12.28Z"/></g></mask><mask id="mask-2" x="9.88" y="26.43" width="6.87" height="3.5" maskUnits="userSpaceOnUse"><g id="mask37_0_1" data-name="mask37 0 1"><path class="cls-1" d="M9.88,26.43h6.87v3.5H9.88Z"/></g></mask><mask id="mask-3" x="0.95" y="0.04" width="6.52" height="6.14" maskUnits="userSpaceOnUse"><g id="mask38_0_1" data-name="mask38 0 1"><path class="cls-1" d="M1,0H7.48V6.17H1Z"/></g></mask><mask id="mask-4" x="0.65" y="18.19" width="6.14" height="6.18" maskUnits="userSpaceOnUse"><g id="mask39_0_1" data-name="mask39 0 1"><path class="cls-1" d="M.65,18.19H6.79v6.18H.65Z"/></g></mask></defs><path class="cls-2" d="M8.31,14.83a2.06,2.06,0,0,0-1.42-2.55,2.08,2.08,0,0,0-1.92.4,8.41,8.41,0,0,0,1.6,3.62A2.08,2.08,0,0,0,8.31,14.83Z"/><g class="cls-3"><path class="cls-2" d="M20.71,11.66a3.69,3.69,0,0,1-4.55,2.48A3.64,3.64,0,1,1,20.7,9.61a6.41,6.41,0,0,1,.15,1.07A3.74,3.74,0,0,1,20.71,11.66Zm1.1-2.37A4.73,4.73,0,1,0,22,10.7,8,8,0,0,0,21.81,9.29Z"/></g><g class="cls-4"><path class="cls-5" d="M10.51,27.79a3.07,3.07,0,0,0,5.84,0l.34-1.08H10.17Z"/></g><path class="cls-5" d="M9.14,26.1h8.58V24H9.14Z"/><path class="cls-2" d="M11.5,17.8A1.41,1.41,0,1,0,13.07,19,1.42,1.42,0,0,0,11.5,17.8Z"/><path class="cls-2" d="M14.17,19.31l-.4.19a2.23,2.23,0,0,1-.16.56l.24.36a2.48,2.48,0,0,1-.5.62l-.41-.15a2,2,0,0,1-.52.28l-.08.43a2.57,2.57,0,0,1-.4.08,2.67,2.67,0,0,1-.4,0l-.18-.4a2.19,2.19,0,0,1-.57-.16l-.37.24a2.44,2.44,0,0,1-.62-.49l.15-.41A2.29,2.29,0,0,1,9.67,20l-.44-.09a2.26,2.26,0,0,1-.07-.39,2.55,2.55,0,0,1,0-.39l.41-.18a2,2,0,0,1,.16-.56L9.47,18a2.44,2.44,0,0,1,.49-.62l.42.15a2.09,2.09,0,0,1,.51-.28L11,16.8a2.66,2.66,0,0,1,.39-.07,2.75,2.75,0,0,1,.4,0l.19.4a2.23,2.23,0,0,1,.56.16l.37-.24a2.73,2.73,0,0,1,.63.49l-.16.41a2.16,2.16,0,0,1,.29.51l.43.09a2.7,2.7,0,0,1,.08.39A2.57,2.57,0,0,1,14.17,19.31Zm4.53-2.74a5.93,5.93,0,0,1-1.69.19l-.72,1a7.33,7.33,0,0,1-1.13-.24,6.75,6.75,0,0,1-1.09-.4l0-1.27a6.22,6.22,0,0,1-1.33-1.05l-1.26.23a7.26,7.26,0,0,1-1.11-2l.87-.93A6.21,6.21,0,0,1,11,10.48L10,9.76a7.46,7.46,0,0,1,.24-1.12,6.23,6.23,0,0,1,.41-1.07l1.28-.05a5.86,5.86,0,0,1,1.06-1.31L12.7,5a7.14,7.14,0,0,1,2-1.1l.93.86a6.4,6.4,0,0,1,1.69-.19l.47-.67a8.72,8.72,0,0,0-4.39-1.19,8.54,8.54,0,0,0-8.59,8.26l.23-.1.48.44a3.41,3.41,0,0,1,.85-.1l.36-.52a3.82,3.82,0,0,1,.57.11,5.2,5.2,0,0,1,.55.21l0,.64a2.85,2.85,0,0,1,.67.53L9.21,12a3.84,3.84,0,0,1,.56,1l-.44.47a2.93,2.93,0,0,1,.09.84l.53.36a3.82,3.82,0,0,1-.11.57,5,5,0,0,1-.21.54l-.64,0a2.89,2.89,0,0,1-.54.66l.12.63a3.68,3.68,0,0,1-1,.55A10.38,10.38,0,0,1,9.11,23.1h8.64a10.31,10.31,0,0,1,1.78-5.77Z"/><g class="cls-6"><path class="cls-5" d="M4.42,4.7A1.7,1.7,0,0,1,2.54,3.22,1.7,1.7,0,1,1,4.42,4.7ZM7.23,3.16a2.47,2.47,0,0,0,0-.47,3.55,3.55,0,0,0-.09-.47l-.52-.1a2.76,2.76,0,0,0-.33-.61L6.45,1A3.31,3.31,0,0,0,5.7.43L5.26.72A2.57,2.57,0,0,0,4.59.53L4.37.06a2.57,2.57,0,0,0-.48,0,3.55,3.55,0,0,0-.47.09l-.1.51A2.87,2.87,0,0,0,2.7,1L2.21.83a2.64,2.64,0,0,0-.59.74L1.91,2a2.59,2.59,0,0,0-.2.67l-.48.22a3.77,3.77,0,0,0,0,.47,3.12,3.12,0,0,0,.09.46l.52.11a2.44,2.44,0,0,0,.34.61L2,5a3.05,3.05,0,0,0,.74.59l.44-.29a2.53,2.53,0,0,0,.68.19L4.1,6a2.48,2.48,0,0,0,.47,0A3.55,3.55,0,0,0,5,5.89l.11-.52A2.76,2.76,0,0,0,5.76,5l.49.18a2.87,2.87,0,0,0,.6-.74L6.56,4a2.4,2.4,0,0,0,.19-.66Z"/></g><g class="cls-7"><path class="cls-5" d="M3.85,23a1.69,1.69,0,1,1,1.5-1.87A1.7,1.7,0,0,1,3.85,23Zm2.81-1.54a3.77,3.77,0,0,0,0-.47,3.4,3.4,0,0,0-.09-.46L6,20.45a2.44,2.44,0,0,0-.34-.61l.19-.49a3,3,0,0,0-.75-.58l-.44.28A2.57,2.57,0,0,0,4,18.86l-.22-.47a2.57,2.57,0,0,0-.48,0,3.55,3.55,0,0,0-.47.09l-.1.52a2.3,2.3,0,0,0-.62.33l-.49-.18a2.64,2.64,0,0,0-.59.74l.29.43a2.71,2.71,0,0,0-.2.67l-.48.22a3.77,3.77,0,0,0,0,.47,3.12,3.12,0,0,0,.09.46l.52.11a2.44,2.44,0,0,0,.34.61l-.19.49a3,3,0,0,0,.75.58l.44-.28a2.57,2.57,0,0,0,.67.19l.22.47a2.57,2.57,0,0,0,.48,0,3.55,3.55,0,0,0,.47-.09l.11-.52a2.4,2.4,0,0,0,.61-.33l.49.18a2.87,2.87,0,0,0,.6-.74L6,22.38a2.25,2.25,0,0,0,.2-.67Z"/></g><path class="cls-8" d="M29.71,14.64H28V4.37h1.73Z"/><path class="cls-8" d="M36.87,6.78a2.82,2.82,0,0,1,2.13.8,3,3,0,0,1,.77,2.21v4.85H38.08V10.26a1.9,1.9,0,0,0-.49-1.39,1.86,1.86,0,0,0-1.38-.51A2.13,2.13,0,0,0,34.67,9,2.41,2.41,0,0,0,34,10.49v4.15H32.3V6.84H34V8.33A3,3,0,0,1,36.87,6.78Z"/><path class="cls-8" d="M46.59,6.78a2.86,2.86,0,0,1,2.14.8,3.06,3.06,0,0,1,.77,2.21v4.85H47.81V10.26a1.87,1.87,0,0,0-.5-1.39,1.83,1.83,0,0,0-1.38-.51A2.12,2.12,0,0,0,44.4,9a2.31,2.31,0,0,0-.68,1.52v4.15H42V6.84h1.69V8.33A2.94,2.94,0,0,1,46.59,6.78Z"/><path class="cls-8" d="M55.1,6.78A4.07,4.07,0,0,1,58,7.87a3.83,3.83,0,0,1,1.13,2.87A3.81,3.81,0,0,1,58,13.6a4.49,4.49,0,0,1-5.89,0A3.8,3.8,0,0,1,51,10.74a3.83,3.83,0,0,1,1.12-2.87A4.07,4.07,0,0,1,55.1,6.78Zm0,1.45a2.33,2.33,0,0,0-1.73.7,2.59,2.59,0,0,0-.66,1.83,2.57,2.57,0,0,0,.66,1.83,2.29,2.29,0,0,0,1.73.7,2.24,2.24,0,0,0,1.72-.7,2.57,2.57,0,0,0,.66-1.83,2.59,2.59,0,0,0-.67-1.83A2.28,2.28,0,0,0,55.1,8.23Z"/><path class="cls-8" d="M64.46,14.64H62.72l-3-7.8h1.76L63.63,13l2.14-6.15h1.69Z"/><path class="cls-8" d="M73.31,14.64v-1a3.12,3.12,0,0,1-2.58,1,2.87,2.87,0,0,1-2-.68A2.27,2.27,0,0,1,68,12.29a2.06,2.06,0,0,1,.78-1.69A3.42,3.42,0,0,1,70.93,10h2.36V9.71a1.49,1.49,0,0,0-.47-1.16,2.11,2.11,0,0,0-1.39-.41,4.22,4.22,0,0,0-2.31.79l-.68-1.17A8,8,0,0,1,70,7a5.92,5.92,0,0,1,1.76-.23,3.34,3.34,0,0,1,2.31.73,2.57,2.57,0,0,1,.84,2l0,5.12Zm-2.23-1.26A2.68,2.68,0,0,0,72.6,13a1.41,1.41,0,0,0,.69-1.06v-.72H71.18a2.35,2.35,0,0,0-1.22.24.88.88,0,0,0-.39.8,1,1,0,0,0,.4.85A1.76,1.76,0,0,0,71.08,13.38Z"/><path class="cls-8" d="M81.21,12.85l.43,1.29a3.71,3.71,0,0,1-1.92.58,2.18,2.18,0,0,1-1.57-.58,2.2,2.2,0,0,1-.62-1.7v-4h-1.1V7.13h1.1V5h1.68V7.13h2.3V8.39h-2.3v3.74a1.26,1.26,0,0,0,.2.83.82.82,0,0,0,.63.23A2.75,2.75,0,0,0,81.21,12.85Z"/><path class="cls-8" d="M86.54,6.78a4.07,4.07,0,0,1,2.94,1.09,3.83,3.83,0,0,1,1.13,2.87,3.81,3.81,0,0,1-1.13,2.86,4.49,4.49,0,0,1-5.89,0,3.81,3.81,0,0,1-1.13-2.86,3.83,3.83,0,0,1,1.13-2.87A4.06,4.06,0,0,1,86.54,6.78Zm0,1.45a2.33,2.33,0,0,0-1.73.7,2.59,2.59,0,0,0-.66,1.83,2.57,2.57,0,0,0,.66,1.83,2.29,2.29,0,0,0,1.73.7,2.25,2.25,0,0,0,1.72-.7,2.57,2.57,0,0,0,.66-1.83,2.59,2.59,0,0,0-.67-1.83A2.3,2.3,0,0,0,86.54,8.23Z"/><path class="cls-8" d="M94.05,6.84V8.39a2.8,2.8,0,0,1,2.7-1.61V8.39a2.72,2.72,0,0,0-1.88.54,2.37,2.37,0,0,0-.82,1.64v4.07H92.36V6.84Z"/><path class="cls-8" d="M100.48,6.76a4.61,4.61,0,0,1,2.73.8l-.62,1.24a4.23,4.23,0,0,0-2.24-.68c-.77,0-1.15.26-1.15.77a.74.74,0,0,0,.42.64,4.6,4.6,0,0,0,1,.41c.41.11.81.25,1.22.4a2.43,2.43,0,0,1,1,.74,2,2,0,0,1,.43,1.31,2,2,0,0,1-.86,1.72,3.69,3.69,0,0,1-2.13.59,5.36,5.36,0,0,1-1.73-.28,4.17,4.17,0,0,1-1.42-.8l.61-1.21a3.92,3.92,0,0,0,1.22.71,4,4,0,0,0,1.39.26,1.87,1.87,0,0,0,.92-.2.68.68,0,0,0,.35-.64.8.8,0,0,0-.42-.7,3.76,3.76,0,0,0-1-.43A11.09,11.09,0,0,1,99,11a2.36,2.36,0,0,1-1-.72A2,2,0,0,1,97.6,9a1.91,1.91,0,0,1,.83-1.68A3.45,3.45,0,0,1,100.48,6.76Z"/><path class="cls-8" d="M36.88,29.1H35.15V24.84H29.71V29.1H28V18.83h1.73v4.46h5.44V18.83h1.73Z"/><path class="cls-8" d="M46.56,21.29V29.1H44.88V27.58a2.89,2.89,0,0,1-2.79,1.58,2.75,2.75,0,0,1-2.1-.81,3.07,3.07,0,0,1-.76-2.2V21.29h1.69v4.39a1.94,1.94,0,0,0,.48,1.39,1.76,1.76,0,0,0,1.34.51,2,2,0,0,0,1.56-.7,2.65,2.65,0,0,0,.58-1.74V21.29Z"/><path class="cls-8" d="M53.55,21.23a3.51,3.51,0,0,1,2.69,1.11,4.05,4.05,0,0,1,1,2.88,4,4,0,0,1-1,2.85,3.47,3.47,0,0,1-2.68,1.09,3,3,0,0,1-2.76-1.41V29.1H49.13V18.21h1.69v4.43A3,3,0,0,1,53.55,21.23ZM51.49,27a2.4,2.4,0,0,0,3.41,0,2.56,2.56,0,0,0,.67-1.84,2.5,2.5,0,0,0-.67-1.81,2.38,2.38,0,0,0-3.41,0,2.5,2.5,0,0,0-.67,1.81A2.56,2.56,0,0,0,51.49,27Z"/><path class="cls-8" d="M61.36,21.22A4.62,4.62,0,0,1,64.1,22l-.62,1.25a4.24,4.24,0,0,0-2.24-.69c-.77,0-1.15.26-1.15.78a.74.74,0,0,0,.42.63,4.59,4.59,0,0,0,1,.42,11.41,11.41,0,0,1,1.21.4,2.32,2.32,0,0,1,1,.74,1.92,1.92,0,0,1,.43,1.3,2,2,0,0,1-.86,1.72,3.62,3.62,0,0,1-2.13.6,5.37,5.37,0,0,1-1.73-.29,4.08,4.08,0,0,1-1.42-.8l.61-1.2a3.92,3.92,0,0,0,1.22.71,4.2,4.2,0,0,0,1.39.26,1.79,1.79,0,0,0,.92-.21.69.69,0,0,0,.35-.63.79.79,0,0,0-.42-.7,3.76,3.76,0,0,0-1-.43c-.4-.11-.8-.23-1.2-.38a2.38,2.38,0,0,1-1-.73,2.15,2.15,0,0,1,.41-3A3.5,3.5,0,0,1,61.36,21.22Z"/><path class="cls-8" d="M70.42,21.23a3.51,3.51,0,0,1,2.69,1.11,4.05,4.05,0,0,1,1,2.88,4,4,0,0,1-1,2.85,3.47,3.47,0,0,1-2.68,1.09,3,3,0,0,1-2.76-1.41V32H66V21.29h1.69v1.35A3,3,0,0,1,70.42,21.23ZM68.36,27a2.4,2.4,0,0,0,3.41,0,2.56,2.56,0,0,0,.67-1.84,2.5,2.5,0,0,0-.67-1.81,2.38,2.38,0,0,0-3.41,0,2.5,2.5,0,0,0-.67,1.81A2.56,2.56,0,0,0,68.36,27Z"/><path class="cls-8" d="M79.25,21.23a4,4,0,0,1,2.93,1.1,3.78,3.78,0,0,1,1.14,2.86,3.8,3.8,0,0,1-1.14,2.87,4.48,4.48,0,0,1-5.88,0,3.83,3.83,0,0,1-1.13-2.87,3.81,3.81,0,0,1,1.13-2.86A4.06,4.06,0,0,1,79.25,21.23Zm0,1.46a2.28,2.28,0,0,0-1.73.7,2.85,2.85,0,0,0,0,3.65A2.45,2.45,0,0,0,81,27a2.84,2.84,0,0,0,0-3.65A2.26,2.26,0,0,0,79.25,22.69Z"/><path class="cls-8" d="M89.06,27.31l.43,1.29a3.79,3.79,0,0,1-1.92.57,2.06,2.06,0,0,1-2.19-2.27v-4h-1.1V21.59h1.1V19.44h1.68v2.15h2.3v1.26h-2.3v3.74a1.23,1.23,0,0,0,.2.82.77.77,0,0,0,.63.23A2.91,2.91,0,0,0,89.06,27.31Z"/></svg>