<svg id="Layer_1" data-name="Layer 1" xmlns="http://www.w3.org/2000/svg" xmlns:xlink="http://www.w3.org/1999/xlink" viewBox="0 0 104 32"><defs><style>.cls-1{fill:#fff;}.cls-2{fill:#47b5ff;}.cls-3{mask:url(#mask);}.cls-4{mask:url(#mask-2);}.cls-5{fill:#3a6886;}.cls-6{fill:#638ca6;}</style><mask id="mask" x="8.05" y="5.56" width="4.25" height="16.04" maskUnits="userSpaceOnUse"><g id="mask44_0_1" data-name="mask44 0 1"><path class="cls-1" d="M8.05,5.57h4.26v16H8.05Z"/></g></mask><mask id="mask-2" x="-0.05" y="15.8" width="25.51" height="10.66" maskUnits="userSpaceOnUse"><g id="mask45_0_1" data-name="mask45 0 1"><path class="cls-1" d="M0,15.8H25.46V26.45H0Z"/></g></mask></defs><path class="cls-2" d="M6.08,13.19,2,15.41v5.7l4.13-2.64Z"/><path class="cls-2" d="M6.08,23.68v-.05l-.1.05Z"/><g class="cls-3"><path class="cls-2" d="M12.26,5.56,8.14,7.78V17.2l4.12,4.05Z"/></g><path class="cls-2" d="M16.32,19.3l1.28-.8.85-.52V8.22l-4.12,2.22V20.58c.33-.23.69-.46,1.07-.7Z"/><g class="cls-4"><path class="cls-5" d="M25.33,16.89l-4.66-.83a.13.13,0,0,0-.13.19l.86,1.39-.33.2-.21.13-2.61,1.6L17,20.36l-.91.58c-.73.46-1.45.93-2.16,1.42l-1.06.73-.28.2-.24-.23L8.55,19.35,8,18.76l-.66.42-.82.53L0,23.84l.78,1.31L7.6,21.36h0l2.62,2.92,1.34,1.5.48.54.12.12L13.1,26c.39-.19.77-.39,1.15-.59l1.13-.62c.76-.42,1.5-.85,2.24-1.29s1.48-.88,2.21-1.34l2.59-1.61.15-.1.39-.24.82,1.33a.12.12,0,0,0,.22,0l1.42-4.43A.12.12,0,0,0,25.33,16.89Z"/></g><path class="cls-6" d="M38,11.67v1.09H35.84v7H34.51v-7H32.35V11.67Z"/><path class="cls-6" d="M45.79,11.67v8.09H44.46V16.23h-3.8v3.53H39.33V11.67h1.33v3.48h3.8V11.67Z"/><path class="cls-6" d="M48.86,12.75v2.37h2.79V16.2H48.86v2.48H52v1.08H47.53v-8.1H52v1.09Z"/><path class="cls-6" d="M61.41,11.67v1.09H58v2.39h2.68v1.08H58v3.53H56.64V11.67Z"/><path class="cls-6" d="M64,11.67v8.09H62.63V11.67Z"/><path class="cls-6" d="M72.35,19.76H71l-4-6v6H65.71v-8.1H67l4,6v-6h1.33Z"/><path class="cls-6" d="M81.44,15.61a1.75,1.75,0,0,1,1.11.69A2,2,0,0,1,83,17.59a2,2,0,0,1-.32,1.11,2.15,2.15,0,0,1-.92.78,3.27,3.27,0,0,1-1.4.28H77.12V11.67H80.2a3.27,3.27,0,0,1,1.42.29,2,2,0,0,1,.9.75,1.89,1.89,0,0,1,.3,1,1.79,1.79,0,0,1-.37,1.16A2.23,2.23,0,0,1,81.44,15.61Zm-3-.54h1.63a1.61,1.61,0,0,0,1-.29,1.17,1.17,0,0,0,0-1.71,1.5,1.5,0,0,0-1-.31H78.45Zm1.78,3.61a1.56,1.56,0,0,0,1.06-.33,1.12,1.12,0,0,0,.39-.9,1.2,1.2,0,0,0-.41-.95,1.61,1.61,0,0,0-1.08-.35H78.45v2.53Z"/><path class="cls-6" d="M85.76,11.67v5.16a1.65,1.65,0,0,0,1.83,1.85,1.86,1.86,0,0,0,1.35-.46,1.88,1.88,0,0,0,.48-1.39V11.67h1.33v5.14a3.09,3.09,0,0,1-.43,1.68,2.76,2.76,0,0,1-1.15,1,4,4,0,0,1-3.19,0,2.71,2.71,0,0,1-1.13-1,3.17,3.17,0,0,1-.42-1.68V11.67Z"/><path class="cls-6" d="M93.75,18.61h3.76v1.15H92.18v-1l3.75-5.9H92.18V11.67h5.33v1Z"/><path class="cls-6" d="M100.24,18.61H104v1.15H98.67v-1l3.75-5.9H98.67V11.67H104v1Z"/></svg>