<svg id="Layer_1" data-name="Layer 1" xmlns="http://www.w3.org/2000/svg" xmlns:xlink="http://www.w3.org/1999/xlink" viewBox="0 0 104 32"><defs><style>.cls-1{fill:#fff;}.cls-2{mask:url(#mask);}</style><mask id="mask" x="0" y="2.67" width="26.65" height="26.65" maskUnits="userSpaceOnUse"><g id="mask2_0_1" data-name="mask2 0 1"><path class="cls-1" d="M0,2.67H26.65V29.33H0Z"/></g></mask></defs><g class="cls-2"><path d="M25.23,8l1.42-5.32L21.33,4.1l1.2,1.19L3,24.78l.74.77a9.9,9.9,0,0,0,.77.73L24,6.8ZM11.59,12.17l1.2,1.19L14.22,8,8.9,9.47l1.19,1.19L2.31,18.44c0-.24-.08-.49-.11-.74s-.05-.51-.06-.76,0-.5,0-.75,0-.51.05-.76.06-.5.1-.75.09-.5.15-.74.13-.49.2-.73.16-.48.26-.71a7.17,7.17,0,0,1,.3-.69c.11-.23.23-.45.35-.67s.26-.44.4-.65.29-.41.45-.61.31-.39.48-.58.34-.37.52-.55.37-.34.57-.5l.59-.47a6.9,6.9,0,0,1,.63-.42c.21-.14.43-.26.65-.38s.45-.23.68-.33.47-.2.71-.28a5.88,5.88,0,0,1,.71-.23L10.67,6c.25,0,.49-.09.74-.12s.51-.06.76-.08.5,0,.75,0,.51,0,.76,0,.5,0,.75.08.5.08.75.14a6.54,6.54,0,0,1,.73.19c.24.07.48.15.71.24a6.07,6.07,0,0,1,.7.29c.23.1.46.21.68.33l1.56-1.55c-.3-.18-.61-.35-.92-.51s-.62-.3-.94-.43-.65-.24-1-.35-.66-.19-1-.27-.68-.14-1-.19-.68-.08-1-.1-.7,0-1,0-.7,0-1,.06-.69.09-1,.15-.68.14-1,.23a10.37,10.37,0,0,0-1,.31c-.33.12-.65.25-1,.39a10.12,10.12,0,0,0-.93.47c-.3.17-.6.35-.89.54s-.57.4-.84.61-.54.44-.79.68-.5.48-.74.74-.46.52-.67.8-.41.55-.6.84-.37.59-.54.9-.32.61-.46.93-.27.64-.38,1a8.83,8.83,0,0,0-.3,1c-.09.33-.17.67-.23,1s-.1.68-.13,1,0,.69-.06,1,0,.69,0,1,.06.69.11,1,.12.69.2,1,.17.67.28,1,.23.66.36,1,.28.63.44.94Zm10.7-.84a10.75,10.75,0,0,1-1.84,12.73,11.44,11.44,0,0,1-1,.86,11.3,11.3,0,0,1-1.07.74,12.72,12.72,0,0,1-1.16.6,9.89,9.89,0,0,1-1.22.46,10.53,10.53,0,0,1-1.26.31,9.44,9.44,0,0,1-1.29.15,9.55,9.55,0,0,1-1.31,0A11.39,11.39,0,0,1,10.88,27l2.81-2.81,1.2,1.2,1.43-5.32L11,21.51l1.19,1.19L8.58,26.31,7,27.91c.31.16.63.3.95.44s.65.25,1,.36.66.2,1,.28.68.14,1,.19.69.09,1,.12.69,0,1,0,.69,0,1-.06.69-.08,1-.14.68-.13,1-.22.67-.19,1-.3.65-.25,1-.39.63-.29.94-.46.6-.34.89-.53.58-.39.85-.6.54-.44.8-.68.5-.47.74-.73.46-.52.68-.79.41-.55.61-.84.37-.59.54-.89.32-.62.47-.93.27-.64.39-1,.22-.66.31-1,.17-.68.23-1,.11-.68.15-1,.05-.69.06-1,0-.69,0-1-.06-.69-.11-1-.11-.68-.19-1a8.85,8.85,0,0,0-.27-1c-.1-.33-.22-.66-.35-1s-.27-.64-.43-1-.32-.61-.5-.91Z"/></g><path d="M33.12,21h2.05V12.48h3.11v-1.9H30v1.9h3.11Zm9.32.21a4,4,0,0,0,3.9-2.47h-2a2.22,2.22,0,0,1-1.87.75,2.17,2.17,0,0,1-2.25-1.76h6.47v-.67a4.23,4.23,0,0,0-8.46,0A4,4,0,0,0,42.44,21.23Zm-2.2-5a2.13,2.13,0,0,1,2.2-1.58,2.16,2.16,0,0,1,2.21,1.58Zm11.59,5a4,4,0,0,0,4.09-3.16H54a2.36,2.36,0,0,1-4.51-1,2.36,2.36,0,0,1,4.51-1h1.91a4,4,0,0,0-4.09-3.16,4,4,0,0,0-4.24,4.15A4,4,0,0,0,51.83,21.23Zm5.6-.21h1.9v-4.1a2,2,0,0,1,2-2.22c1.2,0,2,.72,2,2.22V21h1.9v-4.1c0-2.81-1.73-4-3.55-4a2.64,2.64,0,0,0-2.34,1.31V9.68h-1.9Zm8.93-3.41h4.79V15.77H66.36Zm11.26,3.62a5.29,5.29,0,0,0,5.38-4H80.84a3.32,3.32,0,0,1-3.22,2.11,3.37,3.37,0,0,1-3.48-3.55,3.36,3.36,0,0,1,3.48-3.53,3.31,3.31,0,0,1,3.22,2.09H83A5.59,5.59,0,0,0,72.06,15.8,5.3,5.3,0,0,0,77.62,21.23Zm10.3,0c2.33,0,3.88-1.26,3.88-3.29,0-2.43-1.88-2.76-3.46-3.05-1.14-.21-2.11-.38-2.11-1.29s.57-1.39,1.72-1.39,1.73.57,1.74,1.37h1.94a3.36,3.36,0,0,0-3.69-3.21c-2.22,0-3.69,1.36-3.69,3.29,0,2.43,1.87,2.76,3.45,3.05,1.13.21,2.1.38,2.1,1.29s-.62,1.39-1.88,1.39S86.05,18.84,86,18H84C84.09,20,85.6,21.23,87.92,21.23Zm10.52,0A5.3,5.3,0,0,0,104,15.8a5.56,5.56,0,0,0-11.12,0A5.3,5.3,0,0,0,98.44,21.23Zm0-1.88A3.38,3.38,0,0,1,95,15.8a3.48,3.48,0,1,1,7,0A3.37,3.37,0,0,1,98.44,19.35Z"/></svg>