<svg id="Layer_1" data-name="Layer 1" xmlns="http://www.w3.org/2000/svg" xmlns:xlink="http://www.w3.org/1999/xlink" viewBox="0 0 104 32"><defs><style>.cls-1{fill:#fff;}.cls-2{mask:url(#mask);}.cls-3{fill:#7ed957;}.cls-4{mask:url(#mask-2);}.cls-5{fill:#0063e6;}.cls-6{fill:#000c42;}</style><mask id="mask" x="0" y="8.25" width="12.45" height="12.87" maskUnits="userSpaceOnUse"><g id="mask17_0_1" data-name="mask17 0 1"><path class="cls-1" d="M0,8.25H12.45V21.12H0Z"/></g></mask><mask id="mask-2" x="2.54" y="10.61" width="13.5" height="13.14" maskUnits="userSpaceOnUse"><g id="mask18_0_1" data-name="mask18 0 1"><path class="cls-1" d="M2.54,10.61H16V23.75H2.54Z"/></g></mask></defs><g class="cls-2"><path class="cls-3" d="M6.21,20.85a6.3,6.3,0,0,1,0-12.6,6.25,6.25,0,0,1,6.2,6.3,6.41,6.41,0,0,1-.84,3.17L6.7,16l1.74,4.48A6.18,6.18,0,0,1,6.21,20.85Z"/></g><g class="cls-4"><path class="cls-5" d="M14.45,23.7a.15.15,0,0,0,0-.22l-2.08-2a.14.14,0,0,0-.21,0l-1.51,1.6L7.7,15.51l7.5,2.72-1.5,1.53a.21.21,0,0,0,0,.12.16.16,0,0,0,0,.11l2.08,1.93a.16.16,0,0,0,.22,0,.17.17,0,0,0,0-.22l-2-1.83,1.56-1.6a.18.18,0,0,0,0-.14.18.18,0,0,0-.1-.11l-8-2.92a.16.16,0,0,0-.16,0,.16.16,0,0,0,0,.16l3.16,8.13c0,.05.06.08.11.1a.16.16,0,0,0,.14-.05l1.56-1.67,2,1.89a.15.15,0,0,0,.11,0A.12.12,0,0,0,14.45,23.7ZM6.32,14.34a.15.15,0,0,0,0-.22L4.19,12A.16.16,0,0,0,4,12a.17.17,0,0,0,0,.22l2.12,2.1a.15.15,0,0,0,.22,0Zm-.7,1.89a.16.16,0,0,0-.16-.16H2.7a.16.16,0,0,0-.15.16.15.15,0,0,0,.15.15H5.46A.16.16,0,0,0,5.62,16.23ZM8,13.63a.15.15,0,0,1-.15-.15V10.79A.16.16,0,0,1,8,10.63a.16.16,0,0,1,.16.16v2.69A.16.16,0,0,1,8,13.63Z"/></g><path class="cls-6" d="M28.46,18l-1-6.51H26l-1.77,4-1.76-4H21.1l-1,6.51h1.43l.64-4.24,2,4.23h.34l1.94-4.23L27,18Z"/><path class="cls-6" d="M33.55,13l-.14.48a2.45,2.45,0,0,0-1.66-.62,2.66,2.66,0,0,0,0,5.31,2.4,2.4,0,0,0,1.63-.6l.12.45h1.06V13Zm-1.68,3.89a1.34,1.34,0,0,1-1.37-1.38,1.37,1.37,0,1,1,1.37,1.38Z"/><path class="cls-6" d="M38.44,12.94a1.73,1.73,0,0,0-1.46.65L36.74,13h-.87v5h1.36v-2.6c0-.82.3-1.16,1.06-1.16h.59V12.94Z"/><path class="cls-6" d="M44.26,18l-1.88-2.62,1.7-2.4H42.52L41,15.2v-4H39.65V18H41v-2.4l1.6,2.4Z"/><path class="cls-6" d="M49.74,15.47a2.6,2.6,0,1,0-5.2,0,2.61,2.61,0,0,0,5.09.87H48.21a1.2,1.2,0,0,1-1.07.58,1.18,1.18,0,0,1-1.23-1.07h3.8A2.56,2.56,0,0,0,49.74,15.47ZM47.14,14a1.24,1.24,0,0,1,1.24.95H46A1.18,1.18,0,0,1,47.14,14Z"/><path class="cls-6" d="M53.16,16.78a.7.7,0,0,1-.78-.76V14.07h1.37V13H52.36v-1.3H52.1l-2,2.1v.3H51v2.14A1.65,1.65,0,0,0,52.81,18h1V16.78Z"/><path class="cls-6" d="M54.7,12.3h1.35V11.05H54.7Zm0,5.69h1.36V13H54.7Z"/><path class="cls-6" d="M60.22,12.86a2.21,2.21,0,0,0-1.67.73L58.29,13h-.93v5h1.36V15.36c0-.81.43-1.31,1.13-1.31s.87.36.87,1.12V18h1.36V15A1.85,1.85,0,0,0,60.22,12.86Z"/><path class="cls-6" d="M67.38,13l-.23.5a2.42,2.42,0,0,0-1.66-.64,2.52,2.52,0,1,0,1.43,4.59v.19a1.18,1.18,0,0,1-1.26,1.18,1.19,1.19,0,0,1-1.18-.69H63.13a2.62,2.62,0,0,0,5.12-.68V13Zm-1.73,3.68a1.3,1.3,0,1,1,1.28-1.29A1.25,1.25,0,0,1,65.65,16.65Z"/><path class="cls-6" d="M79.2,11.48l-1.26,4.33L76.2,11.56h-.48L74,15.82l-1.28-4.34H71.24L73.29,18h1.25L76,14.35,77.41,18h1.25l2-6.51Z"/><path class="cls-6" d="M81.46,12.3h1.35V11.05H81.46Zm0,5.69h1.36V13H81.46Z"/><path class="cls-6" d="M85.69,16.75l2.12-3.59V13H83.87v1.24H85.8l-2.15,3.63V18h4.16V16.75Z"/><path class="cls-6" d="M92.86,13l-.14.48a2.47,2.47,0,0,0-1.66-.62,2.66,2.66,0,0,0,0,5.31,2.42,2.42,0,0,0,1.63-.6l.12.45h1.06V13Zm-1.69,3.89a1.34,1.34,0,0,1-1.36-1.38,1.37,1.37,0,1,1,2.73,0A1.34,1.34,0,0,1,91.17,16.86Z"/><path class="cls-6" d="M97.75,12.94a1.72,1.72,0,0,0-1.46.65L96.05,13h-.87v5h1.36v-2.6c0-.82.29-1.16,1.06-1.16h.59V12.94Z"/><path class="cls-6" d="M102.64,11.17v2.08a2.36,2.36,0,0,0-1.37-.42,2.58,2.58,0,0,0-2.64,2.66,2.58,2.58,0,0,0,2.64,2.66,2.38,2.38,0,0,0,1.57-.57L103,18h1V11.17Zm-1.26,5.7a1.38,1.38,0,1,1,1.37-1.38A1.34,1.34,0,0,1,101.38,16.87Z"/></svg>