<svg id="Layer_1" data-name="Layer 1" xmlns="http://www.w3.org/2000/svg" xmlns:xlink="http://www.w3.org/1999/xlink" viewBox="0 0 104 32"><defs><style>.cls-1{fill:#fff;}.cls-2{fill:#1863c2;}.cls-3{mask:url(#mask);}.cls-4{mask:url(#mask-2);}.cls-5{mask:url(#mask-3);}.cls-6{mask:url(#mask-4);}.cls-7{mask:url(#mask-5);}.cls-8{mask:url(#mask-6);}.cls-9{mask:url(#mask-7);}.cls-10{mask:url(#mask-8);}</style><mask id="mask" x="8.03" y="17.1" width="0.47" height="1.94" maskUnits="userSpaceOnUse"><g id="mask5_0_1" data-name="mask5 0 1"><path class="cls-1" d="M8,17.1h.46V19H8Z"/></g></mask><mask id="mask-2" x="8.03" y="15.99" width="0.19" height="1.66" maskUnits="userSpaceOnUse"><g id="mask6_0_1" data-name="mask6 0 1"><path class="cls-1" d="M8,16h.19v1.66H8Z"/></g></mask><mask id="mask-3" x="17.62" y="28.16" width="0.83" height="0.38" maskUnits="userSpaceOnUse"><g id="mask7_0_1" data-name="mask7 0 1"><path class="cls-1" d="M17.62,28.16h.83v.38h-.83Z"/></g></mask><mask id="mask-4" x="18.17" y="28.16" width="1.11" height="0.38" maskUnits="userSpaceOnUse"><g id="mask8_0_1" data-name="mask8 0 1"><path class="cls-1" d="M18.17,28.16h1.11v.38H18.17Z"/></g></mask><mask id="mask-5" x="19.55" y="28.44" width="0.55" height="0.1" maskUnits="userSpaceOnUse"><g id="mask9_0_1" data-name="mask9 0 1"><path class="cls-1" d="M19.55,28.44h.56v.1h-.56Z"/></g></mask><mask id="mask-6" x="13.75" y="7.64" width="0.83" height="0.33" maskUnits="userSpaceOnUse"><g id="mask10_0_1" data-name="mask10 0 1"><path class="cls-1" d="M13.75,7.64h.83V8h-.83Z"/></g></mask><mask id="mask-7" x="24.26" y="20.42" width="0.55" height="0.55" maskUnits="userSpaceOnUse"><g id="mask11_0_1" data-name="mask11 0 1"><path class="cls-1" d="M24.26,20.42h.54V21h-.54Z"/></g></mask><mask id="mask-8" x="24.53" y="22.35" width="0.27" height="0.55" maskUnits="userSpaceOnUse"><g id="mask12_0_1" data-name="mask12 0 1"><path class="cls-1" d="M24.53,22.35h.27v.55h-.27Z"/></g></mask></defs><path class="cls-2" d="M11.71,25.53a6.89,6.89,0,0,0-.67-.62h0a4.91,4.91,0,0,0,1,.95A1.76,1.76,0,0,0,11.71,25.53Z"/><path class="cls-2" d="M12.85,26.35a4,4,0,0,0-.75-.53h0s.19.25.43.43a1.81,1.81,0,0,0,.63.39S13,26.44,12.85,26.35Z"/><path class="cls-2" d="M9.05,21.92H9a5.88,5.88,0,0,0,.65,1.25,2.39,2.39,0,0,0-.18-.44C9.37,22.47,9.14,22,9.05,21.92Z"/><path class="cls-2" d="M9.78,23.12s0,0,0,0a3.19,3.19,0,0,0,.78,1.14c.06,0,0-.15-.17-.41A3.64,3.64,0,0,0,9.78,23.12Z"/><path class="cls-2" d="M11.38,24.86a2.31,2.31,0,0,0-.68-.65s0,0,0,0,.65,1,.89,1S11.56,25.1,11.38,24.86Z"/><path class="cls-2" d="M8.53,20.61a.62.62,0,0,1,0,.1l0-.1Z"/><path class="cls-2" d="M9.38,22.33c.1.06.08-.15,0-.48A2.45,2.45,0,0,0,8.9,21h0C8.71,21,9.17,22.21,9.38,22.33Z"/><path class="cls-2" d="M10.24,23.48c.13.05.12-.15,0-.46a1.85,1.85,0,0,0-.58-.76s0,0-.06,0C9.4,22.37,10,23.39,10.24,23.48Z"/><path class="cls-2" d="M11.25,24.51c.19.06.2-.13,0-.43a1.5,1.5,0,0,0-.69-.68h-.08C10.29,23.52,10.88,24.39,11.25,24.51Z"/><path class="cls-2" d="M8.38,19.68h0a3.43,3.43,0,0,0,.39,1.41,1.5,1.5,0,0,0-.07-.51A3.82,3.82,0,0,0,8.38,19.68Z"/><path class="cls-2" d="M9.31,21.41c.14.08.2-.16.12-.53S9.18,20.12,9,20c0,0,0,0-.05,0C8.68,20.08,9,21.23,9.31,21.41Z"/><path class="cls-2" d="M10.14,22.59c.22.1.3-.13.18-.5s-.33-.72-.59-.79H9.67C9.37,21.37,9.74,22.38,10.14,22.59Z"/><path class="cls-2" d="M11.16,23.65c.28.13.39-.09.24-.47s-.39-.66-.7-.71h-.1C10.32,22.62,10.71,23.45,11.16,23.65Z"/><path class="cls-2" d="M8.65,20.11c.11.09.16-.14.11-.52a1.77,1.77,0,0,0-.29-.87h0C8.25,18.75,8.43,19.91,8.65,20.11Z"/><path class="cls-2" d="M9.74,19.83c0-.3-.19-.76-.44-.83H9.24c-.31.07-.18,1.09.17,1.36S9.79,20.26,9.74,19.83Z"/><path class="cls-2" d="M10.64,21c-.06-.3-.28-.74-.59-.8H10c-.35.09-.17,1,.26,1.31S10.73,21.5,10.64,21Z"/><path class="cls-2" d="M11.72,22.17c-.08-.29-.35-.7-.7-.74h-.08c-.38.11-.13,1,.36,1.25C11.63,22.86,11.84,22.6,11.72,22.17Z"/><path class="cls-2" d="M8.8,19.1c.15.13.27-.12.27-.53s-.1-.76-.28-.85h0C8.47,17.78,8.52,18.86,8.8,19.1Z"/><path class="cls-2" d="M10.25,18.73c0-.3-.14-.75-.43-.8h0c-.39,0-.43.94-.07,1.3S10.26,19.23,10.25,18.73Z"/><path class="cls-2" d="M11.13,19.91c0-.3-.23-.75-.56-.78h0c-.44.05-.4,1,.05,1.32S11.19,20.41,11.13,19.91Z"/><path class="cls-2" d="M12.2,21c-.06-.3-.31-.73-.68-.75h0c-.44.08-.38.93.1,1.28S12.29,21.56,12.2,21Z"/><path class="cls-2" d="M9.13,18c.19.22.42,0,.46-.5,0-.3-.05-.75-.28-.82h0C9,16.7,8.85,17.69,9.13,18Z"/><path class="cls-2" d="M10.25,18.12c.27.3.63,0,.66-.5,0-.3-.11-.74-.42-.77C10,16.86,9.93,17.76,10.25,18.12Z"/><path class="cls-2" d="M11.77,18.76c0-.31-.19-.74-.55-.76-.53.05-.55.95-.15,1.29S11.79,19.29,11.77,18.76Z"/><path class="cls-2" d="M12,20.39c.39.34.84,0,.77-.53,0-.31-.26-.73-.66-.74S11.61,20,12,20.39Z"/><path class="cls-2" d="M10.26,16.45c0-.29,0-.73-.28-.78-.41,0-.58,1-.31,1.28S10.18,17,10.26,16.45Z"/><path class="cls-2" d="M13.63,25.45c.33.09.46-.12.28-.44a1.15,1.15,0,0,0-.83-.55.19.19,0,0,0-.14,0C12.66,24.69,13.12,25.32,13.63,25.45Z"/><path class="cls-2" d="M14.23,24.09a1,1,0,0,0-.83-.6l-.13,0c-.36.17-.08.83.45,1S14.39,24.48,14.23,24.09Z"/><path class="cls-2" d="M14.71,23a.88.88,0,0,0-.82-.62h-.05c-.48.1-.39.81.13,1.11S14.85,23.53,14.71,23Z"/><path class="cls-2" d="M14.51,21.23h-.06c-.51.12-.48.88.05,1.2a.52.52,0,0,0,.82-.56A.8.8,0,0,0,14.51,21.23Z"/><path class="cls-2" d="M13.71,26.2c.22,0,.25-.14.06-.38a1.43,1.43,0,0,0-.82-.53.42.42,0,0,0-.12,0C12.61,25.49,13.26,26.14,13.71,26.2Z"/><path class="cls-2" d="M14,26.81c.13,0,.08-.13-.12-.32A1.92,1.92,0,0,0,13,26a.13.13,0,0,0-.09,0C12.78,26.17,13.63,26.82,14,26.81Z"/><path class="cls-2" d="M12.45,23.7c.42.21.69-.07.53-.53a1.08,1.08,0,0,0-.84-.72h-.09C11.61,22.59,11.88,23.42,12.45,23.7Z"/><path class="cls-2" d="M12.37,24.64c.33.12.47-.12.29-.49a1.25,1.25,0,0,0-.84-.69.25.25,0,0,0-.12,0C11.35,23.64,11.82,24.46,12.37,24.64Z"/><path class="cls-2" d="M8.68,17.3c0-.32,0-.81-.14-.92h0c-.24.05-.3,1.29-.08,1.5S8.64,17.71,8.68,17.3Z"/><g class="cls-3"><path class="cls-2" d="M8.21,17.33h0a2.8,2.8,0,0,0,.07,1.53c.07.06.11-.18.1-.56A2.83,2.83,0,0,0,8.21,17.33Z"/></g><path class="cls-2" d="M13.42,22.08a.9.9,0,0,0-.77-.7l-.1,0c-.43.14-.3.91.21,1.21S13.54,22.56,13.42,22.08Z"/><path class="cls-2" d="M13.23,21.43c.44.32.9,0,.8-.56a.8.8,0,0,0-.75-.7h0C12.73,20.28,12.73,21.08,13.23,21.43Z"/><path class="cls-2" d="M12.43,25.41c.22,0,.24-.14.06-.41a1.46,1.46,0,0,0-.78-.6.11.11,0,0,0-.11,0C11.4,24.58,12,25.32,12.43,25.41Z"/><path class="cls-2" d="M12.69,26.09c.11,0,.06-.14-.13-.36a2.06,2.06,0,0,0-.77-.56.08.08,0,0,0-.08,0C11.6,25.32,12.41,26.08,12.69,26.09Z"/><g class="cls-4"><path class="cls-2" d="M8.18,16.06h0a5.37,5.37,0,0,0-.09,1.39h0a2.6,2.6,0,0,0,.07-.51A4.4,4.4,0,0,0,8.18,16.06Z"/></g><path class="cls-2" d="M8.48,16a1.88,1.88,0,0,0,0-.84h0a2.18,2.18,0,0,0-.22,1.36C8.33,16.56,8.42,16.35,8.48,16Z"/><path class="cls-2" d="M9,15.05c.08-.29.15-.72,0-.81H9c-.21,0-.52,1-.37,1.3S8.88,15.44,9,15.05Z"/><path class="cls-2" d="M9.21,14.56c.09.16.31-.07.47-.48s.18-.69,0-.77S9.05,14.27,9.21,14.56Z"/><path class="cls-2" d="M9.17,16.26c.05-.29.05-.73-.12-.81H9c-.27,0-.47,1-.25,1.32S9.1,16.69,9.17,16.26Z"/><path class="cls-2" d="M9.34,15.73c.14.21.41,0,.52-.49.08-.29.09-.72-.11-.78C9.39,14.43,9.13,15.43,9.34,15.73Z"/><path class="cls-2" d="M11.72,16.41c0-.29-.08-.72-.41-.73s-.63.86-.36,1.22S11.66,17,11.72,16.41Z"/><path class="cls-2" d="M12.56,17.5c0-.3-.16-.72-.54-.72s-.63.89-.27,1.25S12.55,18.06,12.56,17.5Z"/><path class="cls-2" d="M12.73,19.13c.4.33.89,0,.85-.57a.7.7,0,0,0-.64-.71C12.36,17.94,12.31,18.78,12.73,19.13Z"/><path class="cls-2" d="M14,18.9c-.57.11-.61.89-.19,1.25s1,0,.93-.56A.74.74,0,0,0,14,18.9Z"/><path class="cls-2" d="M10.83,14.57c-.43,0-.67.88-.43,1.22s.58,0,.68-.48C11.14,15,11.1,14.6,10.83,14.57Z"/><path class="cls-2" d="M10.05,14.67c.15.25.48,0,.63-.48.09-.27.11-.69-.11-.73C10.19,13.46,9.87,14.36,10.05,14.67Z"/><path class="cls-2" d="M11.16,20.39h0Z"/><path class="cls-2" d="M11.44,21.54h0Z"/><path class="cls-2" d="M15,25.29c.42.16.71-.07.55-.43a.9.9,0,0,0-.8-.49.43.43,0,0,0-.14,0C14.28,24.57,14.52,25.1,15,25.29Z"/><path class="cls-2" d="M14.94,26.13c.32.06.45-.13.27-.4a1,1,0,0,0-.79-.45.32.32,0,0,0-.15,0C14,25.51,14.45,26,14.94,26.13Z"/><path class="cls-2" d="M13.36,16.28c0-.28-.13-.67-.49-.66s-.66.76-.35,1.14S13.33,16.83,13.36,16.28Z"/><path class="cls-2" d="M12.17,14.58c-.44.06-.64.8-.4,1.13s.68.07.76-.44C12.58,15,12.5,14.59,12.17,14.58Z"/><path class="cls-2" d="M8.37,15.15a1.62,1.62,0,0,0,.19-.46,3.79,3.79,0,0,0,.15-.76h0A2.87,2.87,0,0,0,8.37,15.15Z"/><path class="cls-2" d="M16,23.85a.78.78,0,0,0-.78-.5l-.11,0c-.4.15-.28.72.2.95S16.18,24.3,16,23.85Z"/><path class="cls-2" d="M14.29,27.26c.06,0-.07-.12-.22-.22a2.78,2.78,0,0,0-.74-.4s-.05,0-.06,0S14.13,27.29,14.29,27.26Z"/><path class="cls-2" d="M15,26.81c.23,0,.26-.12.08-.33a1.26,1.26,0,0,0-.78-.4.18.18,0,0,0-.12,0C14,26.26,14.56,26.78,15,26.81Z"/><path class="cls-2" d="M11.24,14.65c.16.24.55,0,.67-.43.05-.18.1-.65-.21-.67S11,14.35,11.24,14.65Z"/><path class="cls-2" d="M9.07,13.81c.08-.21.23-.63.17-.73h0c-.13-.05-.54,1-.46,1.15S8.93,14.13,9.07,13.81Z"/><path class="cls-2" d="M13.77,16.66c-.54.1-.59.83-.29,1.14s.89.1.87-.5C14.34,16.91,14.08,16.63,13.77,16.66Z"/><path class="cls-2" d="M16,20.58a.7.7,0,0,0-.74-.6c-.55.09-.56.83-.14,1.15A.55.55,0,0,0,16,20.58Z"/><path class="cls-2" d="M15.81,23.22c.44.28.93,0,.82-.48a.73.73,0,0,0-.76-.53l-.06,0C15.36,22.34,15.36,22.94,15.81,23.22Z"/><path class="cls-2" d="M10.53,12.43c-.28,0-.67.82-.56,1.07s.33,0,.51-.4C10.58,12.88,10.69,12.49,10.53,12.43Z"/><path class="cls-2" d="M15.2,27.35c.11,0,.07-.11-.09-.25a1.72,1.72,0,0,0-.77-.36.11.11,0,0,0-.08,0C14.12,26.89,14.89,27.38,15.2,27.35Z"/><path class="cls-2" d="M11.45,12.53c-.32,0-.67.71-.53,1s.46,0,.62-.41C11.62,12.9,11.65,12.56,11.45,12.53Z"/><path class="cls-2" d="M9.36,13.31c.05.11.23-.09.4-.42s.24-.59.17-.65h0C9.76,12.17,9.28,13.08,9.36,13.31Z"/><path class="cls-2" d="M14.84,17.68a.65.65,0,0,0-.22,1.13.54.54,0,0,0,.88-.52A.64.64,0,0,0,14.84,17.68Z"/><path class="cls-2" d="M16.85,25.57a.76.76,0,0,0-.74-.41H16c-.31.11-.23.53.24.73S17,25.86,16.85,25.57Z"/><path class="cls-2" d="M16.51,26.37a.91.91,0,0,0-.73-.36.29.29,0,0,0-.14,0c-.22.16.12.56.56.65S16.65,26.58,16.51,26.37Z"/><path class="cls-2" d="M13.73,14.48a.67.67,0,0,0-.34,1c.27.33.74.07.79-.43C14.2,14.81,14.06,14.46,13.73,14.48Z"/><path class="cls-2" d="M13.38,14.09c.06-.33-.1-.61-.33-.59a.71.71,0,0,0-.38,1C12.9,14.82,13.3,14.51,13.38,14.09Z"/><path class="cls-2" d="M9.37,12.62A2.56,2.56,0,0,0,9.64,12h0a2.48,2.48,0,0,0-.53,1S9.22,12.89,9.37,12.62Z"/><path class="cls-2" d="M12.14,13.49c.14.25.53.06.65-.41.05-.22.05-.54-.2-.54A.77.77,0,0,0,12.14,13.49Z"/><path class="cls-2" d="M14.62,15.46a.64.64,0,0,0-.27,1.05c.32.3.81,0,.8-.49A.51.51,0,0,0,14.62,15.46Z"/><path class="cls-2" d="M17.32,24.59a.69.69,0,0,0-.71-.4l-.09,0c-.36.13-.28.6.13.8S17.46,25,17.32,24.59Z"/><path class="cls-2" d="M16.35,27.05a1,1,0,0,0-.71-.31.2.2,0,0,0-.13,0c-.15.15.39.53.75.54C16.47,27.32,16.5,27.21,16.35,27.05Z"/><path class="cls-2" d="M11.43,11.55c-.24,0-.68.67-.59.93s.33,0,.54-.37C11.47,11.93,11.59,11.59,11.43,11.55Z"/><path class="cls-2" d="M15.54,27.76c.05,0,0-.08-.21-.18a2.76,2.76,0,0,0-.7-.29h-.06C14.51,27.38,15.37,27.8,15.54,27.76Z"/><path class="cls-2" d="M17.94,23.54a.61.61,0,0,0-.7-.44h0a.53.53,0,0,0-.29.17c-.21.29.08.85.64.78h0A.41.41,0,0,0,17.94,23.54Z"/><path class="cls-2" d="M17.32,21.52a.65.65,0,0,0-.73-.53.56.56,0,0,0-.11,1A.52.52,0,0,0,17.32,21.52Z"/><path class="cls-2" d="M16.06,18.7a.61.61,0,0,0-.16,1.09.53.53,0,0,0,.84-.55A.61.61,0,0,0,16.06,18.7Z"/><path class="cls-2" d="M8.85,13.43a6.88,6.88,0,0,0,.26-.67h0a4.82,4.82,0,0,0-.42,1.07A2.9,2.9,0,0,0,8.85,13.43Z"/><path class="cls-2" d="M14.52,27.46a6,6,0,0,0-.66-.32h0a6.14,6.14,0,0,0,1,.49Z"/><path class="cls-2" d="M10.12,12.36c0,.12.22,0,.44-.36,0,0,.3-.51.18-.58S10.07,12.17,10.12,12.36Z"/><path class="cls-2" d="M16.43,27.79h0c.1,0,.07-.09-.08-.19a1.44,1.44,0,0,0-.69-.27l-.09,0C15.49,27.44,16.06,27.78,16.43,27.79Z"/><path class="cls-2" d="M12.36,11.59a.28.28,0,0,0-.18.08c-.32.27-.5.89-.2.91h0c.26,0,.42-.4.44-.44C12.53,11.87,12.53,11.59,12.36,11.59Z"/><path class="cls-2" d="M10.33,11.2c-.08,0-.68.78-.6.94s.31-.32.34-.37.31-.49.27-.56Z"/><path class="cls-2" d="M15.68,16.44a.6.6,0,0,0-.22,1,.51.51,0,0,0,.82-.49A.53.53,0,0,0,15.68,16.44Z"/><path class="cls-2" d="M16.89,17.39a.57.57,0,0,0-.22,1,.51.51,0,0,0,.85-.45A.57.57,0,0,0,16.89,17.39Z"/><path class="cls-2" d="M18.07,20.19a.61.61,0,0,0-.69-.52.57.57,0,0,0-.18,1A.52.52,0,0,0,18.07,20.19Z"/><path class="cls-2" d="M18.65,22.35a.59.59,0,0,0-.68-.44.48.48,0,0,0-.14.88A.49.49,0,0,0,18.65,22.35Z"/><path class="cls-2" d="M11,11.44c0,.15.27,0,.46-.32s.28-.48.18-.52S11,11.21,11,11.44Z"/><path class="cls-2" d="M18.1,26.15a.67.67,0,0,0-.64-.32l-.08,0c-.26.1-.22.42.15.58S18.2,26.4,18.1,26.15Z"/><path class="cls-2" d="M15.11,27.71h0a4,4,0,0,0,1,.35h0l-.28-.12A6,6,0,0,0,15.11,27.71Z"/><path class="cls-2" d="M11.8,11.5c0,.17.31,0,.5-.33.1-.17.21-.46.06-.49A1,1,0,0,0,11.8,11.5Z"/><path class="cls-2" d="M16.79,28.13s-.13-.11-.18-.13a2.89,2.89,0,0,0-.66-.21s0,0,0,0S16.68,28.19,16.79,28.13Z"/><path class="cls-2" d="M14.58,13.35a.6.6,0,0,0-.29.91c.24.27.66,0,.69-.41S14.81,13.32,14.58,13.35Z"/><path class="cls-2" d="M13.92,12.44a.65.65,0,0,0-.36.87c.18.27.57,0,.64-.37S14.12,12.42,13.92,12.44Z"/><path class="cls-2" d="M17.43,27.16c.31.06.44-.09.32-.27a.75.75,0,0,0-.64-.27.28.28,0,0,0-.12,0C16.8,26.79,17.05,27.08,17.43,27.16Z"/><path class="cls-2" d="M10.5,11.28c0,.08.18,0,.38-.31,0,0,.35-.44.28-.51S10.48,11.11,10.5,11.28Z"/><path class="cls-2" d="M17.5,27.71c.18,0,.21-.09.08-.22a1,1,0,0,0-.62-.22.17.17,0,0,0-.11,0C16.72,27.44,17.17,27.71,17.5,27.71Z"/><path class="cls-2" d="M13.47,11.56a.67.67,0,0,0-.4.83c.12.2.46,0,.57-.37C13.69,11.83,13.69,11.55,13.47,11.56Z"/><path class="cls-2" d="M15.46,14.28a.56.56,0,0,0-.25.91c.26.26.74,0,.72-.43A.43.43,0,0,0,15.46,14.28Z"/><path class="cls-2" d="M18.59,25.25a.58.58,0,0,0-.62-.33l-.1,0c-.3.13-.24.5.1.66S18.7,25.56,18.59,25.25Z"/><path class="cls-2" d="M9.88,11.49a4,4,0,0,0,.34-.55h0a3.17,3.17,0,0,0-.57.85A1.32,1.32,0,0,0,9.88,11.49Z"/><path class="cls-2" d="M10.59,10.74a3,3,0,0,0,.34-.49h0a2.2,2.2,0,0,0-.63.78S10.5,10.85,10.59,10.74Z"/><path class="cls-2" d="M16.42,28.13h0a3.27,3.27,0,0,0,.87.22s0,0-.24-.07A4.12,4.12,0,0,0,16.42,28.13Z"/><path class="cls-2" d="M18.21,18.34a.53.53,0,0,0-.18.93.49.49,0,0,0,.8-.47A.53.53,0,0,0,18.21,18.34Z"/><path class="cls-2" d="M18.89,24.68h0a.36.36,0,0,0,.32-.44.5.5,0,0,0-.61-.34.38.38,0,0,0-.25.15C18.13,24.32,18.43,24.75,18.89,24.68Z"/><path class="cls-2" d="M13.26,10.69c-.23,0-.54.52-.46.75s.35.05.51-.31C13.38,11,13.43,10.69,13.26,10.69Z"/><path class="cls-2" d="M11.41,10.44c0,.1.18,0,.4-.28s.32-.4.27-.44S11.41,10.27,11.41,10.44Z"/><path class="cls-2" d="M17.68,28.1c.07,0,0-.08-.1-.15a1.22,1.22,0,0,0-.58-.16h0s-.07,0-.08,0S17.48,28.16,17.68,28.1Z"/><path class="cls-2" d="M16.51,15.2h0a.53.53,0,0,0-.18.92.49.49,0,1,0,.18-.92Z"/><path class="cls-2" d="M15.92,28h0l-.07,0Z"/><path class="cls-2" d="M19.4,21.05a.53.53,0,0,0-.63-.42.5.5,0,0,0-.14.91A.49.49,0,0,0,19.4,21.05Z"/><path class="cls-2" d="M12,10.55c0,.11.24,0,.45-.3s.26-.4.16-.43S11.94,10.35,12,10.55Z"/><path class="cls-2" d="M19.94,23.12a.49.49,0,0,0-.59-.37.4.4,0,0,0-.19.72A.46.46,0,0,0,19.94,23.12Z"/><path class="cls-2" d="M18,28.37s-.11-.07-.15-.08a2.4,2.4,0,0,0-.57-.13s-.05,0-.05,0A1.68,1.68,0,0,0,18,28.37Z"/><path class="cls-2" d="M17.71,16.1h0a.51.51,0,0,0-.14.91.47.47,0,0,0,.71-.49A.51.51,0,0,0,17.71,16.1Z"/><path class="cls-2" d="M12.78,10.55c0,.14.27,0,.43-.29.08-.12.2-.39.07-.4S12.72,10.37,12.78,10.55Z"/><path class="cls-2" d="M11.1,10.26c.05,0,.28-.21.35-.28s.34-.35.32-.41h0C11.7,9.56,11.06,10.15,11.1,10.26Z"/><path class="cls-2" d="M19.25,26.63a.49.49,0,0,0-.51-.22l-.11,0c-.2.11-.11.35.16.45S19.35,26.84,19.25,26.63Z"/><path class="cls-2" d="M15.15,13c.21.23.57,0,.58-.38,0-.17-.11-.41-.35-.38A.5.5,0,0,0,15.15,13Z"/><path class="cls-2" d="M18.6,27.52c.25.05.4-.06.3-.21a.59.59,0,0,0-.52-.19.38.38,0,0,0-.12.05C18.13,27.27,18.32,27.47,18.6,27.52Z"/><path class="cls-2" d="M14.73,11.44a.53.53,0,0,0-.27.74c.15.17.47,0,.51-.35S14.92,11.41,14.73,11.44Z"/><path class="cls-2" d="M19.76,25.81a.43.43,0,0,0-.51-.24h0c-.3.09-.27.39,0,.52S19.85,26.07,19.76,25.81Z"/><path class="cls-2" d="M14.3,10.62a.57.57,0,0,0-.33.69c.1.16.38,0,.47-.3C14.48,10.85,14.48,10.61,14.3,10.62Z"/><path class="cls-2" d="M16.25,13.13a.47.47,0,0,0-.18.78c.22.2.61,0,.59-.38A.37.37,0,0,0,16.25,13.13Z"/><path class="cls-2" d="M18.64,28c.14,0,.17-.08.07-.16a.74.74,0,0,0-.49-.15.13.13,0,0,0-.1,0C18,27.82,18.38,28,18.64,28Z"/><path class="cls-2" d="M18.79,28.31c.05,0,0,0-.07-.1a1.27,1.27,0,0,0-.48-.1.11.11,0,0,0-.07,0C18.13,28.21,18.64,28.35,18.79,28.31Z"/><path class="cls-2" d="M13,9.69c0,.08.2,0,.38-.25s.24-.35.17-.35S13,9.56,13,9.69Z"/><g class="cls-5"><path class="cls-2" d="M17.71,28.4h0a3.21,3.21,0,0,0,.74.1l-.21,0C18,28.43,17.8,28.4,17.71,28.4Z"/></g><path class="cls-2" d="M14.14,10.19c.08-.18.09-.37,0-.36s-.46.47-.38.64S14,10.45,14.14,10.19Z"/><path class="cls-2" d="M12,9.51c0,.06.14,0,.35-.23,0,0,.35-.31.33-.35A1.71,1.71,0,0,0,12,9.51Z"/><path class="cls-2" d="M19.59,19.28a.49.49,0,0,0-.16.85.46.46,0,0,0,.74-.44A.47.47,0,0,0,19.59,19.28Z"/><path class="cls-2" d="M13,9c-.14,0-.65.49-.64.61s.16,0,.39-.26C12.81,9.37,13.1,9.07,13,9Z"/><path class="cls-2" d="M20.15,21.51a.42.42,0,0,0-.16.76.45.45,0,0,0,.71-.41A.43.43,0,0,0,20.15,21.51Z"/><path class="cls-2" d="M11,10h0a4,4,0,0,0-.58.68,2.27,2.27,0,0,0,.22-.24C10.87,10.1,10.92,10,11,10Z"/><path class="cls-2" d="M19,17a.48.48,0,0,0-.12.85.44.44,0,0,0,.68-.46A.47.47,0,0,0,19,17Z"/><path class="cls-2" d="M17.29,14a.45.45,0,0,0-.13.79.39.39,0,0,0,.59-.42A.4.4,0,0,0,17.29,14Z"/><path class="cls-2" d="M20.4,24.86a.39.39,0,0,0-.49-.27.32.32,0,0,0-.15.58C20,25.36,20.46,25.16,20.4,24.86Z"/><path class="cls-2" d="M11.32,9.76a4.87,4.87,0,0,0,.36-.39h0A2.52,2.52,0,0,0,11,10,1.77,1.77,0,0,0,11.32,9.76Z"/><path class="cls-2" d="M18.39,15.6a.38.38,0,0,0,.58-.42.43.43,0,0,0-.49-.35A.44.44,0,0,0,18.39,15.6Z"/><path class="cls-2" d="M21.14,23.78a.38.38,0,0,0-.48-.28.35.35,0,0,0-.17.61A.41.41,0,0,0,21.14,23.78Z"/><g class="cls-6"><path class="cls-2" d="M18.48,28.39h0a1.76,1.76,0,0,0,.62.09h0l-.15,0A3,3,0,0,0,18.48,28.39Z"/></g><path class="cls-2" d="M13.73,9.64c0,.1.19,0,.35-.23s.16-.32.07-.31A.79.79,0,0,0,13.73,9.64Z"/><path class="cls-2" d="M12.17,9.12a2.59,2.59,0,0,0,.36-.33,2.36,2.36,0,0,0-.64.52S11.91,9.33,12.17,9.12Z"/><path class="cls-2" d="M15.94,11.86c.16.16.45,0,.44-.3,0-.12-.07-.34-.28-.31A.39.39,0,0,0,15.94,11.86Z"/><path class="cls-2" d="M19.9,26.89h0c-.19.07-.15.25,0,.33s.48,0,.41-.18S20.13,26.85,19.9,26.89Z"/><path class="cls-2" d="M15.66,10.8c0-.17-.06-.33-.2-.31a.41.41,0,0,0-.2.58C15.38,11.21,15.63,11.08,15.66,10.8Z"/><path class="cls-2" d="M19.65,27.79c.18,0,.34,0,.27-.15a.43.43,0,0,0-.39-.13l-.09,0C19.33,27.62,19.45,27.76,19.65,27.79Z"/><path class="cls-2" d="M20.81,26.29c0-.09-.14-.22-.38-.17s-.26.3-.1.4S20.86,26.5,20.81,26.29Z"/><path class="cls-2" d="M20.41,17.91a.42.42,0,0,0-.13.75.4.4,0,0,0,.63-.42A.39.39,0,0,0,20.41,17.91Z"/><path class="cls-2" d="M14,8.39a1.36,1.36,0,0,0-.57.48c0,.05.13,0,.33-.2C13.77,8.67,14.06,8.41,14,8.39Z"/><path class="cls-2" d="M13.06,8.8s.12,0,.32-.19c0,0,.31-.24.31-.28h0A1.66,1.66,0,0,0,13.06,8.8Z"/><path class="cls-2" d="M20.84,20.92a.41.41,0,0,0,.64-.4.38.38,0,0,0-.49-.33A.42.42,0,0,0,20.84,20.92Z"/><path class="cls-2" d="M16.83,12.66c.22.17.5,0,.47-.33A.31.31,0,0,0,17,12,.38.38,0,0,0,16.83,12.66Z"/><path class="cls-2" d="M21.92,22.57a.34.34,0,0,0-.44-.26.35.35,0,0,0-.17.61A.39.39,0,0,0,21.92,22.57Z"/><path class="cls-2" d="M19.68,28.18c.09,0,.1-.06,0-.11a.58.58,0,0,0-.36-.08c-.05,0-.07,0-.08,0S19.5,28.21,19.68,28.18Z"/><path class="cls-2" d="M14.8,10.28c.08.14.29,0,.35-.23s0-.31-.1-.3A.45.45,0,0,0,14.8,10.28Z"/><path class="cls-2" d="M21.1,25.21c-.24.07-.33.3-.17.43a.33.33,0,0,0,.54-.23C21.46,25.27,21.28,25.17,21.1,25.21Z"/><path class="cls-2" d="M18.15,13.5h0a.36.36,0,0,0-.17-.69.32.32,0,0,0-.17.13A.36.36,0,0,0,18.15,13.5Z"/><path class="cls-2" d="M19.69,16.38a.36.36,0,0,0,.58-.37.38.38,0,1,0-.58.37Z"/><path class="cls-2" d="M12.85,8.67a1.07,1.07,0,0,0,.3-.17,2.06,2.06,0,0,0,.35-.27A2.32,2.32,0,0,0,12.85,8.67Z"/><path class="cls-2" d="M14.87,9.05a.53.53,0,0,0-.28.48c0,.12.23,0,.31-.23S15,9,14.87,9.05Z"/><path class="cls-2" d="M14.44,8.41c-.09,0-.47.35-.46.47s.17-.05.3-.2S14.49,8.42,14.44,8.41Z"/><path class="cls-2" d="M19.71,28.36a.84.84,0,0,0-.35,0s0,0-.05,0,.39.1.46.07S19.76,28.37,19.71,28.36Z"/><path class="cls-2" d="M11.78,9.14h0s-.51.46-.54.51l.21-.19Z"/><path class="cls-2" d="M12.18,8.9a2.83,2.83,0,0,0,.35-.29,2.64,2.64,0,0,0-.57.44Z"/><path class="cls-2" d="M14.13,8.14s.1,0,.3-.16a2,2,0,0,0,.26-.2h0A1.78,1.78,0,0,0,14.13,8.14Z"/><path class="cls-2" d="M22.21,24.4s0-.3-.34-.21-.22.42-.18.46A.33.33,0,0,0,22.21,24.4Z"/><path class="cls-2" d="M14.94,8.41a.68.68,0,0,0-.32.39c0,.07.14,0,.25-.16S15,8.4,14.94,8.41Z"/><g class="cls-7"><path class="cls-2" d="M19.9,28.49h-.3s0,0,0,0a2.15,2.15,0,0,0,.44,0Z"/></g><path class="cls-2" d="M22.19,21.62a.34.34,0,0,0,.39,0,.35.35,0,0,0,.14-.34.28.28,0,0,0-.39-.23A.35.35,0,0,0,22.19,21.62Z"/><path class="cls-2" d="M21.69,19.46a.36.36,0,0,0,.55-.37.32.32,0,0,0-.42-.29A.38.38,0,0,0,21.69,19.46Z"/><path class="cls-2" d="M21.1,17.18a.35.35,0,0,0,.38,0,.32.32,0,0,0,.13-.35.32.32,0,0,0-.44-.27A.36.36,0,0,0,21.1,17.18Z"/><path class="cls-2" d="M19.13,14.21a.29.29,0,0,0,.44-.32.33.33,0,0,0-.39-.28C18.86,13.7,18.94,14.1,19.13,14.21Z"/><path class="cls-2" d="M13.41,8.12h0a2.7,2.7,0,0,0-.58.36,1.05,1.05,0,0,0,.27-.14A1.7,1.7,0,0,0,13.41,8.12Z"/><path class="cls-2" d="M20.52,27.81l-.07,0c-.05,0,0,.12.1.15s.28,0,.22-.1S20.65,27.78,20.52,27.81Z"/><path class="cls-2" d="M14.48,8.17A.74.74,0,0,0,14.72,8c.11-.09.25-.2.22-.21h0C14.88,7.81,14.43,8.13,14.48,8.17Z"/><path class="cls-2" d="M13.92,8.07l.29-.16a1.43,1.43,0,0,0,.3-.18A2.09,2.09,0,0,0,13.92,8.07Z"/><path class="cls-2" d="M20.91,27.27h0c-.11,0-.17.15,0,.22s.35,0,.31-.13S21.1,27.23,20.91,27.27Z"/><path class="cls-2" d="M16,10c.06.09.25.06.27-.2,0,0,0-.23-.15-.21S15.87,9.94,16,10Z"/><path class="cls-2" d="M16.62,10.75a.16.16,0,0,0,.19,0,.23.23,0,0,0,.11-.22s0-.27-.22-.24S16.5,10.65,16.62,10.75Z"/><path class="cls-2" d="M21.45,26.59c-.19.05-.2.21-.1.28s.37,0,.35-.17S21.59,26.56,21.45,26.59Z"/><path class="cls-2" d="M20.45,15a.28.28,0,0,0,.42-.3.32.32,0,0,0-.39-.25C20.17,14.52,20.31,14.88,20.45,15Z"/><path class="cls-2" d="M22.71,23.05a.29.29,0,0,0-.19.44c.12.15.48.06.5-.24C23,23.2,23,23,22.71,23.05Z"/><path class="cls-2" d="M12.4,8.61l.27-.19h0a5,5,0,0,0-.44.32A1,1,0,0,0,12.4,8.61Z"/><g class="cls-8"><path class="cls-2" d="M14.39,7.66a3.09,3.09,0,0,0-.53.28,1,1,0,0,0,.25-.12C14.34,7.7,14.39,7.68,14.39,7.66Z"/></g><path class="cls-2" d="M20.51,28.28c.08,0,.09,0,0-.06a.33.33,0,0,0-.23,0l-.07,0S20.38,28.3,20.51,28.28Z"/><path class="cls-2" d="M15.75,9.17c0-.1,0-.2-.08-.19s-.2.3-.15.37S15.71,9.36,15.75,9.17Z"/><path class="cls-2" d="M22.37,25.89c0-.07,0-.17-.23-.13s-.17.29-.14.31S22.38,26.08,22.37,25.89Z"/><path class="cls-2" d="M15.12,8l0,0c.13-.13.12-.15.1-.15s-.33.25-.33.31S15,8.16,15.12,8Z"/><path class="cls-2" d="M17.5,11.46c.12.09.35,0,.3-.24s-.11-.25-.26-.21S17.38,11.39,17.5,11.46Z"/><path class="cls-2" d="M18.55,12.17a.21.21,0,0,0,.31-.25c0-.09-.1-.24-.29-.19S18.43,12.1,18.55,12.17Z"/><path class="cls-2" d="M22.5,17.91c.13.12.47.08.44-.3a.34.34,0,0,0-.14-.2.23.23,0,0,0-.21,0C22.3,17.49,22.39,17.81,22.5,17.91Z"/><path class="cls-2" d="M20.33,28.4s0,0,0,0h.3s0,0,0,0A1,1,0,0,0,20.33,28.4Z"/><path class="cls-2" d="M15.34,8.67s0,.05.07,0a.36.36,0,0,0,.11-.16c0-.06.06-.17,0-.16S15.31,8.6,15.34,8.67Z"/><path class="cls-2" d="M23.07,20.18a.29.29,0,0,0,.44-.3.24.24,0,0,0-.33-.21A.3.3,0,0,0,23.07,20.18Z"/><path class="cls-2" d="M13.18,8.15s.24-.14.27-.17h0a2.35,2.35,0,0,0-.45.26h0Z"/><path class="cls-2" d="M23.59,21.81a.26.26,0,0,0-.14.42c.12.11.4,0,.4-.23C23.84,22,23.83,21.75,23.59,21.81Z"/><path class="cls-2" d="M23.14,24.94c0-.06,0-.18-.21-.13s-.21.25-.15.31S23.14,25.11,23.14,24.94Z"/><path class="cls-2" d="M21.84,15.68a.24.24,0,0,0,.36-.27.25.25,0,0,0-.32-.19C21.62,15.3,21.72,15.6,21.84,15.68Z"/><path class="cls-2" d="M19.75,12.86a.2.2,0,0,0,.3-.22s-.07-.24-.29-.18S19.67,12.8,19.75,12.86Z"/><path class="cls-2" d="M15.55,8s.1-.13,0-.13-.19.19-.19.23S15.43,8.12,15.55,8Z"/><path class="cls-2" d="M21.32,28h0c-.06,0-.05.05,0,.06s.17,0,.15,0S21.41,28,21.32,28Z"/><path class="cls-2" d="M23.78,23.74c-.11,0-.2.18-.12.27s.28,0,.3-.15S23.88,23.71,23.78,23.74Z"/><path class="cls-2" d="M21.09,13.54a.16.16,0,0,0,.23-.21.19.19,0,0,0-.25-.13C20.88,13.27,21,13.49,21.09,13.54Z"/><path class="cls-2" d="M21.72,27.58c-.09,0-.1.08-.08.11s.2,0,.19-.06S21.81,27.56,21.72,27.58Z"/><path class="cls-2" d="M23.93,18.63a.19.19,0,0,0,.27-.2c0-.09-.07-.2-.22-.15A.21.21,0,0,0,23.93,18.63Z"/><g class="cls-9"><path class="cls-2" d="M24.46,20.51a.18.18,0,0,0-.08.31.15.15,0,0,0,.18,0,.17.17,0,0,0,.08-.17C24.63,20.57,24.6,20.46,24.46,20.51Z"/></g><path class="cls-2" d="M22.28,27c-.14,0-.09.13-.09.13s.19,0,.2-.08S22.39,27,22.28,27Z"/><path class="cls-2" d="M18,10.33a.1.1,0,0,0,.14-.13s0-.14-.15-.11S18,10.3,18,10.33Z"/><path class="cls-2" d="M21.21,28.28a.36.36,0,0,0-.11,0h0s.08,0,.13,0S21.22,28.29,21.21,28.28Z"/><path class="cls-2" d="M17.14,9.7c.05,0,.17,0,.15-.11s0-.15-.13-.12S17.09,9.66,17.14,9.7Z"/><path class="cls-2" d="M16.2,8.41s0-.11,0-.1a.14.14,0,0,0-.06.18S16.18,8.5,16.2,8.41Z"/><path class="cls-2" d="M16.51,9.09a.06.06,0,0,0,.09,0,.14.14,0,0,0,0-.1s0-.12-.09-.11S16.47,9.05,16.51,9.09Z"/><path class="cls-2" d="M23.28,16.37a.18.18,0,1,0,0-.33C23.11,16.11,23.2,16.32,23.28,16.37Z"/><path class="cls-2" d="M19.06,11a.11.11,0,0,0,.12,0,.12.12,0,0,0,0-.12.14.14,0,0,0-.17-.09h0C18.93,10.77,19,10.92,19.06,11Z"/><path class="cls-2" d="M23,26.25c-.1,0-.13.11-.1.15s.1,0,.1,0,.08,0,.09-.1S23.08,26.23,23,26.25Z"/><path class="cls-2" d="M23.79,25.38a.1.1,0,0,0-.08.13s.14,0,.16-.07S23.88,25.35,23.79,25.38Z"/><g class="cls-10"><path class="cls-2" d="M24.68,22.57a.14.14,0,0,0-.08.2c0,.05.19,0,.2-.12S24.79,22.53,24.68,22.57Z"/></g><path class="cls-2" d="M22.48,14.18c.08,0,.21,0,.16-.14a.13.13,0,0,0-.16-.09C22.34,14,22.42,14.15,22.48,14.18Z"/><path class="cls-2" d="M20.25,11.56a.1.1,0,0,0,.09,0,.06.06,0,0,0,0-.08s0-.1-.12-.08h0C20.14,11.43,20.19,11.54,20.25,11.56Z"/><path class="cls-2" d="M37.41,13.08H30v2.15h2.54v7.38h2.31V15.23h2.53Z"/><path class="cls-2" d="M45.73,19a3.77,3.77,0,0,0-7.53,0,3.79,3.79,0,0,0,7.31,1.36h-2.3a1.61,1.61,0,0,1-1.22.5,1.68,1.68,0,0,1-1.57-1h5.23A4.49,4.49,0,0,0,45.73,19Zm-2.32-.82H40.5a1.45,1.45,0,0,1,1.43-1.07A1.43,1.43,0,0,1,43.41,18.13Z"/><path class="cls-2" d="M54.16,19.51h-2.1a1.59,1.59,0,0,1-1.55,1.19A1.62,1.62,0,0,1,48.89,19a1.61,1.61,0,0,1,3.17-.54h2.1a3.69,3.69,0,0,0-7.34.54,3.69,3.69,0,0,0,7.34.55Z"/><path class="cls-2" d="M57.38,16.05V13.12H55.24v9.49h2.24v-4a1.46,1.46,0,0,1,1.41-1.43c.58,0,1.11.42,1.11,1.39v4h2.15v-4c0-1.82-.56-3.35-2.63-3.38A2.67,2.67,0,0,0,57.38,16.05Z"/><path class="cls-2" d="M74.49,22.61V13.18h-2.3v3.56H69.44V13.18h-2.3v9.43h2.3V19h2.75v3.65Z"/><path class="cls-2" d="M80.35,21.87v.74h2.14V15.33H80.24v4A1.38,1.38,0,0,1,79,20.79c-.58,0-1.14-.45-1.14-1.46v-4H75.66v4c0,1.83.57,3.37,2.71,3.37A2.39,2.39,0,0,0,80.35,21.87Z"/><path class="cls-2" d="M87.82,15.2a2.46,2.46,0,0,0-1.9.79V13h-2.1v9.59h2.1v-.73a2.39,2.39,0,0,0,1.93.83c2.3,0,3.5-1.84,3.5-3.84A3.37,3.37,0,0,0,87.82,15.2Zm-.22,5.47a1.76,1.76,0,0,1,0-3.51,1.63,1.63,0,0,1,1.63,1.76A1.64,1.64,0,0,1,87.6,20.67Z"/></svg>