<svg id="Layer_1" data-name="Layer 1" xmlns="http://www.w3.org/2000/svg" xmlns:xlink="http://www.w3.org/1999/xlink" viewBox="0 0 104 32"><defs><style>.cls-1{fill:#fff;}.cls-2,.cls-4{fill:#253361;}.cls-3{mask:url(#mask);}.cls-4,.cls-6{fill-rule:evenodd;}.cls-5{mask:url(#mask-2);}.cls-6{fill:#504aa7;}.cls-7{mask:url(#mask-3);}.cls-8{mask:url(#mask-4);}</style><mask id="mask" x="0" y="6.69" width="9.38" height="9.56" maskUnits="userSpaceOnUse"><g id="mask40_0_1" data-name="mask40 0 1"><path class="cls-1" d="M0,6.69H9.38v9.56H0Z"/></g></mask><mask id="mask-2" x="9.01" y="6.69" width="9.61" height="9.56" maskUnits="userSpaceOnUse"><g id="mask41_0_1" data-name="mask41 0 1"><path class="cls-1" d="M9,6.69h9.61v9.56H9Z"/></g></mask><mask id="mask-3" x="0" y="15.88" width="9.38" height="9.43" maskUnits="userSpaceOnUse"><g id="mask42_0_1" data-name="mask42 0 1"><path class="cls-1" d="M0,15.88H9.38v9.43H0Z"/></g></mask><mask id="mask-4" x="9.01" y="15.88" width="9.61" height="9.43" maskUnits="userSpaceOnUse"><g id="mask43_0_1" data-name="mask43 0 1"><path class="cls-1" d="M9,15.88h9.61v9.43H9Z"/></g></mask></defs><path class="cls-2" d="M29.48,21.72c2.73,0,4.4-1.3,4.4-3.47,0-1.82-1.2-2.9-4.05-3.57-1.76-.41-2.36-.86-2.36-1.56s.67-1.22,1.77-1.22,1.92.63,1.92,1.66h2.51c0-2.31-1.74-3.79-4.46-3.79s-4.29,1.3-4.29,3.4c0,1.87,1.27,3,4,3.56,1.62.34,2.36.82,2.36,1.62s-.69,1.22-1.77,1.22c-1.27,0-2.09-.64-2.09-1.74H24.82C24.82,20.21,26.6,21.72,29.48,21.72Z"/><path class="cls-2" d="M38.74,21.65a4.18,4.18,0,0,0,3.07-1.16l.27,1h1.86V16.3c0-2.28-1.54-3.66-4.12-3.66-2.2,0-3.64,1-4,2.92h2.39a1.5,1.5,0,0,1,1.58-1A1.46,1.46,0,0,1,41.49,16v.39H38.38c-1.79,0-2.94,1-2.94,2.63S36.7,21.65,38.74,21.65Zm-.84-2.77c0-.59.49-1,1.25-1h2.36a2,2,0,0,1-2.2,1.95C38.46,19.86,37.9,19.47,37.9,18.88Z"/><path class="cls-2" d="M49.14,21.65a4.18,4.18,0,0,0,3.07-1.16l.28,1h1.85V16.3c0-2.28-1.54-3.66-4.12-3.66-2.2,0-3.64,1-3.95,2.92h2.39a1.5,1.5,0,0,1,1.58-1A1.46,1.46,0,0,1,51.9,16v.39H48.78c-1.79,0-2.94,1-2.94,2.63S47.1,21.65,49.14,21.65Zm-.84-2.77c0-.59.49-1,1.25-1h2.36a2,2,0,0,1-2.2,1.95C48.86,19.86,48.3,19.47,48.3,18.88Z"/><path class="cls-2" d="M60.8,21.72c2.73,0,4.4-1.3,4.4-3.47,0-1.82-1.2-2.9-4.05-3.57-1.76-.41-2.36-.86-2.36-1.56s.67-1.22,1.77-1.22,1.92.63,1.92,1.66H65c0-2.31-1.74-3.79-4.47-3.79s-4.28,1.3-4.28,3.4c0,1.87,1.27,3,4,3.56,1.62.34,2.36.82,2.36,1.62s-.69,1.22-1.77,1.22c-1.27,0-2.09-.64-2.09-1.74H56.14C56.14,20.21,57.92,21.72,60.8,21.72Z"/><path class="cls-2" d="M78.28,21.49h2.6V10h-2.6v4.41h-4.5V10H71.17V21.49h2.61V16.86h4.5Z"/><path class="cls-2" d="M86.94,21.72a3.66,3.66,0,0,0,2.84-1.2l.26,1h1.85V12.87H89.4v4.5c0,1.36-.74,2.2-1.87,2.2s-1.69-.74-1.69-2v-4.7h-2.5v4.94C83.34,20.21,84.71,21.72,86.94,21.72Z"/><path class="cls-2" d="M99.6,21.72a4.29,4.29,0,0,0,4.4-4.55,4.29,4.29,0,0,0-4.4-4.53,4.34,4.34,0,0,0-2.72.9V9.34H94.39V21.49h1.85l.28-1A4.28,4.28,0,0,0,99.6,21.72Zm-2.82-4.55a2.38,2.38,0,1,1,4.76,0,2.38,2.38,0,1,1-4.76,0Z"/><g class="cls-3"><path class="cls-4" d="M0,6.69H4.66l4.65,4.65V16H4.66L0,11.34Z"/></g><g class="cls-5"><path class="cls-6" d="M9.31,6.69H14l4.66,4.65V16H14L9.31,11.34Z"/></g><g class="cls-7"><path class="cls-6" d="M0,16H4.66l4.65,4.66v4.65H4.66L0,20.66Z"/></g><g class="cls-8"><path class="cls-6" d="M9.31,16H14l4.66,4.66v4.65H14L9.31,20.66Z"/></g></svg>