<svg id="Layer_1" data-name="Layer 1" xmlns="http://www.w3.org/2000/svg" xmlns:xlink="http://www.w3.org/1999/xlink" viewBox="0 0 104 32"><defs><style>.cls-1{fill:#fff;}.cls-2{fill:#4075c4;}.cls-3{mask:url(#mask);}.cls-4{fill:#2b394c;}.cls-5{fill:#2a384c;}</style><mask id="mask" x="-0.01" y="5.95" width="21.65" height="21.51" maskUnits="userSpaceOnUse"><g id="mask16_0_1" data-name="mask16 0 1"><path class="cls-1" d="M0,6H21.64V27.46H0Z"/></g></mask></defs><path class="cls-2" d="M10.66,16.77h0a.6.6,0,0,0,.55.16l9.66-2.72.11,0a.62.62,0,0,0,.31-.55.61.61,0,0,0-.27-.49S16.42,11,16.42,11s-2.1-4.56-2.13-4.6a.61.61,0,0,0-.49-.27.62.62,0,0,0-.55.31.49.49,0,0,0,0,.11c-.21.73-2.71,9.62-2.72,9.66A.58.58,0,0,0,10.66,16.77Z"/><path class="cls-2" d="M18.38,9.92l.07-.07,0,0,0,0,.06-.06,0,0,0,0,.07-.07,0,0,0,0,.06-.07,0,0,0,0L19,9.31a.62.62,0,1,0-.87-.87l-.07.07,0,0,0,0-.07.06,0,0,0,0-.07.07,0,0,0,0-.07.07,0,0,0,0-.07.07a.62.62,0,0,0,.87.87Z"/><path class="cls-2" d="M20.6,6,20.53,6a.08.08,0,0,1,0,0l0,0-.07.07,0,0,0,0-.06.07,0,0,0,0-.07.07,0,0,0,0L20,6.58a.62.62,0,0,0,0,.87.6.6,0,0,0,.86,0l.07-.07,0,0,0,0,.07-.07,0,0,0,0,.07-.06,0,0,0,0L21.33,7l0,0,0,0,.06-.06a.62.62,0,0,0,0-.87A.6.6,0,0,0,20.6,6Z"/><g class="cls-3"><path class="cls-4" d="M21.22,15.47l-.23.06-2.44.69c0,.16,0,.32,0,.49a7.82,7.82,0,1,1-7.82-7.82h.47c.22-.8.47-1.7.75-2.69L12,6a10.74,10.74,0,1,0,9.46,10.67,11.07,11.07,0,0,0-.08-1.3Z"/></g><path class="cls-4" d="M9.5,14.94c.18-.61.46-1.63.93-3.29A5.07,5.07,0,1,0,15.8,17l-3.28.93a2.15,2.15,0,0,1-3.93-1.21A2.18,2.18,0,0,1,9.5,14.94Z"/><path class="cls-5" d="M28.42,13.28h2.84V9.65l2.08,3.63H35.2l2.08-3.63v3.63h2.84V5.64H36.63L34.27,10,31.91,5.64H28.42Z"/><path class="cls-5" d="M43.25,13.39a5.32,5.32,0,0,0,3.28-.91v.8h2.62V10c0-2.5-1.55-3.42-4.23-3.42A13.14,13.14,0,0,0,41,7.29l.85,1.85a13.77,13.77,0,0,1,3-.33c.87,0,1.7,0,1.7.81a6.56,6.56,0,0,0-2.21-.33c-1.91,0-3.88.44-3.88,2.15C40.44,12.85,41.75,13.39,43.25,13.39ZM44,11.64c-.66,0-1-.05-1-.41s.53-.53,1.74-.53a6.94,6.94,0,0,1,1.73.17v.27A6.58,6.58,0,0,1,44,11.64Z"/><path class="cls-5" d="M49.59,13.28H52.2V9.74a3.43,3.43,0,0,1,2.7-.93A6.43,6.43,0,0,1,56.48,9V6.84a6.69,6.69,0,0,0-1.73-.22,2.87,2.87,0,0,0-2.55,1.2V6.73H49.59Z"/><path class="cls-5" d="M56.81,13.28h2.61V11.94L61,10.81l2.2,2.47h3.38L63,9.45l3.58-2.72h-4L59.42,9.07V4.55H56.81Z"/><path class="cls-5" d="M71.1,13.39c2.69,0,4.1-.83,4.43-2.57H73a2.43,2.43,0,0,1-1.86.5c-.72,0-1.45-.18-1.67-.88h6.21c0-2.86-1.74-3.82-4.43-3.82s-4.45,1-4.45,3.39S68.53,13.39,71.1,13.39ZM69.55,9.13c.29-.58,1-.65,1.65-.65s1.35.07,1.64.65Z"/><path class="cls-5" d="M80.21,13.39a13.44,13.44,0,0,0,2.26-.17V11.1a9.49,9.49,0,0,1-1.67.11c-.77,0-1-.32-1-.94V8.92h2.68V6.73H79.79V5l-2.62.65V6.73H75.85V8.92h1.32v2.43C77.17,12.77,78.18,13.39,80.21,13.39Z"/><path class="cls-5" d="M82.79,6.3h2.62V4.55H82.79Zm0,7h2.62V6.73H82.79Z"/><path class="cls-5" d="M85.85,13.28h2.61V9.74a3.22,3.22,0,0,1,2.11-.82c1.18,0,1.58.48,1.58,1.6v2.76h2.62V9.45c0-2.37-1.67-2.83-3.14-2.83a5.34,5.34,0,0,0-3.17,1V6.73H85.85Z"/><path class="cls-5" d="M99.88,16c2.24,0,4.12-1,4.12-3.57V6.73h-2.62v1a3.45,3.45,0,0,0-2.81-1.1c-2,0-3.47,1-3.47,3.17S96.55,13,98.57,13a3.45,3.45,0,0,0,2.81-1.09c0,1.66-.71,2-2,2a19.69,19.69,0,0,1-3.62-.46v2.12A16.76,16.76,0,0,0,99.88,16Zm-.33-5.24c-1.39,0-1.83-.24-1.83-1s.44-1,1.83-1,1.83.24,1.83,1S100.93,10.77,99.55,10.77Z"/><path class="cls-5" d="M28.42,24.09h7a2.18,2.18,0,0,0,2.49-2.26,2.51,2.51,0,0,0-1.14-2,2.29,2.29,0,0,0,.6-1.43c0-1.16-.54-1.94-2.27-1.94H28.42Zm2.84-4.95v-.83h2.62c.28,0,.63,0,.63.42s-.35.41-.63.41Zm0,2.88v-.81h3.16c.29,0,.64,0,.64.41s-.35.4-.64.4Z"/><path class="cls-5" d="M41,26.82h2.83l3.72-9.27H44.67L42.84,22.1,41,17.55H38.11l2.73,6.54H42Z"/><path class="cls-5" d="M52.07,24.2A13.45,13.45,0,0,0,54.33,24V21.91a9.37,9.37,0,0,1-1.67.11c-.76,0-1-.32-1-.94V19.73h2.67V17.55H51.66V15.8L49,16.46v1.09H47.72v2.18H49v2.43C49,23.58,50,24.2,52.07,24.2Z"/><path class="cls-5" d="M58.89,24.2c2.7,0,4.1-.83,4.43-2.56H60.76a2.51,2.51,0,0,1-1.87.49c-.72,0-1.45-.18-1.67-.87h6.21c0-2.86-1.73-3.82-4.43-3.82s-4.45,1-4.45,3.38S56.33,24.2,58.89,24.2ZM57.34,20c.3-.59.95-.66,1.65-.66s1.35.07,1.65.66Z"/><path class="cls-5" d="M68.31,24.2c2.47,0,4.22-.32,4.22-2.31,0-1.71-1.65-1.87-4.22-2-1.66-.09-1.94-.07-1.94-.35s.39-.25,1.72-.25c1.16,0,1.6,0,1.6.35h2.62c0-1.89-1.69-2.2-4.11-2.2s-4.44.31-4.44,2.18c0,1.67,1.32,1.9,4.33,2,1.57.06,1.82,0,1.82.36s-.25.35-1.71.35-1.93-.15-1.93-.52H63.65C63.65,23.88,65.83,24.2,68.31,24.2Z"/></svg>