<svg id="Layer_1" data-name="Layer 1" xmlns="http://www.w3.org/2000/svg" xmlns:xlink="http://www.w3.org/1999/xlink" viewBox="0 0 104 32"><defs><style>.cls-1{fill:#fff;}.cls-2{mask:url(#mask);}.cls-3{mask:url(#mask-2);}.cls-4{fill:#03989e;}</style><mask id="mask" x="0" y="3.05" width="25.93" height="25.81" maskUnits="userSpaceOnUse"><g id="mask13_0_1" data-name="mask13 0 1"><path class="cls-1" d="M0,3.05H25.93V28.87H0Z"/></g></mask><mask id="mask-2" x="0" y="3.05" width="25.9" height="25.9" maskUnits="userSpaceOnUse"><g id="mask14_0_1" data-name="mask14 0 1"><path class="cls-1" d="M19.05,18.35l3.37,2a.74.74,0,0,1,.27,1,12.56,12.56,0,0,1-4.46,4.44,12.21,12.21,0,0,1-6.06,1.6c-.15,0-.35,0-.58,0h0a2.56,2.56,0,0,1-1,1.12,2.6,2.6,0,0,1-3.81-2.93A2.57,2.57,0,0,1,7.91,24a2.64,2.64,0,0,1,2-.28A2.68,2.68,0,0,1,11.48,25a3,3,0,0,1,.32.92h.37a10.73,10.73,0,0,0,5.29-1.4A11,11,0,0,0,21,21.25l-2.68-1.57a8.14,8.14,0,0,1-.77.9,7.57,7.57,0,0,1-10.69,0,8.72,8.72,0,0,1-.82-1l-3.4,1.91a.76.76,0,0,1-1-.29h0A12.72,12.72,0,0,1,.4,18.29,12.08,12.08,0,0,1,0,15.22a12,12,0,0,1,2-6.6,2.59,2.59,0,0,1-.44-1.47A2.59,2.59,0,0,1,4.1,4.56,2.56,2.56,0,0,1,6,5.32,2.6,2.6,0,0,1,4.1,9.76a2.53,2.53,0,0,1-.94-.18A10.27,10.27,0,0,0,2,12a10.7,10.7,0,0,0-.16,5.91,11.19,11.19,0,0,0,.68,1.86l2.71-1.51a7.52,7.52,0,0,1-.64-3,7.52,7.52,0,0,1,6.79-7.5V3.81a.77.77,0,0,1,.76-.76A12.17,12.17,0,0,1,23,9.69a2.39,2.39,0,0,1,1.48.33h0a2.64,2.64,0,0,1,1.2,1.59,2.52,2.52,0,0,1-.26,2,2.55,2.55,0,0,1-1.58,1.22,2.63,2.63,0,0,1-2-.25A2.7,2.7,0,0,1,20.68,13,2.59,2.59,0,0,1,21,11h0a2.31,2.31,0,0,1,.62-.74,10.71,10.71,0,0,0-3.67-4,10.59,10.59,0,0,0-5-1.64V7.72a7.52,7.52,0,0,1,6.78,7.5A7.39,7.39,0,0,1,19.05,18.35ZM16.44,11a6,6,0,1,0,1.76,4.25A6,6,0,0,0,16.44,11Zm-4.27,1.17a3.07,3.07,0,0,1,2.18,5.26,3,3,0,0,1-4.35,0,3.09,3.09,0,0,1,2.17-5.26Zm1.1,2a1.5,1.5,0,0,0-1.1-.46,1.57,1.57,0,0,0-1.54,1.54,1.48,1.48,0,0,0,.46,1.1,1.46,1.46,0,0,0,1.08.46,1.5,1.5,0,0,0,1.1-.46,1.48,1.48,0,0,0,.46-1.1A1.46,1.46,0,0,0,13.27,14.14Zm-9.17-8a1,1,0,0,0-.75.32A1,1,0,0,0,3,7.15a1.11,1.11,0,0,0,.32.77,1,1,0,0,0,.75.32A1.11,1.11,0,0,0,5.19,7.15a1,1,0,0,0-.33-.74A1,1,0,0,0,4.1,6.09ZM8.3,26.78a1,1,0,0,0,.65.51,1.08,1.08,0,0,0,.81-.11,1.07,1.07,0,0,0,.5-.64,1.13,1.13,0,0,0-.1-.83,1.17,1.17,0,0,0-.66-.5A1.08,1.08,0,0,0,8.19,26,1,1,0,0,0,8.3,26.78Zm15.83-14a1.08,1.08,0,0,0,.11-.81,1,1,0,0,0-.51-.65,1.07,1.07,0,0,0-.81-.11,1,1,0,0,0-.65.5,1,1,0,0,0-.11.81,1.17,1.17,0,0,0,.5.66,1.09,1.09,0,0,0,.83.1A1,1,0,0,0,24.13,12.81Z"/></g></mask></defs><g class="cls-2"><g class="cls-3"><path class="cls-4" d="M0,3.05V29H25.9V3.05Z"/></g></g><path d="M41,10.93v1.89h-3v7.94H35.85V12.82h-3V10.93Z"/><path d="M42,17.09a4.47,4.47,0,0,1,.31-1.74,3.64,3.64,0,0,1,.8-1.24,3.38,3.38,0,0,1,1.13-.75,3.67,3.67,0,0,1,1.34-.26,3.28,3.28,0,0,1,2.5,1A4,4,0,0,1,49,16.93c0,.12,0,.26,0,.41s0,.27,0,.39H44.12a1.44,1.44,0,0,0,.61,1,2.49,2.49,0,0,0,1.45.38A6.2,6.2,0,0,0,47.32,19a4.72,4.72,0,0,0,.92-.26l.28,1.71a2.61,2.61,0,0,1-.45.18c-.19,0-.41.1-.64.14l-.74.11a7.14,7.14,0,0,1-.8,0,4.9,4.9,0,0,1-1.75-.29,3.73,3.73,0,0,1-1.23-.82,3.33,3.33,0,0,1-.73-1.23A5,5,0,0,1,42,17.09Zm5-.81a2.36,2.36,0,0,0-.1-.53,1.22,1.22,0,0,0-.24-.45,1.49,1.49,0,0,0-.41-.33,1.43,1.43,0,0,0-.62-.12A1.4,1.4,0,0,0,45,15a1.08,1.08,0,0,0-.43.32,1.6,1.6,0,0,0-.27.46,3.16,3.16,0,0,0-.13.53Z"/><path d="M50.23,17a4.49,4.49,0,0,1,.26-1.52,3.7,3.7,0,0,1,.77-1.25,3.42,3.42,0,0,1,1.2-.84,4,4,0,0,1,1.62-.32,5.22,5.22,0,0,1,1.09.11,5.71,5.71,0,0,1,1,.3L55.7,15.2c-.2-.07-.42-.14-.66-.2a3.77,3.77,0,0,0-.79-.08,1.68,1.68,0,0,0-1.4.58A2.44,2.44,0,0,0,52.39,17a2.53,2.53,0,0,0,.44,1.57,1.81,1.81,0,0,0,1.5.55,6.33,6.33,0,0,0,.83-.07,3.74,3.74,0,0,0,.8-.23l.31,1.73a5.9,5.9,0,0,1-.93.27,6.51,6.51,0,0,1-1.22.11,4.66,4.66,0,0,1-1.76-.3,3.43,3.43,0,0,1-1.21-.83,3.12,3.12,0,0,1-.69-1.25A5.09,5.09,0,0,1,50.23,17Z"/><path d="M57.68,20.76V10.1l2.11-.35v3.58c.15-.05.33-.09.55-.14a3.66,3.66,0,0,1,.65-.06,4.11,4.11,0,0,1,1.51.25,2.31,2.31,0,0,1,1,.7A2.77,2.77,0,0,1,64,15.16a5.92,5.92,0,0,1,.15,1.39v4.21H62v-4a2.81,2.81,0,0,0-.27-1.44,1,1,0,0,0-1-.43,3.1,3.1,0,0,0-.54.05l-.45.11v5.67Z"/><path d="M76.88,10.93v1.89h-3v7.94H71.7V12.82h-3V10.93Z"/><path d="M81,19.29h.6a4,4,0,0,0,.46-.05v-1.6l-.39-.06-.47,0a4.92,4.92,0,0,0-.56,0,1.47,1.47,0,0,0-.46.13.91.91,0,0,0-.31.27.75.75,0,0,0-.11.43.73.73,0,0,0,.33.69A1.81,1.81,0,0,0,81,19.29Zm-.17-6.19a4.87,4.87,0,0,1,1.56.22,2.32,2.32,0,0,1,1,.61,2.27,2.27,0,0,1,.54,1,4.93,4.93,0,0,1,.16,1.26v4.4c-.31.07-.73.14-1.27.23a12.06,12.06,0,0,1-2,.14,6.53,6.53,0,0,1-1.31-.13,2.91,2.91,0,0,1-1-.41,2,2,0,0,1-.65-.77,2.62,2.62,0,0,1-.23-1.15,2.11,2.11,0,0,1,.27-1.1,2,2,0,0,1,.7-.73,3.37,3.37,0,0,1,1-.38,5,5,0,0,1,1.17-.13c.28,0,.53,0,.74,0a4.23,4.23,0,0,1,.52.09v-.2a1.19,1.19,0,0,0-.33-.86,1.58,1.58,0,0,0-1.14-.33,7.45,7.45,0,0,0-1.06.08,3.92,3.92,0,0,0-.91.22l-.27-1.7.46-.12c.18-.05.38-.08.6-.12l.69-.08A6,6,0,0,1,80.83,13.1Z"/><path d="M89,20.9a5.43,5.43,0,0,1-1.5-.19,2.27,2.27,0,0,1-.91-.52,1.75,1.75,0,0,1-.45-.81A4.43,4.43,0,0,1,86,18.31V10.1l2.11-.35v8.13a2.64,2.64,0,0,0,0,.51,1,1,0,0,0,.16.39.93.93,0,0,0,.35.25,1.91,1.91,0,0,0,.61.13Z"/><path d="M92.59,16c.21-.23.42-.47.65-.71s.44-.49.64-.73l.59-.69L95,13.3h2.51c-.5.58-1,1.13-1.47,1.66S95,16,94.42,16.58a8.56,8.56,0,0,1,.88.91c.31.36.6.72.88,1.1s.54.76.78,1.14.44.72.6,1H95.13c-.15-.24-.32-.52-.51-.81s-.41-.6-.62-.89-.45-.59-.69-.86a5.21,5.21,0,0,0-.72-.7v3.26H90.48V10.1l2.11-.35Z"/><path d="M100.83,19.24a2.07,2.07,0,0,0,.83-.11.44.44,0,0,0,.24-.44.54.54,0,0,0-.31-.45,6.75,6.75,0,0,0-1-.43,9.76,9.76,0,0,1-.9-.38,2.6,2.6,0,0,1-.68-.48,1.93,1.93,0,0,1-.45-.66,2.5,2.5,0,0,1-.15-.92,2,2,0,0,1,.78-1.66,3.44,3.44,0,0,1,2.14-.61,6.94,6.94,0,0,1,1.31.12,6.22,6.22,0,0,1,1,.26l-.36,1.65a6,6,0,0,0-.81-.22,4.11,4.11,0,0,0-1-.11c-.66,0-1,.19-1,.55a.61.61,0,0,0,0,.24.58.58,0,0,0,.17.19,2.12,2.12,0,0,0,.35.19,3.46,3.46,0,0,0,.56.24,10.29,10.29,0,0,1,1.15.5,2.8,2.8,0,0,1,.71.54,1.64,1.64,0,0,1,.37.65,2.86,2.86,0,0,1,.11.82,1.9,1.9,0,0,1-.83,1.67,4.12,4.12,0,0,1-2.35.57,6.91,6.91,0,0,1-1.65-.17,7.31,7.31,0,0,1-.92-.28l.36-1.72a7,7,0,0,0,1.1.33A5.48,5.48,0,0,0,100.83,19.24Z"/></svg>