<svg id="Layer_1" data-name="Layer 1" xmlns="http://www.w3.org/2000/svg" viewBox="0 0 104 32"><defs><style>.cls-1{fill:#1655f7;}.cls-2{fill:#fff;}</style></defs><circle class="cls-1" cx="15.37" cy="16" r="15.37"/><path class="cls-2" d="M25.35,16a10,10,0,1,1-10-10A10,10,0,0,1,25.35,16Zm-17,0a7,7,0,1,0,7-7A7,7,0,0,0,8.39,16Z"/><circle class="cls-2" cx="15.37" cy="16" r="3.96"/><path class="cls-1" d="M38.1,12.08h3.14v9.66h2.95V12.08h3.13V9.78H38.1Zm8.55,6a3.68,3.68,0,0,0,1.13,2.85,4.52,4.52,0,0,0,3.18,1,4.67,4.67,0,0,0,2.5-.57,3,3,0,0,0,1.28-1.57l-2.36-.6a1.51,1.51,0,0,1-.55.6,1.7,1.7,0,0,1-.89.21,1.35,1.35,0,0,1-1.12-.5,2.28,2.28,0,0,1-.38-1.42V17.5a1.89,1.89,0,0,1,.35-1.15,1.23,1.23,0,0,1,1.05-.48,1.25,1.25,0,0,1,.95.33,1.18,1.18,0,0,1,.31.83v0h-4v1.38h6.66v-.75a3.66,3.66,0,0,0-1-2.75,3.93,3.93,0,0,0-2.91-1,4.36,4.36,0,0,0-3.07,1,3.63,3.63,0,0,0-1.14,2.81Zm8.77,0a3.68,3.68,0,0,0,1.13,2.84,4.33,4.33,0,0,0,3,1,4.74,4.74,0,0,0,2.94-.8,2.78,2.78,0,0,0,1.07-2.27v-.19H60.9v.11a1.27,1.27,0,0,1-.32.88,1.2,1.2,0,0,1-.92.32,1.26,1.26,0,0,1-1.06-.48,2.33,2.33,0,0,1-.35-1.35v-.45a2.14,2.14,0,0,1,.36-1.34,1.27,1.27,0,0,1,1-.46,1.16,1.16,0,0,1,.9.33,1.21,1.21,0,0,1,.31.89v.1h2.71v-.17a2.93,2.93,0,0,0-1.09-2.33,4.68,4.68,0,0,0-2.92-.79,4.34,4.34,0,0,0-3,1,3.69,3.69,0,0,0-1.12,2.84Zm9.16,3.67h2.8V17a1.54,1.54,0,0,1,.5-.67,1.21,1.21,0,0,1,.76-.26,1,1,0,0,1,.75.28,1.21,1.21,0,0,1,.28.91v4.5h2.81v-5a2.7,2.7,0,0,0-.72-2.11A2.73,2.73,0,0,0,69.87,14a3.3,3.3,0,0,0-1.58.34,2.08,2.08,0,0,0-.91.87V9.75h-2.8Zm8.92-4.08h5.13V15.43H73.5Zm6-1.58a6.35,6.35,0,0,0,1.31,4.44,4.71,4.71,0,0,0,3.59,1.39,4.83,4.83,0,0,0,3.28-1,3.58,3.58,0,0,0,1.16-2.83v-.88H86.09V18a2.31,2.31,0,0,1-.41,1.51,1.48,1.48,0,0,1-1.2.48,1.63,1.63,0,0,1-1.41-.74,4.13,4.13,0,0,1-.5-2.29v-2.3a4.18,4.18,0,0,1,.49-2.27,1.61,1.61,0,0,1,1.39-.71,1.59,1.59,0,0,1,1.23.45,1.9,1.9,0,0,1,.41,1.31v1h2.74v-.72a3.8,3.8,0,0,0-1.16-3,4.86,4.86,0,0,0-3.27-1A4.79,4.79,0,0,0,80.85,11c-.9.9-1.36,2.39-1.36,4.46ZM90,21.74h2.93v-12H90Zm4.19-5.66c0,2.05.46,3.53,1.38,4.45a5.24,5.24,0,0,0,7.09,0c.92-.92,1.38-2.4,1.38-4.45v-.64A6.09,6.09,0,0,0,102.62,11a5.24,5.24,0,0,0-7.09,0,6.09,6.09,0,0,0-1.38,4.44Zm3,.84v-2.3a4,4,0,0,1,.51-2.31,1.78,1.78,0,0,1,2.8,0,4,4,0,0,1,.51,2.31v2.3a4,4,0,0,1-.51,2.33,1.77,1.77,0,0,1-2.8,0A4,4,0,0,1,97.16,16.92Z"/></svg>