<svg id="Layer_1" data-name="Layer 1" xmlns="http://www.w3.org/2000/svg" xmlns:xlink="http://www.w3.org/1999/xlink" viewBox="0 0 104 32"><defs><style>.cls-1{fill:#fff;}.cls-2{mask:url(#mask);}.cls-3{fill:#5e17eb;}.cls-4{mask:url(#mask-2);}.cls-5{fill:#3b3b3b;}</style><mask id="mask" x="15.38" y="3.24" width="25.31" height="25.46" maskUnits="userSpaceOnUse"><g id="mask0_0_1" data-name="mask0 0 1"><path class="cls-1" d="M15.39,3.24H40.68V28.69H15.39Z"/></g></mask><mask id="mask-2" x="22.96" y="0.22" width="10.08" height="31.56" maskUnits="userSpaceOnUse"><g id="mask1_0_1" data-name="mask1 0 1"><path class="cls-1" d="M23,.22H33.05V31.78H23Z"/></g></mask></defs><g class="cls-2"><path class="cls-3" d="M18.92,16a9.34,9.34,0,0,0,.16,1.75,10.1,10.1,0,0,0,.5,1.68,9.19,9.19,0,0,0,1.91,2.93v4.49c-.29-.18-.57-.36-.85-.56s-.54-.41-.8-.63-.5-.44-.74-.68-.47-.49-.69-.75-.42-.52-.62-.79-.39-.56-.56-.85a9.58,9.58,0,0,1-.49-.89,8.42,8.42,0,0,1-.42-.92c-.13-.31-.24-.63-.35-1s-.19-.65-.26-1-.14-.66-.19-1-.09-.67-.11-1,0-.67,0-1,0-.68.06-1,.07-.67.13-1,.13-.66.22-1,.18-.65.29-1,.23-.64.37-.95.28-.61.44-.91a9.52,9.52,0,0,1,.52-.87A9.49,9.49,0,0,1,18,8.29c.21-.27.42-.53.65-.78s.46-.5.7-.73.5-.45.77-.66a9.53,9.53,0,0,1,.81-.61c.28-.19.57-.37.86-.53a9.59,9.59,0,0,1,.9-.47q.45-.21.93-.39c.32-.12.64-.23,1-.32s.65-.17,1-.23.66-.12,1-.16.68-.07,1-.08V6.87A8.6,8.6,0,0,0,26.7,7c-.28,0-.57.1-.85.17s-.55.15-.83.25-.53.2-.8.33a7.88,7.88,0,0,0-.76.4,7,7,0,0,0-.73.47c-.24.17-.46.34-.68.53a7,7,0,0,0-.62.6q-.3.32-.57.66c-.18.23-.34.46-.5.71a6.93,6.93,0,0,0-.43.75c-.13.26-.25.52-.36.79a7.92,7.92,0,0,0-.28.82,8.59,8.59,0,0,0-.21.84c0,.29-.09.57-.12.86A8.44,8.44,0,0,0,18.92,16Zm9.43,12.67V25.13l.66,0,.66-.1.65-.14.63-.19a6.62,6.62,0,0,0,.62-.24,4.11,4.11,0,0,0,.6-.28c.2-.1.4-.2.59-.32s.37-.23.55-.36l.53-.41c.17-.14.33-.29.49-.44s.32-.31.47-.48a5.17,5.17,0,0,0,.42-.51,6.55,6.55,0,0,0,.39-.53c.13-.19.24-.38.35-.57s.21-.39.31-.59.18-.41.26-.61.16-.42.22-.63.12-.43.17-.64.09-.44.13-.66.06-.44.07-.66,0-.44,0-.66,0-.45,0-.67,0-.44-.06-.66S37,14.3,37,14.08s-.1-.43-.16-.64l-.21-.63c-.08-.21-.16-.42-.26-.62a6.54,6.54,0,0,0-.3-.59,5.36,5.36,0,0,0-.34-.57c-.12-.19-.25-.37-.38-.55a5.17,5.17,0,0,0-.42-.51c-.15-.17-.3-.33-.46-.49V5.06c.3.17.59.36.87.55s.55.41.81.62.52.45.76.69.48.48.71.74.43.52.64.8.39.56.57.85.35.59.51.89.3.61.43.93.25.63.36,1,.19.65.27,1,.15.67.2,1,.09.68.11,1a8.86,8.86,0,0,1,0,1c0,.34,0,.68,0,1s-.07.68-.13,1-.13.67-.22,1-.18.66-.29,1-.24.64-.38,1a8.68,8.68,0,0,1-.45.92c-.16.3-.33.59-.52.88a9.75,9.75,0,0,1-.59.84q-.31.41-.66.78a9.93,9.93,0,0,1-.72.73,8.21,8.21,0,0,1-.77.67c-.27.21-.54.42-.83.61s-.57.36-.87.53-.6.32-.91.46-.63.27-.95.39-.64.22-1,.31-.66.17-1,.23-.67.11-1,.15-.68.05-1,.06Z"/></g><g class="cls-4"><path class="cls-3" d="M23,28.9V9.66l6.18,4.62V.25L33,3.2V22.44l-6.17-4.62V31.75Z"/></g><path class="cls-5" d="M50.35,5.62a3.72,3.72,0,0,0-3.87,4,3.84,3.84,0,0,0,4,4,5.66,5.66,0,0,0,3-.91c.2-.12.24-.27.13-.4l-.93-1.25a.24.24,0,0,0-.37-.08,3.45,3.45,0,0,1-1.79.56A1.58,1.58,0,0,1,48.86,10h4.91c.28,0,.33-.12.33-.38C54.1,7.15,52.63,5.62,50.35,5.62Zm.07,1.88a1.14,1.14,0,0,1,1.23,1H49A1.41,1.41,0,0,1,50.42,7.5Z"/><path class="cls-5" d="M59.77,13.47A.24.24,0,0,0,60,13.2V5.57h2.05a.25.25,0,0,0,.28-.27V3.53a.25.25,0,0,0-.28-.28H55.24a.25.25,0,0,0-.27.28V5.3a.24.24,0,0,0,.27.27H57.3V13.2a.24.24,0,0,0,.27.27Z"/><path class="cls-5" d="M67.14,5.62a3.73,3.73,0,0,0-3.88,4,3.84,3.84,0,0,0,4,4,5.69,5.69,0,0,0,3.06-.91c.19-.12.23-.27.12-.4l-.93-1.25a.23.23,0,0,0-.36-.08,3.48,3.48,0,0,1-1.8.56A1.58,1.58,0,0,1,65.64,10h4.92c.27,0,.32-.12.32-.38C70.88,7.15,69.41,5.62,67.14,5.62ZM67.2,7.5a1.14,1.14,0,0,1,1.23,1H65.77A1.39,1.39,0,0,1,67.2,7.5Z"/><path class="cls-5" d="M76.34,13.64a4.51,4.51,0,0,0,2.93-1c.13-.11.11-.23,0-.37L78,11c-.14-.13-.25-.1-.38,0a1.83,1.83,0,0,1-3.09-1.39,1.81,1.81,0,0,1,1.83-1.89,1.75,1.75,0,0,1,1.26.5.25.25,0,0,0,.38,0L79.24,7a.25.25,0,0,0,0-.4,4.52,4.52,0,0,0-2.9-1,4,4,0,1,0,0,8Z"/><path class="cls-5" d="M83,13.47a.25.25,0,0,0,.28-.27V9.3a1.5,1.5,0,0,1,1.51-1.6c.93,0,1.38.7,1.38,1.61V13.2a.24.24,0,0,0,.27.27h1.93a.25.25,0,0,0,.28-.27V8.83c0-1.3-.45-3.21-2.9-3.21a3.49,3.49,0,0,0-2.47,1V3.53A.25.25,0,0,0,83,3.25H81a.25.25,0,0,0-.27.28V13.2a.24.24,0,0,0,.27.27Z"/><path class="cls-5" d="M49.33,28.67a.24.24,0,0,0,.27-.27V18.73a.25.25,0,0,0-.27-.28H47.15a.25.25,0,0,0-.27.28V28.4a.24.24,0,0,0,.27.27Z"/><path class="cls-5" d="M56.5,20.82A4.26,4.26,0,0,0,53.67,22l-.26-.74a.31.31,0,0,0-.3-.23H51.82a.24.24,0,0,0-.27.27V28.4a.24.24,0,0,0,.27.27h1.94A.24.24,0,0,0,54,28.4V24.5a1.5,1.5,0,0,1,1.51-1.6c.92,0,1.38.73,1.38,1.61V28.4a.24.24,0,0,0,.27.27h1.94a.24.24,0,0,0,.27-.27V24C59.4,22.75,59,20.82,56.5,20.82Z"/><path class="cls-5" d="M64.46,28.84a5.23,5.23,0,0,0,1.26-.14.26.26,0,0,0,.21-.34L65.59,27a.26.26,0,0,0-.34-.2,1.68,1.68,0,0,1-.47.06c-.39,0-.66-.16-.66-.58V22.9h1.23a.25.25,0,0,0,.28-.27V21.26a.25.25,0,0,0-.28-.27H64.12V18.73a.25.25,0,0,0-.28-.28H61.91a.25.25,0,0,0-.28.28V21H61a.24.24,0,0,0-.27.27v1.37a.24.24,0,0,0,.27.27h.61v3.51C61.63,28,62.77,28.84,64.46,28.84Z"/><path class="cls-5" d="M70.94,20.82a3.72,3.72,0,0,0-3.87,4,3.84,3.84,0,0,0,4,4,5.66,5.66,0,0,0,3-.91c.19-.11.23-.27.13-.4l-.93-1.25A.24.24,0,0,0,73,26.2a3.46,3.46,0,0,1-1.8.56,1.59,1.59,0,0,1-1.73-1.55h4.92c.27,0,.33-.12.33-.38C74.69,22.35,73.22,20.82,70.94,20.82ZM71,22.71a1.13,1.13,0,0,1,1.23,1H69.57A1.41,1.41,0,0,1,71,22.71Z"/><path class="cls-5" d="M79,28.84a5.17,5.17,0,0,0,1.26-.14.26.26,0,0,0,.21-.34L80.11,27a.26.26,0,0,0-.34-.2,1.64,1.64,0,0,1-.47.06c-.39,0-.66-.16-.66-.58V18.73a.25.25,0,0,0-.28-.28H76.43a.25.25,0,0,0-.27.28v7.68C76.16,28,77.29,28.84,79,28.84Z"/></svg>