<svg id="Layer_1" data-name="Layer 1" xmlns="http://www.w3.org/2000/svg" xmlns:xlink="http://www.w3.org/1999/xlink" viewBox="0 0 104 32"><defs><style>.cls-1{fill:#fff;}.cls-2{fill:#17a353;}.cls-3{mask:url(#mask);}.cls-4{fill:#85c536;}.cls-5{mask:url(#mask-2);}.cls-6{fill:#f06f25;}.cls-7{fill:#eb1f38;}.cls-8{mask:url(#mask-3);}.cls-9{fill:#ea097f;}.cls-10{fill:#98198e;}.cls-11{mask:url(#mask-4);}.cls-12{fill:#323292;}.cls-13{mask:url(#mask-5);}.cls-14{fill:#18abe3;}.cls-15{fill:#474343;}</style><mask id="mask" x="6.76" y="20.67" width="5.11" height="4.38" maskUnits="userSpaceOnUse"><g id="mask31_0_1" data-name="mask31 0 1"><path class="cls-1" d="M6.76,20.67h5.11v4.38H6.76Z"/></g></mask><mask id="mask-2" x="10.91" y="20.67" width="6.71" height="4.38" maskUnits="userSpaceOnUse"><g id="mask32_0_1" data-name="mask32 0 1"><path class="cls-1" d="M10.91,20.67h6.71v4.38H10.91Z"/></g></mask><mask id="mask-3" x="16.35" y="11.09" width="4.55" height="6.07" maskUnits="userSpaceOnUse"><g id="mask33_0_1" data-name="mask33 0 1"><path class="cls-1" d="M16.35,11.09h4.54v6.07H16.35Z"/></g></mask><mask id="mask-4" x="4.2" y="6.95" width="6.39" height="4.46" maskUnits="userSpaceOnUse"><g id="mask34_0_1" data-name="mask34 0 1"><path class="cls-1" d="M4.2,7h6.39v4.46H4.2Z"/></g></mask><mask id="mask-5" x="0" y="12.05" width="4.52" height="5.11" maskUnits="userSpaceOnUse"><g id="mask35_0_1" data-name="mask35 0 1"><path class="cls-1" d="M0,12.05H4.52v5.11H0Z"/></g></mask></defs><path class="cls-2" d="M4.34,17.69a7.63,7.63,0,0,0,2,4.8l.3-.29a1,1,0,0,1-.07-.39,1.2,1.2,0,0,1,1.2-1.19,1.23,1.23,0,0,1,.39.07l.49-.48A4.45,4.45,0,0,1,7.6,17.69h-1a.89.89,0,0,0,.27-.62.88.88,0,0,0-1.75,0,.88.88,0,0,0,.26.62Z"/><g class="cls-3"><path class="cls-4" d="M7.4,22.59l-.47.47a7.77,7.77,0,0,0,4.85,2v-.61a1.19,1.19,0,0,1,0-2.35v-.26a4.55,4.55,0,0,1-2.55-1l-.66.66A.87.87,0,1,0,7.4,22.59Z"/></g><g class="cls-5"><path class="cls-6" d="M12,24.13a.85.85,0,0,0,.63-.27v1.19a7.82,7.82,0,0,0,4.86-2l-.29-.28a1.16,1.16,0,0,1-.69.22,1.19,1.19,0,0,1-1.2-1.19,1.15,1.15,0,0,1,.22-.68l-.35-.35a4.53,4.53,0,0,1-2.55,1v.84A.85.85,0,0,0,12,22.4a.87.87,0,1,0,0,1.73Z"/></g><path class="cls-7" d="M18.23,18.26a1.2,1.2,0,0,1-1-.57h-.42a4.52,4.52,0,0,1-1.06,2.52l.74.74a.86.86,0,0,0-.86.86.88.88,0,0,0,1.75,0l.67.67a7.69,7.69,0,0,0,2-4.8h-.79A1.21,1.21,0,0,1,18.23,18.26Z"/><g class="cls-8"><path class="cls-9" d="M18.53,12.09A1.2,1.2,0,0,1,16.9,13.2l-.33.33a4.45,4.45,0,0,1,1.06,2.52h.59a1.11,1.11,0,0,0,0,.19.88.88,0,0,0,1.75,0,1.11,1.11,0,0,0,0-.19h1a7.74,7.74,0,0,0-2-4.8l-.43.42A1.16,1.16,0,0,1,18.53,12.09Z"/></g><path class="cls-10" d="M13.46,8.77a1.19,1.19,0,0,1-.86,1.14v.7a4.58,4.58,0,0,1,2.55,1l.53-.52a.88.88,0,0,0,1.68-.34.88.88,0,0,0-.53-.8l.63-.62a7.87,7.87,0,0,0-4.86-2v.24A1.19,1.19,0,0,1,13.46,8.77Z"/><g class="cls-11"><path class="cls-12" d="M5.2,9.16a1.19,1.19,0,0,1,1.2,1.19,1.17,1.17,0,0,1-.12.52l.35.34a4.61,4.61,0,0,1,2.55-1V9.06a1,1,0,0,0,.47.14.87.87,0,1,0,0-1.74.86.86,0,0,0-.47.14V7a7.77,7.77,0,0,0-4.85,2l.35.34A1.17,1.17,0,0,1,5.2,9.16Z"/></g><g class="cls-13"><path class="cls-14" d="M1.6,15.88a1.21,1.21,0,0,1,1.19,1h.47a4.48,4.48,0,0,1,1.06-2.52l-.62-.6a.88.88,0,0,0,.64-.84.88.88,0,0,0-1.72-.23L2,12.08a7.68,7.68,0,0,0-2,4.8H.42A1.2,1.2,0,0,1,1.6,15.88Z"/></g><path class="cls-2" d="M9,16.35a3.06,3.06,0,0,0,.1,2.11l.15-.07a.45.45,0,0,1,0-.16.49.49,0,0,1,.63-.29l.14.08.25-.12a1.83,1.83,0,0,1-.05-1.11l-.41-.14a.34.34,0,0,0,.19-.2A.35.35,0,0,0,9.84,16a.35.35,0,0,0-.44.48Z"/><path class="cls-4" d="M9.51,18.64l-.25.12a3.17,3.17,0,0,0,1.58,1.42l.09-.23a.48.48,0,0,1,.33-.9l0-.1a1.83,1.83,0,0,1-.83-.75l-.34.16a.37.37,0,0,0-.24-.3.35.35,0,0,0-.45.22A.34.34,0,0,0,9.51,18.64Z"/><path class="cls-6" d="M11,19.85a.34.34,0,0,0,.28,0l-.16.45a3.12,3.12,0,0,0,2.13-.1l-.07-.14a.57.57,0,0,1-.29,0,.48.48,0,0,1-.3-.62.47.47,0,0,1,.18-.23L12.73,19a1.86,1.86,0,0,1-1.12,0l-.12.32a.39.39,0,0,0-.21-.19.36.36,0,0,0-.45.21A.34.34,0,0,0,11,19.85Z"/><path class="cls-7" d="M14.26,18.46A.47.47,0,0,1,14,18.1L13.78,18a1.88,1.88,0,0,1-.75.83l.18.38a.36.36,0,0,0-.45.21.35.35,0,0,0,.21.45.36.36,0,0,0,.46-.21l.16.35A3.12,3.12,0,0,0,15,18.49l-.3-.11A.49.49,0,0,1,14.26,18.46Z"/><path class="cls-9" d="M15.23,16.14a.49.49,0,0,1-.63.29l-.15-.09-.17.08a1.83,1.83,0,0,1,.05,1.11l.23.08,0,.07a.35.35,0,0,0,.21.45.36.36,0,0,0,.46-.21s0-.05,0-.08l.36.13a3.07,3.07,0,0,0-.1-2.11l-.22.11A.55.55,0,0,1,15.23,16.14Z"/><path class="cls-10" d="M13.75,14.17a.47.47,0,0,1-.48.32l-.1.27a1.88,1.88,0,0,1,.83.75l.27-.13a.35.35,0,0,0,.24.31.35.35,0,0,0,.45-.21.36.36,0,0,0-.09-.38L15.2,15a3.17,3.17,0,0,0-1.58-1.42l0,.09A.47.47,0,0,1,13.75,14.17Z"/><path class="cls-12" d="M10.54,13.2a.49.49,0,0,1,.29.62.57.57,0,0,1-.12.18l.09.18a1.86,1.86,0,0,1,1.12,0l.15-.43a.35.35,0,0,0,.17.12.36.36,0,0,0,.45-.21.34.34,0,0,0-.21-.45.35.35,0,0,0-.2,0l.09-.25a3.27,3.27,0,0,0-2.14.1l.09.18A.58.58,0,0,1,10.54,13.2Z"/><path class="cls-14" d="M8.22,15.28a.5.5,0,0,1,.32.55l.18.06a1.86,1.86,0,0,1,.75-.82l-.15-.32a.34.34,0,0,0,.36-.23.35.35,0,0,0-.21-.45.36.36,0,0,0-.41.13l-.15-.32a3.14,3.14,0,0,0-1.44,1.57l.16.06A.48.48,0,0,1,8.22,15.28Z"/><path class="cls-15" d="M33.5,20.36h2.07v-9.1H33.5v3.5H29.94v-3.5H27.88v9.1h2.06V16.69H33.5Z"/><path class="cls-15" d="M37.75,20.36h2.07V17.53h1.36l1.62,2.83h2.4L43.31,17.2A2.88,2.88,0,0,0,45,14.4c0-1.94-1.33-3.14-3.41-3.14H37.75Zm2-4.58V13h1.57c1,0,1.59.49,1.59,1.38s-.57,1.37-1.59,1.37Z"/><path class="cls-15" d="M51.91,20.36h2L56,14.47l2.06,5.89h2l2.94-9.1H60.86L60,14l-1,3L58,14l-1-2.77H55l-1,2.77-1,3-1-3-.87-2.77H49Z"/><path class="cls-15" d="M64.16,20.36h2V13.54h-2Zm-.29-9a1.28,1.28,0,1,0,1.28-1.24A1.19,1.19,0,0,0,63.87,11.33Z"/><path class="cls-15" d="M67.61,20.36h6V18.73H70.21l3.33-3.85V13.54H67.73v1.61H71L67.61,19Z"/><path class="cls-15" d="M77.37,20.49a3.32,3.32,0,0,0,2.43-.92l.22.79h1.47V16.25c0-1.8-1.22-2.89-3.26-2.89-1.74,0-2.89.83-3.13,2.31H77a1.2,1.2,0,0,1,1.25-.81A1.16,1.16,0,0,1,79.55,16v.31H77.08a2.07,2.07,0,0,0-2.32,2.08C74.76,19.68,75.76,20.49,77.37,20.49Zm-.66-2.2c0-.47.39-.76,1-.76h1.88a1.62,1.62,0,0,1-1.75,1.54C77.15,19.07,76.71,18.76,76.71,18.29Z"/><path class="cls-15" d="M83.33,20.36h2v-3c0-1.46.68-2,1.82-2h.75V13.54h-.74a2.26,2.26,0,0,0-2.08.91l-.26-.91H83.33Z"/><path class="cls-15" d="M92.29,20.54a3.39,3.39,0,0,0,2.45-1l.23.78h1.47V10.74h-2v3.33a3.54,3.54,0,0,0-2.18-.71,3.39,3.39,0,0,0-3.46,3.58A3.39,3.39,0,0,0,92.29,20.54Zm-1.52-3.6a1.88,1.88,0,1,1,3.76,0,1.88,1.88,0,1,1-3.76,0Z"/><path class="cls-15" d="M101,20.54c1.84,0,3-.81,3-2.1,0-1.12-.83-1.84-2.52-2.17-1.17-.24-1.54-.43-1.54-.85s.37-.64,1-.64,1.07.3,1.11.82h1.88c-.09-1.44-1.15-2.24-3-2.24S98,14.1,98,15.42c0,1.13.78,1.81,2.52,2.12,1,.18,1.49.45,1.49.88s-.36.65-1,.65-1.17-.35-1.18-.91H97.94C97.94,19.59,99.17,20.54,101,20.54Z"/></svg>